<svg width="165" height="210" viewBox="0 0 165 210" fill="none" xmlns="http://www.w3.org/2000/svg">
<g clip-path="url(#clip0_149:653)">
<path d="M34.6053 10.7619C34.6083 8.40651 35.5405 6.14852 37.1973 4.48352C38.8541 2.81853 41.1 1.88257 43.4423 1.88106H121.62C123.962 1.88257 126.208 2.81853 127.865 4.48352C129.522 6.14852 130.454 8.40651 130.457 10.7619V113.188C129.48 111.25 128.374 109.379 127.147 107.591V11.2578C127.139 9.72931 126.531 8.26588 125.454 7.18717C124.377 6.10847 122.919 5.50215 121.399 5.50067H101.101C100.511 5.50949 99.9482 5.74895 99.5313 6.16823C99.1143 6.58751 98.8762 7.15364 98.8674 7.74653V9.23428C98.8674 9.72462 98.6741 10.195 98.3299 10.5422C97.9856 10.8895 97.5185 11.0853 97.0309 11.0868H68.0203C67.5327 11.0853 67.0656 10.8895 66.7213 10.5422C66.377 10.195 66.1837 9.72462 66.1837 9.23428V7.74653C66.175 7.15364 65.9368 6.58751 65.5199 6.16823C65.1029 5.74895 64.54 5.50949 63.9504 5.50067H43.6464C42.1254 5.50669 40.6687 6.11813 39.5948 7.20127C38.5209 8.28441 37.9172 9.75111 37.9157 11.2806V115.799C36.6904 117.575 35.5845 119.432 34.6053 121.357V10.7619Z" fill="#F53D95"/>
<path d="M100.834 103.675C101.276 112.031 106.854 117.994 112.245 123.762C113.288 124.874 114.274 125.928 115.226 127.006C121.461 134.045 122.244 142.544 123.06 151.516C123.349 154.703 123.627 157.992 124.194 161.207C124.444 162.652 124.8 164.077 125.259 165.47V168.041C125.259 169.074 124.852 170.065 124.126 170.796C123.4 171.527 122.415 171.938 121.388 171.94H43.6463C43.0581 171.94 42.4776 171.805 41.9492 171.545C41.4207 171.285 40.9581 170.908 40.5968 170.441C40.6648 170.11 40.7271 169.797 40.7781 169.5C41.345 166.28 41.6341 162.985 41.9118 159.81C42.7281 150.815 43.4989 142.322 49.7398 135.299C50.6978 134.228 51.6784 133.173 52.7214 132.056C58.1176 126.293 63.6953 120.331 64.1374 111.974C64.2532 110.592 64.0587 109.201 63.5681 107.905C63.0775 106.608 62.3035 105.439 61.3032 104.484C60.4631 103.762 59.4679 103.246 58.3959 102.976C57.3238 102.706 56.2041 102.689 55.1247 102.928C49.2693 104.068 43.9864 108.058 39.8202 113.297V11.2635C39.8319 10.2462 40.2386 9.27382 40.9535 8.55389C41.6683 7.83396 42.6347 7.42354 43.6463 7.41022H63.9447C64.0399 7.41172 64.1307 7.45081 64.1975 7.51906C64.2644 7.58732 64.3018 7.67926 64.3018 7.77503V9.23427C64.3033 10.225 64.6957 11.1747 65.3929 11.8747C66.0901 12.5747 67.035 12.9679 68.0202 12.9679H97.0195C98.0032 12.9664 98.9461 12.5723 99.6412 11.8723C100.336 11.1723 100.727 10.2235 100.727 9.23427V7.74653C100.727 7.64978 100.765 7.55698 100.833 7.48857C100.901 7.42015 100.993 7.38172 101.089 7.38172H121.388C121.897 7.38097 122.402 7.48126 122.873 7.67687C123.344 7.87247 123.772 8.15955 124.133 8.52167C124.494 8.88379 124.78 9.31386 124.975 9.78727C125.17 10.2607 125.271 10.7681 125.271 11.2806V105.077C121.065 99.8214 115.759 95.7857 109.87 94.6342C108.791 94.3934 107.672 94.4087 106.6 94.6788C105.529 94.949 104.535 95.4665 103.697 96.1904C101.747 97.8947 100.676 100.694 100.834 103.675Z" fill="#9D78EB"/>
<path d="M43.4423 177.469C41.8011 177.471 40.1925 177.009 38.7999 176.135C39.3225 174.989 39.7546 173.804 40.0923 172.59C41.1007 173.403 42.3535 173.849 43.6464 173.855H121.399C122.694 173.852 123.951 173.41 124.965 172.6C125.979 171.79 126.692 170.66 126.988 169.392C127.657 170.596 128.487 171.703 129.454 172.681C128.71 174.125 127.586 175.335 126.204 176.18C124.823 177.026 123.237 177.474 121.62 177.475L43.4423 177.469Z" fill="#F53D95"/>
<path d="M37.9383 177.805C36.7552 179.986 34.9878 181.789 32.8368 183.01C32.7028 183.083 32.5529 183.122 32.4003 183.124C32.1908 183.125 31.9868 183.056 31.8211 182.927C31.6554 182.798 31.5377 182.616 31.4867 182.412C31.4357 182.208 31.4545 181.992 31.54 181.799C31.6255 181.607 31.7728 181.449 31.9582 181.351C32.1056 181.271 32.2473 181.174 32.389 181.089C36.7593 178.421 38.3861 172.538 38.9699 169.204C39.5368 166.063 39.8089 162.808 40.1036 159.662C40.9142 150.758 41.7474 141.558 48.4021 134.051C49.3714 132.956 50.4143 131.845 51.4176 130.768C56.5815 125.25 61.9154 119.544 62.3235 111.872C62.4199 110.772 62.2687 109.664 61.8811 108.631C61.4935 107.597 60.8794 106.665 60.0845 105.903C59.462 105.364 58.7219 104.98 57.9243 104.782C57.1266 104.584 56.2937 104.578 55.4932 104.763C44.7687 106.861 36.0507 119.401 32.9842 130.699C32.9288 130.897 32.8109 131.071 32.6483 131.196C32.4857 131.32 32.2872 131.388 32.0829 131.389C31.9986 131.388 31.9148 131.377 31.8335 131.355C31.5964 131.291 31.3942 131.135 31.271 130.921C31.1478 130.707 31.1136 130.454 31.176 130.215C31.6123 128.619 32.1365 127.049 32.7461 125.512V73.9312C29.005 76.2113 25.2355 78.5997 22.1633 81.7062C17.0051 86.9105 15.9508 93.4258 14.8398 100.323C14.6867 101.252 14.5337 102.193 14.375 103.139C12.6121 113.348 10.4071 124.167 7.44257 137.192C7.21017 138.212 6.97777 139.244 6.7397 140.276C3.58243 153.956 0.0113659 169.466 2.99292 183.443C4.34199 189.776 9.11474 204.784 24.2322 207.475C34.4919 209.299 46.1971 207.059 54.0421 201.775C59.1552 198.292 63.2618 193.511 65.9456 187.918C67.1626 185.214 67.9176 182.323 68.1789 179.367H43.4423C41.5003 179.361 39.5969 178.821 37.9383 177.805Z" fill="#FED531"/>
<path d="M158.266 140.276C158.022 139.238 157.79 138.212 157.557 137.186C154.587 124.178 152.388 113.354 150.625 103.133C150.466 102.187 150.313 101.252 150.16 100.317C149.027 93.4258 148.001 86.9105 142.848 81.7063C139.787 78.6168 136.046 76.2227 132.328 73.9711V117.372C132.913 118.863 133.416 120.386 133.835 121.932C133.896 122.171 133.861 122.424 133.738 122.638C133.615 122.851 133.414 123.007 133.178 123.072C133.096 123.093 133.012 123.102 132.928 123.101C132.724 123.1 132.526 123.032 132.363 122.908C132.2 122.783 132.083 122.609 132.027 122.411C128.961 111.113 120.237 98.5788 109.512 96.4811C108.713 96.2943 107.881 96.3002 107.084 96.4984C106.287 96.6965 105.548 97.0812 104.927 97.6211C104.135 98.3843 103.524 99.3172 103.139 100.35C102.754 101.383 102.606 102.49 102.705 103.589C103.107 111.256 108.447 116.962 113.611 122.48C114.614 123.557 115.651 124.668 116.626 125.763C123.281 133.27 124.114 142.476 124.919 151.374C125.208 154.52 125.486 157.775 126.053 160.922C126.62 164.262 128.263 170.133 132.628 172.801C132.775 172.886 132.911 172.983 133.064 173.063C133.25 173.161 133.397 173.319 133.483 173.511C133.568 173.704 133.587 173.92 133.536 174.124C133.485 174.328 133.367 174.51 133.202 174.639C133.036 174.768 132.832 174.837 132.622 174.836C132.468 174.836 132.315 174.797 132.18 174.722C131.744 174.481 131.324 174.213 130.922 173.918C129.988 175.57 128.637 176.945 127.004 177.902C125.371 178.859 123.516 179.365 121.626 179.367H96.7983C97.0597 182.323 97.8147 185.214 99.0317 187.918C101.715 193.511 105.822 198.292 110.935 201.775C118.786 207.076 130.491 209.322 140.751 207.475C155.868 204.784 160.641 189.776 161.99 183.443C164.989 169.466 161.418 153.956 158.266 140.276Z" fill="#FED531"/>
<path d="M160.085 139.848C159.847 138.814 159.611 137.788 159.377 136.77C156.418 123.791 154.224 113 152.467 102.808C152.308 101.873 152.155 100.944 152.008 100.015C150.846 92.8159 149.74 86.0156 144.174 80.3781C140.688 76.8554 136.459 74.2618 132.327 71.7766V10.7847C132.329 9.36947 132.053 7.96779 131.516 6.65977C130.978 5.35174 130.19 4.16301 129.195 3.16148C128.201 2.15995 127.02 1.36525 125.72 0.822796C124.42 0.280338 123.027 0.000748019 121.62 0L43.4418 0C40.6035 0.00150861 37.8817 1.13565 35.8741 3.15342C33.8666 5.17118 32.7373 7.90762 32.7343 10.7619V71.7538C28.5851 74.2447 24.3282 76.8497 20.8308 80.3895C15.2475 86.0156 14.1705 92.8159 12.9915 100.015C12.8384 100.939 12.691 101.873 12.5266 102.808C10.7751 112.989 8.5588 123.779 5.6226 136.77C5.38831 137.785 5.15212 138.809 4.91405 139.842C1.7001 153.717 -1.90497 169.449 1.16161 183.831C4.18284 198.001 12.4983 207.292 23.903 209.322C26.4649 209.776 29.0616 210.003 31.663 210C40.1655 210 48.668 207.634 55.0846 203.314C60.4865 199.648 64.8248 194.606 67.657 188.704C68.9895 185.75 69.81 182.588 70.0831 179.356H94.9161C95.1899 182.587 96.0084 185.749 97.3365 188.704C100.171 194.605 104.509 199.645 109.909 203.314C116.308 207.634 124.817 210 133.336 210C135.936 210.003 138.531 209.776 141.09 209.322C152.529 207.292 160.816 198.001 163.838 183.831C166.904 169.449 163.282 153.722 160.085 139.848ZM34.6049 10.7619C34.6079 8.40651 35.5401 6.14852 37.1968 4.48352C38.8536 2.81853 41.0996 1.88256 43.4418 1.88106H121.62C123.962 1.88256 126.208 2.81853 127.865 4.48352C129.521 6.14852 130.454 8.40651 130.457 10.7619V113.188C129.48 111.25 128.374 109.38 127.146 107.591V11.2578C127.139 9.72931 126.53 8.26588 125.453 7.18717C124.376 6.10846 122.919 5.50215 121.399 5.50067H101.1C100.511 5.50949 99.9477 5.74895 99.5308 6.16823C99.1138 6.58751 98.8757 7.15364 98.867 7.74653V9.23428C98.867 9.72462 98.6736 10.195 98.3294 10.5422C97.9851 10.8895 97.518 11.0853 97.0304 11.0868H68.0198C67.5322 11.0853 67.0651 10.8895 66.7208 10.5422C66.3766 10.195 66.1833 9.72462 66.1833 9.23428V7.74653C66.1745 7.15364 65.9364 6.58751 65.5194 6.16823C65.1025 5.74895 64.5395 5.50949 63.9499 5.50067H43.6459C42.1249 5.50669 40.6682 6.11813 39.5943 7.20127C38.5204 8.28441 37.9167 9.75111 37.9152 11.2806V115.799C36.69 117.575 35.5841 119.432 34.6049 121.357V10.7619ZM100.834 103.675C101.276 112.031 106.854 117.994 112.244 123.762C113.287 124.874 114.274 125.928 115.226 127.006C121.461 134.045 122.243 142.544 123.059 151.516C123.349 154.703 123.626 157.992 124.193 161.207C124.444 162.652 124.8 164.077 125.259 165.47V168.041C125.259 169.074 124.851 170.065 124.125 170.796C123.399 171.527 122.415 171.938 121.387 171.94H43.6459C43.0577 171.94 42.4772 171.805 41.9487 171.545C41.4203 171.285 40.9577 170.908 40.5963 170.441C40.6643 170.11 40.7267 169.797 40.7777 169.5C41.3445 166.28 41.6336 162.985 41.9114 159.81C42.7276 150.815 43.4985 142.322 49.7394 135.299C50.6973 134.228 51.6779 133.173 52.7209 132.056C58.1172 126.293 63.6948 120.331 64.137 111.974C64.2528 110.592 64.0582 109.201 63.5677 107.905C63.0771 106.608 62.3031 105.439 61.3028 104.484C60.4627 103.762 59.4675 103.246 58.3954 102.976C57.3234 102.706 56.2037 102.689 55.1243 102.928C49.2689 104.068 43.986 108.058 39.8198 113.297V11.2635C39.8315 10.2462 40.2382 9.27383 40.9531 8.5539C41.6679 7.83397 42.6343 7.42354 43.6459 7.41022H63.9442C64.0395 7.41172 64.1303 7.45081 64.1971 7.51907C64.2639 7.58732 64.3014 7.67926 64.3014 7.77503V9.23428C64.3029 10.225 64.6953 11.1747 65.3925 11.8747C66.0896 12.5747 67.0346 12.9679 68.0198 12.9679H97.0191C98.0028 12.9664 98.9457 12.5724 99.6407 11.8723C100.336 11.1723 100.726 10.2235 100.726 9.23428V7.74653C100.726 7.64978 100.764 7.55699 100.832 7.48857C100.9 7.42016 100.993 7.38172 101.089 7.38172H121.387C121.897 7.38097 122.402 7.48127 122.873 7.67687C123.344 7.87248 123.772 8.15955 124.133 8.52167C124.493 8.88379 124.779 9.31386 124.974 9.78727C125.17 10.2607 125.27 10.7681 125.27 11.2806V105.077C121.064 99.8214 115.759 95.7857 109.869 94.6343C108.791 94.3934 107.671 94.4087 106.6 94.6788C105.528 94.949 104.534 95.4665 103.696 96.1904C101.746 97.8947 100.675 100.694 100.834 103.675ZM65.9678 187.895C63.2841 193.488 59.1775 198.269 54.0643 201.752C46.2193 207.053 34.5142 209.293 24.2545 207.452C9.13697 204.762 4.36422 189.753 3.01516 183.42C0.0336046 169.443 3.58199 153.933 6.76194 140.253C7.00001 139.221 7.23241 138.189 7.46481 137.169C10.435 124.144 12.6343 113.325 14.3972 103.116C14.5559 102.17 14.709 101.229 14.862 100.3C15.9957 93.4087 17.0216 86.8934 22.1742 81.6892C25.2464 78.5826 29.0159 76.1771 32.757 73.9141V125.495C32.143 127.037 31.615 128.613 31.1755 130.215C31.1132 130.454 31.1473 130.707 31.2705 130.921C31.3937 131.135 31.5959 131.291 31.833 131.355C31.9144 131.377 31.9982 131.388 32.0825 131.389C32.2868 131.388 32.4852 131.32 32.6478 131.196C32.8104 131.071 32.9283 130.897 32.9837 130.699C36.0503 119.401 44.7682 106.861 55.4927 104.763C56.2933 104.578 57.1262 104.584 57.9238 104.782C58.7215 104.98 59.4616 105.364 60.0841 105.903C60.8759 106.667 61.4868 107.6 61.8714 108.633C62.2561 109.666 62.4046 110.773 62.3061 111.872C61.898 119.544 56.5641 125.25 51.4002 130.768C50.3969 131.845 49.3539 132.956 48.3846 134.051C41.7187 141.558 40.8854 150.758 40.0748 159.662C39.7914 162.808 39.508 166.063 38.9412 169.204C38.3743 172.544 36.7305 178.421 32.3602 181.089C32.2185 181.174 32.0768 181.271 31.9294 181.351C31.8157 181.406 31.7141 181.483 31.6309 181.579C31.5477 181.674 31.4845 181.785 31.4452 181.906C31.4059 182.026 31.3912 182.154 31.4021 182.28C31.4129 182.406 31.4491 182.529 31.5084 182.641C31.5677 182.753 31.6489 182.852 31.7471 182.931C31.8454 183.011 31.9586 183.07 32.08 183.104C32.2014 183.139 32.3285 183.148 32.4536 183.132C32.5787 183.116 32.6993 183.074 32.808 183.01C34.959 181.789 36.7264 179.986 37.9095 177.805C39.5693 178.817 41.4726 179.353 43.4135 179.356H68.1728C67.9193 182.306 67.1739 185.193 65.9678 187.895ZM43.4418 177.469C41.8007 177.471 40.1921 177.009 38.7994 176.135C39.322 174.989 39.7541 173.804 40.0918 172.59C41.1002 173.403 42.353 173.85 43.6459 173.855H121.399C122.694 173.852 123.95 173.41 124.964 172.6C125.979 171.79 126.692 170.66 126.988 169.392C127.657 170.596 128.486 171.703 129.453 172.681C128.709 174.125 127.585 175.335 126.204 176.181C124.822 177.026 123.237 177.474 121.62 177.475L43.4418 177.469ZM162.007 183.437C160.658 189.77 155.885 204.779 140.767 207.469C130.508 209.299 118.803 207.053 110.952 201.769C105.838 198.286 101.731 193.506 99.0483 187.912C97.8313 185.208 97.0763 182.318 96.815 179.362H121.637C123.527 179.359 125.382 178.854 127.015 177.896C128.648 176.939 129.999 175.565 130.933 173.912C131.335 174.207 131.755 174.476 132.191 174.716C132.326 174.791 132.479 174.831 132.633 174.83C132.843 174.831 133.047 174.762 133.213 174.633C133.378 174.504 133.496 174.323 133.547 174.118C133.598 173.914 133.579 173.698 133.494 173.506C133.408 173.313 133.261 173.155 133.075 173.057C132.922 172.977 132.786 172.881 132.639 172.795C128.274 170.127 126.648 164.245 126.064 160.916C125.497 157.769 125.225 154.515 124.93 151.368C124.125 142.47 123.292 133.264 116.637 125.757C115.662 124.663 114.625 123.551 113.622 122.474C108.458 116.956 103.118 111.25 102.716 103.584C102.617 102.485 102.765 101.378 103.15 100.345C103.535 99.3115 104.146 98.3787 104.938 97.6154C105.559 97.0755 106.298 96.6908 107.095 96.4927C107.892 96.2945 108.724 96.2886 109.523 96.4754C120.248 98.5731 128.972 111.108 132.038 122.405C132.094 122.603 132.211 122.778 132.374 122.902C132.537 123.026 132.735 123.094 132.939 123.095C133.023 123.097 133.107 123.087 133.189 123.067C133.425 123.001 133.626 122.845 133.749 122.632C133.872 122.419 133.907 122.165 133.846 121.927C133.427 120.38 132.924 118.858 132.339 117.367V73.9711C136.057 76.2227 139.798 78.6168 142.859 81.7063C148.012 86.9105 149.06 93.4258 150.171 100.317C150.324 101.252 150.477 102.187 150.636 103.133C152.399 113.354 154.604 124.178 157.568 137.186C157.801 138.212 158.033 139.238 158.277 140.276C161.417 153.956 164.988 169.466 162.007 183.437Z" fill="#0C0C0C"/>
<path d="M91.5665 8.32795C91.9378 8.32908 92.3011 8.21938 92.6104 8.01275C92.9197 7.80612 93.1611 7.51184 93.3039 7.16718C93.4468 6.82252 93.4848 6.44298 93.413 6.07661C93.3413 5.71024 93.163 5.37352 92.9009 5.10908C92.6387 4.84464 92.3044 4.66438 91.9403 4.59112C91.5762 4.51785 91.1986 4.55488 90.8555 4.69752C90.5123 4.84015 90.2189 5.08198 90.0125 5.39238C89.8061 5.70277 89.6959 6.06778 89.6959 6.44119C89.6959 6.94061 89.8928 7.41965 90.2434 7.77332C90.5941 8.12699 91.0699 8.32644 91.5665 8.32795Z" fill="#F1F1F2"/>
<path d="M72.4869 7.31332H86.9865C87.2037 7.29562 87.4063 7.19636 87.554 7.0353C87.7017 6.87423 87.7837 6.66315 87.7837 6.44404C87.7837 6.22493 87.7017 6.01386 87.554 5.85279C87.4063 5.69172 87.2037 5.59246 86.9865 5.57476H72.4869C72.3675 5.56503 72.2474 5.58028 72.1341 5.61955C72.0209 5.65882 71.9169 5.72126 71.8289 5.80293C71.7408 5.8846 71.6705 5.98373 71.6224 6.09407C71.5744 6.20441 71.5496 6.32358 71.5496 6.44404C71.5496 6.56451 71.5744 6.68367 71.6224 6.79401C71.6705 6.90435 71.7408 7.00348 71.8289 7.08515C71.9169 7.16682 72.0209 7.22926 72.1341 7.26853C72.2474 7.3078 72.3675 7.32305 72.4869 7.31332Z" fill="#F1F1F2"/>
<path d="M78.0314 63.0186C77.9849 63.1956 77.9336 63.4005 77.8778 63.6333C77.8312 63.8568 77.8079 64.071 77.8079 64.2759C77.8079 64.4622 77.8358 64.6205 77.8917 64.7509C77.9476 64.8813 78.0687 64.9465 78.2549 64.9465C78.5064 64.9465 78.8044 64.858 79.149 64.681C79.5029 64.4948 79.8801 64.2526 80.2806 63.9546C80.681 63.6473 81.0955 63.298 81.5239 62.9069C81.9523 62.5064 82.376 62.0966 82.7951 61.6775C83.2142 61.2491 83.6147 60.8207 83.9965 60.3923C84.3783 59.9639 84.7183 59.5634 85.0163 59.1909L85.5332 61.0489C84.9185 61.8685 84.2852 62.6554 83.6333 63.4098C82.9814 64.1641 82.3155 64.83 81.6356 65.4075C80.9651 65.9849 80.2899 66.4459 79.61 66.7905C78.9301 67.135 78.2549 67.3073 77.5844 67.3073C77.1932 67.3073 76.858 67.2421 76.5786 67.1118C76.3085 66.9907 76.0896 66.8231 75.922 66.6088C75.7544 66.3853 75.6286 66.1339 75.5448 65.8545C75.4703 65.5658 75.4331 65.2631 75.4331 64.9465C75.4331 64.8254 75.4377 64.6531 75.447 64.4296C75.4563 64.2061 75.4657 63.9779 75.475 63.7451C75.4936 63.5029 75.5076 63.2841 75.5169 63.0885C75.5355 62.8929 75.5448 62.7672 75.5448 62.7113L70.5856 63.0186L68.2806 63.0466C67.8894 63.8941 67.5029 64.6438 67.1211 65.2957C66.9534 65.5751 66.7765 65.8498 66.5902 66.1199C66.404 66.39 66.2177 66.6321 66.0314 66.8463C65.8452 67.0512 65.6589 67.2142 65.4726 67.3353C65.2864 67.4657 65.1048 67.5308 64.9278 67.5308C64.6484 67.5308 64.4203 67.4889 64.2433 67.4051C64.0664 67.3213 63.9267 67.2142 63.8242 67.0838C63.7218 66.9627 63.6473 66.8231 63.6007 66.6647C63.5634 66.5064 63.5448 66.3574 63.5448 66.2177C63.5448 65.9756 63.5774 65.7381 63.6426 65.5052C63.7078 65.2631 63.8009 65.0349 63.922 64.8207L65.766 61.7194C65.8498 61.5891 66.0175 61.2771 66.2689 60.7835C66.5297 60.2899 66.8603 59.6845 67.2608 58.9674C67.6705 58.241 68.1409 57.4401 68.6717 56.5646C69.2026 55.6892 69.7753 54.8044 70.39 53.9104C71.014 53.007 71.6705 52.1316 72.3597 51.2841C73.0582 50.4366 73.7707 49.6869 74.4971 49.0349C75.2328 48.3737 75.9732 47.8475 76.7183 47.4564C77.4633 47.0559 78.2037 46.8557 78.9395 46.8557C79.6286 46.8557 80.3038 47.0699 80.9651 47.4983C81.6356 47.9267 82.2736 48.6298 82.8789 49.6077C82.9441 49.7381 82.9767 49.8498 82.9767 49.943C82.9767 50.064 82.9441 50.1851 82.8789 50.3062C82.8137 50.4272 82.7253 50.5343 82.6135 50.6275C82.5111 50.7206 82.3946 50.7951 82.2643 50.851C82.1339 50.9069 81.9988 50.9348 81.8591 50.9348C81.6915 50.9348 81.4959 50.8976 81.2724 50.8231C81.0582 50.7486 80.8533 50.5902 80.6577 50.3481C80.369 50.0128 80.0663 49.7707 79.7497 49.6217C79.4424 49.4633 79.135 49.3842 78.8277 49.3842C78.39 49.3842 77.943 49.5099 77.4866 49.7614C77.0303 50.0035 76.5693 50.3388 76.1036 50.7672C75.6473 51.1863 75.1909 51.6752 74.7346 52.234C74.2782 52.7835 73.8359 53.3655 73.4074 53.9802C72.979 54.5949 72.5646 55.2235 72.1641 55.8661C71.7637 56.5087 71.3865 57.1234 71.0326 57.7101C70.6787 58.2969 70.3527 58.837 70.0547 59.3306C69.766 59.8242 69.5099 60.2387 69.2864 60.5739H71.8428L76.1595 60.2526C76.2433 60.0664 76.3551 59.8149 76.4948 59.4983C76.6345 59.1723 76.7881 58.8091 76.9558 58.4086C77.1327 58.0082 77.3236 57.5751 77.5285 57.1094C77.7334 56.6438 77.9383 56.1781 78.1432 55.7125C78.3574 55.2375 78.5669 54.7718 78.7718 54.3155C78.9767 53.8498 79.1676 53.4214 79.3446 53.0303C79.4657 52.6764 79.6426 52.4249 79.8754 52.2759C80.1176 52.1269 80.3737 52.0524 80.6438 52.0524C80.7835 52.0524 80.9232 52.0757 81.0629 52.1222C81.2026 52.1595 81.3283 52.2247 81.44 52.3178C81.5611 52.4016 81.6589 52.5134 81.7334 52.6531C81.8079 52.7835 81.8498 52.9418 81.8591 53.1281C81.8591 53.305 81.78 53.6077 81.6216 54.0361C81.4726 54.4645 81.2771 54.9674 81.0349 55.5448C80.8021 56.1222 80.5367 56.7509 80.2386 57.4307C79.9499 58.1013 79.6612 58.7765 79.3725 59.4563C79.0931 60.1269 78.8324 60.7742 78.5902 61.3981C78.3481 62.0128 78.1618 62.553 78.0314 63.0186ZM87.8382 58.8556C88.2014 58.6321 88.5739 58.4272 88.9558 58.241C89.3469 58.0547 89.7241 57.8964 90.0873 57.766C90.4505 57.6263 90.7951 57.5192 91.1211 57.4447C91.4563 57.3609 91.7544 57.319 92.0151 57.319C92.4342 57.319 92.7555 57.4214 92.979 57.6263C93.2119 57.8219 93.3283 58.1572 93.3283 58.6321C93.3283 58.7346 93.3236 58.8463 93.3143 58.9674C93.305 59.0792 93.2864 59.2002 93.2584 59.3306C93.2119 59.5728 93.0722 59.8568 92.8393 60.1828C92.6065 60.5087 92.3318 60.8487 92.0151 61.2026C91.7078 61.5565 91.3725 61.915 91.0093 62.2782C90.6554 62.6321 90.3248 62.9627 90.0175 63.2701C89.7194 63.5681 89.468 63.8289 89.2631 64.0524C89.0675 64.2759 88.9697 64.4296 88.9697 64.5134C88.9697 64.5879 88.9744 64.6391 88.9837 64.6671C88.993 64.695 89.0349 64.709 89.1094 64.709C89.6123 64.4948 90.1711 64.2387 90.7858 63.9406C91.4098 63.6333 92.0291 63.3213 92.6438 63.0047C93.2584 62.688 93.8405 62.3807 94.39 62.0827C94.9395 61.7753 95.4051 61.5099 95.7869 61.2864C95.8708 61.2398 95.9546 61.2026 96.0384 61.1746C96.1315 61.1374 96.2154 61.1187 96.2899 61.1187C96.4575 61.1187 96.5972 61.1746 96.709 61.2864C96.8207 61.3981 96.8766 61.5471 96.8766 61.7334C96.8766 61.9476 96.7835 62.1944 96.5972 62.4738C96.4202 62.7439 96.1176 63.0279 95.6892 63.326C95.3632 63.5309 94.9953 63.7637 94.5856 64.0244C94.1851 64.2759 93.7613 64.5413 93.3143 64.8207C92.8766 65.0908 92.4296 65.3562 91.9732 65.617C91.5262 65.8778 91.0931 66.1106 90.674 66.3155C90.2549 66.5204 89.8591 66.688 89.4866 66.8184C89.1234 66.9395 88.8067 67 88.5367 67C87.8941 67 87.4098 66.8463 87.0838 66.539C86.7672 66.2317 86.6088 65.8359 86.6088 65.3516C86.6088 65.2771 86.6135 65.2212 86.6228 65.1839C86.688 64.7742 86.8091 64.3783 86.986 63.9965C87.163 63.6147 87.3632 63.2515 87.5867 62.9069C87.8102 62.5623 88.0431 62.2363 88.2852 61.929C88.5273 61.6123 88.7462 61.319 88.9418 61.0489C89.1467 60.7695 89.3143 60.5134 89.4447 60.2806C89.5751 60.0477 89.6403 59.8335 89.6403 59.638C89.6403 59.5914 89.631 59.5448 89.6123 59.4983C89.5937 59.4517 89.5518 59.4284 89.4866 59.4284C89.3748 59.4284 89.1886 59.4703 88.9278 59.5541C88.6764 59.638 88.4063 59.7497 88.1176 59.8894C87.8289 60.0291 87.5541 60.1921 87.2934 60.3783C87.0326 60.5553 86.8463 60.7462 86.7346 60.9511C86.5856 61.2119 86.4133 61.5425 86.2177 61.943C86.0221 62.3434 85.8172 62.7625 85.603 63.2002C85.3981 63.638 85.1979 64.071 85.0023 64.4994C84.8067 64.9278 84.6391 65.2957 84.4994 65.603C84.3877 65.8731 84.2386 66.1153 84.0524 66.3295C83.8754 66.5437 83.6799 66.7253 83.4656 66.8743C83.2514 67.0233 83.0326 67.1397 82.8091 67.2235C82.5856 67.3073 82.3807 67.3492 82.1944 67.3492C81.9802 67.3492 81.8079 67.2934 81.6775 67.1816C81.5565 67.0698 81.4959 66.8882 81.4959 66.6368C81.4959 66.5343 81.5099 66.4086 81.5378 66.2596C81.5751 66.1013 81.6449 65.929 81.7474 65.7427C81.915 65.4261 82.0826 65.0815 82.2503 64.709C82.4272 64.3364 82.6275 63.9127 82.851 63.4377C83.0745 62.9534 83.3306 62.404 83.6193 61.7893C83.9173 61.1653 84.2666 60.4482 84.667 59.638C84.5367 59.5262 84.4249 59.3912 84.3318 59.2328C84.248 59.0652 84.206 58.8603 84.206 58.6182C84.206 58.3946 84.2526 58.2037 84.3457 58.0454C84.4389 57.8778 84.5646 57.7427 84.7229 57.6403C84.8812 57.5378 85.0629 57.4633 85.2677 57.4168C85.4819 57.3609 85.7055 57.3329 85.9383 57.3329C86.1804 57.3329 86.4226 57.3562 86.6647 57.4028C86.9069 57.4401 87.1211 57.5006 87.3073 57.5844C87.5029 57.6682 87.6612 57.7707 87.7823 57.8917C87.9034 58.0128 87.9639 58.1525 87.9639 58.3108C87.9639 58.3388 87.9546 58.376 87.936 58.4226C87.9173 58.4692 87.8941 58.5204 87.8661 58.5763C87.8475 58.6321 87.8289 58.6834 87.8102 58.7299C87.7916 58.7765 87.7823 58.8137 87.7823 58.8417C87.7823 58.8603 87.787 58.8696 87.7963 58.8696H87.8102L87.8382 58.8556ZM98.9162 59.2328C98.5716 59.9034 98.2456 60.56 97.9383 61.2026C97.631 61.8359 97.3422 62.4226 97.0722 62.9627C96.9604 63.1863 96.8486 63.447 96.7369 63.7451C96.6344 64.0338 96.5832 64.2899 96.5832 64.5134C96.5832 64.6438 96.6112 64.7462 96.667 64.8207C96.7322 64.8952 96.8347 64.9325 96.9744 64.9325C97.17 64.9325 97.4167 64.8766 97.7148 64.7648C98.0128 64.6438 98.3341 64.4901 98.6787 64.3038C99.0233 64.1083 99.3865 63.8894 99.7683 63.6473C100.15 63.3958 100.523 63.1397 100.886 62.8789C101.258 62.6088 101.612 62.3434 101.948 62.0827C102.283 61.8126 102.581 61.5658 102.842 61.3423C102.991 61.2398 103.13 61.1886 103.261 61.1886C103.419 61.1886 103.549 61.2584 103.652 61.3981C103.754 61.5378 103.806 61.7148 103.806 61.929C103.806 62.1432 103.754 62.3621 103.652 62.5856C103.549 62.8091 103.363 63.0279 103.093 63.2421C102.488 63.7916 101.873 64.3132 101.249 64.8068C100.634 65.3003 100.02 65.7381 99.4051 66.1199C98.7998 66.4924 98.1991 66.7905 97.603 67.014C97.007 67.2375 96.4296 67.3492 95.8708 67.3492C95.4982 67.3492 95.1863 67.298 94.9348 67.1956C94.6833 67.1024 94.4785 66.9721 94.3201 66.8044C94.1711 66.6275 94.064 66.4272 93.9988 66.2037C93.9336 65.9709 93.901 65.7241 93.901 65.4633C93.901 64.9977 93.9802 64.5134 94.1385 64.0105C94.2968 63.5076 94.4738 63.0559 94.6694 62.6554C94.9488 62.078 95.2235 61.5052 95.4936 60.9371C95.773 60.369 96.0431 59.8242 96.3038 59.3027H95.7031C95.1816 59.3027 94.823 59.2189 94.6275 59.0512C94.4319 58.8836 94.3341 58.6927 94.3341 58.4785C94.3341 58.3853 94.362 58.2736 94.4179 58.1432C94.4831 58.0035 94.5716 57.8778 94.6833 57.766C94.8044 57.6449 94.9488 57.5425 95.1164 57.4587C95.284 57.3749 95.475 57.3329 95.6892 57.3329H97.1979L100.146 51.4796C100.332 51.1257 100.56 50.8743 100.83 50.7253C101.109 50.5669 101.398 50.4878 101.696 50.4878C101.976 50.4878 102.232 50.5623 102.464 50.7113C102.697 50.8603 102.814 51.1071 102.814 51.4517C102.814 51.6286 102.772 51.8103 102.688 51.9965C102.613 52.1735 102.511 52.383 102.381 52.6252C102.297 52.7835 102.194 52.9744 102.073 53.1979C101.952 53.4121 101.822 53.6449 101.682 53.8964C101.552 54.1385 101.412 54.3946 101.263 54.6647C101.123 54.9348 100.984 55.1956 100.844 55.447C100.527 56.0431 100.192 56.6717 99.8382 57.3329H104.392C104.616 57.3329 104.821 57.3469 105.007 57.3749C105.193 57.3935 105.352 57.4401 105.482 57.5146C105.622 57.5797 105.729 57.6729 105.803 57.7939C105.878 57.915 105.915 58.078 105.915 58.2829C105.915 58.3853 105.896 58.4878 105.859 58.5902C105.831 58.6927 105.771 58.7858 105.678 58.8696C105.594 58.9534 105.473 59.0233 105.314 59.0792C105.165 59.135 104.97 59.1723 104.728 59.1909L98.9162 59.2328Z" fill="white"/>
<path d="M45 77.3692V77.6054C45.3544 77.6054 45.7815 81.8581 45.7815 85.3384C45.7815 87.7374 45.5816 89.7728 45 89.7728V90H46.7629V89.7728C45.8178 89.7728 46.2176 80.2588 46.0177 78.814C48.0441 82.5487 48.7438 86.2744 50.7793 90H53.0874V89.7728C52.733 89.7728 52.2968 85.5111 52.2968 82.0308C52.2968 79.6318 52.5058 77.6054 53.0874 77.6054V77.3692H51.3245V77.6054C52.2877 77.6145 51.8879 87.1649 52.0696 88.5552C50.0432 84.8295 49.3526 81.1039 47.299 77.3692H45ZM58.485 77.3964V77.6145C59.1847 77.6145 59.5391 80.4678 59.5391 83.3029C59.5391 84.3207 59.4936 85.3293 59.4028 86.2017V86.238C59.3846 86.447 59.3573 86.656 59.321 86.8468C59.0575 88.7097 57.649 89.5911 56.395 89.5911C55.2955 89.5911 54.3141 88.9187 54.3141 87.6374C54.3141 87.283 54.3868 86.8832 54.5503 86.447C55.241 84.6387 56.9402 83.312 56.9675 81.3038V81.222C56.9675 79.3683 56.0497 77.4964 54.2596 77.3964L54.2414 77.4601C55.1137 78.0325 55.4136 78.9594 55.4136 80.0135C55.4136 82.1307 54.1869 84.7296 53.8688 85.8927C53.7234 86.4016 53.6598 86.8559 53.6598 87.2558C53.6598 89.1731 55.1228 90 56.7494 90C57.8671 90 59.0484 89.6093 59.8844 88.9277C60.2388 89.5366 60.8294 89.9909 61.8471 89.9909V89.7728C61.3837 89.7728 61.102 87.6828 60.9839 86.2017C60.9384 85.0931 60.784 83.1394 60.784 81.3765C60.784 79.3774 60.9839 77.6145 61.7654 77.6145V77.3964H58.485ZM71.552 77.3964C69.9527 77.3964 68.8895 78.3051 68.317 79.5319C68.0353 80.1225 67.9172 80.7768 67.9172 81.4492C67.9172 82.8213 68.417 84.2934 69.1894 85.5656C69.3984 85.9109 69.4892 86.2925 69.4892 86.6469C69.4892 87.4102 69.0894 88.0736 68.6351 88.0736C68.2716 88.0736 67.8718 87.6556 67.6264 86.5379C66.9086 83.3666 66.1725 80.6132 65.3093 77.4055H63.0194V77.6327C63.2829 77.6327 63.6463 81.2766 63.6463 84.5842C63.6463 87.1013 63.4373 89.4184 62.8104 89.7728V89.9909H64.5732V89.7728C63.9644 89.7728 63.8735 89.2458 63.8735 88.7824C63.8735 88.6642 63.8735 88.5461 63.8826 88.4461C63.9553 87.0558 63.9826 85.6474 63.9826 84.2025C63.9826 82.3943 63.9371 80.5587 63.8372 78.6777C64.2007 80.0226 65.2275 84.6387 66.1543 87.4829C66.5814 88.7824 67.3447 89.3003 68.0808 89.3003C69.0712 89.3003 69.9981 88.3734 69.9981 87.1194C69.9981 86.7832 69.9345 86.4198 69.78 86.0472C69.6801 85.82 69.5619 85.6201 69.4347 85.4111C68.7168 84.2389 68.2534 82.8395 68.2534 81.5492C68.2534 80.8495 68.3897 80.1861 68.6896 79.6046C69.1439 78.705 69.6437 78.1961 70.0708 78.1961C70.5161 78.1961 70.8886 78.7504 71.0613 79.968C71.1885 80.8131 71.243 81.8672 71.243 82.9849C71.243 86.1744 70.7796 89.7728 70.1889 89.7728V89.9909H73.4693V89.7728C72.7242 89.7728 72.3425 86.7287 72.3425 83.6937C72.3425 80.6496 72.7242 77.6145 73.4693 77.6145V77.3964H71.552ZM74.4598 77.3964V77.6145C75.2958 77.6145 75.0141 81.64 75.9409 82.6759C76.5316 83.3484 77.8492 83.4392 78.9305 83.4392C79.3122 83.4392 79.6757 83.4302 79.9574 83.4302C80.3299 83.4302 80.5389 83.6301 80.5389 83.8209C80.5389 83.9935 80.3572 84.1662 79.9392 84.1662H79.8756C79.3576 84.148 78.7488 84.1026 78.1582 84.1026C76.8224 84.1026 75.5502 84.3661 75.4957 85.92C75.423 88.0554 75.114 89.7728 74.4598 89.7728V90H81.3749L82.0019 88.4916H81.3295C80.9751 89.2821 80.1028 89.7001 79.2213 89.7001C78.2127 89.7001 77.204 89.1549 76.9678 88.0191C76.8315 87.3921 76.7679 86.8741 76.7679 86.4379C76.7679 84.8659 77.6765 84.4206 79.8756 84.4025H80.1573C80.6843 84.4025 80.9478 84.1117 80.9478 83.8118C80.9478 83.4847 80.648 83.1576 80.0301 83.1576H79.6575C77.3858 83.1576 76.5407 82.7396 76.5407 80.9494C76.5407 80.7404 76.5589 80.5133 76.577 80.2679C76.7315 78.496 78.0218 77.6691 79.2486 77.6691C80.13 77.6691 80.9751 78.0961 81.3295 78.9049H82.0019L81.3749 77.3964H74.4598ZM92.1611 77.3964C92.1247 77.3964 92.0975 77.3964 92.0702 77.3964C90.5345 77.4691 90.6072 79.5682 91.9157 79.4955C91.9157 78.1143 93.8785 77.6691 93.6423 78.7867C93.5423 79.332 92.8244 79.9226 90.7799 79.9226V80.1589C92.0975 80.1589 92.0975 85.8473 90.7799 85.8473V86.0654H94.0603V85.8473C92.9062 85.8473 92.7699 81.531 93.6241 80.4133C94.9962 78.6141 93.4696 77.3964 92.1611 77.3964ZM82.3109 77.3964V77.6327C83.3104 77.6327 84.0646 89.7728 82.3109 89.7728V90H85.5912V89.7728C84.9643 89.7728 83.2559 77.6691 85.7548 77.6691C88.5081 77.6691 88.4536 83.6301 86.2637 84.0935C85.9365 84.1662 85.6912 84.0753 85.3641 84.248C84.8279 84.5569 85.0279 85.2203 85.7821 85.3384C87.0997 85.5383 87.5086 86.3016 87.8266 87.1467C89.5168 91.7538 94.5873 90.2817 94.451 86.5742C92.5791 88.7642 90.9798 88.6006 89.0806 86.5833C88.3446 85.8018 87.554 85.0113 86.1819 85.0385C84.9552 85.0567 85.1096 84.2843 85.9911 84.3752C90.4891 84.8205 91.1434 77.3964 86.3273 77.3964H82.3109ZM99.9304 77.3964C97.377 77.3964 94.8326 79.4955 94.8326 83.6937C94.8326 87.8918 97.377 89.9909 99.9304 89.9909C100.303 90.7179 100.839 91.3903 101.666 91.9264C102.238 92.299 102.884 92.5262 103.538 92.5262C104.565 92.5262 105.637 91.9628 106.564 90.518L106.491 90.4453C105.846 90.7451 105.137 90.945 104.447 90.945C103.82 90.945 103.211 90.7815 102.666 90.3544C102.393 90.1272 102.139 89.8546 101.893 89.5547C103.647 88.746 105.037 86.7832 105.037 83.6937C105.037 79.4955 102.484 77.3964 99.9304 77.3964ZM99.9395 77.6145C101.593 77.6145 103.247 79.6409 103.247 83.6937C103.247 86.3743 102.511 88.1735 101.539 89.0731C100.757 87.9373 100.094 86.4743 99.158 85.3202C98.6401 84.6842 97.8586 84.1117 97.2225 84.1117C97.0044 84.1117 96.8045 84.1844 96.6409 84.3479C96.6228 84.1389 96.6228 83.9118 96.6228 83.6937C96.6228 79.6409 98.2766 77.6145 99.9395 77.6145ZM97.1589 84.6024C97.4406 84.6115 97.8131 84.9022 98.1312 85.3566C98.949 86.5379 99.0853 88.2371 99.8123 89.7637C98.4856 89.682 97.1771 88.3007 96.7682 85.5928C96.7591 85.4838 96.75 85.3929 96.75 85.3021C96.75 84.8114 96.9226 84.6024 97.1589 84.6024ZM110.299 77.3964V77.6145C110.998 77.6145 111.353 80.4678 111.353 83.3029C111.353 84.3207 111.307 85.3293 111.216 86.2017V86.238C111.198 86.447 111.171 86.656 111.135 86.8468C110.871 88.7097 109.463 89.5911 108.209 89.5911C107.109 89.5911 106.128 88.9187 106.128 87.6374C106.128 87.283 106.2 86.8832 106.364 86.447C107.055 84.6387 108.754 83.312 108.781 81.3038V81.222C108.781 79.3683 107.863 77.4964 106.073 77.3964L106.055 77.4601C106.927 78.0325 107.227 78.9594 107.227 80.0135C107.227 82.1307 106 84.7296 105.682 85.8927C105.537 86.4016 105.473 86.8559 105.473 87.2558C105.473 89.1731 106.936 90 108.563 90C109.681 90 110.862 89.6093 111.698 88.9277C112.052 89.5366 112.643 89.9909 113.661 89.9909V89.7728C113.197 89.7728 112.916 87.6828 112.797 86.2017C112.752 85.0931 112.598 83.1394 112.598 81.3765C112.598 79.3774 112.797 77.6145 113.579 77.6145V77.3964H110.299ZM114.624 77.3964V77.6145C115.46 77.6145 115.178 81.64 116.105 82.6759C116.696 83.3484 118.013 83.4392 119.095 83.4392C119.476 83.4392 119.84 83.4302 120.122 83.4302C120.494 83.4302 120.703 83.6301 120.703 83.8209C120.703 83.9935 120.521 84.1662 120.103 84.1662H120.04C119.522 84.148 118.913 84.1026 118.322 84.1026C116.987 84.1026 115.714 84.3661 115.66 85.92C115.587 88.0554 115.278 89.7728 114.624 89.7728V90H121.539L122.166 88.4916H121.494C121.139 89.2821 120.267 89.7001 119.385 89.7001C118.377 89.7001 117.368 89.1549 117.132 88.0191C116.996 87.3921 116.932 86.8741 116.932 86.4379C116.932 84.8659 117.841 84.4206 120.04 84.4025H120.321C120.848 84.4025 121.112 84.1117 121.112 83.8118C121.112 83.4847 120.812 83.1576 120.194 83.1576H119.822C117.55 83.1576 116.705 82.7396 116.705 80.9494C116.705 80.7404 116.723 80.5133 116.741 80.2679C116.896 78.496 118.186 77.6691 119.413 77.6691C120.294 77.6691 121.139 78.0961 121.494 78.9049H122.166L121.539 77.3964H114.624Z" fill="white"/>
</g>
<defs>
<clipPath id="clip0_149:653">
<rect width="165" height="210" fill="white"/>
</clipPath>
</defs>
</svg>
