<svg width="354" height="140" viewBox="0 0 354 140" fill="none" xmlns="http://www.w3.org/2000/svg">
<path d="M353.5 70C353.5 79.481 348.643 88.5654 339.749 96.8819C330.854 105.199 317.955 112.712 301.974 119.033C270.015 131.672 225.83 139.5 177 139.5C128.17 139.5 83.9847 131.672 52.026 119.033C36.0451 112.712 23.1463 105.199 14.251 96.8819C5.35656 88.5654 0.5 79.481 0.5 70C0.5 60.519 5.35656 51.4346 14.251 43.1181C23.1463 34.8008 36.0451 27.2876 52.026 20.9675C83.9847 8.32843 128.17 0.5 177 0.5C225.83 0.5 270.015 8.32843 301.974 20.9675C317.955 27.2876 330.854 34.8008 339.749 43.1181C348.643 51.4346 353.5 60.519 353.5 70Z" fill="#18A958" stroke="black"/>
<path d="M353.5 70C353.5 77.9273 348.681 85.559 339.781 92.5728C330.887 99.5821 317.986 105.916 302 111.245C270.033 121.901 225.838 128.5 177 128.5C128.162 128.5 83.9675 121.901 52.0002 111.245C36.014 105.916 23.1131 99.5821 14.219 92.5728C5.31932 85.559 0.5 77.9273 0.5 70C0.5 62.0727 5.31932 54.441 14.219 47.4272C23.1131 40.4179 36.014 34.0838 52.0002 28.755C83.9675 18.0993 128.162 11.5 177 11.5C225.838 11.5 270.033 18.0993 302 28.755C317.986 34.0838 330.887 40.4179 339.781 47.4272C348.681 54.441 353.5 62.0727 353.5 70Z" fill="#FED531" stroke="black"/>
<path d="M343.5 69C343.5 75.518 338.995 81.8325 330.591 87.6622C322.203 93.4815 310.031 98.7423 294.946 103.168C264.782 112.019 223.082 117.5 177 117.5C130.918 117.5 89.2177 112.019 59.0539 103.168C43.9688 98.7423 31.7974 93.4815 23.4087 87.6622C15.005 81.8325 10.5 75.518 10.5 69C10.5 62.482 15.005 56.1675 23.4087 50.3378C31.7974 44.5185 43.9688 39.2577 59.0539 34.8315C89.2177 25.9811 130.918 20.5 177 20.5C223.082 20.5 264.782 25.9811 294.946 34.8315C310.031 39.2577 322.203 44.5185 330.591 50.3378C338.995 56.1675 343.5 62.482 343.5 69Z" fill="#9D78EB" stroke="black"/>
<path d="M98 81.793C98 81.559 98.13 81.312 98.39 81.052C98.65 80.792 98.949 80.48 99.287 80.116C99.651 79.726 100.028 79.271 100.418 78.751C100.834 78.205 101.172 77.555 101.432 76.801L107.828 59.29L107.672 58.783C107.594 58.497 107.477 58.263 107.321 58.081C107.191 57.873 107.061 57.678 106.931 57.496C106.801 57.314 106.684 57.132 106.58 56.95C106.502 56.768 106.463 56.547 106.463 56.287C106.463 56.001 106.567 55.78 106.775 55.624C107.009 55.468 107.282 55.39 107.594 55.39H111.143C111.481 55.39 111.715 55.572 111.845 55.936C112.001 56.3 112.183 56.781 112.391 57.379L118.748 76.801C118.982 77.555 119.229 78.205 119.489 78.751C119.775 79.271 120.022 79.726 120.23 80.116C120.464 80.48 120.646 80.792 120.776 81.052C120.932 81.312 121.01 81.559 121.01 81.793C121.01 81.949 120.971 82.092 120.893 82.222C120.815 82.352 120.698 82.469 120.542 82.573C120.412 82.651 120.204 82.69 119.918 82.69H114.731C114.003 82.69 113.639 82.391 113.639 81.793C113.639 81.559 113.678 81.312 113.756 81.052C113.834 80.792 113.899 80.48 113.951 80.116C114.003 79.752 114.003 79.31 113.951 78.79C113.925 78.244 113.795 77.581 113.561 76.801L112.469 73.291C112.391 73.005 112.274 72.771 112.118 72.589C111.962 72.407 111.689 72.316 111.299 72.316H105.02C104.76 72.316 104.552 72.42 104.396 72.628C104.266 72.81 104.162 73.018 104.084 73.252L102.836 76.801C102.602 77.529 102.537 78.166 102.641 78.712C102.745 79.232 102.901 79.687 103.109 80.077C103.317 80.441 103.525 80.766 103.733 81.052C103.967 81.312 104.084 81.559 104.084 81.793C104.084 81.949 104.045 82.092 103.967 82.222C103.889 82.352 103.772 82.469 103.616 82.573C103.486 82.651 103.278 82.69 102.992 82.69H99.092C98.364 82.69 98 82.391 98 81.793ZM105.371 71.029H111.026C111.312 71.029 111.455 70.938 111.455 70.756C111.481 70.548 111.468 70.379 111.416 70.249L108.491 61.279L105.098 70.444C105.046 70.6 105.033 70.743 105.059 70.873C105.111 70.977 105.215 71.029 105.371 71.029Z" fill="white"/>
<path d="M122.185 81.793C122.185 81.559 122.237 81.325 122.341 81.091C122.471 80.831 122.601 80.519 122.731 80.155C122.861 79.791 122.978 79.349 123.082 78.829C123.212 78.283 123.277 77.607 123.277 76.801V61.279C123.277 60.473 123.212 59.81 123.082 59.29C122.978 58.744 122.861 58.289 122.731 57.925C122.601 57.561 122.471 57.262 122.341 57.028C122.237 56.768 122.185 56.521 122.185 56.287C122.185 55.689 122.549 55.39 123.277 55.39H128.464C128.594 55.39 128.711 55.403 128.815 55.429C129.049 55.481 129.244 55.598 129.4 55.78C130.492 55.26 131.636 55 132.832 55C133.898 55 134.899 55.195 135.835 55.585C136.771 55.975 137.59 56.547 138.292 57.301C138.994 58.029 139.54 58.926 139.93 59.992C140.346 61.058 140.554 62.267 140.554 63.619C140.554 65.803 140.047 67.662 139.033 69.196C138.019 70.704 136.719 71.718 135.133 72.238C135.913 72.81 136.563 73.46 137.083 74.188C137.629 74.89 138.071 75.579 138.409 76.255C138.773 76.931 139.059 77.555 139.267 78.127C139.501 78.699 139.67 79.128 139.774 79.414C139.904 79.7 140.047 79.947 140.203 80.155C140.385 80.337 140.554 80.506 140.71 80.662C140.866 80.818 140.996 80.987 141.1 81.169C141.23 81.325 141.295 81.533 141.295 81.793C141.295 82.157 141.178 82.404 140.944 82.534C140.71 82.638 140.437 82.69 140.125 82.69H135.211C134.873 82.69 134.613 82.534 134.431 82.222C134.249 81.884 134.093 81.364 133.963 80.662C133.859 80.038 133.716 79.349 133.534 78.595C133.378 77.815 133.183 77.048 132.949 76.294C132.715 75.514 132.442 74.786 132.13 74.11C131.818 73.408 131.441 72.823 130.999 72.355C130.115 72.121 129.27 71.705 128.464 71.107V76.801C128.464 77.607 128.516 78.283 128.62 78.829C128.75 79.349 128.88 79.791 129.01 80.155C129.14 80.519 129.257 80.831 129.361 81.091C129.491 81.325 129.556 81.559 129.556 81.793C129.556 82.391 129.192 82.69 128.464 82.69H123.277C123.069 82.69 122.887 82.651 122.731 82.573C122.601 82.521 122.471 82.43 122.341 82.3C122.237 82.17 122.185 82.001 122.185 81.793ZM128.464 69.118C128.854 69.508 129.283 69.82 129.751 70.054C130.245 70.288 130.752 70.405 131.272 70.405C131.974 70.405 132.546 70.21 132.988 69.82C133.456 69.43 133.82 68.923 134.08 68.299C134.366 67.675 134.561 66.96 134.665 66.154C134.769 65.322 134.821 64.477 134.821 63.619C134.821 62.761 134.769 61.942 134.665 61.162C134.561 60.382 134.366 59.706 134.08 59.134C133.82 58.536 133.456 58.068 132.988 57.73C132.546 57.366 131.974 57.184 131.272 57.184C130.596 57.184 130.063 57.288 129.673 57.496C129.309 57.704 129.036 58.003 128.854 58.393C128.672 58.757 128.555 59.186 128.503 59.68C128.477 60.174 128.464 60.707 128.464 61.279V69.118Z" fill="white"/>
<path d="M142.309 55.39H165.475C165.709 55.39 165.865 55.429 165.943 55.507C166.047 55.559 166.099 55.637 166.099 55.741C166.099 55.819 166.073 55.923 166.021 56.053C165.995 56.157 165.969 56.261 165.943 56.365L164.461 61.318C164.383 61.422 164.292 61.513 164.188 61.591C164.11 61.669 164.019 61.747 163.915 61.825C163.811 61.877 163.694 61.903 163.564 61.903C163.434 61.903 163.291 61.864 163.135 61.786C162.927 61.682 162.758 61.357 162.628 60.811C162.524 60.265 162.342 59.693 162.082 59.095C161.848 58.471 161.484 57.912 160.99 57.418C160.522 56.924 159.82 56.677 158.884 56.677H157.519C156.947 56.677 156.635 57.106 156.583 57.964C156.531 58.796 156.505 59.901 156.505 61.279V76.801C156.505 77.607 156.557 78.283 156.661 78.829C156.791 79.349 156.921 79.791 157.051 80.155C157.181 80.519 157.298 80.831 157.402 81.091C157.532 81.325 157.597 81.559 157.597 81.793C157.597 82.391 157.233 82.69 156.505 82.69H151.318C151.11 82.69 150.928 82.651 150.772 82.573C150.642 82.521 150.512 82.43 150.382 82.3C150.278 82.17 150.226 82.001 150.226 81.793C150.226 81.559 150.278 81.325 150.382 81.091C150.512 80.831 150.642 80.519 150.772 80.155C150.902 79.791 151.019 79.349 151.123 78.829C151.253 78.283 151.318 77.607 151.318 76.801V61.279C151.318 60.603 151.318 59.979 151.318 59.407C151.318 58.835 151.292 58.354 151.24 57.964C151.188 57.548 151.084 57.236 150.928 57.028C150.798 56.794 150.59 56.677 150.304 56.677H148.9C147.964 56.677 147.249 56.924 146.755 57.418C146.287 57.912 145.923 58.458 145.663 59.056C145.429 59.654 145.247 60.226 145.117 60.772C145.013 61.318 144.857 61.656 144.649 61.786C144.519 61.89 144.363 61.942 144.181 61.942C143.869 61.942 143.583 61.734 143.323 61.318L141.841 56.365C141.815 56.261 141.776 56.157 141.724 56.053C141.698 55.923 141.685 55.819 141.685 55.741C141.685 55.637 141.724 55.559 141.802 55.507C141.906 55.429 142.075 55.39 142.309 55.39Z" fill="white"/>
<path d="M168.37 76.801V61.279C168.37 60.473 168.305 59.81 168.175 59.29C168.071 58.744 167.954 58.289 167.824 57.925C167.694 57.561 167.564 57.262 167.434 57.028C167.33 56.768 167.278 56.521 167.278 56.287C167.278 56.131 167.33 55.975 167.434 55.819C167.486 55.715 167.577 55.624 167.707 55.546C167.863 55.442 168.084 55.39 168.37 55.39H173.557C173.765 55.39 173.947 55.429 174.103 55.507C174.233 55.559 174.35 55.65 174.454 55.78C174.584 55.884 174.649 56.053 174.649 56.287C174.649 56.521 174.584 56.768 174.454 57.028C174.35 57.262 174.233 57.561 174.103 57.925C173.973 58.289 173.843 58.744 173.713 59.29C173.609 59.81 173.557 60.473 173.557 61.279V76.801C173.557 77.607 173.609 78.283 173.713 78.829C173.843 79.349 173.973 79.791 174.103 80.155C174.233 80.519 174.35 80.831 174.454 81.091C174.584 81.325 174.649 81.559 174.649 81.793C174.649 81.949 174.61 82.092 174.532 82.222C174.454 82.352 174.337 82.469 174.181 82.573C174.051 82.651 173.843 82.69 173.557 82.69H168.37C168.162 82.69 167.98 82.651 167.824 82.573C167.694 82.521 167.564 82.43 167.434 82.3C167.33 82.17 167.278 82.001 167.278 81.793C167.278 81.559 167.33 81.325 167.434 81.091C167.564 80.831 167.694 80.519 167.824 80.155C167.954 79.791 168.071 79.349 168.175 78.829C168.305 78.283 168.37 77.607 168.37 76.801Z" fill="white"/>
<path d="M178.189 76.762C178.891 76.762 179.424 77.022 179.788 77.542C180.178 78.062 180.516 78.647 180.802 79.297C181.114 79.921 181.452 80.493 181.816 81.013C182.18 81.533 182.713 81.793 183.415 81.793C184.273 81.793 184.949 81.65 185.443 81.364C185.937 81.078 186.314 80.727 186.574 80.311C186.834 79.895 187.003 79.466 187.081 79.024C187.159 78.556 187.198 78.153 187.198 77.815C187.198 76.645 186.912 75.631 186.34 74.773C185.794 73.889 185.105 73.07 184.273 72.316C183.441 71.562 182.531 70.834 181.543 70.132C180.555 69.43 179.645 68.676 178.813 67.87C177.981 67.064 177.279 66.167 176.707 65.179C176.161 64.191 175.888 63.047 175.888 61.747C175.888 60.733 176.135 59.823 176.629 59.017C177.123 58.185 177.773 57.47 178.579 56.872C179.411 56.274 180.373 55.819 181.465 55.507C182.583 55.169 183.74 55 184.936 55C187.406 55 189.291 55.377 190.591 56.131C191.917 56.859 192.58 57.886 192.58 59.212C192.58 59.706 192.372 60.187 191.956 60.655C191.54 61.097 190.955 61.318 190.201 61.318C189.733 61.318 189.343 61.201 189.031 60.967C188.745 60.707 188.498 60.395 188.29 60.031C188.082 59.641 187.887 59.238 187.705 58.822C187.549 58.38 187.354 57.977 187.12 57.613C186.886 57.223 186.6 56.911 186.262 56.677C185.95 56.417 185.521 56.287 184.975 56.287C184.117 56.287 183.441 56.43 182.947 56.716C182.453 57.002 182.076 57.353 181.816 57.769C181.556 58.185 181.387 58.627 181.309 59.095C181.231 59.563 181.192 59.966 181.192 60.304C181.192 61.448 181.465 62.475 182.011 63.385C182.583 64.269 183.298 65.101 184.156 65.881C185.014 66.635 185.924 67.376 186.886 68.104C187.874 68.832 188.797 69.612 189.655 70.444C190.513 71.25 191.215 72.147 191.761 73.135C192.333 74.123 192.619 75.267 192.619 76.567C192.619 77.581 192.359 78.491 191.839 79.297C191.345 80.077 190.682 80.753 189.85 81.325C189.018 81.897 188.043 82.339 186.925 82.651C185.833 82.937 184.676 83.08 183.454 83.08C182.336 83.08 181.296 82.976 180.334 82.768C179.398 82.586 178.592 82.313 177.916 81.949C177.266 81.585 176.746 81.143 176.356 80.623C175.992 80.103 175.81 79.518 175.81 78.868C175.81 78.374 176.018 77.906 176.434 77.464C176.85 76.996 177.435 76.762 178.189 76.762Z" fill="white"/>
<path d="M194.41 55.39H217.576C217.81 55.39 217.966 55.429 218.044 55.507C218.148 55.559 218.2 55.637 218.2 55.741C218.2 55.819 218.174 55.923 218.122 56.053C218.096 56.157 218.07 56.261 218.044 56.365L216.562 61.318C216.484 61.422 216.393 61.513 216.289 61.591C216.211 61.669 216.12 61.747 216.016 61.825C215.912 61.877 215.795 61.903 215.665 61.903C215.535 61.903 215.392 61.864 215.236 61.786C215.028 61.682 214.859 61.357 214.729 60.811C214.625 60.265 214.443 59.693 214.183 59.095C213.949 58.471 213.585 57.912 213.091 57.418C212.623 56.924 211.921 56.677 210.985 56.677H209.62C209.048 56.677 208.736 57.106 208.684 57.964C208.632 58.796 208.606 59.901 208.606 61.279V76.801C208.606 77.607 208.658 78.283 208.762 78.829C208.892 79.349 209.022 79.791 209.152 80.155C209.282 80.519 209.399 80.831 209.503 81.091C209.633 81.325 209.698 81.559 209.698 81.793C209.698 82.391 209.334 82.69 208.606 82.69H203.419C203.211 82.69 203.029 82.651 202.873 82.573C202.743 82.521 202.613 82.43 202.483 82.3C202.379 82.17 202.327 82.001 202.327 81.793C202.327 81.559 202.379 81.325 202.483 81.091C202.613 80.831 202.743 80.519 202.873 80.155C203.003 79.791 203.12 79.349 203.224 78.829C203.354 78.283 203.419 77.607 203.419 76.801V61.279C203.419 60.603 203.419 59.979 203.419 59.407C203.419 58.835 203.393 58.354 203.341 57.964C203.289 57.548 203.185 57.236 203.029 57.028C202.899 56.794 202.691 56.677 202.405 56.677H201.001C200.065 56.677 199.35 56.924 198.856 57.418C198.388 57.912 198.024 58.458 197.764 59.056C197.53 59.654 197.348 60.226 197.218 60.772C197.114 61.318 196.958 61.656 196.75 61.786C196.62 61.89 196.464 61.942 196.282 61.942C195.97 61.942 195.684 61.734 195.424 61.318L193.942 56.365C193.916 56.261 193.877 56.157 193.825 56.053C193.799 55.923 193.786 55.819 193.786 55.741C193.786 55.637 193.825 55.559 193.903 55.507C194.007 55.429 194.176 55.39 194.41 55.39Z" fill="white"/>
<path d="M219.38 56.287C219.38 56.131 219.432 55.975 219.536 55.819C219.588 55.715 219.679 55.624 219.809 55.546C219.965 55.442 220.186 55.39 220.472 55.39H236.579C237.047 55.39 237.268 55.507 237.242 55.741C237.242 55.949 237.177 56.157 237.047 56.365L235.565 58.783C235.487 58.887 235.396 58.978 235.292 59.056C235.214 59.134 235.123 59.212 235.019 59.29C234.915 59.342 234.798 59.368 234.668 59.368C234.538 59.368 234.395 59.329 234.239 59.251C234.031 59.147 233.862 58.965 233.732 58.705C233.628 58.419 233.446 58.133 233.186 57.847C232.952 57.535 232.588 57.262 232.094 57.028C231.626 56.794 230.924 56.677 229.988 56.677H226.673C226.309 56.677 226.049 57.106 225.893 57.964C225.737 58.796 225.659 59.901 225.659 61.279V68.767C226.647 68.715 227.401 68.559 227.921 68.299C228.441 68.013 228.844 67.714 229.13 67.402C229.416 67.09 229.65 66.817 229.832 66.583C230.014 66.323 230.248 66.193 230.534 66.193C230.638 66.193 230.742 66.219 230.846 66.271C230.924 66.323 230.989 66.401 231.041 66.505C231.119 66.609 231.158 66.765 231.158 66.973V71.848C231.158 72.004 231.132 72.134 231.08 72.238C230.976 72.498 230.794 72.628 230.534 72.628C230.248 72.628 230.014 72.498 229.832 72.238C229.65 71.978 229.416 71.692 229.13 71.38C228.844 71.068 228.441 70.782 227.921 70.522C227.401 70.236 226.647 70.08 225.659 70.054V76.801C225.659 78.179 225.737 79.297 225.893 80.155C226.049 80.987 226.309 81.403 226.673 81.403H230.807C231.795 81.403 232.614 81.221 233.264 80.857C233.914 80.467 234.46 80.038 234.902 79.57C235.37 79.102 235.76 78.686 236.072 78.322C236.41 77.932 236.735 77.737 237.047 77.737C237.177 77.737 237.294 77.776 237.398 77.854C237.606 78.01 237.658 78.309 237.554 78.751C237.476 79.193 237.333 79.648 237.125 80.116C236.917 80.584 236.709 81.013 236.501 81.403C236.293 81.767 236.189 81.949 236.189 81.949C236.007 82.261 235.695 82.469 235.253 82.573C234.837 82.651 234.486 82.69 234.2 82.69H220.472C220.264 82.69 220.082 82.651 219.926 82.573C219.796 82.521 219.666 82.43 219.536 82.3C219.432 82.17 219.38 82.001 219.38 81.793C219.38 81.559 219.432 81.325 219.536 81.091C219.666 80.831 219.796 80.519 219.926 80.155C220.056 79.791 220.173 79.349 220.277 78.829C220.407 78.283 220.472 77.607 220.472 76.801V61.279C220.472 60.473 220.407 59.81 220.277 59.29C220.173 58.744 220.056 58.289 219.926 57.925C219.796 57.561 219.666 57.262 219.536 57.028C219.432 56.768 219.38 56.521 219.38 56.287Z" fill="white"/>
<path d="M241.183 76.762C241.885 76.762 242.418 77.022 242.782 77.542C243.172 78.062 243.51 78.647 243.796 79.297C244.108 79.921 244.446 80.493 244.81 81.013C245.174 81.533 245.707 81.793 246.409 81.793C247.267 81.793 247.943 81.65 248.437 81.364C248.931 81.078 249.308 80.727 249.568 80.311C249.828 79.895 249.997 79.466 250.075 79.024C250.153 78.556 250.192 78.153 250.192 77.815C250.192 76.645 249.906 75.631 249.334 74.773C248.788 73.889 248.099 73.07 247.267 72.316C246.435 71.562 245.525 70.834 244.537 70.132C243.549 69.43 242.639 68.676 241.807 67.87C240.975 67.064 240.273 66.167 239.701 65.179C239.155 64.191 238.882 63.047 238.882 61.747C238.882 60.733 239.129 59.823 239.623 59.017C240.117 58.185 240.767 57.47 241.573 56.872C242.405 56.274 243.367 55.819 244.459 55.507C245.577 55.169 246.734 55 247.93 55C250.4 55 252.285 55.377 253.585 56.131C254.911 56.859 255.574 57.886 255.574 59.212C255.574 59.706 255.366 60.187 254.95 60.655C254.534 61.097 253.949 61.318 253.195 61.318C252.727 61.318 252.337 61.201 252.025 60.967C251.739 60.707 251.492 60.395 251.284 60.031C251.076 59.641 250.881 59.238 250.699 58.822C250.543 58.38 250.348 57.977 250.114 57.613C249.88 57.223 249.594 56.911 249.256 56.677C248.944 56.417 248.515 56.287 247.969 56.287C247.111 56.287 246.435 56.43 245.941 56.716C245.447 57.002 245.07 57.353 244.81 57.769C244.55 58.185 244.381 58.627 244.303 59.095C244.225 59.563 244.186 59.966 244.186 60.304C244.186 61.448 244.459 62.475 245.005 63.385C245.577 64.269 246.292 65.101 247.15 65.881C248.008 66.635 248.918 67.376 249.88 68.104C250.868 68.832 251.791 69.612 252.649 70.444C253.507 71.25 254.209 72.147 254.755 73.135C255.327 74.123 255.613 75.267 255.613 76.567C255.613 77.581 255.353 78.491 254.833 79.297C254.339 80.077 253.676 80.753 252.844 81.325C252.012 81.897 251.037 82.339 249.919 82.651C248.827 82.937 247.67 83.08 246.448 83.08C245.33 83.08 244.29 82.976 243.328 82.768C242.392 82.586 241.586 82.313 240.91 81.949C240.26 81.585 239.74 81.143 239.35 80.623C238.986 80.103 238.804 79.518 238.804 78.868C238.804 78.374 239.012 77.906 239.428 77.464C239.844 76.996 240.429 76.762 241.183 76.762Z" fill="white"/>
</svg>
