<svg width="194" height="239" viewBox="0 0 194 239" fill="none" xmlns="http://www.w3.org/2000/svg">
<rect x="11.1028" y="144.156" width="156.92" height="93.0061" rx="1.5" transform="rotate(0.207168 11.1028 144.156)" fill="#18A958" stroke="black"/>
<rect x="39.3344" y="0.684098" width="178" height="29" rx="0.5" transform="rotate(30.3436 39.3344 0.684098)" fill="#FED531" stroke="#0C0C0C"/>
<path d="M164.903 74.1885L165.207 74.3665L165.141 74.7127L159.626 103.929L159.495 104.626L158.882 104.268L142.485 94.6691L142.181 94.4911L142.246 94.1449L147.761 64.9287L147.893 64.2315L148.505 64.59L164.903 74.1885Z" fill="white" stroke="black"/>
<path d="M133.537 55.8276L133.837 56.0035L133.776 56.3465L128.559 85.7368L128.433 86.4435L127.814 86.0809L110.851 76.1514L110.551 75.9755L110.612 75.6325L115.829 46.2422L115.954 45.5355L116.574 45.8981L133.537 55.8276Z" fill="white" stroke="black"/>
<path d="M100.742 36.6306L101.043 36.8066L100.982 37.1495L95.7644 66.5399L95.6389 67.2466L95.0195 66.884L78.0568 56.9545L77.7562 56.7785L77.8171 56.4356L83.0346 27.0452L83.1601 26.3385L83.7795 26.7011L100.742 36.6306Z" fill="white" stroke="black"/>
<path d="M69.1083 18.1129L69.4124 18.2909L69.347 18.6372L63.832 47.8533L63.7004 48.5505L63.0881 48.1921L46.6909 38.5936L46.3868 38.4156L46.4521 38.0693L51.9672 8.85316L52.0988 8.15597L52.7111 8.5144L69.1083 18.1129Z" fill="white" stroke="black"/>
<path d="M48.6379 171.158L48.6387 171.615C49.8193 171.613 50.8416 179.781 50.8528 186.865C50.8615 192.292 50.2788 197.092 48.6792 197.094L48.6799 197.57C48.7561 197.57 52.5456 197.545 55.1164 197.541C57.8015 197.537 58.9995 196.488 58.997 194.945C58.9959 194.221 58.728 193.403 58.2315 192.528C57.2959 190.968 55.6548 188.799 55.328 186.896C55.2895 186.648 55.2701 186.42 55.2697 186.191C55.2664 184.096 57.0358 183.084 58.8258 183.082C60.673 183.079 62.5219 184.142 62.5252 186.218C62.5258 186.599 62.4503 187.018 62.3177 187.475L62.4892 187.57C63.1357 186.921 63.4195 185.778 63.4177 184.655C63.4164 183.836 63.2628 183.036 62.9953 182.446C62.2884 181 60.7257 180.26 59.1261 180.263C57.5645 180.265 55.947 180.991 55.0734 182.44C54.5795 183.26 54.3714 184.117 54.3728 184.974C54.3772 187.735 56.5335 190.55 57.851 192.738C58.1374 193.233 58.2524 193.689 58.253 194.108C58.2549 195.251 57.3421 196.052 56.3518 196.054C55.4568 196.055 54.4846 195.39 54.063 193.734C53.4688 191.336 53.2731 188.022 53.2682 184.918C53.262 181.015 53.542 177.453 53.6739 176.577C54.0875 173.225 56.4653 171.621 58.7695 171.618C60.5405 171.615 62.2368 172.545 63.0204 174.296L64.4486 174.294L63.1106 171.135L48.6379 171.158Z" fill="#FBFBFB"/>
<path d="M65.7004 171.131L65.7011 171.588C67.0913 171.585 67.7869 177.945 67.7971 184.324C67.8072 190.684 67.1318 197.065 65.7416 197.067L65.7424 197.543L72.6359 197.532L72.6352 197.056C71.2641 197.058 70.5494 190.68 70.5393 184.32C70.5291 177.94 71.2236 171.579 72.5947 171.577L72.594 171.12L65.7004 171.131Z" fill="#FBFBFB"/>
<path d="M74.7268 171.116L74.7275 171.573C76.3081 171.571 76.8672 175.931 76.8754 181.034C76.8869 188.29 75.7963 197.051 74.9584 197.052L74.9592 197.529L85.5661 197.512C88.2702 197.507 89.8293 195.962 89.8259 193.83C89.8248 193.125 89.6522 192.364 89.3081 191.583C88.5627 189.871 85.5481 186.162 85.5431 183.039C85.541 181.706 86.0913 180.467 87.5942 179.532L87.4987 179.361C85.0624 180.107 83.8273 181.823 83.5256 183.69C83.469 184.033 83.4314 184.356 83.4319 184.661C83.4368 187.765 86.1444 189.913 87.5575 192.405C88.0731 193.299 88.2838 194.061 88.2847 194.67C88.2871 196.155 87.0504 196.881 85.5461 196.883C83.4894 196.887 80.9165 195.558 80.265 193.007C79.7092 190.761 79.4368 187.143 79.4311 183.525C79.4216 177.564 80.1357 171.565 81.602 171.562L81.6013 171.105L74.7268 171.116Z" fill="#FBFBFB"/>
<path d="M109.08 171.062C105.729 171.067 103.504 172.975 102.308 175.548C101.72 176.786 101.474 178.158 101.477 179.567C101.481 182.442 102.533 185.526 104.156 188.189C104.595 188.912 104.787 189.712 104.788 190.454C104.791 192.054 103.955 193.445 103.003 193.447C102.241 193.448 101.402 192.573 100.884 190.232C99.3692 183.588 97.8175 177.821 95.9978 171.102L91.199 171.109L91.1997 171.585C91.752 171.584 92.5258 179.219 92.5368 186.151C92.5452 191.426 92.1149 196.283 90.8022 197.027L90.8029 197.484L94.4972 197.478L94.4965 197.021C93.2206 197.023 93.0284 195.919 93.0269 194.948C93.0265 194.701 93.0261 194.453 93.0448 194.243C93.1925 191.33 93.2449 188.378 93.2401 185.35C93.2341 181.561 93.1328 177.714 92.9171 173.772C93.6833 176.59 95.8505 186.26 97.8023 192.217C98.7017 194.939 100.303 196.022 101.845 196.02C103.921 196.016 105.86 194.071 105.856 191.443C105.855 190.738 105.721 189.977 105.396 189.196C105.185 188.721 104.937 188.302 104.67 187.865C103.162 185.41 102.186 182.479 102.181 179.775C102.179 178.309 102.463 176.918 103.089 175.699C104.038 173.812 105.084 172.744 105.979 172.742C106.912 172.741 107.695 173.901 108.06 176.453C108.33 178.223 108.448 180.432 108.451 182.774C108.462 189.458 107.503 197.001 106.265 197.003L106.266 197.46L113.14 197.449L113.14 196.992C111.578 196.994 110.768 190.616 110.758 184.256C110.748 177.876 111.538 171.515 113.099 171.512L113.098 171.055L109.08 171.062Z" fill="#FBFBFB"/>
<path d="M122.106 171.022C121.706 171.023 121.268 171.061 120.83 171.138C119.345 171.388 117.975 172 116.872 172.839C115.198 174.175 114.344 176.119 114.347 178.099C114.35 179.585 114.847 181.088 115.839 182.382C118.625 185.976 124.09 185.53 126.496 189.753C126.916 190.495 127.108 191.314 127.109 192.114C127.111 193.237 126.751 194.285 126.2 194.991C125.459 195.925 124.622 196.631 123.879 196.632C123.308 196.633 122.812 196.215 122.468 195.13C121.645 192.541 119.815 191.268 118.005 191.271C116.234 191.274 114.523 192.495 113.822 194.934C114.926 194.647 115.821 194.512 116.582 194.511C118.544 194.508 119.612 195.382 121.251 196.75C121.843 197.264 122.528 197.453 123.252 197.452C124.547 197.45 125.917 196.8 126.906 196.056C128.827 194.606 130.118 192.242 130.114 189.805C130.111 187.919 129.328 185.978 127.421 184.42C125.266 182.595 122.218 182.086 120.045 180.832C118.159 179.75 117.376 178.342 117.373 176.971C117.369 174.381 120.146 171.901 123.497 171.896C124.735 171.894 126.03 172.215 127.288 172.994C128.432 173.735 129.157 174.572 129.178 176L129.712 175.999L129.609 171.029L129.075 171.03L129.075 171.087C129.076 171.297 129 171.849 128.906 172.325C128.811 172.687 128.621 172.84 128.336 172.84C127.345 172.842 125.172 171.036 122.106 171.022Z" fill="#FBFBFB"/>
<rect x="0.5" y="115.5" width="178" height="29" rx="0.5" fill="#FED531" stroke="#0C0C0C"/>
<path d="M26 115.5H25.6476L25.5291 115.832L15.5291 143.832L15.2905 144.5H16H35H35.3524L35.4709 144.168L45.4709 116.168L45.7095 115.5H45H26Z" fill="white" stroke="black"/>
<path d="M63 115.5H62.6476L62.5291 115.832L52.5291 143.832L52.2905 144.5H53H72H72.3524L72.4709 144.168L82.4709 116.168L82.7095 115.5H82H63Z" fill="white" stroke="black"/>
<path d="M100 115.5H99.6476L99.5291 115.832L89.5291 143.832L89.2905 144.5H90H109H109.352L109.471 144.168L119.471 116.168L119.71 115.5H119H100Z" fill="white" stroke="black"/>
<path d="M137 115.5H136.648L136.529 115.832L126.529 143.832L126.29 144.5H127H146H146.352L146.471 144.168L156.471 116.168L156.71 115.5H156H137Z" fill="white" stroke="black"/>
</svg>
