<svg width="223" height="160" viewBox="0 0 223 160" fill="none" xmlns="http://www.w3.org/2000/svg">
<path d="M222 20.397H214L111.5 148.397C116.5 148.897 121 153.897 124 159.397H222V20.397Z" fill="#9D78EB" stroke="#0C0C0C" stroke-linejoin="round"/>
<path d="M1 20.397H9L111.5 148.397C106.5 148.897 102 153.897 99 159.397H1V20.397Z" fill="#9D78EB" stroke="#0C0C0C" stroke-linejoin="round"/>
<path d="M8.96397 14.397H22.9689C45.977 47.7743 95.8945 120.898 111.5 148.397C100.996 142.419 19.4677 143.921 8.96397 150.397V14.397Z" fill="#F53D95" stroke="#0C0C0C" stroke-linejoin="round"/>
<path d="M214 13.897H200C177 47.397 127.1 120.297 111.5 147.897C122 141.897 203.5 143.897 214 150.397V13.897Z" fill="#F53D95" stroke="#0C0C0C" stroke-linejoin="round"/>
<path d="M22.9009 2.29469C36.3401 -1.20774 88.1059 5.79713 111.5 18.8062V148.397C90.5946 133.887 45.7973 130.884 22.9009 134.887V2.29469Z" fill="#E796E4" stroke="#0C0C0C" stroke-linejoin="round"/>
<path d="M200.5 1.89704C187 -1.60296 135 5.39704 111.5 18.397V148.397C132.5 133.897 177.5 130.397 200.5 134.397V1.89704Z" fill="#E796E4" stroke="#0C0C0C" stroke-linejoin="round"/>
<path d="M35.33 21.503C35.33 21.415 35.3593 21.327 35.418 21.239C35.4473 21.1804 35.4986 21.129 35.572 21.085C35.66 21.0264 35.7846 20.997 35.946 20.997H38.872C38.9893 20.997 39.092 21.019 39.18 21.063C39.2533 21.0924 39.3193 21.1437 39.378 21.217C39.4513 21.2757 39.488 21.371 39.488 21.503C39.488 21.635 39.4513 21.7744 39.378 21.921C39.3193 22.053 39.2533 22.2217 39.18 22.427C39.1066 22.6324 39.0333 22.889 38.96 23.197C38.9013 23.4904 38.872 23.8644 38.872 24.319V33.075C38.872 33.8524 38.916 34.483 39.004 34.967C39.092 35.4364 39.2386 35.671 39.444 35.671H41.776C42.3333 35.671 42.7953 35.5684 43.162 35.363C43.5286 35.143 43.8366 34.901 44.086 34.637C44.35 34.373 44.57 34.1384 44.746 33.933C44.9366 33.713 45.12 33.603 45.296 33.603C45.3693 33.603 45.4353 33.625 45.494 33.669C45.6113 33.757 45.6406 33.9257 45.582 34.175C45.538 34.4244 45.4573 34.681 45.34 34.945C45.2226 35.209 45.1053 35.451 44.988 35.671C44.8706 35.8764 44.812 35.979 44.812 35.979C44.7093 36.155 44.5333 36.2724 44.284 36.331C44.0493 36.375 43.8513 36.397 43.69 36.397H35.946C35.8286 36.397 35.726 36.375 35.638 36.331C35.5646 36.3017 35.4913 36.2504 35.418 36.177C35.3593 36.1037 35.33 36.0084 35.33 35.891C35.33 35.759 35.3593 35.627 35.418 35.495C35.4913 35.3484 35.5646 35.1724 35.638 34.967C35.7113 34.7617 35.7773 34.5124 35.836 34.219C35.9093 33.911 35.946 33.5297 35.946 33.075V24.319C35.946 23.8644 35.9093 23.4904 35.836 23.197C35.7773 22.889 35.7113 22.6324 35.638 22.427C35.5646 22.2217 35.4913 22.053 35.418 21.921C35.3593 21.7744 35.33 21.635 35.33 21.503Z" fill="black"/>
<path d="M46.903 27.025L48.377 25.815C48.4943 25.7124 48.6263 25.617 48.773 25.529C48.9343 25.441 49.0957 25.397 49.257 25.397C49.4183 25.397 49.5503 25.4704 49.653 25.617C49.7703 25.7637 49.829 26.035 49.829 26.431V33.075C49.829 33.5297 49.8583 33.911 49.917 34.219C49.9903 34.5124 50.0637 34.7617 50.137 34.967C50.2103 35.1724 50.2763 35.3484 50.335 35.495C50.4083 35.627 50.445 35.759 50.445 35.891C50.445 35.979 50.423 36.0597 50.379 36.133C50.335 36.2064 50.269 36.2724 50.181 36.331C50.1077 36.375 49.9903 36.397 49.829 36.397H46.903C46.7857 36.397 46.683 36.375 46.595 36.331C46.5217 36.3017 46.4483 36.2504 46.375 36.177C46.3163 36.1037 46.287 36.0084 46.287 35.891C46.287 35.759 46.3163 35.627 46.375 35.495C46.4483 35.3484 46.5217 35.1724 46.595 34.967C46.6683 34.7617 46.7343 34.5124 46.793 34.219C46.8663 33.911 46.903 33.5297 46.903 33.075V28.829C46.5657 28.477 46.375 28.1764 46.331 27.927C46.287 27.663 46.4777 27.3624 46.903 27.025ZM48.377 19.897C48.9343 19.897 49.4037 20.095 49.785 20.491C50.1663 20.887 50.357 21.3637 50.357 21.921C50.357 22.1997 50.3057 22.4637 50.203 22.713C50.1003 22.9477 49.961 23.1604 49.785 23.351C49.609 23.527 49.3963 23.6664 49.147 23.769C48.9123 23.8717 48.6557 23.923 48.377 23.923C47.8197 23.923 47.343 23.7324 46.947 23.351C46.5657 22.955 46.375 22.4784 46.375 21.921C46.375 21.6424 46.4263 21.3857 46.529 21.151C46.6317 20.9017 46.771 20.689 46.947 20.513C47.1377 20.3224 47.3503 20.1757 47.585 20.073C47.8343 19.9557 48.0983 19.897 48.377 19.897Z" fill="black"/>
<path d="M54.9055 25.397C55.0228 25.397 55.1255 25.419 55.2135 25.463C55.2868 25.4924 55.3528 25.5437 55.4115 25.617C55.4848 25.6757 55.5215 25.771 55.5215 25.903C55.5215 26.035 55.5068 26.167 55.4775 26.299C55.4482 26.4164 55.4262 26.5777 55.4115 26.783C55.4115 26.9737 55.4335 27.223 55.4775 27.531C55.5215 27.839 55.6168 28.235 55.7635 28.719L57.7655 35.297L59.5475 28.719C59.6648 28.2937 59.6868 27.9344 59.6135 27.641C59.5548 27.3477 59.4668 27.091 59.3495 26.871C59.2322 26.651 59.1075 26.4677 58.9755 26.321C58.8582 26.1744 58.7995 26.035 58.7995 25.903C58.7995 25.815 58.8288 25.727 58.8875 25.639C58.9168 25.5804 58.9682 25.529 59.0415 25.485C59.1295 25.4264 59.2542 25.397 59.4155 25.397H61.6155C61.7328 25.397 61.8355 25.419 61.9235 25.463C61.9968 25.4924 62.0628 25.5437 62.1215 25.617C62.1948 25.6757 62.2315 25.771 62.2315 25.903C62.2315 26.035 62.1508 26.1744 61.9895 26.321C61.8428 26.453 61.6595 26.629 61.4395 26.849C61.2342 27.0544 61.0215 27.311 60.8015 27.619C60.5815 27.9124 60.4128 28.279 60.2955 28.719L58.5355 35.253C58.4475 35.5757 58.3448 35.847 58.2275 36.067C58.1248 36.287 57.9635 36.397 57.7435 36.397H55.5655C55.2282 36.397 54.9422 36.0304 54.7075 35.297L52.7055 28.719C52.5735 28.279 52.4122 27.9124 52.2215 27.619C52.0455 27.311 51.8695 27.0544 51.6935 26.849C51.5322 26.6437 51.3928 26.4677 51.2755 26.321C51.1582 26.1744 51.0995 26.035 51.0995 25.903C51.0995 25.815 51.1288 25.727 51.1875 25.639C51.2168 25.5804 51.2682 25.529 51.3415 25.485C51.4295 25.4264 51.5542 25.397 51.7155 25.397H54.9055Z" fill="black"/>
<path d="M63.5104 26.937L64.9844 25.727C65.0871 25.639 65.2117 25.5657 65.3584 25.507C65.5051 25.4337 65.6517 25.397 65.7984 25.397C65.9744 25.397 66.1211 25.463 66.2384 25.595C66.3704 25.727 66.4364 25.9764 66.4364 26.343V26.453C66.8177 26.0717 67.2284 25.7637 67.6684 25.529C68.1231 25.2944 68.6291 25.177 69.1864 25.177C69.5237 25.177 69.8831 25.2284 70.2644 25.331C70.6457 25.4337 70.9977 25.5877 71.3204 25.793C71.6431 25.9837 71.9071 26.2257 72.1124 26.519C72.3177 26.8124 72.4204 27.1424 72.4204 27.509C72.4204 27.7877 72.3031 28.059 72.0684 28.323C71.8337 28.5724 71.5037 28.697 71.0784 28.697C70.6824 28.697 70.3744 28.5797 70.1544 28.345C69.9491 28.0957 69.7731 27.8244 69.6264 27.531C69.4797 27.2377 69.3404 26.9737 69.2084 26.739C69.0911 26.4897 68.9077 26.365 68.6584 26.365C68.3504 26.365 67.9984 26.4897 67.6024 26.739C67.2064 26.9737 66.8177 27.289 66.4364 27.685V33.075C66.4364 33.5297 66.4657 33.911 66.5244 34.219C66.5977 34.5124 66.6711 34.7617 66.7444 34.967C66.8177 35.1724 66.8837 35.3484 66.9424 35.495C67.0157 35.627 67.0524 35.759 67.0524 35.891C67.0524 35.979 67.0304 36.0597 66.9864 36.133C66.9424 36.2064 66.8764 36.2724 66.7884 36.331C66.7151 36.375 66.5977 36.397 66.4364 36.397H63.5104C63.0997 36.397 62.8944 36.2284 62.8944 35.891C62.8944 35.759 62.9237 35.627 62.9824 35.495C63.0557 35.3484 63.1291 35.1724 63.2024 34.967C63.2757 34.7617 63.3417 34.5124 63.4004 34.219C63.4737 33.911 63.5104 33.5297 63.5104 33.075V28.741C63.5104 28.4917 63.4664 28.2937 63.3784 28.147C63.3051 27.9857 63.2391 27.8464 63.1804 27.729C63.1364 27.597 63.1291 27.4797 63.1584 27.377C63.1877 27.2597 63.3051 27.113 63.5104 26.937Z" fill="black"/>
<path d="M73.078 30.699C73.078 28.9684 73.5107 27.619 74.376 26.651C75.256 25.6684 76.51 25.177 78.138 25.177C78.6367 25.177 79.128 25.243 79.612 25.375C80.1107 25.4924 80.5507 25.6904 80.932 25.969C81.328 26.233 81.6433 26.585 81.878 27.025C82.1273 27.4504 82.252 27.971 82.252 28.587C82.252 29.1297 82.1493 29.5697 81.944 29.907C81.7387 30.2297 81.4673 30.4864 81.13 30.677C80.7927 30.853 80.404 30.9777 79.964 31.051C79.5387 31.1097 79.0913 31.139 78.622 31.139H76.312C76.312 31.9897 76.378 32.723 76.51 33.339C76.642 33.9404 76.8033 34.4317 76.994 34.813C77.1993 35.1797 77.4193 35.451 77.654 35.627C77.8887 35.803 78.1013 35.891 78.292 35.891C78.5267 35.891 78.7467 35.8324 78.952 35.715C79.1573 35.583 79.348 35.4217 79.524 35.231C79.7 35.0257 79.854 34.7984 79.986 34.549C80.1327 34.285 80.25 34.0284 80.338 33.779C80.426 33.5297 80.5507 33.3537 80.712 33.251C80.888 33.1484 81.064 33.097 81.24 33.097C81.504 33.097 81.7313 33.1997 81.922 33.405C82.1273 33.6104 82.1787 33.8744 82.076 34.197C82.0027 34.4317 81.8633 34.6884 81.658 34.967C81.4527 35.2457 81.1887 35.5097 80.866 35.759C80.5433 35.9937 80.162 36.199 79.722 36.375C79.2967 36.5364 78.82 36.617 78.292 36.617C77.4413 36.617 76.6933 36.463 76.048 36.155C75.4027 35.8324 74.86 35.3997 74.42 34.857C73.98 34.3144 73.6427 33.691 73.408 32.987C73.188 32.2684 73.078 31.5057 73.078 30.699ZM76.334 30.413H77.742C78.006 30.413 78.2187 30.3544 78.38 30.237C78.5413 30.1197 78.666 29.973 78.754 29.797C78.8567 29.6064 78.9227 29.401 78.952 29.181C78.996 28.9464 79.018 28.719 79.018 28.499C79.018 28.191 79.0033 27.883 78.974 27.575C78.9447 27.267 78.8933 26.9884 78.82 26.739C78.7467 26.4897 78.6513 26.2917 78.534 26.145C78.4313 25.9837 78.2993 25.903 78.138 25.903C77.9767 25.903 77.7933 25.9984 77.588 26.189C77.3973 26.3797 77.214 26.6657 77.038 27.047C76.862 27.4284 76.708 27.8977 76.576 28.455C76.444 29.0124 76.3633 29.665 76.334 30.413Z" fill="black"/>
<path d="M84.2598 32.833C84.5238 32.833 84.7438 32.9137 84.9198 33.075C85.0958 33.2217 85.2425 33.405 85.3598 33.625C85.4772 33.845 85.5872 34.0944 85.6898 34.373C85.7925 34.637 85.9025 34.879 86.0198 35.099C86.1372 35.319 86.2765 35.5097 86.4378 35.671C86.6138 35.8177 86.8338 35.891 87.0978 35.891C87.3032 35.891 87.4865 35.847 87.6478 35.759C87.8238 35.6564 87.9705 35.5317 88.0878 35.385C88.2052 35.2384 88.2932 35.0697 88.3518 34.879C88.4252 34.6884 88.4618 34.4977 88.4618 34.307C88.4618 33.911 88.3225 33.559 88.0438 33.251C87.7798 32.9284 87.4425 32.6277 87.0318 32.349C86.6212 32.0557 86.1812 31.7697 85.7118 31.491C85.2425 31.2124 84.8025 30.919 84.3918 30.611C83.9812 30.303 83.6365 29.9657 83.3578 29.599C83.0938 29.2177 82.9618 28.785 82.9618 28.301C82.9618 27.729 83.1085 27.245 83.4018 26.849C83.7098 26.453 84.0838 26.1304 84.5238 25.881C84.9638 25.6317 85.4332 25.4557 85.9318 25.353C86.4305 25.2357 86.8852 25.177 87.2958 25.177C87.9412 25.177 88.5205 25.243 89.0338 25.375C89.5472 25.507 89.9872 25.6904 90.3538 25.925C90.7205 26.1597 90.9992 26.4384 91.1898 26.761C91.3952 27.069 91.4978 27.4064 91.4978 27.773C91.4978 28.0517 91.3805 28.323 91.1458 28.587C90.9112 28.8364 90.5812 28.961 90.1558 28.961C89.8918 28.961 89.6718 28.8877 89.4958 28.741C89.3198 28.5797 89.1732 28.389 89.0558 28.169C88.9385 27.949 88.8285 27.707 88.7258 27.443C88.6232 27.1644 88.5132 26.915 88.3958 26.695C88.2785 26.475 88.1318 26.2917 87.9558 26.145C87.7945 25.9837 87.5818 25.903 87.3178 25.903C87.1125 25.903 86.9218 25.9544 86.7458 26.057C86.5845 26.145 86.4452 26.2624 86.3278 26.409C86.2105 26.5557 86.1152 26.7244 86.0418 26.915C85.9832 27.1057 85.9538 27.2964 85.9538 27.487C85.9538 27.883 86.0858 28.2424 86.3498 28.565C86.6285 28.8877 86.9732 29.1957 87.3838 29.489C87.8092 29.7824 88.2565 30.0757 88.7258 30.369C89.2098 30.6477 89.6572 30.9484 90.0678 31.271C90.4932 31.5937 90.8378 31.9457 91.1018 32.327C91.3805 32.6937 91.5198 33.119 91.5198 33.603C91.5198 34.175 91.3658 34.6517 91.0578 35.033C90.7498 35.4144 90.3685 35.7224 89.9138 35.957C89.4738 36.1917 88.9972 36.3604 88.4838 36.463C87.9852 36.5657 87.5305 36.617 87.1198 36.617C86.4892 36.617 85.9098 36.551 85.3818 36.419C84.8685 36.287 84.4285 36.1037 84.0618 35.869C83.6952 35.6344 83.4092 35.363 83.2038 35.055C83.0132 34.7324 82.9178 34.3877 82.9178 34.021C82.9178 33.7424 83.0352 33.4784 83.2698 33.229C83.5045 32.965 83.8345 32.833 84.2598 32.833Z" fill="black"/>
<path d="M127.33 21.503C127.33 21.415 127.359 21.327 127.418 21.239C127.447 21.1804 127.499 21.129 127.572 21.085C127.66 21.0264 127.785 20.997 127.946 20.997H130.872C130.989 20.997 131.092 21.019 131.18 21.063C131.253 21.0924 131.319 21.1437 131.378 21.217C131.451 21.2757 131.488 21.371 131.488 21.503C131.488 21.635 131.451 21.7744 131.378 21.921C131.319 22.053 131.253 22.2217 131.18 22.427C131.107 22.6324 131.033 22.889 130.96 23.197C130.901 23.4904 130.872 23.8644 130.872 24.319V33.075C130.872 33.8524 130.916 34.483 131.004 34.967C131.092 35.4364 131.239 35.671 131.444 35.671H133.776C134.333 35.671 134.795 35.5684 135.162 35.363C135.529 35.143 135.837 34.901 136.086 34.637C136.35 34.373 136.57 34.1384 136.746 33.933C136.937 33.713 137.12 33.603 137.296 33.603C137.369 33.603 137.435 33.625 137.494 33.669C137.611 33.757 137.641 33.9257 137.582 34.175C137.538 34.4244 137.457 34.681 137.34 34.945C137.223 35.209 137.105 35.451 136.988 35.671C136.871 35.8764 136.812 35.979 136.812 35.979C136.709 36.155 136.533 36.2724 136.284 36.331C136.049 36.375 135.851 36.397 135.69 36.397H127.946C127.829 36.397 127.726 36.375 127.638 36.331C127.565 36.3017 127.491 36.2504 127.418 36.177C127.359 36.1037 127.33 36.0084 127.33 35.891C127.33 35.759 127.359 35.627 127.418 35.495C127.491 35.3484 127.565 35.1724 127.638 34.967C127.711 34.7617 127.777 34.5124 127.836 34.219C127.909 33.911 127.946 33.5297 127.946 33.075V24.319C127.946 23.8644 127.909 23.4904 127.836 23.197C127.777 22.889 127.711 22.6324 127.638 22.427C127.565 22.2217 127.491 22.053 127.418 21.921C127.359 21.7744 127.33 21.635 127.33 21.503Z" fill="black"/>
<path d="M138.903 27.025L140.377 25.815C140.494 25.7124 140.626 25.617 140.773 25.529C140.934 25.441 141.096 25.397 141.257 25.397C141.418 25.397 141.55 25.4704 141.653 25.617C141.77 25.7637 141.829 26.035 141.829 26.431V33.075C141.829 33.5297 141.858 33.911 141.917 34.219C141.99 34.5124 142.064 34.7617 142.137 34.967C142.21 35.1724 142.276 35.3484 142.335 35.495C142.408 35.627 142.445 35.759 142.445 35.891C142.445 35.979 142.423 36.0597 142.379 36.133C142.335 36.2064 142.269 36.2724 142.181 36.331C142.108 36.375 141.99 36.397 141.829 36.397H138.903C138.786 36.397 138.683 36.375 138.595 36.331C138.522 36.3017 138.448 36.2504 138.375 36.177C138.316 36.1037 138.287 36.0084 138.287 35.891C138.287 35.759 138.316 35.627 138.375 35.495C138.448 35.3484 138.522 35.1724 138.595 34.967C138.668 34.7617 138.734 34.5124 138.793 34.219C138.866 33.911 138.903 33.5297 138.903 33.075V28.829C138.566 28.477 138.375 28.1764 138.331 27.927C138.287 27.663 138.478 27.3624 138.903 27.025ZM140.377 19.897C140.934 19.897 141.404 20.095 141.785 20.491C142.166 20.887 142.357 21.3637 142.357 21.921C142.357 22.1997 142.306 22.4637 142.203 22.713C142.1 22.9477 141.961 23.1604 141.785 23.351C141.609 23.527 141.396 23.6664 141.147 23.769C140.912 23.8717 140.656 23.923 140.377 23.923C139.82 23.923 139.343 23.7324 138.947 23.351C138.566 22.955 138.375 22.4784 138.375 21.921C138.375 21.6424 138.426 21.3857 138.529 21.151C138.632 20.9017 138.771 20.689 138.947 20.513C139.138 20.3224 139.35 20.1757 139.585 20.073C139.834 19.9557 140.098 19.897 140.377 19.897Z" fill="black"/>
<path d="M146.905 25.397C147.023 25.397 147.125 25.419 147.213 25.463C147.287 25.4924 147.353 25.5437 147.411 25.617C147.485 25.6757 147.521 25.771 147.521 25.903C147.521 26.035 147.507 26.167 147.477 26.299C147.448 26.4164 147.426 26.5777 147.411 26.783C147.411 26.9737 147.433 27.223 147.477 27.531C147.521 27.839 147.617 28.235 147.763 28.719L149.765 35.297L151.547 28.719C151.665 28.2937 151.687 27.9344 151.613 27.641C151.555 27.3477 151.467 27.091 151.349 26.871C151.232 26.651 151.107 26.4677 150.975 26.321C150.858 26.1744 150.799 26.035 150.799 25.903C150.799 25.815 150.829 25.727 150.887 25.639C150.917 25.5804 150.968 25.529 151.041 25.485C151.129 25.4264 151.254 25.397 151.415 25.397H153.615C153.733 25.397 153.835 25.419 153.923 25.463C153.997 25.4924 154.063 25.5437 154.121 25.617C154.195 25.6757 154.231 25.771 154.231 25.903C154.231 26.035 154.151 26.1744 153.989 26.321C153.843 26.453 153.659 26.629 153.439 26.849C153.234 27.0544 153.021 27.311 152.801 27.619C152.581 27.9124 152.413 28.279 152.295 28.719L150.535 35.253C150.447 35.5757 150.345 35.847 150.227 36.067C150.125 36.287 149.963 36.397 149.743 36.397H147.565C147.228 36.397 146.942 36.0304 146.707 35.297L144.705 28.719C144.573 28.279 144.412 27.9124 144.221 27.619C144.045 27.311 143.869 27.0544 143.693 26.849C143.532 26.6437 143.393 26.4677 143.275 26.321C143.158 26.1744 143.099 26.035 143.099 25.903C143.099 25.815 143.129 25.727 143.187 25.639C143.217 25.5804 143.268 25.529 143.341 25.485C143.429 25.4264 143.554 25.397 143.715 25.397H146.905Z" fill="black"/>
<path d="M155.51 26.937L156.984 25.727C157.087 25.639 157.212 25.5657 157.358 25.507C157.505 25.4337 157.652 25.397 157.798 25.397C157.974 25.397 158.121 25.463 158.238 25.595C158.37 25.727 158.436 25.9764 158.436 26.343V26.453C158.818 26.0717 159.228 25.7637 159.668 25.529C160.123 25.2944 160.629 25.177 161.186 25.177C161.524 25.177 161.883 25.2284 162.264 25.331C162.646 25.4337 162.998 25.5877 163.32 25.793C163.643 25.9837 163.907 26.2257 164.112 26.519C164.318 26.8124 164.42 27.1424 164.42 27.509C164.42 27.7877 164.303 28.059 164.068 28.323C163.834 28.5724 163.504 28.697 163.078 28.697C162.682 28.697 162.374 28.5797 162.154 28.345C161.949 28.0957 161.773 27.8244 161.626 27.531C161.48 27.2377 161.34 26.9737 161.208 26.739C161.091 26.4897 160.908 26.365 160.658 26.365C160.35 26.365 159.998 26.4897 159.602 26.739C159.206 26.9737 158.818 27.289 158.436 27.685V33.075C158.436 33.5297 158.466 33.911 158.524 34.219C158.598 34.5124 158.671 34.7617 158.744 34.967C158.818 35.1724 158.884 35.3484 158.942 35.495C159.016 35.627 159.052 35.759 159.052 35.891C159.052 35.979 159.03 36.0597 158.986 36.133C158.942 36.2064 158.876 36.2724 158.788 36.331C158.715 36.375 158.598 36.397 158.436 36.397H155.51C155.1 36.397 154.894 36.2284 154.894 35.891C154.894 35.759 154.924 35.627 154.982 35.495C155.056 35.3484 155.129 35.1724 155.202 34.967C155.276 34.7617 155.342 34.5124 155.4 34.219C155.474 33.911 155.51 33.5297 155.51 33.075V28.741C155.51 28.4917 155.466 28.2937 155.378 28.147C155.305 27.9857 155.239 27.8464 155.18 27.729C155.136 27.597 155.129 27.4797 155.158 27.377C155.188 27.2597 155.305 27.113 155.51 26.937Z" fill="black"/>
<path d="M165.078 30.699C165.078 28.9684 165.511 27.619 166.376 26.651C167.256 25.6684 168.51 25.177 170.138 25.177C170.637 25.177 171.128 25.243 171.612 25.375C172.111 25.4924 172.551 25.6904 172.932 25.969C173.328 26.233 173.643 26.585 173.878 27.025C174.127 27.4504 174.252 27.971 174.252 28.587C174.252 29.1297 174.149 29.5697 173.944 29.907C173.739 30.2297 173.467 30.4864 173.13 30.677C172.793 30.853 172.404 30.9777 171.964 31.051C171.539 31.1097 171.091 31.139 170.622 31.139H168.312C168.312 31.9897 168.378 32.723 168.51 33.339C168.642 33.9404 168.803 34.4317 168.994 34.813C169.199 35.1797 169.419 35.451 169.654 35.627C169.889 35.803 170.101 35.891 170.292 35.891C170.527 35.891 170.747 35.8324 170.952 35.715C171.157 35.583 171.348 35.4217 171.524 35.231C171.7 35.0257 171.854 34.7984 171.986 34.549C172.133 34.285 172.25 34.0284 172.338 33.779C172.426 33.5297 172.551 33.3537 172.712 33.251C172.888 33.1484 173.064 33.097 173.24 33.097C173.504 33.097 173.731 33.1997 173.922 33.405C174.127 33.6104 174.179 33.8744 174.076 34.197C174.003 34.4317 173.863 34.6884 173.658 34.967C173.453 35.2457 173.189 35.5097 172.866 35.759C172.543 35.9937 172.162 36.199 171.722 36.375C171.297 36.5364 170.82 36.617 170.292 36.617C169.441 36.617 168.693 36.463 168.048 36.155C167.403 35.8324 166.86 35.3997 166.42 34.857C165.98 34.3144 165.643 33.691 165.408 32.987C165.188 32.2684 165.078 31.5057 165.078 30.699ZM168.334 30.413H169.742C170.006 30.413 170.219 30.3544 170.38 30.237C170.541 30.1197 170.666 29.973 170.754 29.797C170.857 29.6064 170.923 29.401 170.952 29.181C170.996 28.9464 171.018 28.719 171.018 28.499C171.018 28.191 171.003 27.883 170.974 27.575C170.945 27.267 170.893 26.9884 170.82 26.739C170.747 26.4897 170.651 26.2917 170.534 26.145C170.431 25.9837 170.299 25.903 170.138 25.903C169.977 25.903 169.793 25.9984 169.588 26.189C169.397 26.3797 169.214 26.6657 169.038 27.047C168.862 27.4284 168.708 27.8977 168.576 28.455C168.444 29.0124 168.363 29.665 168.334 30.413Z" fill="black"/>
<path d="M176.26 32.833C176.524 32.833 176.744 32.9137 176.92 33.075C177.096 33.2217 177.243 33.405 177.36 33.625C177.477 33.845 177.587 34.0944 177.69 34.373C177.793 34.637 177.903 34.879 178.02 35.099C178.137 35.319 178.277 35.5097 178.438 35.671C178.614 35.8177 178.834 35.891 179.098 35.891C179.303 35.891 179.487 35.847 179.648 35.759C179.824 35.6564 179.971 35.5317 180.088 35.385C180.205 35.2384 180.293 35.0697 180.352 34.879C180.425 34.6884 180.462 34.4977 180.462 34.307C180.462 33.911 180.323 33.559 180.044 33.251C179.78 32.9284 179.443 32.6277 179.032 32.349C178.621 32.0557 178.181 31.7697 177.712 31.491C177.243 31.2124 176.803 30.919 176.392 30.611C175.981 30.303 175.637 29.9657 175.358 29.599C175.094 29.2177 174.962 28.785 174.962 28.301C174.962 27.729 175.109 27.245 175.402 26.849C175.71 26.453 176.084 26.1304 176.524 25.881C176.964 25.6317 177.433 25.4557 177.932 25.353C178.431 25.2357 178.885 25.177 179.296 25.177C179.941 25.177 180.521 25.243 181.034 25.375C181.547 25.507 181.987 25.6904 182.354 25.925C182.721 26.1597 182.999 26.4384 183.19 26.761C183.395 27.069 183.498 27.4064 183.498 27.773C183.498 28.0517 183.381 28.323 183.146 28.587C182.911 28.8364 182.581 28.961 182.156 28.961C181.892 28.961 181.672 28.8877 181.496 28.741C181.32 28.5797 181.173 28.389 181.056 28.169C180.939 27.949 180.829 27.707 180.726 27.443C180.623 27.1644 180.513 26.915 180.396 26.695C180.279 26.475 180.132 26.2917 179.956 26.145C179.795 25.9837 179.582 25.903 179.318 25.903C179.113 25.903 178.922 25.9544 178.746 26.057C178.585 26.145 178.445 26.2624 178.328 26.409C178.211 26.5557 178.115 26.7244 178.042 26.915C177.983 27.1057 177.954 27.2964 177.954 27.487C177.954 27.883 178.086 28.2424 178.35 28.565C178.629 28.8877 178.973 29.1957 179.384 29.489C179.809 29.7824 180.257 30.0757 180.726 30.369C181.21 30.6477 181.657 30.9484 182.068 31.271C182.493 31.5937 182.838 31.9457 183.102 32.327C183.381 32.6937 183.52 33.119 183.52 33.603C183.52 34.175 183.366 34.6517 183.058 35.033C182.75 35.4144 182.369 35.7224 181.914 35.957C181.474 36.1917 180.997 36.3604 180.484 36.463C179.985 36.5657 179.531 36.617 179.12 36.617C178.489 36.617 177.91 36.551 177.382 36.419C176.869 36.287 176.429 36.1037 176.062 35.869C175.695 35.6344 175.409 35.363 175.204 35.055C175.013 34.7324 174.918 34.3877 174.918 34.021C174.918 33.7424 175.035 33.4784 175.27 33.229C175.505 32.965 175.835 32.833 176.26 32.833Z" fill="black"/>
<path d="M35.33 45.503C35.33 45.415 35.3593 45.327 35.418 45.239C35.4473 45.1804 35.4986 45.129 35.572 45.085C35.66 45.0264 35.7846 44.997 35.946 44.997H38.872C38.9893 44.997 39.092 45.019 39.18 45.063C39.2533 45.0924 39.3193 45.1437 39.378 45.217C39.4513 45.2757 39.488 45.371 39.488 45.503C39.488 45.635 39.4513 45.7744 39.378 45.921C39.3193 46.053 39.2533 46.2217 39.18 46.427C39.1066 46.6324 39.0333 46.889 38.96 47.197C38.9013 47.4904 38.872 47.8644 38.872 48.319V57.075C38.872 57.8524 38.916 58.483 39.004 58.967C39.092 59.4364 39.2386 59.671 39.444 59.671H41.776C42.3333 59.671 42.7953 59.5684 43.162 59.363C43.5286 59.143 43.8366 58.901 44.086 58.637C44.35 58.373 44.57 58.1384 44.746 57.933C44.9366 57.713 45.12 57.603 45.296 57.603C45.3693 57.603 45.4353 57.625 45.494 57.669C45.6113 57.757 45.6406 57.9257 45.582 58.175C45.538 58.4244 45.4573 58.681 45.34 58.945C45.2226 59.209 45.1053 59.451 44.988 59.671C44.8706 59.8764 44.812 59.979 44.812 59.979C44.7093 60.155 44.5333 60.2724 44.284 60.331C44.0493 60.375 43.8513 60.397 43.69 60.397H35.946C35.8286 60.397 35.726 60.375 35.638 60.331C35.5646 60.3017 35.4913 60.2504 35.418 60.177C35.3593 60.1037 35.33 60.0084 35.33 59.891C35.33 59.759 35.3593 59.627 35.418 59.495C35.4913 59.3484 35.5646 59.1724 35.638 58.967C35.7113 58.7617 35.7773 58.5124 35.836 58.219C35.9093 57.911 35.946 57.5297 35.946 57.075V48.319C35.946 47.8644 35.9093 47.4904 35.836 47.197C35.7773 46.889 35.7113 46.6324 35.638 46.427C35.5646 46.2217 35.4913 46.053 35.418 45.921C35.3593 45.7744 35.33 45.635 35.33 45.503Z" fill="black"/>
<path d="M46.903 51.025L48.377 49.815C48.4943 49.7124 48.6263 49.617 48.773 49.529C48.9343 49.441 49.0957 49.397 49.257 49.397C49.4183 49.397 49.5503 49.4704 49.653 49.617C49.7703 49.7637 49.829 50.035 49.829 50.431V57.075C49.829 57.5297 49.8583 57.911 49.917 58.219C49.9903 58.5124 50.0637 58.7617 50.137 58.967C50.2103 59.1724 50.2763 59.3484 50.335 59.495C50.4083 59.627 50.445 59.759 50.445 59.891C50.445 59.979 50.423 60.0597 50.379 60.133C50.335 60.2064 50.269 60.2724 50.181 60.331C50.1077 60.375 49.9903 60.397 49.829 60.397H46.903C46.7857 60.397 46.683 60.375 46.595 60.331C46.5217 60.3017 46.4483 60.2504 46.375 60.177C46.3163 60.1037 46.287 60.0084 46.287 59.891C46.287 59.759 46.3163 59.627 46.375 59.495C46.4483 59.3484 46.5217 59.1724 46.595 58.967C46.6683 58.7617 46.7343 58.5124 46.793 58.219C46.8663 57.911 46.903 57.5297 46.903 57.075V52.829C46.5657 52.477 46.375 52.1764 46.331 51.927C46.287 51.663 46.4777 51.3624 46.903 51.025ZM48.377 43.897C48.9343 43.897 49.4037 44.095 49.785 44.491C50.1663 44.887 50.357 45.3637 50.357 45.921C50.357 46.1997 50.3057 46.4637 50.203 46.713C50.1003 46.9477 49.961 47.1604 49.785 47.351C49.609 47.527 49.3963 47.6664 49.147 47.769C48.9123 47.8717 48.6557 47.923 48.377 47.923C47.8197 47.923 47.343 47.7324 46.947 47.351C46.5657 46.955 46.375 46.4784 46.375 45.921C46.375 45.6424 46.4263 45.3857 46.529 45.151C46.6317 44.9017 46.771 44.689 46.947 44.513C47.1377 44.3224 47.3503 44.1757 47.585 44.073C47.8343 43.9557 48.0983 43.897 48.377 43.897Z" fill="black"/>
<path d="M54.9055 49.397C55.0228 49.397 55.1255 49.419 55.2135 49.463C55.2868 49.4924 55.3528 49.5437 55.4115 49.617C55.4848 49.6757 55.5215 49.771 55.5215 49.903C55.5215 50.035 55.5068 50.167 55.4775 50.299C55.4482 50.4164 55.4262 50.5777 55.4115 50.783C55.4115 50.9737 55.4335 51.223 55.4775 51.531C55.5215 51.839 55.6168 52.235 55.7635 52.719L57.7655 59.297L59.5475 52.719C59.6648 52.2937 59.6868 51.9344 59.6135 51.641C59.5548 51.3477 59.4668 51.091 59.3495 50.871C59.2322 50.651 59.1075 50.4677 58.9755 50.321C58.8582 50.1744 58.7995 50.035 58.7995 49.903C58.7995 49.815 58.8288 49.727 58.8875 49.639C58.9168 49.5804 58.9682 49.529 59.0415 49.485C59.1295 49.4264 59.2542 49.397 59.4155 49.397H61.6155C61.7328 49.397 61.8355 49.419 61.9235 49.463C61.9968 49.4924 62.0628 49.5437 62.1215 49.617C62.1948 49.6757 62.2315 49.771 62.2315 49.903C62.2315 50.035 62.1508 50.1744 61.9895 50.321C61.8428 50.453 61.6595 50.629 61.4395 50.849C61.2342 51.0544 61.0215 51.311 60.8015 51.619C60.5815 51.9124 60.4128 52.279 60.2955 52.719L58.5355 59.253C58.4475 59.5757 58.3448 59.847 58.2275 60.067C58.1248 60.287 57.9635 60.397 57.7435 60.397H55.5655C55.2282 60.397 54.9422 60.0304 54.7075 59.297L52.7055 52.719C52.5735 52.279 52.4122 51.9124 52.2215 51.619C52.0455 51.311 51.8695 51.0544 51.6935 50.849C51.5322 50.6437 51.3928 50.4677 51.2755 50.321C51.1582 50.1744 51.0995 50.035 51.0995 49.903C51.0995 49.815 51.1288 49.727 51.1875 49.639C51.2168 49.5804 51.2682 49.529 51.3415 49.485C51.4295 49.4264 51.5542 49.397 51.7155 49.397H54.9055Z" fill="black"/>
<path d="M63.5104 50.937L64.9844 49.727C65.0871 49.639 65.2117 49.5657 65.3584 49.507C65.5051 49.4337 65.6517 49.397 65.7984 49.397C65.9744 49.397 66.1211 49.463 66.2384 49.595C66.3704 49.727 66.4364 49.9764 66.4364 50.343V50.453C66.8177 50.0717 67.2284 49.7637 67.6684 49.529C68.1231 49.2944 68.6291 49.177 69.1864 49.177C69.5237 49.177 69.8831 49.2284 70.2644 49.331C70.6457 49.4337 70.9977 49.5877 71.3204 49.793C71.6431 49.9837 71.9071 50.2257 72.1124 50.519C72.3177 50.8124 72.4204 51.1424 72.4204 51.509C72.4204 51.7877 72.3031 52.059 72.0684 52.323C71.8337 52.5724 71.5037 52.697 71.0784 52.697C70.6824 52.697 70.3744 52.5797 70.1544 52.345C69.9491 52.0957 69.7731 51.8244 69.6264 51.531C69.4797 51.2377 69.3404 50.9737 69.2084 50.739C69.0911 50.4897 68.9077 50.365 68.6584 50.365C68.3504 50.365 67.9984 50.4897 67.6024 50.739C67.2064 50.9737 66.8177 51.289 66.4364 51.685V57.075C66.4364 57.5297 66.4657 57.911 66.5244 58.219C66.5977 58.5124 66.6711 58.7617 66.7444 58.967C66.8177 59.1724 66.8837 59.3484 66.9424 59.495C67.0157 59.627 67.0524 59.759 67.0524 59.891C67.0524 59.979 67.0304 60.0597 66.9864 60.133C66.9424 60.2064 66.8764 60.2724 66.7884 60.331C66.7151 60.375 66.5977 60.397 66.4364 60.397H63.5104C63.0997 60.397 62.8944 60.2284 62.8944 59.891C62.8944 59.759 62.9237 59.627 62.9824 59.495C63.0557 59.3484 63.1291 59.1724 63.2024 58.967C63.2757 58.7617 63.3417 58.5124 63.4004 58.219C63.4737 57.911 63.5104 57.5297 63.5104 57.075V52.741C63.5104 52.4917 63.4664 52.2937 63.3784 52.147C63.3051 51.9857 63.2391 51.8464 63.1804 51.729C63.1364 51.597 63.1291 51.4797 63.1584 51.377C63.1877 51.2597 63.3051 51.113 63.5104 50.937Z" fill="black"/>
<path d="M73.078 54.699C73.078 52.9684 73.5107 51.619 74.376 50.651C75.256 49.6684 76.51 49.177 78.138 49.177C78.6367 49.177 79.128 49.243 79.612 49.375C80.1107 49.4924 80.5507 49.6904 80.932 49.969C81.328 50.233 81.6433 50.585 81.878 51.025C82.1273 51.4504 82.252 51.971 82.252 52.587C82.252 53.1297 82.1493 53.5697 81.944 53.907C81.7387 54.2297 81.4673 54.4864 81.13 54.677C80.7927 54.853 80.404 54.9777 79.964 55.051C79.5387 55.1097 79.0913 55.139 78.622 55.139H76.312C76.312 55.9897 76.378 56.723 76.51 57.339C76.642 57.9404 76.8033 58.4317 76.994 58.813C77.1993 59.1797 77.4193 59.451 77.654 59.627C77.8887 59.803 78.1013 59.891 78.292 59.891C78.5267 59.891 78.7467 59.8324 78.952 59.715C79.1573 59.583 79.348 59.4217 79.524 59.231C79.7 59.0257 79.854 58.7984 79.986 58.549C80.1327 58.285 80.25 58.0284 80.338 57.779C80.426 57.5297 80.5507 57.3537 80.712 57.251C80.888 57.1484 81.064 57.097 81.24 57.097C81.504 57.097 81.7313 57.1997 81.922 57.405C82.1273 57.6104 82.1787 57.8744 82.076 58.197C82.0027 58.4317 81.8633 58.6884 81.658 58.967C81.4527 59.2457 81.1887 59.5097 80.866 59.759C80.5433 59.9937 80.162 60.199 79.722 60.375C79.2967 60.5364 78.82 60.617 78.292 60.617C77.4413 60.617 76.6933 60.463 76.048 60.155C75.4027 59.8324 74.86 59.3997 74.42 58.857C73.98 58.3144 73.6427 57.691 73.408 56.987C73.188 56.2684 73.078 55.5057 73.078 54.699ZM76.334 54.413H77.742C78.006 54.413 78.2187 54.3544 78.38 54.237C78.5413 54.1197 78.666 53.973 78.754 53.797C78.8567 53.6064 78.9227 53.401 78.952 53.181C78.996 52.9464 79.018 52.719 79.018 52.499C79.018 52.191 79.0033 51.883 78.974 51.575C78.9447 51.267 78.8933 50.9884 78.82 50.739C78.7467 50.4897 78.6513 50.2917 78.534 50.145C78.4313 49.9837 78.2993 49.903 78.138 49.903C77.9767 49.903 77.7933 49.9984 77.588 50.189C77.3973 50.3797 77.214 50.6657 77.038 51.047C76.862 51.4284 76.708 51.8977 76.576 52.455C76.444 53.0124 76.3633 53.665 76.334 54.413Z" fill="black"/>
<path d="M84.2598 56.833C84.5238 56.833 84.7438 56.9137 84.9198 57.075C85.0958 57.2217 85.2425 57.405 85.3598 57.625C85.4772 57.845 85.5872 58.0944 85.6898 58.373C85.7925 58.637 85.9025 58.879 86.0198 59.099C86.1372 59.319 86.2765 59.5097 86.4378 59.671C86.6138 59.8177 86.8338 59.891 87.0978 59.891C87.3032 59.891 87.4865 59.847 87.6478 59.759C87.8238 59.6564 87.9705 59.5317 88.0878 59.385C88.2052 59.2384 88.2932 59.0697 88.3518 58.879C88.4252 58.6884 88.4618 58.4977 88.4618 58.307C88.4618 57.911 88.3225 57.559 88.0438 57.251C87.7798 56.9284 87.4425 56.6277 87.0318 56.349C86.6212 56.0557 86.1812 55.7697 85.7118 55.491C85.2425 55.2124 84.8025 54.919 84.3918 54.611C83.9812 54.303 83.6365 53.9657 83.3578 53.599C83.0938 53.2177 82.9618 52.785 82.9618 52.301C82.9618 51.729 83.1085 51.245 83.4018 50.849C83.7098 50.453 84.0838 50.1304 84.5238 49.881C84.9638 49.6317 85.4332 49.4557 85.9318 49.353C86.4305 49.2357 86.8852 49.177 87.2958 49.177C87.9412 49.177 88.5205 49.243 89.0338 49.375C89.5472 49.507 89.9872 49.6904 90.3538 49.925C90.7205 50.1597 90.9992 50.4384 91.1898 50.761C91.3952 51.069 91.4978 51.4064 91.4978 51.773C91.4978 52.0517 91.3805 52.323 91.1458 52.587C90.9112 52.8364 90.5812 52.961 90.1558 52.961C89.8918 52.961 89.6718 52.8877 89.4958 52.741C89.3198 52.5797 89.1732 52.389 89.0558 52.169C88.9385 51.949 88.8285 51.707 88.7258 51.443C88.6232 51.1644 88.5132 50.915 88.3958 50.695C88.2785 50.475 88.1318 50.2917 87.9558 50.145C87.7945 49.9837 87.5818 49.903 87.3178 49.903C87.1125 49.903 86.9218 49.9544 86.7458 50.057C86.5845 50.145 86.4452 50.2624 86.3278 50.409C86.2105 50.5557 86.1152 50.7244 86.0418 50.915C85.9832 51.1057 85.9538 51.2964 85.9538 51.487C85.9538 51.883 86.0858 52.2424 86.3498 52.565C86.6285 52.8877 86.9732 53.1957 87.3838 53.489C87.8092 53.7824 88.2565 54.0757 88.7258 54.369C89.2098 54.6477 89.6572 54.9484 90.0678 55.271C90.4932 55.5937 90.8378 55.9457 91.1018 56.327C91.3805 56.6937 91.5198 57.119 91.5198 57.603C91.5198 58.175 91.3658 58.6517 91.0578 59.033C90.7498 59.4144 90.3685 59.7224 89.9138 59.957C89.4738 60.1917 88.9972 60.3604 88.4838 60.463C87.9852 60.5657 87.5305 60.617 87.1198 60.617C86.4892 60.617 85.9098 60.551 85.3818 60.419C84.8685 60.287 84.4285 60.1037 84.0618 59.869C83.6952 59.6344 83.4092 59.363 83.2038 59.055C83.0132 58.7324 82.9178 58.3877 82.9178 58.021C82.9178 57.7424 83.0352 57.4784 83.2698 57.229C83.5045 56.965 83.8345 56.833 84.2598 56.833Z" fill="black"/>
<path d="M127.33 45.503C127.33 45.415 127.359 45.327 127.418 45.239C127.447 45.1804 127.499 45.129 127.572 45.085C127.66 45.0264 127.785 44.997 127.946 44.997H130.872C130.989 44.997 131.092 45.019 131.18 45.063C131.253 45.0924 131.319 45.1437 131.378 45.217C131.451 45.2757 131.488 45.371 131.488 45.503C131.488 45.635 131.451 45.7744 131.378 45.921C131.319 46.053 131.253 46.2217 131.18 46.427C131.107 46.6324 131.033 46.889 130.96 47.197C130.901 47.4904 130.872 47.8644 130.872 48.319V57.075C130.872 57.8524 130.916 58.483 131.004 58.967C131.092 59.4364 131.239 59.671 131.444 59.671H133.776C134.333 59.671 134.795 59.5684 135.162 59.363C135.529 59.143 135.837 58.901 136.086 58.637C136.35 58.373 136.57 58.1384 136.746 57.933C136.937 57.713 137.12 57.603 137.296 57.603C137.369 57.603 137.435 57.625 137.494 57.669C137.611 57.757 137.641 57.9257 137.582 58.175C137.538 58.4244 137.457 58.681 137.34 58.945C137.223 59.209 137.105 59.451 136.988 59.671C136.871 59.8764 136.812 59.979 136.812 59.979C136.709 60.155 136.533 60.2724 136.284 60.331C136.049 60.375 135.851 60.397 135.69 60.397H127.946C127.829 60.397 127.726 60.375 127.638 60.331C127.565 60.3017 127.491 60.2504 127.418 60.177C127.359 60.1037 127.33 60.0084 127.33 59.891C127.33 59.759 127.359 59.627 127.418 59.495C127.491 59.3484 127.565 59.1724 127.638 58.967C127.711 58.7617 127.777 58.5124 127.836 58.219C127.909 57.911 127.946 57.5297 127.946 57.075V48.319C127.946 47.8644 127.909 47.4904 127.836 47.197C127.777 46.889 127.711 46.6324 127.638 46.427C127.565 46.2217 127.491 46.053 127.418 45.921C127.359 45.7744 127.33 45.635 127.33 45.503Z" fill="black"/>
<path d="M138.903 51.025L140.377 49.815C140.494 49.7124 140.626 49.617 140.773 49.529C140.934 49.441 141.096 49.397 141.257 49.397C141.418 49.397 141.55 49.4704 141.653 49.617C141.77 49.7637 141.829 50.035 141.829 50.431V57.075C141.829 57.5297 141.858 57.911 141.917 58.219C141.99 58.5124 142.064 58.7617 142.137 58.967C142.21 59.1724 142.276 59.3484 142.335 59.495C142.408 59.627 142.445 59.759 142.445 59.891C142.445 59.979 142.423 60.0597 142.379 60.133C142.335 60.2064 142.269 60.2724 142.181 60.331C142.108 60.375 141.99 60.397 141.829 60.397H138.903C138.786 60.397 138.683 60.375 138.595 60.331C138.522 60.3017 138.448 60.2504 138.375 60.177C138.316 60.1037 138.287 60.0084 138.287 59.891C138.287 59.759 138.316 59.627 138.375 59.495C138.448 59.3484 138.522 59.1724 138.595 58.967C138.668 58.7617 138.734 58.5124 138.793 58.219C138.866 57.911 138.903 57.5297 138.903 57.075V52.829C138.566 52.477 138.375 52.1764 138.331 51.927C138.287 51.663 138.478 51.3624 138.903 51.025ZM140.377 43.897C140.934 43.897 141.404 44.095 141.785 44.491C142.166 44.887 142.357 45.3637 142.357 45.921C142.357 46.1997 142.306 46.4637 142.203 46.713C142.1 46.9477 141.961 47.1604 141.785 47.351C141.609 47.527 141.396 47.6664 141.147 47.769C140.912 47.8717 140.656 47.923 140.377 47.923C139.82 47.923 139.343 47.7324 138.947 47.351C138.566 46.955 138.375 46.4784 138.375 45.921C138.375 45.6424 138.426 45.3857 138.529 45.151C138.632 44.9017 138.771 44.689 138.947 44.513C139.138 44.3224 139.35 44.1757 139.585 44.073C139.834 43.9557 140.098 43.897 140.377 43.897Z" fill="black"/>
<path d="M146.905 49.397C147.023 49.397 147.125 49.419 147.213 49.463C147.287 49.4924 147.353 49.5437 147.411 49.617C147.485 49.6757 147.521 49.771 147.521 49.903C147.521 50.035 147.507 50.167 147.477 50.299C147.448 50.4164 147.426 50.5777 147.411 50.783C147.411 50.9737 147.433 51.223 147.477 51.531C147.521 51.839 147.617 52.235 147.763 52.719L149.765 59.297L151.547 52.719C151.665 52.2937 151.687 51.9344 151.613 51.641C151.555 51.3477 151.467 51.091 151.349 50.871C151.232 50.651 151.107 50.4677 150.975 50.321C150.858 50.1744 150.799 50.035 150.799 49.903C150.799 49.815 150.829 49.727 150.887 49.639C150.917 49.5804 150.968 49.529 151.041 49.485C151.129 49.4264 151.254 49.397 151.415 49.397H153.615C153.733 49.397 153.835 49.419 153.923 49.463C153.997 49.4924 154.063 49.5437 154.121 49.617C154.195 49.6757 154.231 49.771 154.231 49.903C154.231 50.035 154.151 50.1744 153.989 50.321C153.843 50.453 153.659 50.629 153.439 50.849C153.234 51.0544 153.021 51.311 152.801 51.619C152.581 51.9124 152.413 52.279 152.295 52.719L150.535 59.253C150.447 59.5757 150.345 59.847 150.227 60.067C150.125 60.287 149.963 60.397 149.743 60.397H147.565C147.228 60.397 146.942 60.0304 146.707 59.297L144.705 52.719C144.573 52.279 144.412 51.9124 144.221 51.619C144.045 51.311 143.869 51.0544 143.693 50.849C143.532 50.6437 143.393 50.4677 143.275 50.321C143.158 50.1744 143.099 50.035 143.099 49.903C143.099 49.815 143.129 49.727 143.187 49.639C143.217 49.5804 143.268 49.529 143.341 49.485C143.429 49.4264 143.554 49.397 143.715 49.397H146.905Z" fill="black"/>
<path d="M155.51 50.937L156.984 49.727C157.087 49.639 157.212 49.5657 157.358 49.507C157.505 49.4337 157.652 49.397 157.798 49.397C157.974 49.397 158.121 49.463 158.238 49.595C158.37 49.727 158.436 49.9764 158.436 50.343V50.453C158.818 50.0717 159.228 49.7637 159.668 49.529C160.123 49.2944 160.629 49.177 161.186 49.177C161.524 49.177 161.883 49.2284 162.264 49.331C162.646 49.4337 162.998 49.5877 163.32 49.793C163.643 49.9837 163.907 50.2257 164.112 50.519C164.318 50.8124 164.42 51.1424 164.42 51.509C164.42 51.7877 164.303 52.059 164.068 52.323C163.834 52.5724 163.504 52.697 163.078 52.697C162.682 52.697 162.374 52.5797 162.154 52.345C161.949 52.0957 161.773 51.8244 161.626 51.531C161.48 51.2377 161.34 50.9737 161.208 50.739C161.091 50.4897 160.908 50.365 160.658 50.365C160.35 50.365 159.998 50.4897 159.602 50.739C159.206 50.9737 158.818 51.289 158.436 51.685V57.075C158.436 57.5297 158.466 57.911 158.524 58.219C158.598 58.5124 158.671 58.7617 158.744 58.967C158.818 59.1724 158.884 59.3484 158.942 59.495C159.016 59.627 159.052 59.759 159.052 59.891C159.052 59.979 159.03 60.0597 158.986 60.133C158.942 60.2064 158.876 60.2724 158.788 60.331C158.715 60.375 158.598 60.397 158.436 60.397H155.51C155.1 60.397 154.894 60.2284 154.894 59.891C154.894 59.759 154.924 59.627 154.982 59.495C155.056 59.3484 155.129 59.1724 155.202 58.967C155.276 58.7617 155.342 58.5124 155.4 58.219C155.474 57.911 155.51 57.5297 155.51 57.075V52.741C155.51 52.4917 155.466 52.2937 155.378 52.147C155.305 51.9857 155.239 51.8464 155.18 51.729C155.136 51.597 155.129 51.4797 155.158 51.377C155.188 51.2597 155.305 51.113 155.51 50.937Z" fill="black"/>
<path d="M165.078 54.699C165.078 52.9684 165.511 51.619 166.376 50.651C167.256 49.6684 168.51 49.177 170.138 49.177C170.637 49.177 171.128 49.243 171.612 49.375C172.111 49.4924 172.551 49.6904 172.932 49.969C173.328 50.233 173.643 50.585 173.878 51.025C174.127 51.4504 174.252 51.971 174.252 52.587C174.252 53.1297 174.149 53.5697 173.944 53.907C173.739 54.2297 173.467 54.4864 173.13 54.677C172.793 54.853 172.404 54.9777 171.964 55.051C171.539 55.1097 171.091 55.139 170.622 55.139H168.312C168.312 55.9897 168.378 56.723 168.51 57.339C168.642 57.9404 168.803 58.4317 168.994 58.813C169.199 59.1797 169.419 59.451 169.654 59.627C169.889 59.803 170.101 59.891 170.292 59.891C170.527 59.891 170.747 59.8324 170.952 59.715C171.157 59.583 171.348 59.4217 171.524 59.231C171.7 59.0257 171.854 58.7984 171.986 58.549C172.133 58.285 172.25 58.0284 172.338 57.779C172.426 57.5297 172.551 57.3537 172.712 57.251C172.888 57.1484 173.064 57.097 173.24 57.097C173.504 57.097 173.731 57.1997 173.922 57.405C174.127 57.6104 174.179 57.8744 174.076 58.197C174.003 58.4317 173.863 58.6884 173.658 58.967C173.453 59.2457 173.189 59.5097 172.866 59.759C172.543 59.9937 172.162 60.199 171.722 60.375C171.297 60.5364 170.82 60.617 170.292 60.617C169.441 60.617 168.693 60.463 168.048 60.155C167.403 59.8324 166.86 59.3997 166.42 58.857C165.98 58.3144 165.643 57.691 165.408 56.987C165.188 56.2684 165.078 55.5057 165.078 54.699ZM168.334 54.413H169.742C170.006 54.413 170.219 54.3544 170.38 54.237C170.541 54.1197 170.666 53.973 170.754 53.797C170.857 53.6064 170.923 53.401 170.952 53.181C170.996 52.9464 171.018 52.719 171.018 52.499C171.018 52.191 171.003 51.883 170.974 51.575C170.945 51.267 170.893 50.9884 170.82 50.739C170.747 50.4897 170.651 50.2917 170.534 50.145C170.431 49.9837 170.299 49.903 170.138 49.903C169.977 49.903 169.793 49.9984 169.588 50.189C169.397 50.3797 169.214 50.6657 169.038 51.047C168.862 51.4284 168.708 51.8977 168.576 52.455C168.444 53.0124 168.363 53.665 168.334 54.413Z" fill="black"/>
<path d="M176.26 56.833C176.524 56.833 176.744 56.9137 176.92 57.075C177.096 57.2217 177.243 57.405 177.36 57.625C177.477 57.845 177.587 58.0944 177.69 58.373C177.793 58.637 177.903 58.879 178.02 59.099C178.137 59.319 178.277 59.5097 178.438 59.671C178.614 59.8177 178.834 59.891 179.098 59.891C179.303 59.891 179.487 59.847 179.648 59.759C179.824 59.6564 179.971 59.5317 180.088 59.385C180.205 59.2384 180.293 59.0697 180.352 58.879C180.425 58.6884 180.462 58.4977 180.462 58.307C180.462 57.911 180.323 57.559 180.044 57.251C179.78 56.9284 179.443 56.6277 179.032 56.349C178.621 56.0557 178.181 55.7697 177.712 55.491C177.243 55.2124 176.803 54.919 176.392 54.611C175.981 54.303 175.637 53.9657 175.358 53.599C175.094 53.2177 174.962 52.785 174.962 52.301C174.962 51.729 175.109 51.245 175.402 50.849C175.71 50.453 176.084 50.1304 176.524 49.881C176.964 49.6317 177.433 49.4557 177.932 49.353C178.431 49.2357 178.885 49.177 179.296 49.177C179.941 49.177 180.521 49.243 181.034 49.375C181.547 49.507 181.987 49.6904 182.354 49.925C182.721 50.1597 182.999 50.4384 183.19 50.761C183.395 51.069 183.498 51.4064 183.498 51.773C183.498 52.0517 183.381 52.323 183.146 52.587C182.911 52.8364 182.581 52.961 182.156 52.961C181.892 52.961 181.672 52.8877 181.496 52.741C181.32 52.5797 181.173 52.389 181.056 52.169C180.939 51.949 180.829 51.707 180.726 51.443C180.623 51.1644 180.513 50.915 180.396 50.695C180.279 50.475 180.132 50.2917 179.956 50.145C179.795 49.9837 179.582 49.903 179.318 49.903C179.113 49.903 178.922 49.9544 178.746 50.057C178.585 50.145 178.445 50.2624 178.328 50.409C178.211 50.5557 178.115 50.7244 178.042 50.915C177.983 51.1057 177.954 51.2964 177.954 51.487C177.954 51.883 178.086 52.2424 178.35 52.565C178.629 52.8877 178.973 53.1957 179.384 53.489C179.809 53.7824 180.257 54.0757 180.726 54.369C181.21 54.6477 181.657 54.9484 182.068 55.271C182.493 55.5937 182.838 55.9457 183.102 56.327C183.381 56.6937 183.52 57.119 183.52 57.603C183.52 58.175 183.366 58.6517 183.058 59.033C182.75 59.4144 182.369 59.7224 181.914 59.957C181.474 60.1917 180.997 60.3604 180.484 60.463C179.985 60.5657 179.531 60.617 179.12 60.617C178.489 60.617 177.91 60.551 177.382 60.419C176.869 60.287 176.429 60.1037 176.062 59.869C175.695 59.6344 175.409 59.363 175.204 59.055C175.013 58.7324 174.918 58.3877 174.918 58.021C174.918 57.7424 175.035 57.4784 175.27 57.229C175.505 56.965 175.835 56.833 176.26 56.833Z" fill="black"/>
<path d="M35.33 69.503C35.33 69.415 35.3593 69.327 35.418 69.239C35.4473 69.1804 35.4986 69.129 35.572 69.085C35.66 69.0264 35.7846 68.997 35.946 68.997H38.872C38.9893 68.997 39.092 69.019 39.18 69.063C39.2533 69.0924 39.3193 69.1437 39.378 69.217C39.4513 69.2757 39.488 69.371 39.488 69.503C39.488 69.635 39.4513 69.7744 39.378 69.921C39.3193 70.053 39.2533 70.2217 39.18 70.427C39.1066 70.6324 39.0333 70.889 38.96 71.197C38.9013 71.4904 38.872 71.8644 38.872 72.319V81.075C38.872 81.8524 38.916 82.483 39.004 82.967C39.092 83.4364 39.2386 83.671 39.444 83.671H41.776C42.3333 83.671 42.7953 83.5684 43.162 83.363C43.5286 83.143 43.8366 82.901 44.086 82.637C44.35 82.373 44.57 82.1384 44.746 81.933C44.9366 81.713 45.12 81.603 45.296 81.603C45.3693 81.603 45.4353 81.625 45.494 81.669C45.6113 81.757 45.6406 81.9257 45.582 82.175C45.538 82.4244 45.4573 82.681 45.34 82.945C45.2226 83.209 45.1053 83.451 44.988 83.671C44.8706 83.8764 44.812 83.979 44.812 83.979C44.7093 84.155 44.5333 84.2724 44.284 84.331C44.0493 84.375 43.8513 84.397 43.69 84.397H35.946C35.8286 84.397 35.726 84.375 35.638 84.331C35.5646 84.3017 35.4913 84.2504 35.418 84.177C35.3593 84.1037 35.33 84.0084 35.33 83.891C35.33 83.759 35.3593 83.627 35.418 83.495C35.4913 83.3484 35.5646 83.1724 35.638 82.967C35.7113 82.7617 35.7773 82.5124 35.836 82.219C35.9093 81.911 35.946 81.5297 35.946 81.075V72.319C35.946 71.8644 35.9093 71.4904 35.836 71.197C35.7773 70.889 35.7113 70.6324 35.638 70.427C35.5646 70.2217 35.4913 70.053 35.418 69.921C35.3593 69.7744 35.33 69.635 35.33 69.503Z" fill="black"/>
<path d="M46.903 75.025L48.377 73.815C48.4943 73.7124 48.6263 73.617 48.773 73.529C48.9343 73.441 49.0957 73.397 49.257 73.397C49.4183 73.397 49.5503 73.4704 49.653 73.617C49.7703 73.7637 49.829 74.035 49.829 74.431V81.075C49.829 81.5297 49.8583 81.911 49.917 82.219C49.9903 82.5124 50.0637 82.7617 50.137 82.967C50.2103 83.1724 50.2763 83.3484 50.335 83.495C50.4083 83.627 50.445 83.759 50.445 83.891C50.445 83.979 50.423 84.0597 50.379 84.133C50.335 84.2064 50.269 84.2724 50.181 84.331C50.1077 84.375 49.9903 84.397 49.829 84.397H46.903C46.7857 84.397 46.683 84.375 46.595 84.331C46.5217 84.3017 46.4483 84.2504 46.375 84.177C46.3163 84.1037 46.287 84.0084 46.287 83.891C46.287 83.759 46.3163 83.627 46.375 83.495C46.4483 83.3484 46.5217 83.1724 46.595 82.967C46.6683 82.7617 46.7343 82.5124 46.793 82.219C46.8663 81.911 46.903 81.5297 46.903 81.075V76.829C46.5657 76.477 46.375 76.1764 46.331 75.927C46.287 75.663 46.4777 75.3624 46.903 75.025ZM48.377 67.897C48.9343 67.897 49.4037 68.095 49.785 68.491C50.1663 68.887 50.357 69.3637 50.357 69.921C50.357 70.1997 50.3057 70.4637 50.203 70.713C50.1003 70.9477 49.961 71.1604 49.785 71.351C49.609 71.527 49.3963 71.6664 49.147 71.769C48.9123 71.8717 48.6557 71.923 48.377 71.923C47.8197 71.923 47.343 71.7324 46.947 71.351C46.5657 70.955 46.375 70.4784 46.375 69.921C46.375 69.6424 46.4263 69.3857 46.529 69.151C46.6317 68.9017 46.771 68.689 46.947 68.513C47.1377 68.3224 47.3503 68.1757 47.585 68.073C47.8343 67.9557 48.0983 67.897 48.377 67.897Z" fill="black"/>
<path d="M54.9055 73.397C55.0228 73.397 55.1255 73.419 55.2135 73.463C55.2868 73.4924 55.3528 73.5437 55.4115 73.617C55.4848 73.6757 55.5215 73.771 55.5215 73.903C55.5215 74.035 55.5068 74.167 55.4775 74.299C55.4482 74.4164 55.4262 74.5777 55.4115 74.783C55.4115 74.9737 55.4335 75.223 55.4775 75.531C55.5215 75.839 55.6168 76.235 55.7635 76.719L57.7655 83.297L59.5475 76.719C59.6648 76.2937 59.6868 75.9344 59.6135 75.641C59.5548 75.3477 59.4668 75.091 59.3495 74.871C59.2322 74.651 59.1075 74.4677 58.9755 74.321C58.8582 74.1744 58.7995 74.035 58.7995 73.903C58.7995 73.815 58.8288 73.727 58.8875 73.639C58.9168 73.5804 58.9682 73.529 59.0415 73.485C59.1295 73.4264 59.2542 73.397 59.4155 73.397H61.6155C61.7328 73.397 61.8355 73.419 61.9235 73.463C61.9968 73.4924 62.0628 73.5437 62.1215 73.617C62.1948 73.6757 62.2315 73.771 62.2315 73.903C62.2315 74.035 62.1508 74.1744 61.9895 74.321C61.8428 74.453 61.6595 74.629 61.4395 74.849C61.2342 75.0544 61.0215 75.311 60.8015 75.619C60.5815 75.9124 60.4128 76.279 60.2955 76.719L58.5355 83.253C58.4475 83.5757 58.3448 83.847 58.2275 84.067C58.1248 84.287 57.9635 84.397 57.7435 84.397H55.5655C55.2282 84.397 54.9422 84.0304 54.7075 83.297L52.7055 76.719C52.5735 76.279 52.4122 75.9124 52.2215 75.619C52.0455 75.311 51.8695 75.0544 51.6935 74.849C51.5322 74.6437 51.3928 74.4677 51.2755 74.321C51.1582 74.1744 51.0995 74.035 51.0995 73.903C51.0995 73.815 51.1288 73.727 51.1875 73.639C51.2168 73.5804 51.2682 73.529 51.3415 73.485C51.4295 73.4264 51.5542 73.397 51.7155 73.397H54.9055Z" fill="black"/>
<path d="M63.5104 74.937L64.9844 73.727C65.0871 73.639 65.2117 73.5657 65.3584 73.507C65.5051 73.4337 65.6517 73.397 65.7984 73.397C65.9744 73.397 66.1211 73.463 66.2384 73.595C66.3704 73.727 66.4364 73.9764 66.4364 74.343V74.453C66.8177 74.0717 67.2284 73.7637 67.6684 73.529C68.1231 73.2944 68.6291 73.177 69.1864 73.177C69.5237 73.177 69.8831 73.2284 70.2644 73.331C70.6457 73.4337 70.9977 73.5877 71.3204 73.793C71.6431 73.9837 71.9071 74.2257 72.1124 74.519C72.3177 74.8124 72.4204 75.1424 72.4204 75.509C72.4204 75.7877 72.3031 76.059 72.0684 76.323C71.8337 76.5724 71.5037 76.697 71.0784 76.697C70.6824 76.697 70.3744 76.5797 70.1544 76.345C69.9491 76.0957 69.7731 75.8244 69.6264 75.531C69.4797 75.2377 69.3404 74.9737 69.2084 74.739C69.0911 74.4897 68.9077 74.365 68.6584 74.365C68.3504 74.365 67.9984 74.4897 67.6024 74.739C67.2064 74.9737 66.8177 75.289 66.4364 75.685V81.075C66.4364 81.5297 66.4657 81.911 66.5244 82.219C66.5977 82.5124 66.6711 82.7617 66.7444 82.967C66.8177 83.1724 66.8837 83.3484 66.9424 83.495C67.0157 83.627 67.0524 83.759 67.0524 83.891C67.0524 83.979 67.0304 84.0597 66.9864 84.133C66.9424 84.2064 66.8764 84.2724 66.7884 84.331C66.7151 84.375 66.5977 84.397 66.4364 84.397H63.5104C63.0997 84.397 62.8944 84.2284 62.8944 83.891C62.8944 83.759 62.9237 83.627 62.9824 83.495C63.0557 83.3484 63.1291 83.1724 63.2024 82.967C63.2757 82.7617 63.3417 82.5124 63.4004 82.219C63.4737 81.911 63.5104 81.5297 63.5104 81.075V76.741C63.5104 76.4917 63.4664 76.2937 63.3784 76.147C63.3051 75.9857 63.2391 75.8464 63.1804 75.729C63.1364 75.597 63.1291 75.4797 63.1584 75.377C63.1877 75.2597 63.3051 75.113 63.5104 74.937Z" fill="black"/>
<path d="M73.078 78.699C73.078 76.9684 73.5107 75.619 74.376 74.651C75.256 73.6684 76.51 73.177 78.138 73.177C78.6367 73.177 79.128 73.243 79.612 73.375C80.1107 73.4924 80.5507 73.6904 80.932 73.969C81.328 74.233 81.6433 74.585 81.878 75.025C82.1273 75.4504 82.252 75.971 82.252 76.587C82.252 77.1297 82.1493 77.5697 81.944 77.907C81.7387 78.2297 81.4673 78.4864 81.13 78.677C80.7927 78.853 80.404 78.9777 79.964 79.051C79.5387 79.1097 79.0913 79.139 78.622 79.139H76.312C76.312 79.9897 76.378 80.723 76.51 81.339C76.642 81.9404 76.8033 82.4317 76.994 82.813C77.1993 83.1797 77.4193 83.451 77.654 83.627C77.8887 83.803 78.1013 83.891 78.292 83.891C78.5267 83.891 78.7467 83.8324 78.952 83.715C79.1573 83.583 79.348 83.4217 79.524 83.231C79.7 83.0257 79.854 82.7984 79.986 82.549C80.1327 82.285 80.25 82.0284 80.338 81.779C80.426 81.5297 80.5507 81.3537 80.712 81.251C80.888 81.1484 81.064 81.097 81.24 81.097C81.504 81.097 81.7313 81.1997 81.922 81.405C82.1273 81.6104 82.1787 81.8744 82.076 82.197C82.0027 82.4317 81.8633 82.6884 81.658 82.967C81.4527 83.2457 81.1887 83.5097 80.866 83.759C80.5433 83.9937 80.162 84.199 79.722 84.375C79.2967 84.5364 78.82 84.617 78.292 84.617C77.4413 84.617 76.6933 84.463 76.048 84.155C75.4027 83.8324 74.86 83.3997 74.42 82.857C73.98 82.3144 73.6427 81.691 73.408 80.987C73.188 80.2684 73.078 79.5057 73.078 78.699ZM76.334 78.413H77.742C78.006 78.413 78.2187 78.3544 78.38 78.237C78.5413 78.1197 78.666 77.973 78.754 77.797C78.8567 77.6064 78.9227 77.401 78.952 77.181C78.996 76.9464 79.018 76.719 79.018 76.499C79.018 76.191 79.0033 75.883 78.974 75.575C78.9447 75.267 78.8933 74.9884 78.82 74.739C78.7467 74.4897 78.6513 74.2917 78.534 74.145C78.4313 73.9837 78.2993 73.903 78.138 73.903C77.9767 73.903 77.7933 73.9984 77.588 74.189C77.3973 74.3797 77.214 74.6657 77.038 75.047C76.862 75.4284 76.708 75.8977 76.576 76.455C76.444 77.0124 76.3633 77.665 76.334 78.413Z" fill="black"/>
<path d="M84.2598 80.833C84.5238 80.833 84.7438 80.9137 84.9198 81.075C85.0958 81.2217 85.2425 81.405 85.3598 81.625C85.4772 81.845 85.5872 82.0944 85.6898 82.373C85.7925 82.637 85.9025 82.879 86.0198 83.099C86.1372 83.319 86.2765 83.5097 86.4378 83.671C86.6138 83.8177 86.8338 83.891 87.0978 83.891C87.3032 83.891 87.4865 83.847 87.6478 83.759C87.8238 83.6564 87.9705 83.5317 88.0878 83.385C88.2052 83.2384 88.2932 83.0697 88.3518 82.879C88.4252 82.6884 88.4618 82.4977 88.4618 82.307C88.4618 81.911 88.3225 81.559 88.0438 81.251C87.7798 80.9284 87.4425 80.6277 87.0318 80.349C86.6212 80.0557 86.1812 79.7697 85.7118 79.491C85.2425 79.2124 84.8025 78.919 84.3918 78.611C83.9812 78.303 83.6365 77.9657 83.3578 77.599C83.0938 77.2177 82.9618 76.785 82.9618 76.301C82.9618 75.729 83.1085 75.245 83.4018 74.849C83.7098 74.453 84.0838 74.1304 84.5238 73.881C84.9638 73.6317 85.4332 73.4557 85.9318 73.353C86.4305 73.2357 86.8852 73.177 87.2958 73.177C87.9412 73.177 88.5205 73.243 89.0338 73.375C89.5472 73.507 89.9872 73.6904 90.3538 73.925C90.7205 74.1597 90.9992 74.4384 91.1898 74.761C91.3952 75.069 91.4978 75.4064 91.4978 75.773C91.4978 76.0517 91.3805 76.323 91.1458 76.587C90.9112 76.8364 90.5812 76.961 90.1558 76.961C89.8918 76.961 89.6718 76.8877 89.4958 76.741C89.3198 76.5797 89.1732 76.389 89.0558 76.169C88.9385 75.949 88.8285 75.707 88.7258 75.443C88.6232 75.1644 88.5132 74.915 88.3958 74.695C88.2785 74.475 88.1318 74.2917 87.9558 74.145C87.7945 73.9837 87.5818 73.903 87.3178 73.903C87.1125 73.903 86.9218 73.9544 86.7458 74.057C86.5845 74.145 86.4452 74.2624 86.3278 74.409C86.2105 74.5557 86.1152 74.7244 86.0418 74.915C85.9832 75.1057 85.9538 75.2964 85.9538 75.487C85.9538 75.883 86.0858 76.2424 86.3498 76.565C86.6285 76.8877 86.9732 77.1957 87.3838 77.489C87.8092 77.7824 88.2565 78.0757 88.7258 78.369C89.2098 78.6477 89.6572 78.9484 90.0678 79.271C90.4932 79.5937 90.8378 79.9457 91.1018 80.327C91.3805 80.6937 91.5198 81.119 91.5198 81.603C91.5198 82.175 91.3658 82.6517 91.0578 83.033C90.7498 83.4144 90.3685 83.7224 89.9138 83.957C89.4738 84.1917 88.9972 84.3604 88.4838 84.463C87.9852 84.5657 87.5305 84.617 87.1198 84.617C86.4892 84.617 85.9098 84.551 85.3818 84.419C84.8685 84.287 84.4285 84.1037 84.0618 83.869C83.6952 83.6344 83.4092 83.363 83.2038 83.055C83.0132 82.7324 82.9178 82.3877 82.9178 82.021C82.9178 81.7424 83.0352 81.4784 83.2698 81.229C83.5045 80.965 83.8345 80.833 84.2598 80.833Z" fill="black"/>
<path d="M127.33 69.503C127.33 69.415 127.359 69.327 127.418 69.239C127.447 69.1804 127.499 69.129 127.572 69.085C127.66 69.0264 127.785 68.997 127.946 68.997H130.872C130.989 68.997 131.092 69.019 131.18 69.063C131.253 69.0924 131.319 69.1437 131.378 69.217C131.451 69.2757 131.488 69.371 131.488 69.503C131.488 69.635 131.451 69.7744 131.378 69.921C131.319 70.053 131.253 70.2217 131.18 70.427C131.107 70.6324 131.033 70.889 130.96 71.197C130.901 71.4904 130.872 71.8644 130.872 72.319V81.075C130.872 81.8524 130.916 82.483 131.004 82.967C131.092 83.4364 131.239 83.671 131.444 83.671H133.776C134.333 83.671 134.795 83.5684 135.162 83.363C135.529 83.143 135.837 82.901 136.086 82.637C136.35 82.373 136.57 82.1384 136.746 81.933C136.937 81.713 137.12 81.603 137.296 81.603C137.369 81.603 137.435 81.625 137.494 81.669C137.611 81.757 137.641 81.9257 137.582 82.175C137.538 82.4244 137.457 82.681 137.34 82.945C137.223 83.209 137.105 83.451 136.988 83.671C136.871 83.8764 136.812 83.979 136.812 83.979C136.709 84.155 136.533 84.2724 136.284 84.331C136.049 84.375 135.851 84.397 135.69 84.397H127.946C127.829 84.397 127.726 84.375 127.638 84.331C127.565 84.3017 127.491 84.2504 127.418 84.177C127.359 84.1037 127.33 84.0084 127.33 83.891C127.33 83.759 127.359 83.627 127.418 83.495C127.491 83.3484 127.565 83.1724 127.638 82.967C127.711 82.7617 127.777 82.5124 127.836 82.219C127.909 81.911 127.946 81.5297 127.946 81.075V72.319C127.946 71.8644 127.909 71.4904 127.836 71.197C127.777 70.889 127.711 70.6324 127.638 70.427C127.565 70.2217 127.491 70.053 127.418 69.921C127.359 69.7744 127.33 69.635 127.33 69.503Z" fill="black"/>
<path d="M138.903 75.025L140.377 73.815C140.494 73.7124 140.626 73.617 140.773 73.529C140.934 73.441 141.096 73.397 141.257 73.397C141.418 73.397 141.55 73.4704 141.653 73.617C141.77 73.7637 141.829 74.035 141.829 74.431V81.075C141.829 81.5297 141.858 81.911 141.917 82.219C141.99 82.5124 142.064 82.7617 142.137 82.967C142.21 83.1724 142.276 83.3484 142.335 83.495C142.408 83.627 142.445 83.759 142.445 83.891C142.445 83.979 142.423 84.0597 142.379 84.133C142.335 84.2064 142.269 84.2724 142.181 84.331C142.108 84.375 141.99 84.397 141.829 84.397H138.903C138.786 84.397 138.683 84.375 138.595 84.331C138.522 84.3017 138.448 84.2504 138.375 84.177C138.316 84.1037 138.287 84.0084 138.287 83.891C138.287 83.759 138.316 83.627 138.375 83.495C138.448 83.3484 138.522 83.1724 138.595 82.967C138.668 82.7617 138.734 82.5124 138.793 82.219C138.866 81.911 138.903 81.5297 138.903 81.075V76.829C138.566 76.477 138.375 76.1764 138.331 75.927C138.287 75.663 138.478 75.3624 138.903 75.025ZM140.377 67.897C140.934 67.897 141.404 68.095 141.785 68.491C142.166 68.887 142.357 69.3637 142.357 69.921C142.357 70.1997 142.306 70.4637 142.203 70.713C142.1 70.9477 141.961 71.1604 141.785 71.351C141.609 71.527 141.396 71.6664 141.147 71.769C140.912 71.8717 140.656 71.923 140.377 71.923C139.82 71.923 139.343 71.7324 138.947 71.351C138.566 70.955 138.375 70.4784 138.375 69.921C138.375 69.6424 138.426 69.3857 138.529 69.151C138.632 68.9017 138.771 68.689 138.947 68.513C139.138 68.3224 139.35 68.1757 139.585 68.073C139.834 67.9557 140.098 67.897 140.377 67.897Z" fill="black"/>
<path d="M146.905 73.397C147.023 73.397 147.125 73.419 147.213 73.463C147.287 73.4924 147.353 73.5437 147.411 73.617C147.485 73.6757 147.521 73.771 147.521 73.903C147.521 74.035 147.507 74.167 147.477 74.299C147.448 74.4164 147.426 74.5777 147.411 74.783C147.411 74.9737 147.433 75.223 147.477 75.531C147.521 75.839 147.617 76.235 147.763 76.719L149.765 83.297L151.547 76.719C151.665 76.2937 151.687 75.9344 151.613 75.641C151.555 75.3477 151.467 75.091 151.349 74.871C151.232 74.651 151.107 74.4677 150.975 74.321C150.858 74.1744 150.799 74.035 150.799 73.903C150.799 73.815 150.829 73.727 150.887 73.639C150.917 73.5804 150.968 73.529 151.041 73.485C151.129 73.4264 151.254 73.397 151.415 73.397H153.615C153.733 73.397 153.835 73.419 153.923 73.463C153.997 73.4924 154.063 73.5437 154.121 73.617C154.195 73.6757 154.231 73.771 154.231 73.903C154.231 74.035 154.151 74.1744 153.989 74.321C153.843 74.453 153.659 74.629 153.439 74.849C153.234 75.0544 153.021 75.311 152.801 75.619C152.581 75.9124 152.413 76.279 152.295 76.719L150.535 83.253C150.447 83.5757 150.345 83.847 150.227 84.067C150.125 84.287 149.963 84.397 149.743 84.397H147.565C147.228 84.397 146.942 84.0304 146.707 83.297L144.705 76.719C144.573 76.279 144.412 75.9124 144.221 75.619C144.045 75.311 143.869 75.0544 143.693 74.849C143.532 74.6437 143.393 74.4677 143.275 74.321C143.158 74.1744 143.099 74.035 143.099 73.903C143.099 73.815 143.129 73.727 143.187 73.639C143.217 73.5804 143.268 73.529 143.341 73.485C143.429 73.4264 143.554 73.397 143.715 73.397H146.905Z" fill="black"/>
<path d="M155.51 74.937L156.984 73.727C157.087 73.639 157.212 73.5657 157.358 73.507C157.505 73.4337 157.652 73.397 157.798 73.397C157.974 73.397 158.121 73.463 158.238 73.595C158.37 73.727 158.436 73.9764 158.436 74.343V74.453C158.818 74.0717 159.228 73.7637 159.668 73.529C160.123 73.2944 160.629 73.177 161.186 73.177C161.524 73.177 161.883 73.2284 162.264 73.331C162.646 73.4337 162.998 73.5877 163.32 73.793C163.643 73.9837 163.907 74.2257 164.112 74.519C164.318 74.8124 164.42 75.1424 164.42 75.509C164.42 75.7877 164.303 76.059 164.068 76.323C163.834 76.5724 163.504 76.697 163.078 76.697C162.682 76.697 162.374 76.5797 162.154 76.345C161.949 76.0957 161.773 75.8244 161.626 75.531C161.48 75.2377 161.34 74.9737 161.208 74.739C161.091 74.4897 160.908 74.365 160.658 74.365C160.35 74.365 159.998 74.4897 159.602 74.739C159.206 74.9737 158.818 75.289 158.436 75.685V81.075C158.436 81.5297 158.466 81.911 158.524 82.219C158.598 82.5124 158.671 82.7617 158.744 82.967C158.818 83.1724 158.884 83.3484 158.942 83.495C159.016 83.627 159.052 83.759 159.052 83.891C159.052 83.979 159.03 84.0597 158.986 84.133C158.942 84.2064 158.876 84.2724 158.788 84.331C158.715 84.375 158.598 84.397 158.436 84.397H155.51C155.1 84.397 154.894 84.2284 154.894 83.891C154.894 83.759 154.924 83.627 154.982 83.495C155.056 83.3484 155.129 83.1724 155.202 82.967C155.276 82.7617 155.342 82.5124 155.4 82.219C155.474 81.911 155.51 81.5297 155.51 81.075V76.741C155.51 76.4917 155.466 76.2937 155.378 76.147C155.305 75.9857 155.239 75.8464 155.18 75.729C155.136 75.597 155.129 75.4797 155.158 75.377C155.188 75.2597 155.305 75.113 155.51 74.937Z" fill="black"/>
<path d="M165.078 78.699C165.078 76.9684 165.511 75.619 166.376 74.651C167.256 73.6684 168.51 73.177 170.138 73.177C170.637 73.177 171.128 73.243 171.612 73.375C172.111 73.4924 172.551 73.6904 172.932 73.969C173.328 74.233 173.643 74.585 173.878 75.025C174.127 75.4504 174.252 75.971 174.252 76.587C174.252 77.1297 174.149 77.5697 173.944 77.907C173.739 78.2297 173.467 78.4864 173.13 78.677C172.793 78.853 172.404 78.9777 171.964 79.051C171.539 79.1097 171.091 79.139 170.622 79.139H168.312C168.312 79.9897 168.378 80.723 168.51 81.339C168.642 81.9404 168.803 82.4317 168.994 82.813C169.199 83.1797 169.419 83.451 169.654 83.627C169.889 83.803 170.101 83.891 170.292 83.891C170.527 83.891 170.747 83.8324 170.952 83.715C171.157 83.583 171.348 83.4217 171.524 83.231C171.7 83.0257 171.854 82.7984 171.986 82.549C172.133 82.285 172.25 82.0284 172.338 81.779C172.426 81.5297 172.551 81.3537 172.712 81.251C172.888 81.1484 173.064 81.097 173.24 81.097C173.504 81.097 173.731 81.1997 173.922 81.405C174.127 81.6104 174.179 81.8744 174.076 82.197C174.003 82.4317 173.863 82.6884 173.658 82.967C173.453 83.2457 173.189 83.5097 172.866 83.759C172.543 83.9937 172.162 84.199 171.722 84.375C171.297 84.5364 170.82 84.617 170.292 84.617C169.441 84.617 168.693 84.463 168.048 84.155C167.403 83.8324 166.86 83.3997 166.42 82.857C165.98 82.3144 165.643 81.691 165.408 80.987C165.188 80.2684 165.078 79.5057 165.078 78.699ZM168.334 78.413H169.742C170.006 78.413 170.219 78.3544 170.38 78.237C170.541 78.1197 170.666 77.973 170.754 77.797C170.857 77.6064 170.923 77.401 170.952 77.181C170.996 76.9464 171.018 76.719 171.018 76.499C171.018 76.191 171.003 75.883 170.974 75.575C170.945 75.267 170.893 74.9884 170.82 74.739C170.747 74.4897 170.651 74.2917 170.534 74.145C170.431 73.9837 170.299 73.903 170.138 73.903C169.977 73.903 169.793 73.9984 169.588 74.189C169.397 74.3797 169.214 74.6657 169.038 75.047C168.862 75.4284 168.708 75.8977 168.576 76.455C168.444 77.0124 168.363 77.665 168.334 78.413Z" fill="black"/>
<path d="M176.26 80.833C176.524 80.833 176.744 80.9137 176.92 81.075C177.096 81.2217 177.243 81.405 177.36 81.625C177.477 81.845 177.587 82.0944 177.69 82.373C177.793 82.637 177.903 82.879 178.02 83.099C178.137 83.319 178.277 83.5097 178.438 83.671C178.614 83.8177 178.834 83.891 179.098 83.891C179.303 83.891 179.487 83.847 179.648 83.759C179.824 83.6564 179.971 83.5317 180.088 83.385C180.205 83.2384 180.293 83.0697 180.352 82.879C180.425 82.6884 180.462 82.4977 180.462 82.307C180.462 81.911 180.323 81.559 180.044 81.251C179.78 80.9284 179.443 80.6277 179.032 80.349C178.621 80.0557 178.181 79.7697 177.712 79.491C177.243 79.2124 176.803 78.919 176.392 78.611C175.981 78.303 175.637 77.9657 175.358 77.599C175.094 77.2177 174.962 76.785 174.962 76.301C174.962 75.729 175.109 75.245 175.402 74.849C175.71 74.453 176.084 74.1304 176.524 73.881C176.964 73.6317 177.433 73.4557 177.932 73.353C178.431 73.2357 178.885 73.177 179.296 73.177C179.941 73.177 180.521 73.243 181.034 73.375C181.547 73.507 181.987 73.6904 182.354 73.925C182.721 74.1597 182.999 74.4384 183.19 74.761C183.395 75.069 183.498 75.4064 183.498 75.773C183.498 76.0517 183.381 76.323 183.146 76.587C182.911 76.8364 182.581 76.961 182.156 76.961C181.892 76.961 181.672 76.8877 181.496 76.741C181.32 76.5797 181.173 76.389 181.056 76.169C180.939 75.949 180.829 75.707 180.726 75.443C180.623 75.1644 180.513 74.915 180.396 74.695C180.279 74.475 180.132 74.2917 179.956 74.145C179.795 73.9837 179.582 73.903 179.318 73.903C179.113 73.903 178.922 73.9544 178.746 74.057C178.585 74.145 178.445 74.2624 178.328 74.409C178.211 74.5557 178.115 74.7244 178.042 74.915C177.983 75.1057 177.954 75.2964 177.954 75.487C177.954 75.883 178.086 76.2424 178.35 76.565C178.629 76.8877 178.973 77.1957 179.384 77.489C179.809 77.7824 180.257 78.0757 180.726 78.369C181.21 78.6477 181.657 78.9484 182.068 79.271C182.493 79.5937 182.838 79.9457 183.102 80.327C183.381 80.6937 183.52 81.119 183.52 81.603C183.52 82.175 183.366 82.6517 183.058 83.033C182.75 83.4144 182.369 83.7224 181.914 83.957C181.474 84.1917 180.997 84.3604 180.484 84.463C179.985 84.5657 179.531 84.617 179.12 84.617C178.489 84.617 177.91 84.551 177.382 84.419C176.869 84.287 176.429 84.1037 176.062 83.869C175.695 83.6344 175.409 83.363 175.204 83.055C175.013 82.7324 174.918 82.3877 174.918 82.021C174.918 81.7424 175.035 81.4784 175.27 81.229C175.505 80.965 175.835 80.833 176.26 80.833Z" fill="black"/>
<path d="M35.33 93.503C35.33 93.415 35.3593 93.327 35.418 93.239C35.4473 93.1804 35.4986 93.129 35.572 93.085C35.66 93.0264 35.7846 92.997 35.946 92.997H38.872C38.9893 92.997 39.092 93.019 39.18 93.063C39.2533 93.0924 39.3193 93.1437 39.378 93.217C39.4513 93.2757 39.488 93.371 39.488 93.503C39.488 93.635 39.4513 93.7744 39.378 93.921C39.3193 94.053 39.2533 94.2217 39.18 94.427C39.1066 94.6324 39.0333 94.889 38.96 95.197C38.9013 95.4904 38.872 95.8644 38.872 96.319V105.075C38.872 105.852 38.916 106.483 39.004 106.967C39.092 107.436 39.2386 107.671 39.444 107.671H41.776C42.3333 107.671 42.7953 107.568 43.162 107.363C43.5286 107.143 43.8366 106.901 44.086 106.637C44.35 106.373 44.57 106.138 44.746 105.933C44.9366 105.713 45.12 105.603 45.296 105.603C45.3693 105.603 45.4353 105.625 45.494 105.669C45.6113 105.757 45.6406 105.926 45.582 106.175C45.538 106.424 45.4573 106.681 45.34 106.945C45.2226 107.209 45.1053 107.451 44.988 107.671C44.8706 107.876 44.812 107.979 44.812 107.979C44.7093 108.155 44.5333 108.272 44.284 108.331C44.0493 108.375 43.8513 108.397 43.69 108.397H35.946C35.8286 108.397 35.726 108.375 35.638 108.331C35.5646 108.302 35.4913 108.25 35.418 108.177C35.3593 108.104 35.33 108.008 35.33 107.891C35.33 107.759 35.3593 107.627 35.418 107.495C35.4913 107.348 35.5646 107.172 35.638 106.967C35.7113 106.762 35.7773 106.512 35.836 106.219C35.9093 105.911 35.946 105.53 35.946 105.075V96.319C35.946 95.8644 35.9093 95.4904 35.836 95.197C35.7773 94.889 35.7113 94.6324 35.638 94.427C35.5646 94.2217 35.4913 94.053 35.418 93.921C35.3593 93.7744 35.33 93.635 35.33 93.503Z" fill="black"/>
<path d="M46.903 99.025L48.377 97.815C48.4943 97.7124 48.6263 97.617 48.773 97.529C48.9343 97.441 49.0957 97.397 49.257 97.397C49.4183 97.397 49.5503 97.4704 49.653 97.617C49.7703 97.7637 49.829 98.035 49.829 98.431V105.075C49.829 105.53 49.8583 105.911 49.917 106.219C49.9903 106.512 50.0637 106.762 50.137 106.967C50.2103 107.172 50.2763 107.348 50.335 107.495C50.4083 107.627 50.445 107.759 50.445 107.891C50.445 107.979 50.423 108.06 50.379 108.133C50.335 108.206 50.269 108.272 50.181 108.331C50.1077 108.375 49.9903 108.397 49.829 108.397H46.903C46.7857 108.397 46.683 108.375 46.595 108.331C46.5217 108.302 46.4483 108.25 46.375 108.177C46.3163 108.104 46.287 108.008 46.287 107.891C46.287 107.759 46.3163 107.627 46.375 107.495C46.4483 107.348 46.5217 107.172 46.595 106.967C46.6683 106.762 46.7343 106.512 46.793 106.219C46.8663 105.911 46.903 105.53 46.903 105.075V100.829C46.5657 100.477 46.375 100.176 46.331 99.927C46.287 99.663 46.4777 99.3624 46.903 99.025ZM48.377 91.897C48.9343 91.897 49.4037 92.095 49.785 92.491C50.1663 92.887 50.357 93.3637 50.357 93.921C50.357 94.1997 50.3057 94.4637 50.203 94.713C50.1003 94.9477 49.961 95.1604 49.785 95.351C49.609 95.527 49.3963 95.6664 49.147 95.769C48.9123 95.8717 48.6557 95.923 48.377 95.923C47.8197 95.923 47.343 95.7324 46.947 95.351C46.5657 94.955 46.375 94.4784 46.375 93.921C46.375 93.6424 46.4263 93.3857 46.529 93.151C46.6317 92.9017 46.771 92.689 46.947 92.513C47.1377 92.3224 47.3503 92.1757 47.585 92.073C47.8343 91.9557 48.0983 91.897 48.377 91.897Z" fill="black"/>
<path d="M54.9055 97.397C55.0228 97.397 55.1255 97.419 55.2135 97.463C55.2868 97.4924 55.3528 97.5437 55.4115 97.617C55.4848 97.6757 55.5215 97.771 55.5215 97.903C55.5215 98.035 55.5068 98.167 55.4775 98.299C55.4482 98.4164 55.4262 98.5777 55.4115 98.783C55.4115 98.9737 55.4335 99.223 55.4775 99.531C55.5215 99.839 55.6168 100.235 55.7635 100.719L57.7655 107.297L59.5475 100.719C59.6648 100.294 59.6868 99.9344 59.6135 99.641C59.5548 99.3477 59.4668 99.091 59.3495 98.871C59.2322 98.651 59.1075 98.4677 58.9755 98.321C58.8582 98.1744 58.7995 98.035 58.7995 97.903C58.7995 97.815 58.8288 97.727 58.8875 97.639C58.9168 97.5804 58.9682 97.529 59.0415 97.485C59.1295 97.4264 59.2542 97.397 59.4155 97.397H61.6155C61.7328 97.397 61.8355 97.419 61.9235 97.463C61.9968 97.4924 62.0628 97.5437 62.1215 97.617C62.1948 97.6757 62.2315 97.771 62.2315 97.903C62.2315 98.035 62.1508 98.1744 61.9895 98.321C61.8428 98.453 61.6595 98.629 61.4395 98.849C61.2342 99.0544 61.0215 99.311 60.8015 99.619C60.5815 99.9124 60.4128 100.279 60.2955 100.719L58.5355 107.253C58.4475 107.576 58.3448 107.847 58.2275 108.067C58.1248 108.287 57.9635 108.397 57.7435 108.397H55.5655C55.2282 108.397 54.9422 108.03 54.7075 107.297L52.7055 100.719C52.5735 100.279 52.4122 99.9124 52.2215 99.619C52.0455 99.311 51.8695 99.0544 51.6935 98.849C51.5322 98.6437 51.3928 98.4677 51.2755 98.321C51.1582 98.1744 51.0995 98.035 51.0995 97.903C51.0995 97.815 51.1288 97.727 51.1875 97.639C51.2168 97.5804 51.2682 97.529 51.3415 97.485C51.4295 97.4264 51.5542 97.397 51.7155 97.397H54.9055Z" fill="black"/>
<path d="M63.5104 98.937L64.9844 97.727C65.0871 97.639 65.2117 97.5657 65.3584 97.507C65.5051 97.4337 65.6517 97.397 65.7984 97.397C65.9744 97.397 66.1211 97.463 66.2384 97.595C66.3704 97.727 66.4364 97.9764 66.4364 98.343V98.453C66.8177 98.0717 67.2284 97.7637 67.6684 97.529C68.1231 97.2944 68.6291 97.177 69.1864 97.177C69.5237 97.177 69.8831 97.2284 70.2644 97.331C70.6457 97.4337 70.9977 97.5877 71.3204 97.793C71.6431 97.9837 71.9071 98.2257 72.1124 98.519C72.3177 98.8124 72.4204 99.1424 72.4204 99.509C72.4204 99.7877 72.3031 100.059 72.0684 100.323C71.8337 100.572 71.5037 100.697 71.0784 100.697C70.6824 100.697 70.3744 100.58 70.1544 100.345C69.9491 100.096 69.7731 99.8244 69.6264 99.531C69.4797 99.2377 69.3404 98.9737 69.2084 98.739C69.0911 98.4897 68.9077 98.365 68.6584 98.365C68.3504 98.365 67.9984 98.4897 67.6024 98.739C67.2064 98.9737 66.8177 99.289 66.4364 99.685V105.075C66.4364 105.53 66.4657 105.911 66.5244 106.219C66.5977 106.512 66.6711 106.762 66.7444 106.967C66.8177 107.172 66.8837 107.348 66.9424 107.495C67.0157 107.627 67.0524 107.759 67.0524 107.891C67.0524 107.979 67.0304 108.06 66.9864 108.133C66.9424 108.206 66.8764 108.272 66.7884 108.331C66.7151 108.375 66.5977 108.397 66.4364 108.397H63.5104C63.0997 108.397 62.8944 108.228 62.8944 107.891C62.8944 107.759 62.9237 107.627 62.9824 107.495C63.0557 107.348 63.1291 107.172 63.2024 106.967C63.2757 106.762 63.3417 106.512 63.4004 106.219C63.4737 105.911 63.5104 105.53 63.5104 105.075V100.741C63.5104 100.492 63.4664 100.294 63.3784 100.147C63.3051 99.9857 63.2391 99.8464 63.1804 99.729C63.1364 99.597 63.1291 99.4797 63.1584 99.377C63.1877 99.2597 63.3051 99.113 63.5104 98.937Z" fill="black"/>
<path d="M73.078 102.699C73.078 100.968 73.5107 99.619 74.376 98.651C75.256 97.6684 76.51 97.177 78.138 97.177C78.6367 97.177 79.128 97.243 79.612 97.375C80.1107 97.4924 80.5507 97.6904 80.932 97.969C81.328 98.233 81.6433 98.585 81.878 99.025C82.1273 99.4504 82.252 99.971 82.252 100.587C82.252 101.13 82.1493 101.57 81.944 101.907C81.7387 102.23 81.4673 102.486 81.13 102.677C80.7927 102.853 80.404 102.978 79.964 103.051C79.5387 103.11 79.0913 103.139 78.622 103.139H76.312C76.312 103.99 76.378 104.723 76.51 105.339C76.642 105.94 76.8033 106.432 76.994 106.813C77.1993 107.18 77.4193 107.451 77.654 107.627C77.8887 107.803 78.1013 107.891 78.292 107.891C78.5267 107.891 78.7467 107.832 78.952 107.715C79.1573 107.583 79.348 107.422 79.524 107.231C79.7 107.026 79.854 106.798 79.986 106.549C80.1327 106.285 80.25 106.028 80.338 105.779C80.426 105.53 80.5507 105.354 80.712 105.251C80.888 105.148 81.064 105.097 81.24 105.097C81.504 105.097 81.7313 105.2 81.922 105.405C82.1273 105.61 82.1787 105.874 82.076 106.197C82.0027 106.432 81.8633 106.688 81.658 106.967C81.4527 107.246 81.1887 107.51 80.866 107.759C80.5433 107.994 80.162 108.199 79.722 108.375C79.2967 108.536 78.82 108.617 78.292 108.617C77.4413 108.617 76.6933 108.463 76.048 108.155C75.4027 107.832 74.86 107.4 74.42 106.857C73.98 106.314 73.6427 105.691 73.408 104.987C73.188 104.268 73.078 103.506 73.078 102.699ZM76.334 102.413H77.742C78.006 102.413 78.2187 102.354 78.38 102.237C78.5413 102.12 78.666 101.973 78.754 101.797C78.8567 101.606 78.9227 101.401 78.952 101.181C78.996 100.946 79.018 100.719 79.018 100.499C79.018 100.191 79.0033 99.883 78.974 99.575C78.9447 99.267 78.8933 98.9884 78.82 98.739C78.7467 98.4897 78.6513 98.2917 78.534 98.145C78.4313 97.9837 78.2993 97.903 78.138 97.903C77.9767 97.903 77.7933 97.9984 77.588 98.189C77.3973 98.3797 77.214 98.6657 77.038 99.047C76.862 99.4284 76.708 99.8977 76.576 100.455C76.444 101.012 76.3633 101.665 76.334 102.413Z" fill="black"/>
<path d="M84.2598 104.833C84.5238 104.833 84.7438 104.914 84.9198 105.075C85.0958 105.222 85.2425 105.405 85.3598 105.625C85.4772 105.845 85.5872 106.094 85.6898 106.373C85.7925 106.637 85.9025 106.879 86.0198 107.099C86.1372 107.319 86.2765 107.51 86.4378 107.671C86.6138 107.818 86.8338 107.891 87.0978 107.891C87.3032 107.891 87.4865 107.847 87.6478 107.759C87.8238 107.656 87.9705 107.532 88.0878 107.385C88.2052 107.238 88.2932 107.07 88.3518 106.879C88.4252 106.688 88.4618 106.498 88.4618 106.307C88.4618 105.911 88.3225 105.559 88.0438 105.251C87.7798 104.928 87.4425 104.628 87.0318 104.349C86.6212 104.056 86.1812 103.77 85.7118 103.491C85.2425 103.212 84.8025 102.919 84.3918 102.611C83.9812 102.303 83.6365 101.966 83.3578 101.599C83.0938 101.218 82.9618 100.785 82.9618 100.301C82.9618 99.729 83.1085 99.245 83.4018 98.849C83.7098 98.453 84.0838 98.1304 84.5238 97.881C84.9638 97.6317 85.4332 97.4557 85.9318 97.353C86.4305 97.2357 86.8852 97.177 87.2958 97.177C87.9412 97.177 88.5205 97.243 89.0338 97.375C89.5472 97.507 89.9872 97.6904 90.3538 97.925C90.7205 98.1597 90.9992 98.4384 91.1898 98.761C91.3952 99.069 91.4978 99.4064 91.4978 99.773C91.4978 100.052 91.3805 100.323 91.1458 100.587C90.9112 100.836 90.5812 100.961 90.1558 100.961C89.8918 100.961 89.6718 100.888 89.4958 100.741C89.3198 100.58 89.1732 100.389 89.0558 100.169C88.9385 99.949 88.8285 99.707 88.7258 99.443C88.6232 99.1644 88.5132 98.915 88.3958 98.695C88.2785 98.475 88.1318 98.2917 87.9558 98.145C87.7945 97.9837 87.5818 97.903 87.3178 97.903C87.1125 97.903 86.9218 97.9544 86.7458 98.057C86.5845 98.145 86.4452 98.2624 86.3278 98.409C86.2105 98.5557 86.1152 98.7244 86.0418 98.915C85.9832 99.1057 85.9538 99.2964 85.9538 99.487C85.9538 99.883 86.0858 100.242 86.3498 100.565C86.6285 100.888 86.9732 101.196 87.3838 101.489C87.8092 101.782 88.2565 102.076 88.7258 102.369C89.2098 102.648 89.6572 102.948 90.0678 103.271C90.4932 103.594 90.8378 103.946 91.1018 104.327C91.3805 104.694 91.5198 105.119 91.5198 105.603C91.5198 106.175 91.3658 106.652 91.0578 107.033C90.7498 107.414 90.3685 107.722 89.9138 107.957C89.4738 108.192 88.9972 108.36 88.4838 108.463C87.9852 108.566 87.5305 108.617 87.1198 108.617C86.4892 108.617 85.9098 108.551 85.3818 108.419C84.8685 108.287 84.4285 108.104 84.0618 107.869C83.6952 107.634 83.4092 107.363 83.2038 107.055C83.0132 106.732 82.9178 106.388 82.9178 106.021C82.9178 105.742 83.0352 105.478 83.2698 105.229C83.5045 104.965 83.8345 104.833 84.2598 104.833Z" fill="black"/>
<path d="M127.33 93.503C127.33 93.415 127.359 93.327 127.418 93.239C127.447 93.1804 127.499 93.129 127.572 93.085C127.66 93.0264 127.785 92.997 127.946 92.997H130.872C130.989 92.997 131.092 93.019 131.18 93.063C131.253 93.0924 131.319 93.1437 131.378 93.217C131.451 93.2757 131.488 93.371 131.488 93.503C131.488 93.635 131.451 93.7744 131.378 93.921C131.319 94.053 131.253 94.2217 131.18 94.427C131.107 94.6324 131.033 94.889 130.96 95.197C130.901 95.4904 130.872 95.8644 130.872 96.319V105.075C130.872 105.852 130.916 106.483 131.004 106.967C131.092 107.436 131.239 107.671 131.444 107.671H133.776C134.333 107.671 134.795 107.568 135.162 107.363C135.529 107.143 135.837 106.901 136.086 106.637C136.35 106.373 136.57 106.138 136.746 105.933C136.937 105.713 137.12 105.603 137.296 105.603C137.369 105.603 137.435 105.625 137.494 105.669C137.611 105.757 137.641 105.926 137.582 106.175C137.538 106.424 137.457 106.681 137.34 106.945C137.223 107.209 137.105 107.451 136.988 107.671C136.871 107.876 136.812 107.979 136.812 107.979C136.709 108.155 136.533 108.272 136.284 108.331C136.049 108.375 135.851 108.397 135.69 108.397H127.946C127.829 108.397 127.726 108.375 127.638 108.331C127.565 108.302 127.491 108.25 127.418 108.177C127.359 108.104 127.33 108.008 127.33 107.891C127.33 107.759 127.359 107.627 127.418 107.495C127.491 107.348 127.565 107.172 127.638 106.967C127.711 106.762 127.777 106.512 127.836 106.219C127.909 105.911 127.946 105.53 127.946 105.075V96.319C127.946 95.8644 127.909 95.4904 127.836 95.197C127.777 94.889 127.711 94.6324 127.638 94.427C127.565 94.2217 127.491 94.053 127.418 93.921C127.359 93.7744 127.33 93.635 127.33 93.503Z" fill="black"/>
<path d="M138.903 99.025L140.377 97.815C140.494 97.7124 140.626 97.617 140.773 97.529C140.934 97.441 141.096 97.397 141.257 97.397C141.418 97.397 141.55 97.4704 141.653 97.617C141.77 97.7637 141.829 98.035 141.829 98.431V105.075C141.829 105.53 141.858 105.911 141.917 106.219C141.99 106.512 142.064 106.762 142.137 106.967C142.21 107.172 142.276 107.348 142.335 107.495C142.408 107.627 142.445 107.759 142.445 107.891C142.445 107.979 142.423 108.06 142.379 108.133C142.335 108.206 142.269 108.272 142.181 108.331C142.108 108.375 141.99 108.397 141.829 108.397H138.903C138.786 108.397 138.683 108.375 138.595 108.331C138.522 108.302 138.448 108.25 138.375 108.177C138.316 108.104 138.287 108.008 138.287 107.891C138.287 107.759 138.316 107.627 138.375 107.495C138.448 107.348 138.522 107.172 138.595 106.967C138.668 106.762 138.734 106.512 138.793 106.219C138.866 105.911 138.903 105.53 138.903 105.075V100.829C138.566 100.477 138.375 100.176 138.331 99.927C138.287 99.663 138.478 99.3624 138.903 99.025ZM140.377 91.897C140.934 91.897 141.404 92.095 141.785 92.491C142.166 92.887 142.357 93.3637 142.357 93.921C142.357 94.1997 142.306 94.4637 142.203 94.713C142.1 94.9477 141.961 95.1604 141.785 95.351C141.609 95.527 141.396 95.6664 141.147 95.769C140.912 95.8717 140.656 95.923 140.377 95.923C139.82 95.923 139.343 95.7324 138.947 95.351C138.566 94.955 138.375 94.4784 138.375 93.921C138.375 93.6424 138.426 93.3857 138.529 93.151C138.632 92.9017 138.771 92.689 138.947 92.513C139.138 92.3224 139.35 92.1757 139.585 92.073C139.834 91.9557 140.098 91.897 140.377 91.897Z" fill="black"/>
<path d="M146.905 97.397C147.023 97.397 147.125 97.419 147.213 97.463C147.287 97.4924 147.353 97.5437 147.411 97.617C147.485 97.6757 147.521 97.771 147.521 97.903C147.521 98.035 147.507 98.167 147.477 98.299C147.448 98.4164 147.426 98.5777 147.411 98.783C147.411 98.9737 147.433 99.223 147.477 99.531C147.521 99.839 147.617 100.235 147.763 100.719L149.765 107.297L151.547 100.719C151.665 100.294 151.687 99.9344 151.613 99.641C151.555 99.3477 151.467 99.091 151.349 98.871C151.232 98.651 151.107 98.4677 150.975 98.321C150.858 98.1744 150.799 98.035 150.799 97.903C150.799 97.815 150.829 97.727 150.887 97.639C150.917 97.5804 150.968 97.529 151.041 97.485C151.129 97.4264 151.254 97.397 151.415 97.397H153.615C153.733 97.397 153.835 97.419 153.923 97.463C153.997 97.4924 154.063 97.5437 154.121 97.617C154.195 97.6757 154.231 97.771 154.231 97.903C154.231 98.035 154.151 98.1744 153.989 98.321C153.843 98.453 153.659 98.629 153.439 98.849C153.234 99.0544 153.021 99.311 152.801 99.619C152.581 99.9124 152.413 100.279 152.295 100.719L150.535 107.253C150.447 107.576 150.345 107.847 150.227 108.067C150.125 108.287 149.963 108.397 149.743 108.397H147.565C147.228 108.397 146.942 108.03 146.707 107.297L144.705 100.719C144.573 100.279 144.412 99.9124 144.221 99.619C144.045 99.311 143.869 99.0544 143.693 98.849C143.532 98.6437 143.393 98.4677 143.275 98.321C143.158 98.1744 143.099 98.035 143.099 97.903C143.099 97.815 143.129 97.727 143.187 97.639C143.217 97.5804 143.268 97.529 143.341 97.485C143.429 97.4264 143.554 97.397 143.715 97.397H146.905Z" fill="black"/>
<path d="M155.51 98.937L156.984 97.727C157.087 97.639 157.212 97.5657 157.358 97.507C157.505 97.4337 157.652 97.397 157.798 97.397C157.974 97.397 158.121 97.463 158.238 97.595C158.37 97.727 158.436 97.9764 158.436 98.343V98.453C158.818 98.0717 159.228 97.7637 159.668 97.529C160.123 97.2944 160.629 97.177 161.186 97.177C161.524 97.177 161.883 97.2284 162.264 97.331C162.646 97.4337 162.998 97.5877 163.32 97.793C163.643 97.9837 163.907 98.2257 164.112 98.519C164.318 98.8124 164.42 99.1424 164.42 99.509C164.42 99.7877 164.303 100.059 164.068 100.323C163.834 100.572 163.504 100.697 163.078 100.697C162.682 100.697 162.374 100.58 162.154 100.345C161.949 100.096 161.773 99.8244 161.626 99.531C161.48 99.2377 161.34 98.9737 161.208 98.739C161.091 98.4897 160.908 98.365 160.658 98.365C160.35 98.365 159.998 98.4897 159.602 98.739C159.206 98.9737 158.818 99.289 158.436 99.685V105.075C158.436 105.53 158.466 105.911 158.524 106.219C158.598 106.512 158.671 106.762 158.744 106.967C158.818 107.172 158.884 107.348 158.942 107.495C159.016 107.627 159.052 107.759 159.052 107.891C159.052 107.979 159.03 108.06 158.986 108.133C158.942 108.206 158.876 108.272 158.788 108.331C158.715 108.375 158.598 108.397 158.436 108.397H155.51C155.1 108.397 154.894 108.228 154.894 107.891C154.894 107.759 154.924 107.627 154.982 107.495C155.056 107.348 155.129 107.172 155.202 106.967C155.276 106.762 155.342 106.512 155.4 106.219C155.474 105.911 155.51 105.53 155.51 105.075V100.741C155.51 100.492 155.466 100.294 155.378 100.147C155.305 99.9857 155.239 99.8464 155.18 99.729C155.136 99.597 155.129 99.4797 155.158 99.377C155.188 99.2597 155.305 99.113 155.51 98.937Z" fill="black"/>
<path d="M165.078 102.699C165.078 100.968 165.511 99.619 166.376 98.651C167.256 97.6684 168.51 97.177 170.138 97.177C170.637 97.177 171.128 97.243 171.612 97.375C172.111 97.4924 172.551 97.6904 172.932 97.969C173.328 98.233 173.643 98.585 173.878 99.025C174.127 99.4504 174.252 99.971 174.252 100.587C174.252 101.13 174.149 101.57 173.944 101.907C173.739 102.23 173.467 102.486 173.13 102.677C172.793 102.853 172.404 102.978 171.964 103.051C171.539 103.11 171.091 103.139 170.622 103.139H168.312C168.312 103.99 168.378 104.723 168.51 105.339C168.642 105.94 168.803 106.432 168.994 106.813C169.199 107.18 169.419 107.451 169.654 107.627C169.889 107.803 170.101 107.891 170.292 107.891C170.527 107.891 170.747 107.832 170.952 107.715C171.157 107.583 171.348 107.422 171.524 107.231C171.7 107.026 171.854 106.798 171.986 106.549C172.133 106.285 172.25 106.028 172.338 105.779C172.426 105.53 172.551 105.354 172.712 105.251C172.888 105.148 173.064 105.097 173.24 105.097C173.504 105.097 173.731 105.2 173.922 105.405C174.127 105.61 174.179 105.874 174.076 106.197C174.003 106.432 173.863 106.688 173.658 106.967C173.453 107.246 173.189 107.51 172.866 107.759C172.543 107.994 172.162 108.199 171.722 108.375C171.297 108.536 170.82 108.617 170.292 108.617C169.441 108.617 168.693 108.463 168.048 108.155C167.403 107.832 166.86 107.4 166.42 106.857C165.98 106.314 165.643 105.691 165.408 104.987C165.188 104.268 165.078 103.506 165.078 102.699ZM168.334 102.413H169.742C170.006 102.413 170.219 102.354 170.38 102.237C170.541 102.12 170.666 101.973 170.754 101.797C170.857 101.606 170.923 101.401 170.952 101.181C170.996 100.946 171.018 100.719 171.018 100.499C171.018 100.191 171.003 99.883 170.974 99.575C170.945 99.267 170.893 98.9884 170.82 98.739C170.747 98.4897 170.651 98.2917 170.534 98.145C170.431 97.9837 170.299 97.903 170.138 97.903C169.977 97.903 169.793 97.9984 169.588 98.189C169.397 98.3797 169.214 98.6657 169.038 99.047C168.862 99.4284 168.708 99.8977 168.576 100.455C168.444 101.012 168.363 101.665 168.334 102.413Z" fill="black"/>
<path d="M176.26 104.833C176.524 104.833 176.744 104.914 176.92 105.075C177.096 105.222 177.243 105.405 177.36 105.625C177.477 105.845 177.587 106.094 177.69 106.373C177.793 106.637 177.903 106.879 178.02 107.099C178.137 107.319 178.277 107.51 178.438 107.671C178.614 107.818 178.834 107.891 179.098 107.891C179.303 107.891 179.487 107.847 179.648 107.759C179.824 107.656 179.971 107.532 180.088 107.385C180.205 107.238 180.293 107.07 180.352 106.879C180.425 106.688 180.462 106.498 180.462 106.307C180.462 105.911 180.323 105.559 180.044 105.251C179.78 104.928 179.443 104.628 179.032 104.349C178.621 104.056 178.181 103.77 177.712 103.491C177.243 103.212 176.803 102.919 176.392 102.611C175.981 102.303 175.637 101.966 175.358 101.599C175.094 101.218 174.962 100.785 174.962 100.301C174.962 99.729 175.109 99.245 175.402 98.849C175.71 98.453 176.084 98.1304 176.524 97.881C176.964 97.6317 177.433 97.4557 177.932 97.353C178.431 97.2357 178.885 97.177 179.296 97.177C179.941 97.177 180.521 97.243 181.034 97.375C181.547 97.507 181.987 97.6904 182.354 97.925C182.721 98.1597 182.999 98.4384 183.19 98.761C183.395 99.069 183.498 99.4064 183.498 99.773C183.498 100.052 183.381 100.323 183.146 100.587C182.911 100.836 182.581 100.961 182.156 100.961C181.892 100.961 181.672 100.888 181.496 100.741C181.32 100.58 181.173 100.389 181.056 100.169C180.939 99.949 180.829 99.707 180.726 99.443C180.623 99.1644 180.513 98.915 180.396 98.695C180.279 98.475 180.132 98.2917 179.956 98.145C179.795 97.9837 179.582 97.903 179.318 97.903C179.113 97.903 178.922 97.9544 178.746 98.057C178.585 98.145 178.445 98.2624 178.328 98.409C178.211 98.5557 178.115 98.7244 178.042 98.915C177.983 99.1057 177.954 99.2964 177.954 99.487C177.954 99.883 178.086 100.242 178.35 100.565C178.629 100.888 178.973 101.196 179.384 101.489C179.809 101.782 180.257 102.076 180.726 102.369C181.21 102.648 181.657 102.948 182.068 103.271C182.493 103.594 182.838 103.946 183.102 104.327C183.381 104.694 183.52 105.119 183.52 105.603C183.52 106.175 183.366 106.652 183.058 107.033C182.75 107.414 182.369 107.722 181.914 107.957C181.474 108.192 180.997 108.36 180.484 108.463C179.985 108.566 179.531 108.617 179.12 108.617C178.489 108.617 177.91 108.551 177.382 108.419C176.869 108.287 176.429 108.104 176.062 107.869C175.695 107.634 175.409 107.363 175.204 107.055C175.013 106.732 174.918 106.388 174.918 106.021C174.918 105.742 175.035 105.478 175.27 105.229C175.505 104.965 175.835 104.833 176.26 104.833Z" fill="black"/>
</svg>
