<svg width="262" height="225" viewBox="0 0 262 225" fill="none" xmlns="http://www.w3.org/2000/svg">
<path d="M124.269 6.46531C124.57 5.54624 125.87 5.54624 126.17 6.46532L136.378 37.6947C136.631 38.4698 137.656 38.6321 138.137 37.9732L157.495 11.4267C158.065 10.6454 159.302 11.0472 159.303 12.0142L159.361 44.8694C159.363 45.6849 160.287 46.1559 160.947 45.6777L187.562 26.4127C188.345 25.8457 189.397 26.6099 189.1 27.5301L179.002 58.7951C178.751 59.5711 179.485 60.3047 180.261 60.0541L211.526 49.9563C212.446 49.6591 213.21 50.711 212.643 51.4942L193.378 78.1087C192.9 78.7692 193.371 79.6936 194.187 79.695L227.042 79.7529C228.009 79.7546 228.411 80.9911 227.629 81.5609L201.083 100.92C200.424 101.4 200.586 102.425 201.361 102.678L232.591 112.886C233.51 113.186 233.51 114.486 232.591 114.787L201.361 124.995C200.586 125.248 200.424 126.273 201.083 126.753L227.629 146.112C228.411 146.682 228.009 147.918 227.042 147.92L194.187 147.978C193.371 147.979 192.9 148.903 193.378 149.564L212.643 176.178C213.21 176.962 212.446 178.014 211.526 177.716L180.261 167.619C179.485 167.368 178.751 168.102 179.002 168.878L189.1 200.143C189.397 201.063 188.345 201.827 187.562 201.26L160.947 181.995C160.287 181.517 159.363 181.988 159.361 182.803L159.303 215.659C159.302 216.625 158.065 217.027 157.495 216.246L138.137 189.7C137.656 189.041 136.631 189.203 136.378 189.978L126.17 221.207C125.87 222.126 124.57 222.126 124.269 221.207L114.061 189.978C113.808 189.203 112.783 189.041 112.303 189.7L92.9443 216.246C92.3746 217.027 91.138 216.625 91.1363 215.659L91.0785 182.803C91.077 181.988 90.1527 181.517 89.4921 181.995L62.8776 201.26C62.0944 201.827 61.0425 201.063 61.3397 200.143L71.4375 168.878C71.6881 168.102 70.9546 167.368 70.1786 167.619L38.9135 177.716C37.9933 178.014 37.2291 176.962 37.7961 176.178L57.0611 149.564C57.5393 148.903 57.0683 147.979 56.2528 147.978L23.3976 147.92C22.4306 147.918 22.0289 146.682 22.8101 146.112L49.3566 126.753C50.0155 126.273 49.8532 125.248 49.0781 124.995L17.8487 114.787C16.9297 114.486 16.9297 113.186 17.8487 112.886L49.0781 102.678C49.8532 102.425 50.0155 101.4 49.3566 100.919L22.8101 81.5609C22.0289 80.9911 22.4306 79.7546 23.3976 79.7529L56.2528 79.695C57.0683 79.6936 57.5393 78.7692 57.0611 78.1087L37.7961 51.4942C37.2291 50.711 37.9933 49.6591 38.9135 49.9563L70.1786 60.0541C70.9546 60.3047 71.6881 59.5711 71.4375 58.7951L61.3397 27.5301C61.0425 26.6099 62.0944 25.8457 62.8776 26.4127L89.4921 45.6777C90.1527 46.1559 91.077 45.6849 91.0785 44.8694L91.1363 12.0142C91.138 11.0472 92.3746 10.6454 92.9443 11.4267L112.303 37.9732C112.783 38.6321 113.808 38.4698 114.061 37.6947L124.269 6.46531Z" fill="#F7A34B"/>
<path d="M126.937 2.90794C127.238 1.98886 128.538 1.98886 128.838 2.90794L139.046 34.1373C139.299 34.9124 140.324 35.0747 140.805 34.4158L160.163 7.86933C160.733 7.08807 161.969 7.48985 161.971 8.45678L162.029 41.312C162.03 42.1275 162.955 42.5985 163.615 42.1203L190.23 22.8553C191.013 22.2883 192.065 23.0525 191.768 23.9727L181.67 55.2378C181.419 56.0138 182.153 56.7473 182.929 56.4967L214.194 46.3989C215.114 46.1017 215.878 47.1536 215.311 47.9368L196.046 74.5513C195.568 75.2119 196.039 76.1362 196.855 76.1377L229.71 76.1955C230.677 76.1972 231.079 77.4338 230.297 78.0035L203.751 97.3621C203.092 97.8426 203.254 98.8673 204.029 99.1206L235.259 109.328C236.178 109.629 236.178 110.929 235.259 111.229L204.029 121.437C203.254 121.691 203.092 122.715 203.751 123.196L230.297 142.554C231.079 143.124 230.677 144.361 229.71 144.362L196.855 144.42C196.039 144.422 195.568 145.346 196.046 146.007L215.311 172.621C215.878 173.404 215.114 174.456 214.194 174.159L182.929 164.061C182.153 163.811 181.419 164.544 181.67 165.32L191.768 196.585C192.065 197.505 191.013 198.27 190.23 197.703L163.615 178.438C162.955 177.959 162.03 178.43 162.029 179.246L161.971 212.101C161.969 213.068 160.733 213.47 160.163 212.689L140.805 186.142C140.324 185.483 139.299 185.646 139.046 186.421L128.838 217.65C128.538 218.569 127.238 218.569 126.937 217.65L116.729 186.421C116.476 185.646 115.451 185.483 114.971 186.142L95.6123 212.689C95.0425 213.47 93.806 213.068 93.8043 212.101L93.7464 179.246C93.745 178.43 92.8206 177.959 92.1601 178.438L65.5456 197.703C64.7623 198.27 63.7105 197.505 64.0076 196.585L74.1055 165.32C74.3561 164.544 73.6225 163.811 72.8465 164.061L41.5814 174.159C40.6613 174.456 39.8971 173.404 40.4641 172.621L59.7291 146.007C60.2073 145.346 59.7363 144.422 58.9208 144.42L26.0655 144.362C25.0986 144.361 24.6968 143.124 25.4781 142.554L52.0246 123.196C52.6834 122.715 52.5212 121.691 51.7461 121.437L20.5167 111.229C19.5976 110.929 19.5976 109.629 20.5167 109.328L51.7461 99.1206C52.5212 98.8673 52.6834 97.8426 52.0246 97.3621L25.4781 78.0035C24.6968 77.4338 25.0986 76.1972 26.0655 76.1955L58.9208 76.1377C59.7363 76.1362 60.2073 75.2119 59.7291 74.5513L40.4641 47.9368C39.8971 47.1536 40.6613 46.1017 41.5814 46.3989L72.8465 56.4967C73.6225 56.7473 74.3561 56.0138 74.1055 55.2378L64.0076 23.9727C63.7105 23.0526 64.7623 22.2883 65.5456 22.8553L92.1601 42.1203C92.8206 42.5985 93.745 42.1275 93.7464 41.312L93.8043 8.45678C93.806 7.48985 95.0425 7.08807 95.6123 7.86933L114.971 34.4158C115.451 35.0747 116.476 34.9124 116.729 34.1373L126.937 2.90794Z" fill="#FED531"/>
<path d="M46.7156 95.7826H36.1262L23.3578 117.31L10.5895 95.7826H0V126.287H7.84404V105.37L20.5252 126.287H26.1904L38.8716 105.37V126.287H46.7156V95.7826Z" fill="#E796E4"/>
<path d="M88.5655 110.991V95.7826H80.7214V110.991C80.7214 115.218 79.5448 120.143 69.3911 120.143C59.2375 120.143 58.0609 115.262 58.0609 110.991V95.7826H50.2168V110.991C50.2168 121.624 55.9691 126.723 69.3911 126.723C82.7696 126.723 88.5655 121.581 88.5655 110.991Z" fill="#E796E4"/>
<path d="M91.4014 115.785C91.4014 124.588 98.8533 126.723 111.36 126.723C122.647 126.723 130.36 125.067 130.36 116.918C130.36 109.205 122.908 108.551 110.881 107.897C101.991 107.374 100.161 106.939 100.161 104.585C100.161 102.319 101.991 101.579 109.704 101.579C117.853 101.579 121.209 102.406 121.209 105.762H129.053C129.053 98.223 122.08 95.3469 110.576 95.3469C99.1583 95.3469 92.3166 97.4822 92.3166 104.193C92.3166 111.035 97.5895 113.127 110.881 113.737C120.773 114.216 122.516 114.652 122.516 117.179C122.516 119.576 120.032 120.491 111.796 120.491C101.86 120.491 99.2455 119.01 99.2455 115.785H91.4014Z" fill="#E796E4"/>
<path d="M141.046 95.7826H133.202V126.287H141.046V95.7826Z" fill="#E796E4"/>
<path d="M184.624 124.631L179.831 119.838C181.312 117.441 182.01 114.478 182.01 110.991C182.01 100.925 176.214 95.3469 162.835 95.3469C149.413 95.3469 143.661 100.881 143.661 110.991C143.661 121.145 149.413 126.723 162.835 126.723C167.324 126.723 170.941 126.113 173.817 124.893L179.09 130.166L184.624 124.631ZM151.505 110.991C151.505 104.76 154.643 101.927 162.835 101.927C171.028 101.927 174.166 104.803 174.166 110.991C174.166 117.223 170.984 120.143 162.835 120.143C154.686 120.143 151.505 117.267 151.505 110.991Z" fill="#E796E4"/>
<path d="M223.342 110.991V95.7826H215.498V110.991C215.498 115.218 214.322 120.143 204.168 120.143C194.014 120.143 192.838 115.262 192.838 110.991V95.7826H184.994V110.991C184.994 121.624 190.746 126.723 204.168 126.723C217.546 126.723 223.342 121.581 223.342 110.991Z" fill="#E796E4"/>
<path d="M258.862 102.014V95.7826H226.614V126.287H258.862V120.056H234.458V113.868H258.862V108.202H234.458V102.014H258.862Z" fill="#E796E4"/>
<path d="M49.3836 93.1146H38.7942L26.0258 114.642L13.2575 93.1146H2.66803V123.619H10.5121V102.702L23.1933 123.619H28.8584L41.5396 102.702V123.619H49.3836V93.1146Z" fill="#EE6F2E"/>
<path d="M91.2335 108.323V93.1146H83.3894V108.323C83.3894 112.55 82.2128 117.475 72.0592 117.475C61.9055 117.475 60.7289 112.594 60.7289 108.323V93.1146H52.8848V108.323C52.8848 118.956 58.6371 124.055 72.0592 124.055C85.4376 124.055 91.2335 118.913 91.2335 108.323Z" fill="#EE6F2E"/>
<path d="M94.0695 113.117C94.0695 121.92 101.521 124.055 114.028 124.055C125.315 124.055 133.028 122.399 133.028 114.25C133.028 106.537 125.576 105.883 113.549 105.229C104.659 104.706 102.829 104.271 102.829 101.917C102.829 99.6513 104.659 98.9105 112.372 98.9105C120.521 98.9105 123.877 99.7385 123.877 103.094H131.721C131.721 95.555 124.748 92.6788 113.244 92.6788C101.826 92.6788 94.9846 94.8142 94.9846 101.525C94.9846 108.367 100.258 110.459 113.549 111.069C123.441 111.548 125.184 111.984 125.184 114.511C125.184 116.908 122.7 117.823 114.464 117.823C104.528 117.823 101.913 116.342 101.913 113.117H94.0695Z" fill="#EE6F2E"/>
<path d="M143.714 93.1146H135.87V123.619H143.714V93.1146Z" fill="#EE6F2E"/>
<path d="M187.292 121.963L182.499 117.17C183.98 114.773 184.678 111.81 184.678 108.323C184.678 98.2568 178.882 92.6788 165.503 92.6788C152.081 92.6788 146.329 98.2132 146.329 108.323C146.329 118.477 152.081 124.055 165.503 124.055C169.992 124.055 173.609 123.445 176.485 122.225L181.758 127.498L187.292 121.963ZM154.173 108.323C154.173 102.092 157.311 99.2591 165.503 99.2591C173.696 99.2591 176.834 102.135 176.834 108.323C176.834 114.555 173.652 117.475 165.503 117.475C157.354 117.475 154.173 114.599 154.173 108.323Z" fill="#EE6F2E"/>
<path d="M226.01 108.323V93.1146H218.166V108.323C218.166 112.55 216.99 117.475 206.836 117.475C196.682 117.475 195.506 112.594 195.506 108.323V93.1146H187.662V108.323C187.662 118.956 193.414 124.055 206.836 124.055C220.214 124.055 226.01 118.913 226.01 108.323Z" fill="#EE6F2E"/>
<path d="M261.53 99.3463V93.1146H229.282V123.619H261.53V117.388H237.126V111.199H261.53V105.534H237.126V99.3463H261.53Z" fill="#EE6F2E"/>
</svg>
