<svg width="232" height="233" viewBox="0 0 232 233" fill="none" xmlns="http://www.w3.org/2000/svg">
<mask id="mask0_149:575" style="mask-type:alpha" maskUnits="userSpaceOnUse" x="0" y="0" width="232" height="233">
<path d="M116 232C179.513 232 231 180.289 231 116.5C231 52.7111 179.513 1 116 1C52.4873 1 1 52.7111 1 116.5C1 180.289 52.4873 232 116 232Z" fill="#10A33E" stroke="#271D50" stroke-miterlimit="10"/>
</mask>
<g mask="url(#mask0_149:575)">
<path d="M116 232C179.513 232 231 180.289 231 116.5C231 52.7111 179.513 1 116 1C52.4873 1 1 52.7111 1 116.5C1 180.289 52.4873 232 116 232Z" fill="#F3151A" stroke="#0C0C0C" stroke-width="2" stroke-miterlimit="10"/>
<path d="M35.4145 99.819C35.2305 99.7639 35.0588 99.668 34.8993 99.5312C34.7255 99.3679 34.5109 99.1923 34.2553 99.0045C33.9998 98.8167 33.6799 98.6207 33.2956 98.4166C32.8969 98.186 32.3809 97.9759 31.7473 97.7863L19.5459 94.135C18.9123 93.9454 18.3759 93.8405 17.9365 93.8204C17.4829 93.7737 17.0977 93.7587 16.781 93.7752C16.4643 93.7918 16.1987 93.8236 15.9841 93.8708C15.7553 93.8914 15.5489 93.8741 15.365 93.8191C14.8949 93.6784 14.7455 93.322 14.9167 92.7497L16.1369 88.6724C16.1736 88.5497 16.2277 88.4434 16.2991 88.3535C16.3706 88.2635 16.4492 88.1869 16.535 88.1234C16.6064 88.0335 16.7096 87.9864 16.8444 87.9822C16.572 87.0323 16.5765 86.0872 16.8578 85.1471C17.1086 84.3091 17.5484 83.5834 18.1774 82.97C18.8063 82.3565 19.5508 81.8779 20.4108 81.534C21.2708 81.1901 22.2168 81.0056 23.2487 80.9804C24.2662 80.9286 25.3064 81.0617 26.3691 81.3797C27.4115 81.6917 28.3538 82.1518 29.1961 82.7601C30.024 83.3419 30.7029 84.0127 31.2326 84.7725C31.7624 85.5322 32.1215 86.3412 32.3101 87.1993C32.4987 88.0573 32.4676 88.9054 32.2169 89.7433C31.8377 91.0105 31.0455 92.0204 29.8405 92.7732L32.9674 93.709C33.601 93.8986 34.1446 94.0167 34.5983 94.0634C35.0376 94.0835 35.4156 94.0853 35.7324 94.0687C36.0491 94.0522 36.3218 94.0336 36.5507 94.013C36.7652 93.9659 36.9644 93.9698 37.1484 94.0249C37.6184 94.1655 37.7679 94.522 37.5966 95.0943L36.3764 99.1716C36.3275 99.3351 36.254 99.469 36.156 99.5733C36.0846 99.6632 35.9825 99.744 35.8497 99.8156C35.723 99.8668 35.578 99.8679 35.4145 99.819ZM20.7661 90.0577L28.277 92.3053C28.7366 92.1088 29.1338 91.8603 29.4688 91.5597C29.7893 91.2325 30.0108 90.8646 30.1331 90.4558C30.2982 89.904 30.2489 89.3993 29.985 88.9418C29.7272 88.4638 29.3427 88.037 28.8316 87.6614C28.3266 87.2653 27.7389 86.9224 27.0685 86.6328C26.3777 86.3369 25.695 86.0881 25.0206 85.8863C24.3461 85.6845 23.639 85.5174 22.8992 85.3851C22.1594 85.2528 21.4697 85.2134 20.8302 85.2669C20.1968 85.3001 19.6411 85.4455 19.1631 85.7033C18.6913 85.9407 18.3728 86.3353 18.2076 86.8871C18.0547 87.398 18.0274 87.8241 18.1258 88.1653C18.2241 88.5064 18.4021 88.8047 18.6597 89.0599C18.9234 89.2947 19.2434 89.4906 19.6195 89.6477C19.9751 89.7987 20.3573 89.9353 20.7661 90.0577Z" fill="white"/>
<path d="M37.8388 79.5567L26.7913 73.2195C26.2177 72.8904 25.7193 72.666 25.2961 72.5462C24.865 72.3973 24.4934 72.2948 24.1813 72.2388C23.8691 72.1827 23.6033 72.1531 23.3836 72.1501C23.1561 72.118 22.9591 72.0541 22.7926 71.9586C22.367 71.7145 22.3028 71.3333 22.6 70.8152L24.7177 67.1235C24.8026 66.9754 24.9047 66.8618 25.0239 66.7826C25.1139 66.7113 25.2265 66.6652 25.3615 66.6443C25.4886 66.5942 25.6354 66.6169 25.8019 66.7125C25.9685 66.808 26.1177 66.9551 26.2497 67.1538C26.3738 67.3233 26.5388 67.5287 26.7448 67.7698C26.9508 68.011 27.2216 68.2892 27.5571 68.6047C27.8847 68.891 28.3354 69.1987 28.909 69.5278L33.6278 72.2346C33.8869 72.3832 34.1223 72.4445 34.334 72.4183C34.5563 72.3737 34.7259 72.2496 34.8427 72.0461L37.0081 68.2711C37.1249 68.0675 37.1464 67.8585 37.0727 67.6441C36.9989 67.4296 36.8325 67.2481 36.5735 67.0995L31.8547 64.3926C31.2811 64.0636 30.7826 63.8392 30.3595 63.7194C29.9284 63.5705 29.5568 63.468 29.2447 63.4119C28.9325 63.3558 28.6666 63.3263 28.447 63.3233C28.2195 63.2911 28.0225 63.2273 27.8559 63.1318C27.4303 62.8876 27.3661 62.5065 27.6633 61.9883L29.781 58.2966C29.866 58.1486 29.968 58.035 30.0872 57.9558C30.1773 57.8845 30.2899 57.8384 30.4248 57.8174C30.5519 57.7673 30.6988 57.7901 30.8653 57.8856C31.0318 57.9812 31.1811 58.1283 31.3131 58.3269C31.4372 58.4965 31.6022 58.7018 31.8082 58.943C32.0142 59.1841 32.2849 59.4624 32.6205 59.7778C32.9481 60.0642 33.3988 60.3718 33.9724 60.7009L45.0199 67.0381C45.5935 67.3672 46.0959 67.6061 46.5269 67.755C46.9501 67.8748 47.3178 67.9627 47.6299 68.0188C47.942 68.0749 48.2119 68.119 48.4394 68.1511C48.659 68.1542 48.8521 68.2034 49.0186 68.299C49.4442 68.5431 49.5084 68.9243 49.2112 69.4424L47.0935 73.1341C47.0086 73.2822 46.9065 73.3958 46.7873 73.475C46.6972 73.5463 46.5794 73.6016 46.4338 73.6411C46.2988 73.662 46.1573 73.63 46.0093 73.5451C45.8427 73.4496 45.6974 73.317 45.5733 73.1475C45.4414 72.9488 45.2724 72.7289 45.0664 72.4878C44.8604 72.2466 44.5936 71.9829 44.2659 71.6966C43.9304 71.3811 43.4758 71.0589 42.9022 70.7298L39.0161 68.5007C38.7571 68.3521 38.5441 68.316 38.3773 68.3924C38.1919 68.4583 38.0409 68.593 37.9241 68.7965L35.7587 72.5715C35.6419 72.7751 35.6019 72.9735 35.6386 73.1667C35.6674 73.3308 35.8114 73.4872 36.0704 73.6358L39.9565 75.8649C40.5301 76.194 41.0325 76.433 41.4636 76.5819C41.8867 76.7017 42.2544 76.7896 42.5665 76.8457C42.8787 76.9018 43.1485 76.9459 43.376 76.978C43.5956 76.981 43.7887 77.0303 43.9553 77.1258C44.3809 77.37 44.4451 77.7511 44.1478 78.2692L42.0301 81.961C41.9452 82.109 41.8432 82.2226 41.724 82.3018C41.6339 82.3731 41.516 82.4285 41.3704 82.4679C41.2354 82.4889 41.0939 82.4569 40.9459 82.372C40.7794 82.2764 40.634 82.1439 40.51 81.9743C40.378 81.7756 40.209 81.5557 40.003 81.3146C39.797 81.0735 39.5302 80.8097 39.2026 80.5234C38.867 80.208 38.4124 79.8857 37.8388 79.5567Z" fill="white"/>
<path d="M40.5387 43.4532C41.4955 42.4548 42.5566 41.7626 43.722 41.3767C44.9022 40.9754 46.1185 40.8592 47.371 41.0282C48.6382 41.1818 49.9185 41.5984 51.212 42.2781C52.49 42.9431 53.7204 43.8423 54.9032 44.9757C56.0859 46.1092 57.052 47.3149 57.8014 48.593C58.5355 49.8564 59.0139 51.1252 59.2366 52.3994C59.4587 53.6436 59.402 54.8711 59.0667 56.082C58.7307 57.2628 58.0843 58.3524 57.1275 59.3508C56.1707 60.3492 55.1022 61.049 53.922 61.4503C52.7412 61.8215 51.5172 61.9303 50.25 61.7767C48.9822 61.593 47.7016 61.1613 46.4081 60.4816C45.0993 59.7872 43.8536 58.8733 42.6708 57.7399C41.4881 56.6064 40.5374 55.4154 39.8187 54.1668C39.0846 52.9034 38.6065 51.6496 38.3844 50.4055C38.1771 49.146 38.2414 47.9258 38.5774 46.745C38.9281 45.5488 39.5819 44.4516 40.5387 43.4532ZM45.9166 54.353C47.0993 55.4864 48.2401 56.4176 49.339 57.1466C50.4526 57.8602 51.4721 58.3952 52.3976 58.7517C53.3224 59.0781 54.1307 59.234 54.8225 59.2192C55.5137 59.1744 56.0286 58.9754 56.3672 58.6221C56.7057 58.2688 56.8753 57.7536 56.876 57.0765C56.876 56.3693 56.6859 55.5684 56.3057 54.6736C55.9249 53.7488 55.347 52.753 54.572 51.6861C53.8116 50.6039 52.8401 49.496 51.6574 48.3626C50.4747 47.2292 49.3342 46.313 48.236 45.6141C47.1371 44.8852 46.1329 44.3648 45.2235 44.0532C44.3134 43.7114 43.5128 43.5629 42.8216 43.6077C42.1451 43.6372 41.6376 43.8285 41.299 44.1818C40.9604 44.5351 40.7835 45.058 40.7681 45.7504C40.7675 46.4276 40.9499 47.2212 41.3153 48.1312C41.6801 49.0112 42.2427 49.9924 43.003 51.0746C43.7627 52.1268 44.7339 53.2196 45.9166 54.353Z" fill="white"/>
<path d="M53.6917 31.84L69.8485 21.9558C70.0117 21.856 70.1371 21.8166 70.2248 21.8378C70.3195 21.8297 70.3891 21.8619 70.4334 21.9344C70.4667 21.9888 70.493 22.0724 70.5122 22.1853C70.5384 22.2689 70.5646 22.3525 70.5909 22.4362L71.6706 26.5229C71.6605 26.6287 71.6359 26.731 71.5966 26.8298C71.5755 26.9174 71.5453 27.0107 71.5061 27.1094C71.4557 27.1901 71.3852 27.2581 71.2946 27.3136C71.2039 27.3691 71.0875 27.4029 70.9454 27.415C70.756 27.4313 70.4995 27.2767 70.1758 26.9514C69.8703 26.6149 69.4994 26.2937 69.0629 25.9875C68.6334 25.6522 68.1411 25.4176 67.5858 25.2838C67.0486 25.139 66.4536 25.2662 65.8008 25.6656L64.8488 26.248C64.4499 26.4921 64.4153 26.9244 64.7451 27.545C65.0638 28.1474 65.5172 28.9292 66.1051 29.8902L72.7278 40.7158C73.0717 41.278 73.3964 41.7273 73.7019 42.0637C74.0144 42.3709 74.2937 42.6237 74.5397 42.8221C74.7856 43.0205 75.0004 43.1882 75.1838 43.3251C75.3743 43.4329 75.5195 43.5683 75.6194 43.7315C75.8745 44.1486 75.7482 44.5124 75.2405 44.823L71.6229 47.0362C71.4778 47.1249 71.3342 47.1754 71.1922 47.1875C71.0793 47.2067 70.9498 47.1987 70.8037 47.1635C70.6757 47.1172 70.5673 47.0216 70.4786 46.8765C70.3787 46.7133 70.3151 46.5279 70.2878 46.3203C70.2676 46.0835 70.2251 45.8105 70.1605 45.5011C70.0958 45.1918 69.9888 44.8336 69.8395 44.4266C69.6972 43.9903 69.4541 43.4911 69.1102 42.929L62.4875 32.1034C62.1991 31.6319 61.9328 31.1967 61.6888 30.7978C61.4447 30.3988 61.2214 30.0745 61.0187 29.8246C60.805 29.5567 60.5993 29.3835 60.4017 29.305C60.2112 29.1972 60.0163 29.2044 59.8168 29.3264L58.8376 29.9254C58.1848 30.3248 57.7915 30.8021 57.6578 31.3574C57.5421 31.9017 57.5212 32.4378 57.595 32.9658C57.687 33.4827 57.8041 33.9593 57.9464 34.3955C58.1068 34.8207 58.1422 35.123 58.0526 35.3024C58.0063 35.4304 57.9197 35.5332 57.7928 35.6109C57.5752 35.744 57.287 35.721 56.9281 35.5418L53.7813 32.7197C53.7188 32.6582 53.6472 32.6024 53.5665 32.552C53.4929 32.4724 53.4395 32.4054 53.4062 32.351C53.3619 32.2785 53.3558 32.2075 53.388 32.1379C53.4272 32.0392 53.5285 31.9398 53.6917 31.84Z" fill="white"/>
<path d="M86.5138 16.4271C87.8425 16.0303 89.1105 15.9521 90.3178 16.1926C91.5456 16.4271 92.6637 16.928 93.6722 17.6955C94.7012 18.4569 95.6113 19.4541 96.4026 20.6872C97.1879 21.8999 97.8155 23.2932 98.2857 24.8672C98.7558 26.4411 99.0012 27.9709 99.0219 29.4564C99.0364 30.9215 98.8254 32.2648 98.3886 33.4862C97.9663 34.681 97.3091 35.7234 96.4171 36.6132C95.5395 37.4765 94.4363 38.1066 93.1076 38.5034C91.779 38.9003 90.5008 38.9815 89.273 38.747C88.0595 38.4861 86.9383 37.9749 85.9094 37.2135C84.8948 36.4256 83.9918 35.4151 83.2005 34.182C82.4031 32.9284 81.7693 31.5147 81.2992 29.9407C80.8291 28.3668 80.5898 26.8575 80.5813 25.4128C80.5667 23.9477 80.7706 22.6177 81.193 21.4228C81.6358 20.2219 82.296 19.1898 83.1737 18.3265C84.0718 17.4571 85.1852 16.824 86.5138 16.4271ZM85.8064 28.5945C86.2765 30.1684 86.8102 31.5453 87.4075 32.725C88.0252 33.8987 88.6493 34.87 89.2798 35.6391C89.9246 36.3816 90.5523 36.9177 91.1629 37.2475C91.7878 37.5506 92.3353 37.632 92.8054 37.4916C93.2756 37.3512 93.6786 36.9859 94.0144 36.3958C94.3645 35.7791 94.5954 34.9865 94.7069 34.0181C94.8327 33.0232 94.8219 31.8686 94.6743 30.5546C94.5472 29.2344 94.2485 27.7873 93.7784 26.2134C93.3083 24.6394 92.7674 23.2759 92.1558 22.1227C91.5585 20.9429 90.9405 19.992 90.3018 19.2699C89.6775 18.5213 89.0528 17.9954 88.4279 17.6922C87.8235 17.3829 87.2862 17.2985 86.816 17.4389C86.3459 17.5794 85.9327 17.9477 85.5764 18.5439C85.2406 19.1341 85.0067 19.9164 84.8748 20.8909C84.7571 21.8389 84.7619 22.973 84.889 24.2931C85.0305 25.5867 85.3363 27.0205 85.8064 28.5945Z" fill="white"/>
<path d="M113.357 12.1219C115.361 12.0418 116.96 12.2447 118.153 12.7307C119.347 13.2167 119.967 14.0353 120.013 15.1864C120.029 15.5914 119.874 15.9926 119.549 16.3899C119.222 16.7659 118.75 16.9663 118.131 16.991C117.748 17.0064 117.424 16.9232 117.161 16.7416C116.918 16.5378 116.705 16.3008 116.524 16.0305C116.341 15.7389 116.169 15.4255 116.006 15.0904C115.842 14.734 115.648 14.4215 115.424 14.153C115.22 13.8622 114.955 13.6273 114.627 13.4482C114.32 13.247 113.911 13.1566 113.399 13.1771C112.866 13.1984 112.31 13.4448 111.731 13.9163C111.174 14.387 110.668 15.0798 110.213 15.9947C109.779 16.8874 109.429 18.001 109.162 19.3354C108.895 20.6698 108.797 22.2216 108.868 23.9909C108.944 25.888 109.179 27.4906 109.573 28.7985C109.987 30.0843 110.477 31.1216 111.042 31.9103C111.607 32.699 112.196 33.2626 112.807 33.6011C113.418 33.9396 113.969 34.099 114.46 34.0794C114.929 34.0607 115.32 33.9703 115.634 33.8083C115.947 33.6463 116.217 33.4433 116.442 33.1995L116.232 27.9557C115.721 27.4637 115.427 27.0378 115.348 26.678C115.269 26.2968 115.529 25.8488 116.127 25.3338L118.199 23.4895C118.343 23.3556 118.52 23.2418 118.73 23.148C118.939 23.0329 119.15 22.9711 119.363 22.9626C119.619 22.9523 119.836 23.0397 120.014 23.2247C120.214 23.4089 120.324 23.7675 120.345 24.3004L120.697 33.0933C120.717 33.5836 120.689 33.9583 120.614 34.2176C120.538 34.4554 120.255 34.5842 119.765 34.6038C119.36 34.62 118.985 34.5923 118.641 34.5207C118.317 34.4269 118.024 34.3105 117.762 34.1715C117.345 34.423 116.862 34.6345 116.314 34.8059C115.788 34.9977 115.184 35.1073 114.502 35.1346C113.074 35.1917 111.743 35.0101 110.509 34.5897C109.275 34.1694 108.202 33.5077 107.291 32.6048C106.379 31.6805 105.649 30.5247 105.103 29.1375C104.555 27.7289 104.244 26.076 104.168 24.1789C104.097 22.4096 104.246 20.8024 104.615 19.3571C105.005 17.8897 105.595 16.6384 106.387 15.6033C107.177 14.5469 108.158 13.7177 109.33 13.1157C110.501 12.5137 111.844 12.1825 113.357 12.1219Z" fill="white"/>
<path d="M123.795 34.3243C123.828 34.1351 123.903 33.9532 124.019 33.7787C124.161 33.5867 124.31 33.3527 124.466 33.0766C124.622 32.8006 124.779 32.4597 124.936 32.0539C125.117 31.6307 125.265 31.0933 125.378 30.4417L127.555 17.8931C127.668 17.2415 127.708 16.6964 127.676 16.2578C127.668 15.8018 127.638 15.4175 127.584 15.105C127.53 14.7925 127.466 14.5326 127.394 14.3252C127.346 14.1004 127.339 13.8934 127.372 13.7042C127.456 13.2208 127.792 13.0301 128.38 13.1322L132.574 13.8596C132.679 13.8779 132.772 13.9048 132.852 13.9404C133.034 14.0152 133.175 14.1372 133.276 14.3062C134.232 14.0389 135.193 13.9892 136.16 14.1569C137.022 14.3064 137.803 14.6044 138.506 15.051C139.208 15.4975 139.789 16.0748 140.251 16.7828C140.717 17.4698 141.032 18.2716 141.198 19.1881C141.385 20.1082 141.383 21.1148 141.194 22.2078C140.888 23.9734 140.217 25.4052 139.182 26.5031C138.151 27.5801 136.958 28.2175 135.603 28.4155C136.153 28.9873 136.587 29.6039 136.906 30.2654C137.249 30.9095 137.509 31.5285 137.688 32.1224C137.887 32.72 138.031 33.2645 138.119 33.7561C138.228 34.2514 138.304 34.6219 138.348 34.8677C138.413 35.1171 138.494 35.3369 138.591 35.5269C138.713 35.6996 138.826 35.8599 138.93 36.0079C139.034 36.1559 139.115 36.3107 139.174 36.4725C139.257 36.6168 139.281 36.7941 139.244 37.0043C139.193 37.2985 139.064 37.4818 138.857 37.5541C138.653 37.6054 138.425 37.6091 138.173 37.5654L134.2 36.8762C133.927 36.8288 133.738 36.6662 133.635 36.3885C133.535 36.0897 133.482 35.6474 133.475 35.0617C133.479 34.5426 133.46 33.9656 133.418 33.3305C133.402 32.678 133.352 32.0306 133.268 31.3882C133.188 30.7248 133.07 30.098 132.912 29.5077C132.759 28.8965 132.536 28.3707 132.244 27.9303C131.562 27.6172 130.937 27.1624 130.37 26.5659L129.571 31.1691C129.458 31.8207 129.405 32.3745 129.413 32.8305C129.445 33.2691 129.488 33.6447 129.542 33.9572C129.596 34.2697 129.647 34.5384 129.695 34.7631C129.767 34.9705 129.787 35.1688 129.754 35.358C129.67 35.8415 129.334 36.0321 128.745 35.93L124.552 35.2026C124.384 35.1734 124.242 35.1164 124.127 35.0315C124.029 34.9712 123.937 34.8794 123.85 34.7561C123.784 34.6364 123.766 34.4925 123.795 34.3243ZM130.649 24.9579C130.909 25.3279 131.212 25.6403 131.558 25.8951C131.924 26.1535 132.318 26.3192 132.738 26.3921C133.306 26.4906 133.796 26.4132 134.208 26.1599C134.641 25.9102 135.006 25.5514 135.304 25.0834C135.622 24.619 135.88 24.0683 136.077 23.4313C136.278 22.7733 136.439 22.0974 136.559 21.4038C136.679 20.7101 136.752 20.0407 136.778 19.3956C136.803 18.7504 136.74 18.1766 136.589 17.674C136.463 17.1541 136.234 16.7247 135.903 16.3858C135.597 16.0296 135.16 15.8022 134.592 15.7038C134.046 15.609 133.6 15.6183 133.256 15.7318C132.932 15.8489 132.67 16.0523 132.468 16.3421C132.27 16.6108 132.115 16.9412 132.004 17.3333C131.913 17.729 131.828 18.1581 131.748 18.6205L130.649 24.9579Z" fill="white"/>
<path d="M142.558 37.8314C142.639 37.6575 142.822 37.5191 143.105 37.4162C143.389 37.3133 143.72 37.1853 144.097 37.0322C144.504 36.8689 144.942 36.6617 145.412 36.4107C145.911 36.1495 146.389 35.7838 146.844 35.3138L157.684 24.5212L157.744 24.0901C157.785 23.8504 157.78 23.6358 157.727 23.4464C157.703 23.2466 157.674 23.0565 157.64 22.876C157.607 22.6955 157.583 22.5196 157.569 22.3482C157.575 22.1858 157.622 22.008 157.713 21.8147C157.812 21.6022 157.966 21.474 158.175 21.4304C158.403 21.3957 158.633 21.4327 158.865 21.5411L161.503 22.7745C161.754 22.892 161.865 23.1086 161.835 23.4243C161.825 23.7491 161.793 24.1698 161.739 24.6866L159.714 41.3318C159.626 41.9736 159.584 42.5425 159.587 43.0387C159.619 43.5246 159.645 43.9486 159.664 44.3108C159.711 44.6627 159.738 44.9578 159.744 45.1963C159.77 45.4437 159.742 45.6544 159.661 45.8284C159.607 45.9443 159.528 46.0371 159.425 46.1066C159.322 46.1761 159.194 46.2224 159.042 46.2455C158.918 46.2583 158.75 46.215 158.537 46.1156L154.682 44.3129C154.141 44.0599 153.974 43.7111 154.182 43.2666C154.263 43.0927 154.378 42.9227 154.527 42.7565C154.675 42.5904 154.832 42.3811 154.997 42.1286C155.162 41.8761 155.316 41.5476 155.458 41.143C155.628 40.7282 155.762 40.1902 155.859 39.5291L156.267 36.5407C156.309 36.301 156.303 36.0864 156.25 35.8969C156.198 35.7074 156.026 35.5449 155.736 35.4094L151.069 33.2272C150.876 33.1368 150.685 33.1418 150.497 33.2422C150.337 33.3323 150.188 33.4507 150.048 33.5976L147.887 35.8017C147.46 36.2615 147.191 36.7124 147.078 37.1543C146.975 37.577 146.933 37.9694 146.952 38.3316C146.98 38.6744 147.022 38.9882 147.077 39.2731C147.16 39.5477 147.161 39.7719 147.08 39.9459C147.026 40.0618 146.947 40.1546 146.844 40.2241C146.741 40.2936 146.613 40.3399 146.461 40.363C146.337 40.3758 146.169 40.3325 145.957 40.2331L143.058 38.8777C142.517 38.6246 142.35 38.2759 142.558 37.8314ZM151.778 32.3926L155.981 34.3579C156.193 34.4573 156.331 34.4394 156.395 34.3041C156.486 34.1585 156.535 34.0284 156.542 33.9137L157.485 26.23L151.778 31.8629C151.685 31.9607 151.626 32.0625 151.6 32.1682C151.602 32.2635 151.662 32.3383 151.778 32.3926Z" fill="white"/>
<path d="M162.321 47.775C162.442 47.6262 162.597 47.5044 162.784 47.4097C163.002 47.3118 163.246 47.1809 163.518 47.017C163.789 46.8531 164.093 46.6328 164.429 46.3562C164.795 46.0766 165.187 45.6806 165.605 45.1682L173.658 35.3013C174.076 34.789 174.379 34.3338 174.566 33.9358C174.783 33.5348 174.945 33.1849 175.051 32.886C175.157 32.5872 175.23 32.3297 175.269 32.1135C175.337 31.8943 175.432 31.7103 175.554 31.5615C175.864 31.1814 176.251 31.1802 176.713 31.5579L180.011 34.249C180.11 34.3299 180.187 34.4206 180.243 34.5211C180.298 34.6216 180.339 34.7236 180.365 34.8272C180.42 34.9277 180.424 35.041 180.376 35.1671C181.358 35.28 182.229 35.6467 182.989 36.2672C183.667 36.8203 184.169 37.5049 184.494 38.321C184.819 39.1372 184.975 40.0083 184.963 40.9345C184.951 41.8606 184.758 42.805 184.386 43.7676C184.043 44.7271 183.521 45.6366 182.82 46.496C182.132 47.3389 181.345 48.0326 180.46 48.577C179.605 49.1184 178.725 49.488 177.821 49.6857C176.916 49.8835 176.031 49.9048 175.166 49.7497C174.301 49.5947 173.53 49.2406 172.852 48.6876C171.828 47.8513 171.199 46.7323 170.966 45.3306L168.902 47.8593C168.484 48.3717 168.166 48.8283 167.949 49.2294C167.762 49.6274 167.616 49.9758 167.509 50.2746C167.403 50.5734 167.316 50.8325 167.247 51.0517C167.208 51.2679 167.128 51.4504 167.007 51.5991C166.696 51.9792 166.31 51.9805 165.847 51.6028L162.55 48.9117C162.418 48.8038 162.322 48.6846 162.263 48.5541C162.208 48.4536 162.172 48.3283 162.157 48.1782C162.158 48.0416 162.213 47.9072 162.321 47.775ZM176.955 37.9924L171.998 44.0663C172.003 44.5661 172.08 45.0283 172.229 45.4529C172.409 45.8745 172.663 46.2201 172.994 46.4899C173.44 46.8541 173.925 47.0021 174.449 46.934C174.989 46.8793 175.531 46.688 176.074 46.3601C176.633 46.0457 177.175 45.6345 177.7 45.1266C178.238 44.6021 178.73 44.0671 179.175 43.5217C179.62 42.9763 180.046 42.3874 180.452 41.755C180.858 41.1225 181.159 40.5008 181.355 39.8896C181.567 39.292 181.646 38.723 181.591 38.1827C181.553 37.6559 181.311 37.2104 180.865 36.8462C180.452 36.5089 180.069 36.3203 179.716 36.2802C179.363 36.2401 179.019 36.29 178.685 36.43C178.367 36.5835 178.063 36.8038 177.774 37.0908C177.498 37.3613 177.225 37.6619 176.955 37.9924Z" fill="white"/>
<path d="M180.056 57.8362L190.137 50.0524C190.661 49.6482 191.059 49.2736 191.331 48.9284C191.633 48.587 191.87 48.2829 192.042 48.0159C192.213 47.749 192.342 47.5146 192.428 47.3128C192.545 47.1149 192.68 46.9573 192.831 46.8399C193.22 46.54 193.597 46.6265 193.962 47.0993L196.563 50.4679C196.667 50.603 196.733 50.7408 196.761 50.8812C196.792 50.9917 196.792 51.1133 196.759 51.2461C196.757 51.3826 196.68 51.5096 196.528 51.6269C196.376 51.7443 196.183 51.8259 195.949 51.8719C195.745 51.9217 195.492 51.9956 195.19 52.0938C194.889 52.1919 194.528 52.3356 194.108 52.525C193.718 52.7182 193.262 53.0169 192.738 53.4211L188.432 56.7458C188.196 56.9283 188.049 57.1224 187.993 57.328C187.949 57.5505 187.999 57.7547 188.142 57.9404L190.802 61.385C190.945 61.5708 191.13 61.6706 191.356 61.6845C191.583 61.6984 191.814 61.614 192.05 61.4315L196.356 58.1068C196.88 57.7026 197.278 57.3279 197.55 56.9827C197.853 56.6414 198.089 56.3372 198.261 56.0703C198.432 55.8033 198.561 55.5689 198.648 55.3672C198.764 55.1693 198.899 55.0116 199.051 54.8943C199.439 54.5944 199.816 54.6809 200.181 55.1537L202.782 58.5223C202.886 58.6574 202.952 58.7951 202.98 58.9356C203.011 59.0461 203.011 59.1677 202.978 59.3004C202.976 59.437 202.899 59.564 202.747 59.6813C202.595 59.7986 202.402 59.8803 202.168 59.9262C201.964 59.976 201.711 60.05 201.409 60.1481C201.108 60.2462 200.747 60.39 200.327 60.5793C199.937 60.7725 199.481 61.0713 198.957 61.4754L188.877 69.2592C188.353 69.6634 187.94 70.0361 187.638 70.3775C187.365 70.7227 187.144 71.0287 186.972 71.2957C186.801 71.5627 186.657 71.7951 186.54 71.993C186.454 72.1948 186.334 72.3544 186.182 72.4717C185.794 72.7716 185.417 72.6851 185.052 72.2123L182.451 68.8437C182.347 68.7086 182.281 68.5708 182.253 68.4304C182.222 68.3199 182.216 68.1899 182.235 68.0402C182.267 67.9075 182.351 67.789 182.486 67.6847C182.638 67.5673 182.816 67.4838 183.02 67.434C183.254 67.388 183.522 67.316 183.824 67.2179C184.125 67.1198 184.471 66.9741 184.861 66.7809C185.281 66.5915 185.752 66.2947 186.276 65.8906L189.822 63.1525C190.058 62.97 190.173 62.787 190.166 62.6037C190.176 62.4072 190.109 62.2161 189.966 62.0304L187.306 58.5858C187.163 58.4 186.995 58.2872 186.802 58.2472C186.639 58.2111 186.44 58.2843 186.204 58.4668L182.658 61.2048C182.134 61.609 181.721 61.9818 181.419 62.3231C181.146 62.6683 180.924 62.9744 180.753 63.2414C180.582 63.5083 180.438 63.7408 180.321 63.9387C180.235 64.1404 180.115 64.3 179.963 64.4173C179.575 64.7172 179.198 64.6308 178.833 64.158L176.232 60.7893C176.128 60.6542 176.062 60.5165 176.034 60.3761C176.003 60.2656 175.997 60.1355 176.016 59.9859C176.048 59.8531 176.132 59.7346 176.267 59.6303C176.419 59.513 176.597 59.4294 176.801 59.3796C177.035 59.3337 177.303 59.2616 177.604 59.1635C177.906 59.0654 178.252 58.9197 178.642 58.7265C179.061 58.5372 179.533 58.2404 180.056 57.8362Z" fill="white"/>
<path d="M192.377 73.7176L203.585 67.7316C204.167 67.4208 204.62 67.1182 204.946 66.8238C205.3 66.5381 205.583 66.2782 205.796 66.0439C206.009 65.8097 206.174 65.6005 206.293 65.4164C206.441 65.2411 206.599 65.1083 206.768 65.018C206.881 64.9579 207.013 64.9353 207.166 64.9502C207.261 64.9476 207.362 64.9782 207.469 65.042C207.604 65.1146 207.727 65.2541 207.837 65.4606L209.837 69.2059C209.917 69.3561 209.959 69.5025 209.963 69.6452C209.976 69.7591 209.955 69.8787 209.902 70.0039C209.877 70.1379 209.78 70.25 209.611 70.3403C209.442 70.4305 209.238 70.4788 209 70.4852C208.791 70.5004 208.53 70.5312 208.217 70.5777C207.904 70.6242 207.526 70.7058 207.081 70.8225C206.666 70.9479 206.167 71.1661 205.585 71.4769L194.377 77.4628C193.795 77.7737 193.327 78.0719 192.973 78.3576C192.648 78.652 192.379 78.9163 192.166 79.1505C191.953 79.3848 191.773 79.5896 191.626 79.7649C191.507 79.949 191.363 80.0862 191.194 80.1764C191.081 80.2366 190.963 80.2636 190.839 80.2574C190.715 80.2512 190.586 80.2118 190.45 80.1393C190.344 80.0755 190.235 79.9404 190.125 79.7339L188.125 75.9886C188.045 75.8384 188.003 75.692 187.999 75.5492C187.986 75.4353 188.002 75.3064 188.046 75.1624C188.099 75.0371 188.201 74.9344 188.351 74.8542C188.52 74.764 188.709 74.7113 188.918 74.6961C189.156 74.6897 189.432 74.6633 189.745 74.6168C190.058 74.5702 190.422 74.4843 190.838 74.3588C191.282 74.2421 191.795 74.0284 192.377 73.7176Z" fill="white"/>
<path d="M211.796 76.8195C211.917 76.7793 212.052 76.7796 212.2 76.8204C212.295 76.8341 212.389 76.8816 212.484 76.9627C212.605 77.0575 212.702 77.2162 212.776 77.439L216.926 89.9866C217.046 90.3512 217.012 90.5535 216.823 90.5936C216.661 90.6472 216.482 90.6501 216.287 90.6024L214.021 90.0709C213.92 90.0369 213.826 89.9895 213.738 89.9285C213.657 89.8879 213.573 89.8371 213.485 89.7762C213.418 89.7085 213.368 89.6241 213.334 89.5228C213.301 89.4215 213.294 89.3001 213.315 89.1585C213.342 88.9696 213.441 88.7911 213.61 88.6228C213.806 88.4681 213.982 88.2527 214.137 87.9765C214.32 87.7138 214.439 87.3599 214.494 86.9148C214.556 86.4899 214.466 85.9129 214.225 85.1837L213.371 82.6013C213.277 82.3177 212.876 82.2257 212.167 82.3252C211.479 82.4181 210.598 82.642 209.525 82.997L203.691 84.9262C203.986 85.6824 204.302 86.2296 204.639 86.5677C204.995 86.8991 205.332 87.1361 205.649 87.2785C205.966 87.4209 206.239 87.5328 206.468 87.6143C206.717 87.6891 206.879 87.8379 206.952 88.0607C206.979 88.1417 206.986 88.2295 206.972 88.3239C206.952 88.398 206.908 88.4688 206.84 88.5361C206.779 88.6236 206.668 88.6942 206.506 88.7478L202.708 90.0038C202.586 90.0439 202.478 90.0572 202.384 90.0435C202.155 90.0294 202.006 89.9212 201.939 89.7186C201.866 89.4958 201.907 89.28 202.062 89.0713C202.218 88.8625 202.381 88.6065 202.55 88.3033C202.719 88.0002 202.838 87.6125 202.907 87.1405C202.996 86.6617 202.923 86.0341 202.689 85.2578L197.433 86.996C196.359 87.351 195.508 87.6998 194.88 88.0424C194.272 88.3783 194.015 88.688 194.109 88.9716L195.174 92.192C195.429 92.9617 195.781 93.5528 196.232 93.9654C196.704 94.3713 197.178 94.6861 197.657 94.9098C198.142 95.1539 198.567 95.3505 198.931 95.4998C199.321 95.6626 199.557 95.8655 199.637 96.1086C199.671 96.2099 199.671 96.3111 199.637 96.4122C199.569 96.6144 199.349 96.7319 198.978 96.7648C198.614 96.8179 198.222 96.8237 197.804 96.7823C197.386 96.7408 196.998 96.6893 196.641 96.6277C196.304 96.5595 196.135 96.5254 196.135 96.5254C195.845 96.464 195.603 96.2745 195.408 95.957C195.24 95.653 195.119 95.3896 195.046 95.1668L191.509 84.4725C191.455 84.3104 191.439 84.1586 191.459 84.017C191.466 83.9023 191.504 83.7776 191.571 83.6428C191.646 83.5283 191.764 83.4443 191.926 83.3907C192.108 83.3304 192.304 83.3106 192.513 83.3314C192.749 83.3656 193.026 83.3865 193.343 83.394C193.66 83.4015 194.034 83.3788 194.466 83.3258C194.925 83.2864 195.468 83.1629 196.096 82.9553L208.188 78.9563C208.816 78.7486 209.316 78.5272 209.687 78.2919C210.086 78.0702 210.41 77.8619 210.66 77.6668C210.91 77.4718 211.11 77.2934 211.259 77.1319C211.434 76.9839 211.613 76.8797 211.796 76.8195Z" fill="white"/>
<path d="M202.198 118.452L202.11 110.827L204.47 110.8L204.557 118.425L202.198 118.452Z" fill="white"/>
<path d="M25.5777 118.452L25.4899 110.827L27.8491 110.8L27.9369 118.425L25.5777 118.452Z" fill="white"/>
<path d="M197.148 132.846C197.332 132.901 197.504 132.998 197.664 133.136C197.838 133.3 198.053 133.476 198.308 133.665C198.564 133.854 198.885 134.052 199.269 134.257C199.669 134.49 200.186 134.702 200.82 134.894L213.047 138.587C213.682 138.779 214.22 138.885 214.66 138.907C215.115 138.955 215.501 138.971 215.819 138.955C216.137 138.939 216.403 138.908 216.618 138.861C216.848 138.841 217.055 138.859 217.239 138.915C217.71 139.057 217.859 139.415 217.686 139.988L216.452 144.074C216.414 144.197 216.36 144.303 216.288 144.393C216.216 144.484 216.137 144.56 216.051 144.624C215.979 144.714 215.875 144.761 215.74 144.764C216.011 145.718 216.004 146.665 215.719 147.608C215.466 148.447 215.023 149.174 214.39 149.787C213.758 150.401 213.01 150.879 212.147 151.222C211.284 151.564 210.334 151.747 209.3 151.769C208.279 151.819 207.236 151.683 206.171 151.361C205.127 151.045 204.183 150.581 203.34 149.969C202.511 149.384 201.832 148.709 201.303 147.946C200.773 147.182 200.415 146.37 200.228 145.509C200.042 144.648 200.075 143.798 200.329 142.958C200.712 141.689 201.509 140.678 202.72 139.926L199.586 138.979C198.951 138.788 198.407 138.668 197.952 138.62C197.511 138.598 197.132 138.596 196.814 138.611C196.497 138.627 196.223 138.645 195.994 138.665C195.778 138.712 195.579 138.707 195.394 138.652C194.923 138.509 194.774 138.152 194.948 137.578L196.182 133.492C196.231 133.329 196.305 133.194 196.404 133.09C196.476 133 196.578 132.919 196.712 132.848C196.839 132.797 196.984 132.796 197.148 132.846ZM211.813 142.673L204.286 140.399C203.825 140.595 203.426 140.843 203.089 141.144C202.767 141.471 202.544 141.84 202.42 142.249C202.253 142.802 202.301 143.308 202.565 143.768C202.822 144.248 203.207 144.677 203.718 145.055C204.223 145.453 204.812 145.799 205.484 146.091C206.176 146.39 206.86 146.641 207.535 146.845C208.211 147.049 208.92 147.219 209.661 147.353C210.403 147.488 211.095 147.529 211.736 147.477C212.371 147.445 212.929 147.301 213.409 147.044C213.883 146.807 214.203 146.412 214.37 145.859C214.525 145.347 214.553 144.92 214.456 144.577C214.358 144.235 214.18 143.936 213.923 143.679C213.659 143.443 213.338 143.245 212.962 143.087C212.605 142.935 212.222 142.797 211.813 142.673Z" fill="white"/>
<path d="M194.586 153.083L205.619 159.445C206.192 159.776 206.69 160.001 207.113 160.122C207.544 160.272 207.915 160.375 208.227 160.432C208.539 160.489 208.805 160.519 209.025 160.522C209.252 160.555 209.449 160.619 209.615 160.715C210.04 160.96 210.104 161.342 209.805 161.859L207.679 165.546C207.594 165.694 207.492 165.807 207.372 165.886C207.282 165.957 207.169 166.003 207.034 166.024C206.907 166.074 206.76 166.05 206.594 165.955C206.428 165.859 206.279 165.711 206.147 165.512C206.024 165.342 205.859 165.137 205.654 164.895C205.448 164.653 205.178 164.375 204.843 164.058C204.516 163.771 204.066 163.463 203.493 163.132L198.781 160.415C198.522 160.265 198.287 160.204 198.075 160.229C197.853 160.273 197.683 160.397 197.565 160.6L195.391 164.371C195.274 164.574 195.252 164.783 195.325 164.997C195.399 165.212 195.565 165.394 195.823 165.543L200.536 168.261C201.109 168.591 201.607 168.817 202.03 168.937C202.46 169.087 202.832 169.19 203.144 169.247C203.456 169.304 203.722 169.334 203.941 169.338C204.169 169.37 204.366 169.435 204.532 169.531C204.957 169.776 205.02 170.157 204.722 170.674L202.596 174.361C202.511 174.509 202.408 174.623 202.289 174.701C202.199 174.773 202.086 174.818 201.951 174.839C201.824 174.889 201.677 174.866 201.511 174.77C201.344 174.674 201.195 174.527 201.064 174.328C200.94 174.158 200.776 173.952 200.57 173.71C200.365 173.469 200.095 173.19 199.76 172.874C199.433 172.587 198.983 172.278 198.41 171.948L187.377 165.585C186.804 165.255 186.302 165.015 185.871 164.865C185.449 164.744 185.081 164.655 184.769 164.599C184.457 164.542 184.187 164.497 183.96 164.465C183.74 164.461 183.547 164.411 183.381 164.315C182.956 164.07 182.893 163.689 183.191 163.172L185.317 159.485C185.402 159.337 185.505 159.223 185.624 159.144C185.714 159.073 185.832 159.018 185.978 158.979C186.113 158.959 186.254 158.991 186.402 159.076C186.569 159.172 186.714 159.305 186.837 159.475C186.969 159.674 187.137 159.894 187.343 160.136C187.548 160.377 187.814 160.641 188.141 160.929C188.476 161.245 188.93 161.568 189.503 161.898L193.384 164.136C193.643 164.286 193.856 164.322 194.023 164.246C194.208 164.181 194.359 164.046 194.477 163.843L196.651 160.073C196.768 159.87 196.808 159.671 196.772 159.478C196.744 159.314 196.6 159.157 196.341 159.008L192.46 156.77C191.887 156.44 191.386 156.199 190.955 156.05C190.532 155.929 190.165 155.84 189.852 155.783C189.54 155.727 189.271 155.682 189.043 155.649C188.824 155.646 188.631 155.596 188.464 155.5C188.039 155.255 187.976 154.874 188.274 154.356L190.4 150.669C190.486 150.521 190.588 150.408 190.707 150.329C190.798 150.258 190.916 150.203 191.061 150.164C191.196 150.143 191.338 150.175 191.486 150.261C191.652 150.357 191.797 150.49 191.921 150.659C192.052 150.858 192.221 151.079 192.426 151.32C192.632 151.562 192.898 151.826 193.225 152.113C193.56 152.429 194.013 152.753 194.586 153.083Z" fill="white"/>
<path d="M191.107 188.644C190.142 189.64 189.074 190.329 187.903 190.709C186.718 191.105 185.498 191.215 184.243 191.039C182.973 190.878 181.691 190.453 180.398 189.765C179.12 189.091 177.891 188.183 176.711 187.04C175.531 185.897 174.569 184.683 173.824 183.397C173.095 182.126 172.622 180.851 172.406 179.572C172.19 178.324 172.253 177.093 172.596 175.881C172.939 174.698 173.593 173.609 174.558 172.613C175.523 171.617 176.598 170.921 177.784 170.525C178.97 170.16 180.198 170.057 181.468 170.218C182.738 170.409 184.02 170.849 185.313 171.537C186.622 172.241 187.866 173.164 189.046 174.307C190.226 175.45 191.173 176.649 191.887 177.905C192.616 179.176 193.088 180.436 193.304 181.685C193.506 182.949 193.434 184.172 193.091 185.354C192.733 186.552 192.072 187.648 191.107 188.644ZM185.773 177.685C184.593 176.543 183.454 175.603 182.356 174.866C181.243 174.144 180.224 173.602 179.298 173.24C178.372 172.907 177.563 172.747 176.869 172.758C176.176 172.799 175.658 172.996 175.317 173.348C174.975 173.701 174.802 174.216 174.798 174.895C174.794 175.604 174.981 176.409 175.357 177.308C175.734 178.237 176.308 179.239 177.079 180.313C177.836 181.402 178.804 182.518 179.984 183.661C181.164 184.804 182.302 185.729 183.4 186.436C184.498 187.173 185.502 187.7 186.412 188.017C187.323 188.365 188.125 188.518 188.818 188.477C189.497 188.451 190.007 188.262 190.348 187.91C190.69 187.557 190.87 187.034 190.889 186.34C190.893 185.661 190.715 184.864 190.353 183.949C189.992 183.065 189.433 182.078 188.677 180.989C187.921 179.929 186.953 178.828 185.773 177.685Z" fill="white"/>
<path d="M178.186 200.089L161.933 209.944C161.769 210.044 161.643 210.083 161.555 210.061C161.46 210.069 161.39 210.036 161.346 209.963C161.313 209.909 161.287 209.825 161.268 209.711C161.242 209.627 161.216 209.543 161.19 209.459L160.122 205.354C160.133 205.247 160.158 205.145 160.198 205.046C160.219 204.958 160.25 204.865 160.29 204.766C160.341 204.685 160.412 204.617 160.503 204.562C160.594 204.506 160.711 204.473 160.854 204.461C161.044 204.446 161.301 204.602 161.624 204.93C161.929 205.268 162.3 205.592 162.737 205.901C163.167 206.239 163.66 206.477 164.217 206.613C164.755 206.761 165.353 206.635 166.01 206.237L166.967 205.657C167.369 205.413 167.405 204.979 167.077 204.355C166.759 203.75 166.307 202.963 165.721 201.996L159.118 191.106C158.775 190.54 158.451 190.088 158.146 189.749C157.833 189.44 157.554 189.185 157.308 188.985C157.062 188.785 156.847 188.616 156.663 188.478C156.473 188.369 156.328 188.232 156.228 188.068C155.974 187.648 156.102 187.284 156.613 186.974L160.252 184.767C160.398 184.679 160.542 184.629 160.685 184.617C160.798 184.598 160.928 184.607 161.074 184.643C161.203 184.69 161.311 184.786 161.4 184.932C161.499 185.096 161.562 185.283 161.589 185.491C161.608 185.729 161.65 186.003 161.713 186.314C161.777 186.624 161.883 186.984 162.031 187.393C162.172 187.832 162.414 188.334 162.757 188.899L169.36 199.79C169.648 200.264 169.913 200.702 170.157 201.103C170.4 201.504 170.623 201.831 170.825 202.082C171.039 202.352 171.244 202.527 171.442 202.606C171.633 202.715 171.829 202.709 172.03 202.587L173.015 201.99C173.671 201.592 174.068 201.114 174.204 200.557C174.323 200.012 174.346 199.474 174.274 198.944C174.183 198.425 174.068 197.946 173.927 197.507C173.767 197.08 173.733 196.777 173.824 196.597C173.871 196.469 173.958 196.366 174.086 196.288C174.305 196.156 174.594 196.18 174.953 196.361L178.1 199.206C178.163 199.268 178.234 199.324 178.315 199.375C178.388 199.455 178.442 199.522 178.475 199.577C178.519 199.65 178.525 199.722 178.492 199.791C178.453 199.89 178.351 199.989 178.186 200.089Z" fill="white"/>
<path d="M145.651 216.108C144.32 216.496 143.052 216.566 141.846 216.317C140.62 216.075 139.505 215.567 138.501 214.793C137.477 214.025 136.574 213.022 135.79 211.784C135.013 210.566 134.394 209.169 133.934 207.592C133.474 206.015 133.239 204.483 133.228 202.998C133.223 201.533 133.442 200.191 133.887 198.972C134.317 197.78 134.981 196.742 135.879 195.858C136.762 195 137.869 194.377 139.2 193.989C140.531 193.601 141.81 193.528 143.036 193.77C144.248 194.039 145.366 194.557 146.39 195.325C147.399 196.12 148.296 197.136 149.079 198.374C149.869 199.633 150.493 201.051 150.953 202.628C151.413 204.205 151.643 205.716 151.642 207.16C151.647 208.626 151.434 209.954 151.004 211.146C150.554 212.344 149.887 213.372 149.004 214.23C148.1 215.093 146.983 215.719 145.651 216.108ZM146.437 203.945C145.977 202.368 145.453 200.988 144.863 199.804C144.253 198.627 143.635 197.651 143.009 196.878C142.369 196.131 141.745 195.591 141.137 195.258C140.514 194.95 139.967 194.866 139.496 195.003C139.025 195.14 138.62 195.503 138.28 196.091C137.926 196.705 137.69 197.496 137.572 198.464C137.44 199.458 137.443 200.613 137.582 201.928C137.701 203.249 137.99 204.698 138.45 206.275C138.91 207.852 139.442 209.219 140.046 210.376C140.636 211.559 141.248 212.514 141.882 213.24C142.501 213.993 143.123 214.523 143.745 214.83C144.348 215.143 144.885 215.231 145.356 215.094C145.827 214.956 146.242 214.591 146.602 213.997C146.942 213.409 147.181 212.628 147.319 211.654C147.443 210.707 147.446 209.573 147.327 208.252C147.194 206.958 146.897 205.522 146.437 203.945Z" fill="white"/>
<path d="M119.047 220.353C117.044 220.436 115.445 220.235 114.25 219.75C113.056 219.266 112.435 218.448 112.388 217.297C112.371 216.892 112.525 216.491 112.851 216.093C113.177 215.717 113.649 215.516 114.267 215.49C114.651 215.474 114.974 215.557 115.238 215.738C115.481 215.942 115.694 216.179 115.876 216.449C116.059 216.74 116.232 217.053 116.395 217.388C116.559 217.744 116.753 218.057 116.978 218.325C117.182 218.615 117.448 218.85 117.776 219.029C118.083 219.229 118.492 219.319 119.004 219.298C119.537 219.276 120.092 219.029 120.671 218.557C121.228 218.086 121.733 217.392 122.186 216.477C122.619 215.584 122.968 214.47 123.234 213.135C123.499 211.8 123.595 210.248 123.522 208.479C123.444 206.582 123.207 204.98 122.812 203.672C122.396 202.387 121.905 201.35 121.338 200.562C120.772 199.774 120.183 199.211 119.571 198.874C118.959 198.536 118.408 198.377 117.918 198.397C117.449 198.417 117.058 198.507 116.744 198.67C116.431 198.832 116.162 199.035 115.937 199.28L116.153 204.523C116.664 205.015 116.959 205.44 117.038 205.8C117.118 206.181 116.859 206.629 116.261 207.145L114.191 208.992C114.047 209.126 113.871 209.24 113.661 209.334C113.452 209.449 113.241 209.511 113.028 209.52C112.772 209.531 112.555 209.443 112.377 209.259C112.177 209.075 112.066 208.716 112.044 208.183L111.682 199.391C111.662 198.901 111.689 198.526 111.764 198.267C111.839 198.029 112.122 197.9 112.612 197.879C113.017 197.863 113.392 197.89 113.737 197.961C114.061 198.054 114.354 198.171 114.616 198.309C115.032 198.057 115.515 197.845 116.063 197.673C116.589 197.481 117.193 197.37 117.875 197.342C119.303 197.283 120.634 197.463 121.868 197.882C123.103 198.301 124.176 198.961 125.089 199.863C126.002 200.786 126.733 201.941 127.281 203.328C127.83 204.736 128.144 206.388 128.222 208.285C128.295 210.055 128.148 211.662 127.78 213.108C127.392 214.576 126.803 215.827 126.013 216.864C125.224 217.921 124.244 218.751 123.074 219.355C121.903 219.958 120.561 220.291 119.047 220.353Z" fill="white"/>
<path d="M108.144 198.536C108.104 198.724 108.022 198.903 107.898 199.073C107.749 199.259 107.591 199.487 107.425 199.756C107.258 200.026 107.088 200.361 106.915 200.76C106.717 201.176 106.548 201.707 106.41 202.354L103.741 214.807C103.603 215.453 103.541 215.997 103.556 216.436C103.545 216.892 103.561 217.277 103.603 217.592C103.645 217.906 103.697 218.168 103.761 218.378C103.8 218.605 103.799 218.812 103.759 219C103.656 219.479 103.313 219.657 102.729 219.532L98.5674 218.64C98.4631 218.617 98.3715 218.587 98.2925 218.548C98.1137 218.466 97.9774 218.339 97.8835 218.166C96.918 218.395 95.9554 218.407 94.9959 218.202C94.1406 218.018 93.3711 217.69 92.6872 217.216C92.0033 216.742 91.4445 216.143 91.0109 215.417C90.5729 214.712 90.289 213.899 90.1594 212.976C90.0089 212.05 90.0499 211.044 90.2823 209.959C90.6578 208.207 91.3842 206.803 92.4614 205.746C93.5342 204.711 94.7515 204.121 96.1134 203.976C95.5859 203.383 95.1762 202.75 94.8841 202.076C94.5668 201.419 94.3306 200.791 94.1757 200.19C93.9998 199.585 93.8777 199.035 93.8091 198.541C93.7197 198.042 93.6579 197.668 93.6236 197.421C93.5685 197.169 93.4962 196.946 93.4068 196.753C93.2921 196.575 93.1856 196.411 93.0872 196.259C92.9889 196.107 92.9136 195.949 92.8615 195.785C92.784 195.637 92.7676 195.459 92.8123 195.251C92.8749 194.959 93.0112 194.781 93.2213 194.717C93.4269 194.673 93.6549 194.679 93.9052 194.732L97.8477 195.577C98.1189 195.635 98.3007 195.805 98.3931 196.087C98.481 196.389 98.5167 196.833 98.5003 197.419C98.4765 197.937 98.4728 198.515 98.4892 199.151C98.4802 199.803 98.5048 200.452 98.5629 201.097C98.6166 201.763 98.7104 202.395 98.8445 202.991C98.9742 203.607 99.176 204.142 99.4502 204.593C100.119 204.933 100.726 205.412 101.269 206.03L102.248 201.462C102.387 200.815 102.461 200.264 102.472 199.808C102.457 199.368 102.429 198.991 102.387 198.677C102.345 198.363 102.305 198.092 102.266 197.866C102.202 197.656 102.19 197.457 102.231 197.269C102.333 196.789 102.677 196.612 103.261 196.737L107.422 197.629C107.589 197.665 107.729 197.727 107.84 197.817C107.936 197.881 108.024 197.976 108.106 198.103C108.167 198.225 108.18 198.369 108.144 198.536ZM100.928 207.626C100.682 207.246 100.391 206.922 100.056 206.654C99.6998 206.381 99.3131 206.2 98.8959 206.111C98.3327 205.99 97.8403 206.048 97.4186 206.285C96.9761 206.517 96.5969 206.861 96.281 207.317C95.9443 207.769 95.6649 208.309 95.4429 208.938C95.2164 209.587 95.0294 210.256 94.8819 210.945C94.7344 211.633 94.6353 212.299 94.5847 212.943C94.534 213.587 94.5742 214.162 94.7053 214.67C94.8111 215.195 95.0227 215.633 95.3401 215.985C95.6321 216.353 96.0597 216.597 96.623 216.718C97.1653 216.834 97.6108 216.842 97.9595 216.742C98.2873 216.638 98.5577 216.445 98.7708 216.163C98.9794 215.903 99.147 215.579 99.2736 215.191C99.3794 214.799 99.4815 214.374 99.5798 213.915L100.928 207.626Z" fill="white"/>
<path d="M89.7676 194.581C89.6859 194.754 89.5031 194.892 89.2192 194.994C88.9354 195.097 88.6044 195.224 88.2263 195.376C87.8198 195.538 87.3809 195.744 86.9097 195.994C86.4101 196.254 85.9321 196.619 85.4757 197.088L74.6095 207.854L74.5482 208.285C74.5062 208.524 74.5113 208.739 74.5636 208.929C74.5874 209.128 74.6158 209.319 74.6487 209.499C74.6817 209.68 74.7049 209.856 74.7186 210.027C74.7129 210.189 74.6646 210.367 74.5738 210.56C74.4739 210.772 74.3195 210.9 74.1106 210.943C73.8823 210.977 73.6524 210.94 73.4208 210.831L70.7859 209.591C70.535 209.473 70.4248 209.256 70.4555 208.941C70.4668 208.616 70.4997 208.195 70.5542 207.678L72.6199 191.038C72.7096 190.397 72.7533 189.828 72.751 189.332C72.7203 188.846 72.6959 188.422 72.6777 188.059C72.6312 187.707 72.605 187.412 72.5994 187.174C72.5744 186.926 72.6028 186.716 72.6845 186.542C72.739 186.426 72.8179 186.333 72.9212 186.264C73.0246 186.195 73.1523 186.149 73.3045 186.126C73.4282 186.114 73.5963 186.157 73.8086 186.257L77.6595 188.069C78.2 188.324 78.3658 188.673 78.1569 189.117C78.0751 189.291 77.9599 189.46 77.8112 189.626C77.6624 189.792 77.5052 190.001 77.3394 190.253C77.1736 190.505 77.0192 190.833 76.8761 191.237C76.7047 191.652 76.5696 192.19 76.4708 192.85L76.0553 195.838C76.0133 196.077 76.0184 196.292 76.0706 196.482C76.1229 196.671 76.2938 196.834 76.5833 196.97L81.245 199.164C81.438 199.255 81.6288 199.25 81.8172 199.15C81.9773 199.061 82.1272 198.943 82.2669 198.796L84.4333 196.597C84.8614 196.138 85.1322 195.688 85.2457 195.247C85.3501 194.824 85.3933 194.432 85.3751 194.07C85.3478 193.727 85.307 193.413 85.2525 193.128C85.1696 192.853 85.169 192.629 85.2507 192.455C85.3052 192.339 85.3842 192.247 85.4875 192.177C85.5908 192.108 85.7185 192.062 85.8707 192.039C85.9945 192.027 86.1625 192.071 86.3748 192.171L89.2703 193.533C89.8108 193.787 89.9766 194.137 89.7676 194.581ZM80.5348 199.997L76.3364 198.021C76.124 197.921 75.9861 197.939 75.9225 198.074C75.8305 198.219 75.7811 198.349 75.7743 198.464L74.8122 206.145L80.5331 200.527C80.6262 200.429 80.6858 200.327 80.7119 200.222C80.7096 200.126 80.6506 200.051 80.5348 199.997Z" fill="white"/>
<path d="M69.5177 185.235C69.3967 185.383 69.2429 185.504 69.0562 185.598C68.8397 185.695 68.5963 185.825 68.326 185.988C68.0557 186.151 67.7533 186.37 67.4188 186.644C67.0544 186.922 66.6639 187.316 66.2473 187.825L58.2236 197.632C57.807 198.141 57.5053 198.593 57.3186 198.989C57.1021 199.388 56.9408 199.736 56.8348 200.033C56.7288 200.33 56.6563 200.586 56.6175 200.801C56.5488 201.019 56.454 201.202 56.333 201.35C56.0239 201.728 55.6394 201.729 55.1794 201.352L51.9023 198.671C51.8038 198.59 51.7269 198.5 51.6716 198.4C51.6164 198.3 51.576 198.198 51.5506 198.095C51.4954 197.995 51.4917 197.882 51.5394 197.757C50.5628 197.644 49.6967 197.278 48.941 196.659C48.2675 196.108 47.7695 195.427 47.447 194.614C47.1244 193.802 46.9698 192.935 46.9833 192.014C46.9967 191.092 47.1894 190.153 47.5612 189.196C47.9032 188.241 48.4236 187.337 49.1225 186.483C49.8079 185.645 50.5912 184.956 51.4722 184.416C52.3234 183.878 53.1993 183.511 54.0998 183.316C55.0002 183.12 55.8806 183.1 56.7407 183.255C57.6009 183.411 58.3677 183.764 59.0412 184.315C60.0597 185.148 60.6839 186.262 60.9138 187.657L62.9702 185.144C63.3868 184.634 63.7034 184.18 63.9199 183.782C64.1066 183.386 64.2529 183.039 64.359 182.742C64.465 182.445 64.5524 182.188 64.621 181.969C64.6599 181.754 64.7398 181.573 64.8607 181.425C65.1698 181.047 65.5544 181.047 66.0143 181.423L69.2914 184.104C69.4229 184.212 69.5177 184.33 69.5759 184.46C69.6312 184.56 69.6663 184.685 69.6812 184.834C69.6797 184.97 69.6252 185.104 69.5177 185.235ZM54.9465 194.95L59.8857 188.913C59.8812 188.416 59.805 187.956 59.6572 187.534C59.4795 187.114 59.2264 186.77 58.8978 186.501C58.4543 186.138 57.972 185.99 57.4508 186.057C56.9132 186.111 56.3741 186.301 55.8335 186.626C55.2765 186.939 54.7367 187.347 54.214 187.852C53.6779 188.373 53.1881 188.905 52.7446 189.447C52.301 189.989 51.8769 190.574 51.4722 191.203C51.0675 191.831 50.7674 192.45 50.5718 193.057C50.3597 193.652 50.2806 194.218 50.3343 194.755C50.3717 195.28 50.6121 195.723 51.0556 196.086C51.4663 196.422 51.8471 196.61 52.198 196.65C52.5489 196.691 52.8909 196.641 53.2239 196.503C53.5405 196.35 53.8429 196.132 54.1311 195.846C54.4059 195.577 54.6777 195.279 54.9465 194.95Z" fill="white"/>
<path d="M52.2716 174.517L42.1715 182.276C41.6471 182.679 41.2481 183.052 40.9748 183.397C40.6715 183.738 40.4339 184.041 40.262 184.308C40.0901 184.574 39.9605 184.808 39.8733 185.01C39.7561 185.207 39.6213 185.365 39.4691 185.482C39.08 185.781 38.7035 185.693 38.3396 185.219L35.7469 181.844C35.6429 181.709 35.5774 181.571 35.5501 181.43C35.519 181.32 35.5197 181.198 35.5523 181.066C35.555 180.929 35.6325 180.802 35.7848 180.685C35.937 180.568 36.1302 180.487 36.3644 180.442C36.5686 180.393 36.8217 180.319 37.1235 180.222C37.4253 180.125 37.7864 179.982 38.2067 179.793C38.597 179.601 39.0544 179.304 39.5789 178.901L43.893 175.587C44.1298 175.405 44.2769 175.211 44.3343 175.006C44.3787 174.783 44.3294 174.579 44.1864 174.393L41.5353 170.942C41.3923 170.756 41.2077 170.655 40.9814 170.641C40.7551 170.626 40.5235 170.71 40.2866 170.892L35.9725 174.206C35.4481 174.609 35.0492 174.983 34.7758 175.327C34.4725 175.668 34.2349 175.971 34.063 176.238C33.8911 176.504 33.7616 176.738 33.6743 176.94C33.5571 177.137 33.4223 177.295 33.2701 177.412C32.881 177.711 32.5045 177.623 32.1406 177.149L29.5479 173.774C29.444 173.639 29.3784 173.501 29.3512 173.361C29.32 173.25 29.3207 173.128 29.3533 172.996C29.356 172.859 29.4335 172.732 29.5858 172.615C29.738 172.498 29.9313 172.417 30.1654 172.372C30.3697 172.323 30.6227 172.249 30.9245 172.152C31.2264 172.055 31.5874 171.912 32.0077 171.723C32.398 171.531 32.8554 171.234 33.3799 170.831L43.48 163.072C44.0044 162.669 44.4183 162.298 44.7216 161.957C44.995 161.613 45.2176 161.307 45.3895 161.041C45.5614 160.774 45.7059 160.542 45.8231 160.344C45.9104 160.143 46.0301 159.984 46.1824 159.867C46.5715 159.568 46.948 159.655 47.3119 160.129L49.9046 163.504C50.0085 163.639 50.0741 163.777 50.1013 163.918C50.1325 164.028 50.1383 164.158 50.1186 164.308C50.086 164.441 50.0021 164.559 49.8667 164.663C49.7144 164.78 49.5362 164.863 49.3319 164.912C49.0978 164.958 48.8298 165.029 48.528 165.126C48.2261 165.224 47.88 165.368 47.4897 165.561C47.0694 165.749 46.5971 166.045 46.0726 166.447L42.5198 169.177C42.283 169.359 42.1677 169.541 42.1741 169.725C42.1636 169.921 42.2298 170.112 42.3727 170.298L45.0239 173.75C45.1668 173.936 45.3345 174.049 45.527 174.089C45.6896 174.126 45.8893 174.053 46.1262 173.871L49.6789 171.142C50.2034 170.739 50.6173 170.368 50.9206 170.027C51.194 169.683 51.4166 169.377 51.5885 169.111C51.7603 168.844 51.9049 168.612 52.0221 168.414C52.1094 168.213 52.2291 168.053 52.3814 167.936C52.7705 167.638 53.147 167.725 53.5109 168.199L56.1035 171.574C56.2075 171.709 56.2731 171.847 56.3003 171.988C56.3315 172.098 56.3372 172.228 56.3176 172.378C56.285 172.51 56.201 172.629 56.0657 172.733C55.9134 172.85 55.7352 172.933 55.5309 172.982C55.2968 173.028 55.0288 173.099 54.7269 173.196C54.4251 173.294 54.079 173.438 53.6887 173.631C53.2684 173.819 52.7961 174.115 52.2716 174.517Z" fill="white"/>
<path d="M40.753 158.088L29.4389 163.936C28.8514 164.24 28.3926 164.537 28.0626 164.828C27.7038 165.109 27.4162 165.366 27.1999 165.598C26.9835 165.83 26.8145 166.037 26.693 166.22C26.5426 166.394 26.3822 166.525 26.2116 166.613C26.0979 166.672 25.9646 166.692 25.8117 166.675C25.7163 166.677 25.6157 166.645 25.5099 166.579C25.3753 166.505 25.2541 166.363 25.1464 166.155L23.1922 162.374C23.1139 162.222 23.0737 162.075 23.0718 161.932C23.0607 161.817 23.083 161.698 23.1386 161.573C23.1654 161.439 23.2641 161.328 23.4347 161.24C23.6052 161.152 23.8098 161.106 24.0482 161.103C24.258 161.091 24.52 161.063 24.8343 161.021C25.1486 160.978 25.5292 160.902 25.9762 160.791C26.3944 160.671 26.8973 160.459 27.4848 160.155L38.7989 154.307C39.3864 154.004 39.8596 153.711 40.2184 153.43C40.5484 153.139 40.8216 152.878 41.038 152.646C41.2543 152.414 41.4377 152.211 41.588 152.037C41.7096 151.855 41.8557 151.719 42.0262 151.631C42.1399 151.572 42.2589 151.547 42.383 151.554C42.5071 151.562 42.6365 151.604 42.7711 151.678C42.8769 151.743 42.9837 151.88 43.0914 152.089L45.0456 155.87C45.124 156.021 45.1641 156.169 45.166 156.312C45.1771 156.426 45.1597 156.555 45.1139 156.699C45.0584 156.824 44.9548 156.925 44.8032 157.004C44.6326 157.092 44.4424 157.142 44.2327 157.154C43.9942 157.158 43.7178 157.18 43.4035 157.223C43.0892 157.265 42.723 157.346 42.3047 157.466C41.8578 157.577 41.3405 157.785 40.753 158.088Z" fill="white"/>
<path d="M20.6159 155.431C20.4942 155.47 20.3593 155.47 20.2111 155.429C20.1167 155.415 20.0225 155.367 19.9284 155.286C19.8074 155.191 19.7103 155.032 19.6371 154.809L15.5159 142.252C15.3962 141.887 15.4308 141.685 15.6199 141.645C15.7821 141.592 15.9609 141.589 16.1563 141.637L18.4205 142.174C18.5216 142.208 18.6158 142.256 18.7032 142.317C18.784 142.358 18.8681 142.409 18.9555 142.47C19.0226 142.538 19.0728 142.622 19.1061 142.724C19.1394 142.825 19.1456 142.947 19.1247 143.088C19.0968 143.277 18.9982 143.455 18.8287 143.623C18.6324 143.777 18.456 143.992 18.2995 144.268C18.1162 144.531 17.9965 144.884 17.9404 145.329C17.8778 145.754 17.9662 146.331 18.2057 147.061L19.0539 149.645C19.147 149.929 19.548 150.022 20.2568 149.924C20.9453 149.833 21.8267 149.611 22.901 149.258L28.7387 147.342C28.4453 146.585 28.1308 146.037 27.795 145.699C27.439 145.366 27.1028 145.129 26.7864 144.986C26.47 144.842 26.1973 144.73 25.9683 144.648C25.719 144.572 25.5578 144.423 25.4846 144.2C25.458 144.119 25.4517 144.032 25.4656 143.937C25.4862 143.863 25.5304 143.792 25.5981 143.725C25.6593 143.638 25.7709 143.567 25.933 143.514L29.7336 142.267C29.8552 142.227 29.9632 142.214 30.0576 142.228C30.2869 142.243 30.4348 142.351 30.5013 142.554C30.5745 142.777 30.533 142.992 30.3769 143.201C30.2208 143.409 30.0577 143.665 29.8876 143.968C29.7176 144.27 29.5977 144.658 29.5281 145.13C29.4382 145.608 29.5095 146.236 29.742 147.013L35.002 145.287C36.0762 144.934 36.9279 144.587 37.5569 144.246C38.1656 143.912 38.4233 143.602 38.3302 143.319L37.2725 140.096C37.0197 139.326 36.6682 138.734 36.2181 138.32C35.7478 137.913 35.2736 137.597 34.7957 137.372C34.3111 137.127 33.887 136.93 33.5234 136.779C33.1329 136.616 32.8977 136.412 32.8178 136.169C32.7846 136.068 32.7851 135.967 32.8192 135.865C32.8876 135.663 33.1074 135.546 33.4786 135.514C33.8432 135.462 34.2345 135.457 34.6526 135.5C35.0706 135.542 35.4583 135.594 35.8156 135.657C36.1526 135.726 36.321 135.76 36.321 135.76C36.6108 135.822 36.8528 136.012 37.047 136.33C37.2143 136.635 37.3345 136.898 37.4076 137.121L40.9202 147.824C40.9734 147.986 40.9896 148.138 40.9687 148.279C40.9614 148.394 40.9237 148.518 40.8556 148.653C40.7809 148.767 40.6624 148.851 40.5003 148.904C40.3179 148.964 40.1221 148.984 39.9131 148.962C39.6771 148.928 39.4006 148.906 39.0836 148.898C38.7666 148.89 38.3921 148.912 37.9601 148.964C37.5011 149.002 36.9575 149.124 36.3291 149.33L24.2282 153.302C23.5998 153.508 23.0996 153.729 22.7275 153.963C22.3284 154.184 22.0036 154.391 21.7531 154.586C21.5026 154.78 21.3028 154.958 21.1536 155.119C20.9775 155.267 20.7983 155.371 20.6159 155.431Z" fill="white"/>
</g>
<mask id="mask1_149:575" style="mask-type:alpha" maskUnits="userSpaceOnUse" x="52" y="53" width="127" height="127">
<path d="M115.83 178.75C150.27 178.75 178.19 150.83 178.19 116.39C178.19 81.9495 150.27 54.03 115.83 54.03C81.3895 54.03 53.47 81.9495 53.47 116.39C53.47 150.83 81.3895 178.75 115.83 178.75Z" fill="#1D70B7" stroke="#271D50" stroke-width="1.5" stroke-miterlimit="10"/>
</mask>
<g mask="url(#mask1_149:575)">
<path d="M116 179C150.242 179 178 151.018 178 116.5C178 81.9822 150.242 54 116 54C81.7583 54 54 81.9822 54 116.5C54 151.018 81.7583 179 116 179Z" fill="#0000FF" stroke="#0C0C0C" stroke-width="1.5" stroke-miterlimit="10"/>
<path d="M115.26 254.59C149.91 254.59 178 226.5 178 191.85C178 157.2 149.91 129.11 115.26 129.11C80.6097 129.11 52.52 157.2 52.52 191.85C52.52 226.5 80.6097 254.59 115.26 254.59Z" fill="#F7A34B" stroke="#0C0C0C" stroke-width="1.5" stroke-miterlimit="10"/>
<path d="M156.61 104.93L149.15 93.84C149.67 83.95 145.02 80.94 135.05 79.9L108.05 77.08C103.817 76.6449 99.5638 77.6757 96 80L95.45 80.36C95.09 80.62 94.73 80.88 94.39 81.16C92.4581 82.7075 90.8531 84.6236 89.6686 86.7971C88.484 88.9705 87.7435 91.3577 87.49 93.82L87 98.32L83.23 97.92C78.5417 97.433 73.8517 98.8265 70.19 101.795C66.5283 104.763 64.1941 109.062 63.7 113.75C62.17 128.43 64.11 142.68 87.31 145.11C99 146.33 116.98 149.22 131.43 144.11C148.56 138.11 150.43 114.87 150.43 114.87L154.01 115.24C159.36 115.83 159.65 109.46 156.61 104.93Z" fill="#F7A34B" stroke="#0C0C0C" stroke-width="1.5" stroke-miterlimit="10"/>
<mask id="mask2_149:575" style="mask-type:alpha" maskUnits="userSpaceOnUse" x="66" y="111" width="70" height="27">
<path d="M134.09 121.75C137.46 128.59 117.02 138.39 98.7101 136.17C80.4001 133.95 62.9201 120.6 67.8101 113.72C70.5801 109.82 82.4901 116.72 100.81 118.97C119.13 121.22 132 117.46 134.09 121.75Z" fill="#271D50" stroke="#271D50" stroke-width="1.5" stroke-miterlimit="10"/>
</mask>
<g mask="url(#mask2_149:575)">
<path d="M134.09 121.75C137.46 128.59 117.02 138.39 98.7101 136.17C80.4001 133.95 62.9201 120.6 67.8101 113.72C70.5801 109.82 82.4901 116.72 100.81 118.97C119.13 121.22 132 117.46 134.09 121.75Z" fill="#0C0C0C" stroke="#0C0C0C" stroke-width="1.5" stroke-miterlimit="10"/>
<path d="M123.412 113.833L118.061 113.184C116.257 112.965 114.618 114.251 114.399 116.054L113.236 125.654C113.017 127.458 114.302 129.097 116.106 129.316L121.457 129.965C123.261 130.183 124.9 128.898 125.119 127.094L126.282 117.494C126.501 115.691 125.216 114.051 123.412 113.833Z" fill="#F5F5F5"/>
<path d="M110.219 112.157L104.868 111.508C103.064 111.29 101.425 112.575 101.206 114.378L100.043 123.978C99.8242 125.782 101.109 127.421 102.913 127.64L108.264 128.289C110.068 128.507 111.707 127.222 111.926 125.418L113.089 115.819C113.308 114.015 112.023 112.375 110.219 112.157Z" fill="#F5F5F5"/>
<path d="M96.7534 111.194L91.4026 110.546C89.5988 110.327 87.9593 111.612 87.7407 113.416L86.5773 123.016C86.3587 124.82 87.6437 126.459 89.4475 126.678L94.7984 127.326C96.6022 127.545 98.2417 126.26 98.4603 124.456L99.6237 114.856C99.8423 113.052 98.5572 111.413 96.7534 111.194Z" fill="#F5F5F5"/>
<path d="M83.5964 109.295L78.2456 108.646C76.4418 108.428 74.8023 109.713 74.5837 111.517L73.4203 121.116C73.2017 122.92 74.4867 124.56 76.2906 124.778L81.6414 125.427C83.4452 125.645 85.0847 124.36 85.3033 122.556L86.4667 112.957C86.6853 111.153 85.4003 109.513 83.5964 109.295Z" fill="#F5F5F5"/>
</g>
<mask id="mask3_149:575" style="mask-type:alpha" maskUnits="userSpaceOnUse" x="99" y="84" width="24" height="30">
<path d="M121.941 100.153C122.901 92.4868 118.749 85.6541 112.666 84.8921C106.583 84.1302 100.874 89.7275 99.9132 97.394C98.9528 105.061 103.105 111.893 109.188 112.655C115.271 113.417 120.981 107.82 121.941 100.153Z" fill="#271D50" stroke="#271D50" stroke-width="1.5" stroke-miterlimit="10"/>
</mask>
<g mask="url(#mask3_149:575)">
<path d="M121.941 100.153C122.901 92.4868 118.749 85.6541 112.666 84.8921C106.583 84.1302 100.874 89.7275 99.9132 97.394C98.9528 105.061 103.105 111.893 109.188 112.655C115.271 113.417 120.981 107.82 121.941 100.153Z" fill="#0C0C0C" stroke="#0C0C0C" stroke-width="1.5" stroke-miterlimit="10"/>
<path d="M124.43 79.85C122.954 80.3213 121.568 81.038 120.33 81.97C118.387 83.2882 116.511 84.7033 114.71 86.21C111.52 88.84 107.84 91.87 105.82 95.56C104.91 97.21 104.46 99.34 105.92 100.85C107.38 102.36 109.92 102.07 111.84 101.74C112.31 101.66 111.52 101.74 112.09 101.74C112.29 101.74 112.5 101.74 112.7 101.74C113.37 101.74 112.4 101.66 112.7 101.74C113 101.82 112.94 101.86 112.7 101.69C112.421 101.504 112.207 101.235 112.09 100.92C112.03 100.7 112.09 100.21 112.03 100.68C112.03 100.51 112.17 100.12 112.03 100.62C112.03 100.72 111.81 101.23 112.03 100.82C112.25 100.41 111.97 100.94 111.91 101.05C111.69 101.45 111.46 101.84 111.21 102.22C111.07 102.43 110.92 102.64 110.77 102.84C110.62 103.04 110.31 103.45 110.48 103.24C110.359 103.37 110.246 103.507 110.14 103.65C109.93 103.91 109.71 104.16 109.49 104.42C107.672 106.488 105.729 108.442 103.67 110.27C102.79 111.07 101.89 111.85 100.96 112.61L100.34 113.11C99.8701 113.48 100.7 112.85 100.15 113.25C99.8501 113.46 99.5501 113.68 99.2401 113.88C96.5501 115.62 99.0501 119.95 101.77 118.2C105.315 115.751 108.56 112.895 111.44 109.69C113.082 108.045 114.549 106.236 115.82 104.29C116.82 102.69 117.7 100.5 116.64 98.71C115.35 96.54 112.76 96.63 110.64 96.98C110.51 96.98 109.59 97.12 110.3 97.05L109.71 97.1H109.2C108.56 97.1 109.62 97.2 109.2 97.1C108.78 97 109.2 97.1 109.39 97.21C108.96 96.96 109.76 97.54 109.58 97.36C109.802 97.5636 109.958 97.828 110.03 98.12C109.91 97.71 110.03 98.88 110.03 98.35C110.03 98.01 109.93 99.11 110.03 98.61C110.03 98.49 110.12 98.37 110.14 98.26C110.04 98.88 109.97 98.6 110.14 98.31C110.31 98.02 110.31 97.99 110.41 97.83C110.61 97.5 110.84 97.19 111.06 96.83C111.28 96.47 110.93 97 110.93 97L111.15 96.72L111.68 96.09C113.145 94.4271 114.722 92.8667 116.4 91.42C117.4 90.55 118.4 89.7 119.4 88.88C120.14 88.3 120.88 87.73 121.99 86.95C122.82 86.36 123.67 85.79 124.56 85.28C124.88 85.1 125.22 84.94 125.56 84.76C125.628 84.7258 125.698 84.6957 125.77 84.67C125.55 84.78 125.38 84.74 125.45 84.8C125.586 84.7711 125.72 84.731 125.85 84.68C128.98 83.93 127.65 79.11 124.52 79.86L124.43 79.85Z" fill="white"/>
</g>
<mask id="mask4_149:575" style="mask-type:alpha" maskUnits="userSpaceOnUse" x="77" y="81" width="24" height="30">
<path d="M99.7454 97.331C100.683 89.9399 96.6063 83.3346 90.6397 82.5777C84.6732 81.8208 79.0762 87.1988 78.1385 94.5899C77.2009 101.981 81.2776 108.586 87.2442 109.343C93.2108 110.1 98.8077 104.722 99.7454 97.331Z" fill="#271D50" stroke="#271D50" stroke-width="1.5" stroke-miterlimit="10"/>
</mask>
<g mask="url(#mask4_149:575)">
<path d="M99.7454 97.331C100.683 89.9399 96.6063 83.3346 90.6397 82.5777C84.6732 81.8208 79.0762 87.1988 78.1385 94.5899C77.2009 101.981 81.2776 108.586 87.2442 109.343C93.2108 110.1 98.8077 104.722 99.7454 97.331Z" fill="#0C0C0C" stroke="#0C0C0C" stroke-width="1.5" stroke-miterlimit="10"/>
<path d="M102 77.45C100.501 77.9178 99.0913 78.6345 97.8301 79.57C95.8301 80.87 93.9501 82.32 92.1001 83.81C88.8001 86.48 85.0001 89.53 82.9001 93.28C81.9601 94.95 81.5001 97.12 82.9901 98.64C84.4801 100.16 86.9901 99.86 88.9901 99.54C89.4401 99.47 88.6801 99.54 89.3501 99.54H90.0001C90.5501 99.54 90.2201 99.54 90.0001 99.54C90.5501 99.66 89.8501 99.43 90.0001 99.54C90.1501 99.65 89.6901 99.27 89.6301 99.19C89.5701 99.11 89.3401 98.56 89.3901 98.76C89.4401 98.96 89.3901 98.03 89.3301 98.52C89.3301 98.66 89.5501 97.9 89.3301 98.45C89.3301 98.58 89.2301 98.74 89.1901 98.87C89.4001 98.17 89.2601 98.72 89.1901 98.93C88.9601 99.32 88.7401 99.71 88.4901 100.09L88.0501 100.7L87.8101 101.02C87.8701 100.95 88.1201 100.63 87.8101 101.02C87.5001 101.41 87.0701 101.92 86.6901 102.36C84.8279 104.439 82.8409 106.403 80.7401 108.24C79.8001 109.08 78.8401 109.9 77.8501 110.69L77.6601 110.84L77.0401 111.31C76.7401 111.53 76.4401 111.74 76.1201 111.94C73.4101 113.66 75.9201 117.99 78.6501 116.26C82.3071 113.777 85.663 110.878 88.6501 107.62C90.2885 105.922 91.7463 104.059 93.0001 102.06C94.0001 100.43 94.8701 98.28 93.8301 96.45C92.5501 94.21 89.7501 94.39 87.5701 94.74L87.1501 94.81C86.7801 94.87 87.6001 94.81 87.2501 94.81H86.6601C86.4669 94.8 86.2733 94.8 86.0801 94.81C85.7301 94.88 86.6701 94.98 86.1601 94.81C85.6501 94.64 86.6101 95.08 86.3101 94.9C86.0101 94.72 86.8501 95.39 86.5101 95.05C86.7301 95.2524 86.8894 95.5121 86.9701 95.8C86.8601 95.43 87.0201 96.56 87.0201 96.04C87.0201 96.1 86.8301 96.67 86.9601 96.44V96.3C86.9601 96.3 87.1901 95.57 86.9601 96.14C86.7301 96.71 86.9601 96.14 87.0301 96.01C87.1001 95.88 87.2301 95.65 87.3401 95.48C87.5401 95.15 87.7701 94.84 88.0001 94.48C87.6601 94.94 88.0001 94.48 88.1401 94.31L88.6201 93.75C90.1405 92.0511 91.7779 90.4606 93.5201 88.99C94.5201 88.1 95.5801 87.24 96.6501 86.41C96.7101 86.41 97.0201 86.12 96.6501 86.41C96.7901 86.29 96.9401 86.18 97.0901 86.07L97.8801 85.49C98.3501 85.14 98.8201 84.8 99.3001 84.49C100.14 83.91 101 83.35 101.88 82.85C102.23 82.65 102.6 82.51 102.94 82.3C103.28 82.09 102.32 82.48 102.83 82.3L103.23 82.18C106.36 81.45 105.04 76.63 101.9 77.36L102 77.45Z" fill="white"/>
</g>
<path d="M117.11 96.9L149.49 93.72" stroke="#0C0C0C" stroke-width="1.5" stroke-miterlimit="10"/>
<path d="M135.79 149C135.62 145.18 139.34 135.34 145.61 137.31C146.01 137.43 149.04 117.89 149.61 116.73C149.891 116.136 150.318 115.623 150.852 115.24C151.385 114.857 152.008 114.616 152.66 114.54C154.44 114.47 156.39 116.09 156.27 117.87C156.09 120.49 155.54 132.47 155.54 132.47C155.54 132.47 160.06 123.9 162.82 118.84C164.21 116.31 165.93 116.84 168.26 118.29C169.99 119.35 169.59 121.71 168.88 123.17C166.88 127.26 165.2 130.65 163.03 135.08C163.912 134.835 164.847 134.849 165.722 135.119C166.597 135.39 167.376 135.906 167.966 136.607C168.555 137.307 168.932 138.163 169.05 139.071C169.167 139.979 169.022 140.902 168.63 141.73C170.63 140.37 173.46 141.73 174.9 144.09C176.9 147.25 171.67 169.45 149.25 163.09C136.17 159.36 136 153 135.79 149Z" fill="#F5F5F5" stroke="#0C0C0C" stroke-width="1.5" stroke-linecap="round" stroke-linejoin="round"/>
<path d="M174.54 146.77C174.54 146.77 170.93 150.68 169.34 152.38C167.28 154.58 162.2 150.55 164.12 148.01C165.55 146.13 168.68 141.69 168.68 141.69" fill="#F5F5F5"/>
<path d="M174.54 146.77C174.54 146.77 170.93 150.68 169.34 152.38C167.28 154.58 162.2 150.55 164.12 148.01C165.55 146.13 168.68 141.69 168.68 141.69" stroke="#0C0C0C" stroke-width="1.5" stroke-linecap="round" stroke-linejoin="round"/>
<path d="M169 141.06C169 141.06 164.16 146.61 162.57 148.31C160.57 150.51 155.43 146.48 157.35 143.94C158.78 142.06 163.43 134.8 163.43 134.8" fill="#F5F5F5"/>
<path d="M169 141.06C169 141.06 164.16 146.61 162.57 148.31C160.57 150.51 155.43 146.48 157.35 143.94C158.78 142.06 163.43 134.8 163.43 134.8" stroke="#0C0C0C" stroke-width="1.5" stroke-linecap="round" stroke-linejoin="round"/>
<path d="M145.61 137.27C145.61 137.27 153.81 140.42 156.61 141.27C161.31 142.74 157.99 149.92 154.94 148.84C151.52 147.63 147.09 146.26 147.09 146.26" fill="#F5F5F5"/>
<path d="M145.61 137.27C145.61 137.27 153.81 140.42 156.61 141.27C161.31 142.74 157.99 149.92 154.94 148.84C151.52 147.63 147.09 146.26 147.09 146.26" stroke="#0C0C0C" stroke-width="1.5" stroke-linecap="round" stroke-linejoin="round"/>
<path d="M148.38 156.37C154.09 153.37 151.13 147.56 149.3 146.98Z" fill="#F5F5F5"/>
<path d="M148.38 156.37C154.09 153.37 151.13 147.56 149.3 146.98" stroke="#0C0C0C" stroke-width="1.5" stroke-linecap="round" stroke-linejoin="round"/>
<path d="M165.92 95.08L169.16 96.95L165.83 98.67L163.95 101.9L162.24 98.58L159 96.7L162.33 94.99L164.21 91.75L165.92 95.08Z" fill="white"/>
<path d="M124.47 64.34L126.26 65.38L124.42 66.34L123.37 68.14L122.42 66.29L120.62 65.24L122.47 64.29L123.51 62.49L124.47 64.34Z" fill="white"/>
<path d="M95.42 80.31C95.42 80.31 139.54 90.83 149 89.76C149.106 88.8154 148.986 87.8592 148.65 86.97C148.094 85.4721 147.171 84.1378 145.966 83.0895C144.76 82.0411 143.311 81.3124 141.75 80.97C131.67 78.61 103 72.73 95.42 80.31Z" fill="#0C0C0C"/>
</g>
</svg>
