<svg width="333" height="202" viewBox="0 0 333 202" fill="none" xmlns="http://www.w3.org/2000/svg">
<path d="M56.4822 81.016C58.1382 81.016 59.3956 81.6293 60.2542 82.856C61.1742 84.0827 61.9716 85.4627 62.6462 86.996C63.3822 88.468 64.1796 89.8173 65.0382 91.044C65.8969 92.2707 67.1542 92.884 68.8102 92.884C70.8342 92.884 72.4289 92.5467 73.5942 91.872C74.7596 91.1973 75.6489 90.3693 76.2622 89.388C76.8756 88.4067 77.2742 87.3947 77.4582 86.352C77.6422 85.248 77.7342 84.2973 77.7342 83.5C77.7342 80.74 77.0596 78.348 75.7102 76.324C74.4222 74.2387 72.7969 72.3067 70.8342 70.528C68.8716 68.7493 66.7249 67.032 64.3942 65.376C62.0636 63.72 59.9169 61.9413 57.9542 60.04C55.9916 58.1387 54.3356 56.0227 52.9862 53.692C51.6982 51.3613 51.0542 48.6627 51.0542 45.596C51.0542 43.204 51.6369 41.0573 52.8022 39.156C53.9676 37.1933 55.5009 35.5067 57.4022 34.096C59.3649 32.6853 61.6342 31.612 64.2102 30.876C66.8476 30.0787 69.5769 29.68 72.3982 29.68C78.2249 29.68 82.6716 30.5693 85.7382 32.348C88.8662 34.0653 90.4302 36.488 90.4302 39.616C90.4302 40.7813 89.9396 41.916 88.9582 43.02C87.9769 44.0627 86.5969 44.584 84.8182 44.584C83.7142 44.584 82.7942 44.308 82.0582 43.756C81.3836 43.1427 80.8009 42.4067 80.3102 41.548C79.8196 40.628 79.3596 39.6773 78.9302 38.696C78.5622 37.6533 78.1022 36.7027 77.5502 35.844C76.9982 34.924 76.3236 34.188 75.5262 33.636C74.7902 33.0227 73.7782 32.716 72.4902 32.716C70.4662 32.716 68.8716 33.0533 67.7062 33.728C66.5409 34.4027 65.6516 35.2307 65.0382 36.212C64.4249 37.1933 64.0262 38.236 63.8422 39.34C63.6582 40.444 63.5662 41.3947 63.5662 42.192C63.5662 44.8907 64.2102 47.3133 65.4982 49.46C66.8476 51.5453 68.5342 53.508 70.5582 55.348C72.5822 57.1267 74.7289 58.8747 76.9982 60.592C79.3289 62.3093 81.5062 64.1493 83.5302 66.112C85.5542 68.0133 87.2102 70.1293 88.4982 72.46C89.8476 74.7907 90.5222 77.4893 90.5222 80.556C90.5222 82.948 89.9089 85.0947 88.6822 86.996C87.5169 88.836 85.9529 90.4307 83.9902 91.78C82.0276 93.1293 79.7276 94.172 77.0902 94.908C74.5142 95.5827 71.7849 95.92 68.9022 95.92C66.2649 95.92 63.8116 95.6747 61.5422 95.184C59.3342 94.7547 57.4329 94.1107 55.8382 93.252C54.3049 92.3933 53.0782 91.3507 52.1582 90.124C51.2996 88.8973 50.8702 87.5173 50.8702 85.984C50.8702 84.8187 51.3609 83.7147 52.3422 82.672C53.3236 81.568 54.7036 81.016 56.4822 81.016Z" fill="#18A958"/>
<path d="M91.1569 49H97.5969V44.584C96.1862 43.112 95.3889 41.8547 95.2049 40.812C95.0209 39.708 95.8182 38.4507 97.5969 37.04L103.761 31.98C104.19 31.612 104.712 31.3053 105.325 31.06C105.938 30.7533 106.552 30.6 107.165 30.6C107.901 30.6 108.514 30.876 109.005 31.428C109.557 31.98 109.833 33.0227 109.833 34.556V49H116.273C116.825 49 117.224 49.1533 117.469 49.46C117.714 49.7667 117.837 50.1347 117.837 50.564C117.837 50.932 117.714 51.2693 117.469 51.576C117.224 51.8827 116.825 52.036 116.273 52.036H109.833V75.312C109.833 76.2933 109.833 77.704 109.833 79.544C109.894 81.384 110.017 83.224 110.201 85.064C110.385 86.8427 110.661 88.4067 111.029 89.756C111.397 91.1053 111.918 91.78 112.593 91.78C113.82 91.78 114.586 91.044 114.893 89.572C115.2 88.0387 115.445 86.1987 115.629 84.052C115.752 82.8253 116.181 81.9053 116.917 81.292C117.714 80.6787 118.573 80.372 119.493 80.372C120.536 80.372 121.456 80.7707 122.253 81.568C123.112 82.304 123.48 83.3773 123.357 84.788C123.296 85.7693 122.989 86.8427 122.437 88.008C121.885 89.1733 121.088 90.2773 120.045 91.32C119.002 92.3627 117.653 93.252 115.997 93.988C114.402 94.6627 112.47 95 110.201 95C107.87 95 105.938 94.6627 104.405 93.988C102.933 93.3133 101.706 92.424 100.725 91.32C99.8049 90.216 99.1302 88.9587 98.7009 87.548C98.2716 86.1373 97.9649 84.696 97.7809 83.224C97.5969 81.752 97.5049 80.3413 97.5049 78.992C97.5662 77.5813 97.5969 76.3547 97.5969 75.312V52.036H91.1569C90.6049 52.036 90.2062 51.8827 89.9609 51.576C89.7156 51.2693 89.5929 50.932 89.5929 50.564C89.5929 50.1347 89.7156 49.7667 89.9609 49.46C90.2062 49.1533 90.6049 49 91.1569 49Z" fill="#18A958"/>
<path d="M128.825 55.44L134.989 50.38C135.418 50.012 135.94 49.7053 136.553 49.46C137.166 49.1533 137.78 49 138.393 49C139.129 49 139.742 49.276 140.233 49.828C140.785 50.38 141.061 51.4227 141.061 52.956V53.416C142.656 51.8213 144.373 50.5333 146.213 49.552C148.114 48.5707 150.23 48.08 152.561 48.08C153.972 48.08 155.474 48.2947 157.069 48.724C158.664 49.1533 160.136 49.7973 161.485 50.656C162.834 51.4533 163.938 52.4653 164.797 53.692C165.656 54.9187 166.085 56.2987 166.085 57.832C166.085 58.9973 165.594 60.132 164.613 61.236C163.632 62.2787 162.252 62.8 160.473 62.8C158.817 62.8 157.529 62.3093 156.609 61.328C155.75 60.2853 155.014 59.1507 154.401 57.924C153.788 56.6973 153.205 55.5933 152.653 54.612C152.162 53.5693 151.396 53.048 150.353 53.048C149.065 53.048 147.593 53.5693 145.937 54.612C144.281 55.5933 142.656 56.912 141.061 58.568V81.108C141.061 83.0093 141.184 84.604 141.429 85.892C141.736 87.1187 142.042 88.1613 142.349 89.02C142.656 89.8787 142.932 90.6147 143.177 91.228C143.484 91.78 143.637 92.332 143.637 92.884C143.637 93.252 143.545 93.5893 143.361 93.896C143.177 94.2027 142.901 94.4787 142.533 94.724C142.226 94.908 141.736 95 141.061 95H128.825C127.108 95 126.249 94.2947 126.249 92.884C126.249 92.332 126.372 91.78 126.617 91.228C126.924 90.6147 127.23 89.8787 127.537 89.02C127.844 88.1613 128.12 87.1187 128.365 85.892C128.672 84.604 128.825 83.0093 128.825 81.108V62.984C128.825 61.9413 128.641 61.1133 128.273 60.5C127.966 59.8253 127.69 59.2427 127.445 58.752C127.261 58.2 127.23 57.7093 127.353 57.28C127.476 56.7893 127.966 56.176 128.825 55.44Z" fill="#18A958"/>
<path d="M168.835 71.172C168.835 63.9347 170.644 58.292 174.263 54.244C177.943 50.1347 183.187 48.08 189.995 48.08C192.08 48.08 194.135 48.356 196.159 48.908C198.244 49.3987 200.084 50.2267 201.679 51.392C203.335 52.496 204.654 53.968 205.635 55.808C206.678 57.5867 207.199 59.764 207.199 62.34C207.199 64.6093 206.77 66.4493 205.911 67.86C205.052 69.2093 203.918 70.2827 202.507 71.08C201.096 71.816 199.471 72.3373 197.631 72.644C195.852 72.8893 193.982 73.012 192.019 73.012H182.359C182.359 76.5693 182.635 79.636 183.187 82.212C183.739 84.7267 184.414 86.7813 185.211 88.376C186.07 89.9093 186.99 91.044 187.971 91.78C188.952 92.516 189.842 92.884 190.639 92.884C191.62 92.884 192.54 92.6387 193.399 92.148C194.258 91.596 195.055 90.9213 195.791 90.124C196.527 89.2653 197.171 88.3147 197.723 87.272C198.336 86.168 198.827 85.0947 199.195 84.052C199.563 83.0093 200.084 82.2733 200.759 81.844C201.495 81.4147 202.231 81.2 202.967 81.2C204.071 81.2 205.022 81.6293 205.819 82.488C206.678 83.3467 206.892 84.4507 206.463 85.8C206.156 86.7813 205.574 87.8547 204.715 89.02C203.856 90.1853 202.752 91.2893 201.403 92.332C200.054 93.3133 198.459 94.172 196.619 94.908C194.84 95.5827 192.847 95.92 190.639 95.92C187.082 95.92 183.954 95.276 181.255 93.988C178.556 92.6387 176.287 90.8293 174.447 88.56C172.607 86.2907 171.196 83.684 170.215 80.74C169.295 77.7347 168.835 74.5453 168.835 71.172ZM182.451 69.976H188.339C189.443 69.976 190.332 69.7307 191.007 69.24C191.682 68.7493 192.203 68.136 192.571 67.4C193 66.6027 193.276 65.744 193.399 64.824C193.583 63.8427 193.675 62.892 193.675 61.972C193.675 60.684 193.614 59.396 193.491 58.108C193.368 56.82 193.154 55.6547 192.847 54.612C192.54 53.5693 192.142 52.7413 191.651 52.128C191.222 51.4533 190.67 51.116 189.995 51.116C189.32 51.116 188.554 51.5147 187.695 52.312C186.898 53.1093 186.131 54.3053 185.395 55.9C184.659 57.4947 184.015 59.4573 183.463 61.788C182.911 64.1187 182.574 66.848 182.451 69.976Z" fill="#18A958"/>
<path d="M209.984 71.172C209.984 63.9347 211.793 58.292 215.412 54.244C219.092 50.1347 224.336 48.08 231.144 48.08C233.229 48.08 235.284 48.356 237.308 48.908C239.393 49.3987 241.233 50.2267 242.828 51.392C244.484 52.496 245.802 53.968 246.784 55.808C247.826 57.5867 248.348 59.764 248.348 62.34C248.348 64.6093 247.918 66.4493 247.06 67.86C246.201 69.2093 245.066 70.2827 243.656 71.08C242.245 71.816 240.62 72.3373 238.78 72.644C237.001 72.8893 235.13 73.012 233.168 73.012H223.508C223.508 76.5693 223.784 79.636 224.336 82.212C224.888 84.7267 225.562 86.7813 226.36 88.376C227.218 89.9093 228.138 91.044 229.12 91.78C230.101 92.516 230.99 92.884 231.788 92.884C232.769 92.884 233.689 92.6387 234.548 92.148C235.406 91.596 236.204 90.9213 236.94 90.124C237.676 89.2653 238.32 88.3147 238.872 87.272C239.485 86.168 239.976 85.0947 240.344 84.052C240.712 83.0093 241.233 82.2733 241.908 81.844C242.644 81.4147 243.38 81.2 244.116 81.2C245.22 81.2 246.17 81.6293 246.968 82.488C247.826 83.3467 248.041 84.4507 247.612 85.8C247.305 86.7813 246.722 87.8547 245.864 89.02C245.005 90.1853 243.901 91.2893 242.552 92.332C241.202 93.3133 239.608 94.172 237.768 94.908C235.989 95.5827 233.996 95.92 231.788 95.92C228.23 95.92 225.102 95.276 222.404 93.988C219.705 92.6387 217.436 90.8293 215.596 88.56C213.756 86.2907 212.345 83.684 211.364 80.74C210.444 77.7347 209.984 74.5453 209.984 71.172ZM223.6 69.976H229.488C230.592 69.976 231.481 69.7307 232.156 69.24C232.83 68.7493 233.352 68.136 233.72 67.4C234.149 66.6027 234.425 65.744 234.548 64.824C234.732 63.8427 234.824 62.892 234.824 61.972C234.824 60.684 234.762 59.396 234.64 58.108C234.517 56.82 234.302 55.6547 233.996 54.612C233.689 53.5693 233.29 52.7413 232.8 52.128C232.37 51.4533 231.818 51.116 231.144 51.116C230.469 51.116 229.702 51.5147 228.844 52.312C228.046 53.1093 227.28 54.3053 226.544 55.9C225.808 57.4947 225.164 59.4573 224.612 61.788C224.06 64.1187 223.722 66.848 223.6 69.976Z" fill="#18A958"/>
<path d="M251.798 49H258.238V44.584C256.827 43.112 256.03 41.8547 255.846 40.812C255.662 39.708 256.459 38.4507 258.238 37.04L264.402 31.98C264.831 31.612 265.352 31.3053 265.966 31.06C266.579 30.7533 267.192 30.6 267.806 30.6C268.542 30.6 269.155 30.876 269.646 31.428C270.198 31.98 270.474 33.0227 270.474 34.556V49H276.914C277.466 49 277.864 49.1533 278.11 49.46C278.355 49.7667 278.478 50.1347 278.478 50.564C278.478 50.932 278.355 51.2693 278.11 51.576C277.864 51.8827 277.466 52.036 276.914 52.036H270.474V75.312C270.474 76.2933 270.474 77.704 270.474 79.544C270.535 81.384 270.658 83.224 270.842 85.064C271.026 86.8427 271.302 88.4067 271.67 89.756C272.038 91.1053 272.559 91.78 273.234 91.78C274.46 91.78 275.227 91.044 275.534 89.572C275.84 88.0387 276.086 86.1987 276.27 84.052C276.392 82.8253 276.822 81.9053 277.558 81.292C278.355 80.6787 279.214 80.372 280.134 80.372C281.176 80.372 282.096 80.7707 282.894 81.568C283.752 82.304 284.12 83.3773 283.998 84.788C283.936 85.7693 283.63 86.8427 283.078 88.008C282.526 89.1733 281.728 90.2773 280.686 91.32C279.643 92.3627 278.294 93.252 276.638 93.988C275.043 94.6627 273.111 95 270.842 95C268.511 95 266.579 94.6627 265.046 93.988C263.574 93.3133 262.347 92.424 261.366 91.32C260.446 90.216 259.771 88.9587 259.342 87.548C258.912 86.1373 258.606 84.696 258.422 83.224C258.238 81.752 258.146 80.3413 258.146 78.992C258.207 77.5813 258.238 76.3547 258.238 75.312V52.036H251.798C251.246 52.036 250.847 51.8827 250.602 51.576C250.356 51.2693 250.234 50.932 250.234 50.564C250.234 50.1347 250.356 49.7667 250.602 49.46C250.847 49.1533 251.246 49 251.798 49Z" fill="#18A958"/>
<path d="M87.1671 167.884C87.1671 167.332 87.4738 166.749 88.0871 166.136C88.7004 165.523 89.4058 164.787 90.2031 163.928C91.0618 163.008 91.9511 161.935 92.8711 160.708C93.8525 159.42 94.6498 157.887 95.2631 156.108L110.351 114.8L109.983 113.604C109.799 112.929 109.523 112.377 109.155 111.948C108.848 111.457 108.542 110.997 108.235 110.568C107.928 110.139 107.652 109.709 107.407 109.28C107.223 108.851 107.131 108.329 107.131 107.716C107.131 107.041 107.376 106.52 107.867 106.152C108.419 105.784 109.063 105.6 109.799 105.6H118.171C118.968 105.6 119.52 106.029 119.827 106.888C120.195 107.747 120.624 108.881 121.115 110.292L136.111 156.108C136.663 157.887 137.246 159.42 137.859 160.708C138.534 161.935 139.116 163.008 139.607 163.928C140.159 164.787 140.588 165.523 140.895 166.136C141.263 166.749 141.447 167.332 141.447 167.884C141.447 168.252 141.355 168.589 141.171 168.896C140.987 169.203 140.711 169.479 140.343 169.724C140.036 169.908 139.546 170 138.871 170H126.635C124.918 170 124.059 169.295 124.059 167.884C124.059 167.332 124.151 166.749 124.335 166.136C124.519 165.523 124.672 164.787 124.795 163.928C124.918 163.069 124.918 162.027 124.795 160.8C124.734 159.512 124.427 157.948 123.875 156.108L121.299 147.828C121.115 147.153 120.839 146.601 120.471 146.172C120.103 145.743 119.459 145.528 118.539 145.528H103.727C103.114 145.528 102.623 145.773 102.255 146.264C101.948 146.693 101.703 147.184 101.519 147.736L98.5751 156.108C98.0231 157.825 97.8698 159.328 98.1151 160.616C98.3605 161.843 98.7285 162.916 99.2191 163.836C99.7098 164.695 100.2 165.461 100.691 166.136C101.243 166.749 101.519 167.332 101.519 167.884C101.519 168.252 101.427 168.589 101.243 168.896C101.059 169.203 100.783 169.479 100.415 169.724C100.108 169.908 99.6178 170 98.9431 170H89.7431C88.0258 170 87.1671 169.295 87.1671 167.884ZM104.555 142.492H117.895C118.57 142.492 118.907 142.277 118.907 141.848C118.968 141.357 118.938 140.959 118.815 140.652L111.915 119.492L103.911 141.112C103.788 141.48 103.758 141.817 103.819 142.124C103.942 142.369 104.187 142.492 104.555 142.492Z" fill="#18A958"/>
<path d="M144.218 167.884C144.218 167.332 144.341 166.78 144.586 166.228C144.893 165.615 145.199 164.879 145.506 164.02C145.813 163.161 146.089 162.119 146.334 160.892C146.641 159.604 146.794 158.009 146.794 156.108V119.492C146.794 117.591 146.641 116.027 146.334 114.8C146.089 113.512 145.813 112.439 145.506 111.58C145.199 110.721 144.893 110.016 144.586 109.464C144.341 108.851 144.218 108.268 144.218 107.716C144.218 106.305 145.077 105.6 146.794 105.6H159.03C159.337 105.6 159.613 105.631 159.858 105.692C160.41 105.815 160.87 106.091 161.238 106.52C163.814 105.293 166.513 104.68 169.334 104.68C171.849 104.68 174.21 105.14 176.418 106.06C178.626 106.98 180.558 108.329 182.214 110.108C183.87 111.825 185.158 113.941 186.078 116.456C187.059 118.971 187.55 121.823 187.55 125.012C187.55 130.164 186.354 134.549 183.962 138.168C181.57 141.725 178.503 144.117 174.762 145.344C176.602 146.693 178.135 148.227 179.362 149.944C180.65 151.6 181.693 153.225 182.49 154.82C183.349 156.415 184.023 157.887 184.514 159.236C185.066 160.585 185.465 161.597 185.71 162.272C186.017 162.947 186.354 163.529 186.722 164.02C187.151 164.449 187.55 164.848 187.918 165.216C188.286 165.584 188.593 165.983 188.838 166.412C189.145 166.78 189.298 167.271 189.298 167.884C189.298 168.743 189.022 169.325 188.47 169.632C187.918 169.877 187.274 170 186.538 170H174.946C174.149 170 173.535 169.632 173.106 168.896C172.677 168.099 172.309 166.872 172.002 165.216C171.757 163.744 171.419 162.119 170.99 160.34C170.622 158.5 170.162 156.691 169.61 154.912C169.058 153.072 168.414 151.355 167.678 149.76C166.942 148.104 166.053 146.724 165.01 145.62C162.925 145.068 160.931 144.087 159.03 142.676V156.108C159.03 158.009 159.153 159.604 159.398 160.892C159.705 162.119 160.011 163.161 160.318 164.02C160.625 164.879 160.901 165.615 161.146 166.228C161.453 166.78 161.606 167.332 161.606 167.884C161.606 169.295 160.747 170 159.03 170H146.794C146.303 170 145.874 169.908 145.506 169.724C145.199 169.601 144.893 169.387 144.586 169.08C144.341 168.773 144.218 168.375 144.218 167.884ZM159.03 137.984C159.95 138.904 160.962 139.64 162.066 140.192C163.231 140.744 164.427 141.02 165.654 141.02C167.31 141.02 168.659 140.56 169.702 139.64C170.806 138.72 171.665 137.524 172.278 136.052C172.953 134.58 173.413 132.893 173.658 130.992C173.903 129.029 174.026 127.036 174.026 125.012C174.026 122.988 173.903 121.056 173.658 119.216C173.413 117.376 172.953 115.781 172.278 114.432C171.665 113.021 170.806 111.917 169.702 111.12C168.659 110.261 167.31 109.832 165.654 109.832C164.059 109.832 162.802 110.077 161.882 110.568C161.023 111.059 160.379 111.764 159.95 112.684C159.521 113.543 159.245 114.555 159.122 115.72C159.061 116.885 159.03 118.143 159.03 119.492V137.984Z" fill="#18A958"/>
<path d="M191.69 105.6H246.338C246.89 105.6 247.258 105.692 247.442 105.876C247.687 105.999 247.81 106.183 247.81 106.428C247.81 106.612 247.749 106.857 247.626 107.164C247.565 107.409 247.503 107.655 247.442 107.9L243.946 119.584C243.762 119.829 243.547 120.044 243.302 120.228C243.118 120.412 242.903 120.596 242.658 120.78C242.413 120.903 242.137 120.964 241.83 120.964C241.523 120.964 241.186 120.872 240.818 120.688C240.327 120.443 239.929 119.676 239.622 118.388C239.377 117.1 238.947 115.751 238.334 114.34C237.782 112.868 236.923 111.549 235.758 110.384C234.654 109.219 232.998 108.636 230.79 108.636H227.57C226.221 108.636 225.485 109.648 225.362 111.672C225.239 113.635 225.178 116.241 225.178 119.492V156.108C225.178 158.009 225.301 159.604 225.546 160.892C225.853 162.119 226.159 163.161 226.466 164.02C226.773 164.879 227.049 165.615 227.294 166.228C227.601 166.78 227.754 167.332 227.754 167.884C227.754 169.295 226.895 170 225.178 170H212.942C212.451 170 212.022 169.908 211.654 169.724C211.347 169.601 211.041 169.387 210.734 169.08C210.489 168.773 210.366 168.375 210.366 167.884C210.366 167.332 210.489 166.78 210.734 166.228C211.041 165.615 211.347 164.879 211.654 164.02C211.961 163.161 212.237 162.119 212.482 160.892C212.789 159.604 212.942 158.009 212.942 156.108V119.492C212.942 117.897 212.942 116.425 212.942 115.076C212.942 113.727 212.881 112.592 212.758 111.672C212.635 110.691 212.39 109.955 212.022 109.464C211.715 108.912 211.225 108.636 210.55 108.636H207.238C205.03 108.636 203.343 109.219 202.178 110.384C201.074 111.549 200.215 112.837 199.602 114.248C199.05 115.659 198.621 117.008 198.314 118.296C198.069 119.584 197.701 120.381 197.21 120.688C196.903 120.933 196.535 121.056 196.106 121.056C195.37 121.056 194.695 120.565 194.082 119.584L190.586 107.9C190.525 107.655 190.433 107.409 190.31 107.164C190.249 106.857 190.218 106.612 190.218 106.428C190.218 106.183 190.31 105.999 190.494 105.876C190.739 105.692 191.138 105.6 191.69 105.6Z" fill="#18A958"/>
<path d="M41.62 30.2758C38.3543 35.4879 35.0313 42.2204 39.4429 48.1927C47.0629 58.5084 49.7844 67.1954 47.0629 72.0818C44.9318 75.9083 34 80.4164 34 87.284C34 100.857 44.8858 104.658 56.8601 104.658C71.0116 104.658 83.5302 94.3422 89.5173 94.3422C95.5045 94.3422 96.7195 102.818 96.0488 104.658C93.8716 110.63 101.492 115.308 101.492 118.231C101.492 122.575 90.8551 147.792 89.5173 151.35C87.8845 155.694 81.353 166.553 79.1759 168.724C76.9987 170.896 76.4544 180.669 80.8087 180.669H215.248C216.881 180.669 232.462 181.699 235.931 180.126C241.918 177.411 234.298 171.439 234.298 164.381C234.298 161.666 233.013 139.949 232.469 132.348C231.924 124.747 236.823 123.661 239 125.832C242.791 129.614 245.184 125.832 252.804 125.832C258.247 125.832 256.859 110.439 258.247 106.287C259.879 101.4 269.677 99.7715 276.752 101.4C283.828 103.029 292.128 96.5139 297.435 89.4558C300.701 85.1123 298.212 78.4856 295.802 76.4253C291.992 73.1677 287.638 76.4253 285.461 75.3394C284.372 74.7965 285.461 61.2231 285.461 54.165C285.461 49.2785 293.625 50.3644 293.625 45.478C293.625 40.5916 286.549 36.2481 285.461 31.3617C284.372 26.4752 282.739 21.5888 277.297 21.5888C270.765 21.5888 259.879 24.8283 258.247 27C256.614 29.1717 254.437 36.7728 248.994 40.0305C243.006 37.8587 235.943 40.0305 230.5 40.0305C219.07 40.0305 216.336 44.935 211.438 47.6497C205.451 42.2204 195.653 40.5916 185.312 40.5916C176.603 40.5916 171.705 46.0209 169.528 48.1927C168.439 46.0209 164.629 42.2204 159.186 40.5916C156.146 39.6819 144.49 41.1345 141.769 43.3062C140.136 41.6774 134.149 41.6774 131.972 42.2204H117.5C114.561 37.334 112.5 34.0763 112.5 28.1041C112.5 22.1318 108.023 22.1318 101.492 22.1318C94.9602 22.1318 96.8498 29 93 28.1041C90.9507 27.6271 88.3648 27.5841 84.5 24.5C81.7786 22.3283 77.543 22.6746 71.0116 21.5888C65.0244 20.5935 60.1259 21.0459 55.2273 21.5888C50.3287 22.1318 44.3415 25.9323 41.62 30.2758Z" stroke="#F3151A" stroke-width="4" stroke-linejoin="round"/>
<path d="M25.5977 21.4353C21.9129 27.2989 18.1636 34.8729 23.1412 41.5917C31.7389 53.197 34.8095 62.9698 31.7389 68.4671C29.3344 72.7718 17 77.8434 17 85.5695C17 100.84 29.2824 105.115 42.7931 105.115C58.7602 105.115 72.885 93.5099 79.6403 93.5099C86.3956 93.5099 87.7665 103.046 87.0098 105.115C84.5533 111.834 93.151 117.096 93.151 120.385C93.151 125.272 81.1497 153.641 79.6403 157.644C77.798 162.531 70.4285 174.747 67.972 177.19C65.5155 179.633 64.9014 190.628 69.8144 190.628H221.502C223.345 190.628 240.925 191.786 244.839 190.017C251.594 186.963 242.996 180.244 242.996 172.303C242.996 169.249 241.547 144.817 240.932 136.266C240.318 127.715 245.845 126.493 248.302 128.936C252.579 133.19 255.279 128.936 263.877 128.936C270.018 128.936 268.452 111.619 270.018 106.948C271.86 101.45 282.914 99.618 290.898 101.45C298.881 103.283 308.247 95.9532 314.234 88.0127C317.919 83.1263 315.111 75.6713 312.392 73.3535C308.093 69.6887 303.18 73.3535 300.724 72.1319C299.496 71.5211 300.724 56.251 300.724 48.3106C300.724 42.8134 309.936 44.035 309.936 38.5377C309.936 33.0405 301.952 28.1541 300.724 22.6569C299.496 17.1597 297.653 11.6624 291.512 11.6624C284.143 11.6624 271.86 15.3068 270.018 17.75C268.175 20.1932 265.719 28.7444 259.578 32.4093C252.822 29.966 244.853 32.4093 238.711 32.4093C225.815 32.4093 222.73 37.9269 217.203 40.9809C210.448 34.8729 199.394 33.0405 187.726 33.0405C177.9 33.0405 172.373 39.1485 169.916 41.5917C168.688 39.1485 164.389 34.8729 158.248 33.0405C154.818 32.0171 141.667 33.6513 138.596 36.0945C136.754 34.2621 129.998 34.2621 127.542 34.8729H111.213C107.897 29.3757 105.572 25.7109 105.572 18.9921C105.572 12.2732 100.52 12.2732 93.151 12.2732C85.7815 12.2732 87.9135 20 83.5698 18.9921C81.2576 18.4555 78.3399 18.4072 73.9792 14.9375C70.9086 12.4943 66.1297 12.8839 58.7602 11.6624C52.0049 10.5427 46.4779 11.0516 40.9508 11.6624C35.4237 12.2732 28.6683 16.5489 25.5977 21.4353Z" stroke="#F7A34B" stroke-width="4" stroke-linejoin="round"/>
<path d="M11.4603 13.4788C7.40586 19.9288 3.28036 28.2602 8.75738 35.6509C18.2177 48.4167 21.5964 59.1668 18.2177 65.2138C15.572 69.949 2.00001 75.5278 2 84.0265C1.99997 100.824 15.5148 105.527 30.381 105.527C47.9502 105.527 63.4922 92.7609 70.9253 92.7609C78.3584 92.7609 79.8668 103.25 79.0342 105.527C76.3312 112.917 85.7915 118.706 85.7915 122.324C85.7915 127.699 72.5862 158.905 70.9253 163.309C68.8981 168.684 60.7892 182.121 58.0863 184.809C55.3833 187.496 54.7076 199.59 60.1135 199.59H227.021C229.048 199.59 248.393 200.865 252.699 198.918C260.132 195.559 250.672 188.168 250.672 179.434C250.672 176.074 249.076 149.199 248.401 139.793C247.725 130.386 253.806 129.043 256.509 131.73C261.215 136.409 264.186 131.73 273.647 131.73C280.404 131.73 278.681 112.681 280.404 107.542C282.431 101.495 294.595 99.4798 303.379 101.495C312.164 103.511 322.469 95.4485 329.057 86.714C333.112 81.3389 330.022 73.1384 327.03 70.5888C322.3 66.5575 316.894 70.5888 314.191 69.2451C312.84 68.5732 314.191 51.7761 314.191 43.0416C314.191 36.9947 324.327 38.3385 324.327 32.2915C324.327 26.2446 315.543 20.8695 314.191 14.8226C312.84 8.77561 310.812 2.72867 304.055 2.72867C295.946 2.72867 282.431 6.73747 280.404 9.425C278.377 12.1125 275.674 21.5189 268.917 25.5502C261.484 22.8627 252.714 25.5502 245.957 25.5502C231.766 25.5502 228.372 31.6196 222.291 34.979C214.858 28.2602 202.694 26.2446 189.855 26.2446C179.043 26.2446 172.962 32.9634 170.259 35.6509C168.907 32.9634 164.177 28.2602 157.42 26.2446C153.646 25.1188 139.175 26.9164 135.796 29.604C133.769 27.5883 126.336 27.5883 123.633 28.2602H105.666C102.017 22.2133 99.4585 18.182 99.4585 10.7913C99.4585 3.40056 93.9004 3.40056 85.7915 3.40056C77.6827 3.40056 80.0286 11.9 75.2491 10.7913C72.7048 10.2011 69.4944 10.1479 64.6962 6.33125C61.3175 3.64373 56.0591 4.07234 47.9502 2.72866C40.5171 1.49697 34.4355 2.05679 28.3539 2.72866C22.2722 3.40055 14.8391 8.10375 11.4603 13.4788Z" stroke="#FED531" stroke-width="4" stroke-linejoin="round"/>
</svg>
