<svg width="1620" height="2841" viewBox="0 0 1620 2841" fill="none" xmlns="http://www.w3.org/2000/svg">
<g opacity="0.4">
<path d="M174.66 0C174.66 51.5033 35.8999 230.311 35.8999 715.458C35.8999 1274.3 392.9 1545.41 392.9 1893.99C392.9 2242.58 171.78 2535.55 171.78 2840" stroke="#E6DDFA"/>
<path d="M233.07 0C233.07 51.5033 94.3101 230.311 94.3101 715.458C94.3101 1274.3 451.31 1545.41 451.31 1893.99C451.31 2242.58 230.18 2535.55 230.18 2840" stroke="#E6DDFA"/>
<path d="M291.48 0C291.48 51.5033 152.72 230.311 152.72 715.458C152.72 1274.3 509.72 1545.41 509.72 1893.99C509.72 2242.58 288.59 2535.55 288.59 2840" stroke="#E6DDFA"/>
<path d="M349.89 0C349.89 51.5033 211.12 230.311 211.12 715.458C211.12 1274.3 568.12 1545.41 568.12 1893.99C568.12 2242.58 347 2535.55 347 2840" stroke="#E6DDFA"/>
<path d="M408.3 0C408.3 51.5033 269.53 230.311 269.53 715.458C269.53 1274.3 626.53 1545.41 626.53 1893.99C626.53 2242.58 405.41 2535.55 405.41 2840" stroke="#E6DDFA"/>
<path d="M466.71 0C466.71 51.5033 327.94 230.311 327.94 715.458C327.94 1274.3 684.94 1545.41 684.94 1893.99C684.94 2242.58 463.78 2535.55 463.78 2840" stroke="#E6DDFA"/>
<path d="M525.12 0C525.12 51.5033 386.35 230.311 386.35 715.458C386.35 1274.3 743.35 1545.41 743.35 1893.99C743.35 2242.58 522.23 2535.55 522.23 2840" stroke="#E6DDFA"/>
<path d="M583.53 0C583.53 51.5033 444.78 230.311 444.78 715.458C444.78 1274.3 801.78 1545.41 801.78 1893.99C801.78 2242.58 580.64 2535.55 580.64 2840" stroke="#E6DDFA"/>
<path d="M641.93 0C641.93 51.5033 503.17 230.311 503.17 715.458C503.17 1274.3 860.17 1545.41 860.17 1893.99C860.17 2242.58 639.05 2535.55 639.05 2840" stroke="#E6DDFA"/>
<path d="M700.34 0C700.34 51.5033 561.58 230.311 561.58 715.458C561.58 1274.3 918.58 1545.41 918.58 1893.99C918.58 2242.58 697.46 2535.55 697.46 2840" stroke="#E6DDFA"/>
<path d="M758.78 0C758.78 51.5033 620.02 230.311 620.02 715.458C620.02 1274.3 977.02 1545.41 977.02 1893.99C977.02 2242.58 755.87 2535.55 755.87 2840" stroke="#E6DDFA"/>
<path d="M817.16 0C817.16 51.5033 678.4 230.311 678.4 715.458C678.4 1274.3 1035.4 1545.41 1035.4 1893.99C1035.4 2242.58 814.27 2535.55 814.27 2840" stroke="#E6DDFA"/>
<path d="M875.57 0C875.57 51.5033 736.78 230.311 736.78 715.458C736.78 1274.3 1093.78 1545.41 1093.78 1893.99C1093.78 2242.58 872.68 2535.55 872.68 2840" stroke="#E6DDFA"/>
<path d="M933.98 0C933.98 51.5033 795.21 230.311 795.21 715.458C795.21 1274.3 1152.21 1545.41 1152.21 1893.99C1152.21 2242.58 931.09 2535.55 931.09 2840" stroke="#E6DDFA"/>
<path d="M992.39 0C992.39 51.5033 853.62 230.311 853.62 715.458C853.62 1274.3 1210.62 1545.41 1210.62 1893.99C1210.62 2242.58 989.5 2535.55 989.5 2840" stroke="#E6DDFA"/>
<path d="M1050.78 0C1050.78 51.5033 912.01 230.311 912.01 715.458C912.01 1274.3 1269.01 1545.41 1269.01 1893.99C1269.01 2242.58 1047.91 2535.55 1047.91 2840" stroke="#E6DDFA"/>
<path d="M1109.21 0C1109.21 51.5033 970.44 230.311 970.44 715.458C970.44 1274.3 1327.44 1545.41 1327.44 1893.99C1327.44 2242.58 1106.32 2535.55 1106.32 2840" stroke="#E6DDFA"/>
<path d="M1167.62 0C1167.62 51.5033 1028.85 230.311 1028.85 715.458C1028.85 1274.3 1385.85 1545.41 1385.85 1893.99C1385.85 2242.58 1164.78 2535.55 1164.78 2840" stroke="#E6DDFA"/>
<path d="M1226.03 0C1226.03 51.5033 1087.26 230.311 1087.26 715.458C1087.26 1274.3 1444.26 1545.41 1444.26 1893.99C1444.26 2242.58 1223.14 2535.55 1223.14 2840" stroke="#E6DDFA"/>
<path d="M1284.43 0C1284.43 51.5033 1145.67 230.311 1145.67 715.458C1145.67 1274.3 1502.67 1545.41 1502.67 1893.99C1502.67 2242.58 1281.55 2535.55 1281.55 2840" stroke="#E6DDFA"/>
<path d="M1342.84 0C1342.84 51.5033 1204.08 230.311 1204.08 715.458C1204.08 1274.3 1561.08 1545.41 1561.08 1893.99C1561.08 2242.58 1339.96 2535.55 1339.96 2840" stroke="#E6DDFA"/>
<path d="M1401.25 0C1401.25 51.5033 1262.49 230.311 1262.49 715.458C1262.49 1274.3 1619.49 1545.41 1619.49 1893.99C1619.49 2242.58 1398.37 2535.55 1398.37 2840" stroke="#E6DDFA"/>
<path d="M1 39.9302C105.13 -15.0719 480.78 92.7577 700.24 175.062C1090.95 321.562 1268.08 -15.5025 1567.9 17.2253" stroke="#E6DDFA"/>
<path d="M1 165.06C105.13 110.015 480.78 217.898 700.24 300.191C1090.95 446.702 1268.08 109.638 1567.9 142.355" stroke="#E6DDFA"/>
<path d="M1 290.201C105.13 235.145 480.78 343.029 700.24 425.333C1090.95 571.833 1268.08 234.779 1567.9 267.496" stroke="#E6DDFA"/>
<path d="M1 415.331C105.13 360.286 480.78 468.169 700.24 550.463C1090.95 696.973 1268.08 359.909 1567.9 392.626" stroke="#E6DDFA"/>
<path d="M1 540.44C105.13 485.416 480.78 593.3 700.24 675.604C1090.95 822.104 1268.08 485.05 1567.9 517.767" stroke="#E6DDFA"/>
<path d="M1 665.613C105.13 610.557 480.78 718.44 700.24 800.744C1090.95 947.244 1268.08 610.191 1567.9 642.897" stroke="#E6DDFA"/>
<path d="M1 790.743C105.13 735.687 480.78 843.57 700.24 925.853C1090.95 1072.35 1268.08 735.299 1567.9 768.016" stroke="#E6DDFA"/>
<path d="M1 915.884C105.13 860.828 480.78 968.711 700.24 1051.02C1090.95 1197.52 1268.08 860.462 1567.9 893.168" stroke="#E6DDFA"/>
<path d="M1 1041.05C105.13 985.958 480.78 1093.8 700.24 1176.15C1090.95 1322.65 1268.08 985.592 1567.9 1018.31" stroke="#E6DDFA"/>
<path d="M1 1166.15C105.13 1111.1 480.74 1218.98 700.24 1301.29C1090.95 1447.79 1268.08 1110.73 1567.9 1143.44" stroke="#E6DDFA"/>
<path d="M1 1291.28C105.13 1236.24 480.78 1344.12 700.24 1426.46C1090.95 1572.96 1268.08 1235.91 1567.9 1268.62" stroke="#E6DDFA"/>
<path d="M1 1416.43C105.13 1361.37 480.74 1469.25 700.24 1551.56C1090.95 1698.06 1268.08 1361 1567.9 1393.71" stroke="#E6DDFA"/>
<path d="M1 1541.56C105.13 1486.51 480.78 1594.41 700.24 1676.69C1090.95 1823.2 1268.08 1486.13 1567.9 1518.85" stroke="#E6DDFA"/>
<path d="M1 1666.7C105.13 1611.63 480.78 1719.52 700.24 1801.83C1090.95 1948.33 1268.08 1611.27 1567.9 1643.98" stroke="#E6DDFA"/>
<path d="M1 1791.83C105.13 1736.78 480.74 1844.66 700.24 1926.96C1090.95 2073.47 1268.08 1736.4 1567.9 1769.12" stroke="#E6DDFA"/>
<path d="M1 1916.97C105.13 1861.91 480.74 1969.8 700.24 2052.1C1090.95 2198.6 1268.08 1861.55 1567.9 1894.26" stroke="#E6DDFA"/>
<path d="M1 2042.11C105.13 1987.05 480.74 2094.94 700.24 2177.24C1090.95 2323.74 1268.08 1986.69 1567.9 2019.39" stroke="#E6DDFA"/>
<path d="M1 2167.24C105.13 2112.24 480.78 2220.07 700.24 2302.37C1090.95 2448.87 1268.08 2111.82 1567.9 2144.53" stroke="#E6DDFA"/>
<path d="M1 2292.38C105.13 2237.32 480.74 2345.21 700.24 2427.51C1090.95 2574.01 1268.08 2236.96 1567.9 2269.66" stroke="#E6DDFA"/>
<path d="M1 2417.51C105.13 2362.45 480.74 2470.34 700.24 2552.64C1090.95 2699.14 1268.08 2362.09 1567.9 2394.8" stroke="#E6DDFA"/>
<path d="M1 2542.65C105.13 2487.59 480.74 2595.48 700.24 2677.78C1090.95 2824.28 1268.08 2487.23 1567.9 2519.93" stroke="#E6DDFA"/>
<path d="M1 2667.75C105.13 2612.69 480.74 2720.58 700.24 2802.88C1090.95 2949.38 1268.08 2612.33 1567.9 2645.04" stroke="#E6DDFA"/>
</g>
</svg>
