<svg width="1620" height="2639" viewBox="0 0 1620 2639" fill="none" xmlns="http://www.w3.org/2000/svg">
<path d="M174.66 0C174.66 47.84 35.9004 213.93 35.9004 664.57C35.9004 1183.66 392.9 1435.49 392.9 1759.28C392.9 2083.07 171.78 2355.2 171.78 2638" stroke="#9D78EB"/>
<path d="M233.07 0C233.07 47.84 94.3096 213.93 94.3096 664.57C94.3096 1183.66 451.31 1435.49 451.31 1759.28C451.31 2083.07 230.18 2355.2 230.18 2638" stroke="#9D78EB"/>
<path d="M291.48 0C291.48 47.84 152.72 213.93 152.72 664.57C152.72 1183.66 509.72 1435.49 509.72 1759.28C509.72 2083.07 288.59 2355.2 288.59 2638" stroke="#9D78EB"/>
<path d="M349.89 0C349.89 47.84 211.12 213.93 211.12 664.57C211.12 1183.66 568.12 1435.49 568.12 1759.28C568.12 2083.07 347 2355.2 347 2638" stroke="#9D78EB"/>
<path d="M408.3 0C408.3 47.84 269.53 213.93 269.53 664.57C269.53 1183.66 626.53 1435.49 626.53 1759.28C626.53 2083.07 405.41 2355.2 405.41 2638" stroke="#9D78EB"/>
<path d="M466.71 0C466.71 47.84 327.94 213.93 327.94 664.57C327.94 1183.66 684.94 1435.49 684.94 1759.28C684.94 2083.07 463.78 2355.2 463.78 2638" stroke="#9D78EB"/>
<path d="M525.12 0C525.12 47.84 386.35 213.93 386.35 664.57C386.35 1183.66 743.35 1435.49 743.35 1759.28C743.35 2083.07 522.23 2355.2 522.23 2638" stroke="#9D78EB"/>
<path d="M583.53 0C583.53 47.84 444.78 213.93 444.78 664.57C444.78 1183.66 801.78 1435.49 801.78 1759.28C801.78 2083.07 580.64 2355.2 580.64 2638" stroke="#9D78EB"/>
<path d="M641.93 0C641.93 47.84 503.17 213.93 503.17 664.57C503.17 1183.66 860.17 1435.49 860.17 1759.28C860.17 2083.07 639.05 2355.2 639.05 2638" stroke="#9D78EB"/>
<path d="M700.34 0C700.34 47.84 561.58 213.93 561.58 664.57C561.58 1183.66 918.58 1435.49 918.58 1759.28C918.58 2083.07 697.46 2355.2 697.46 2638" stroke="#9D78EB"/>
<path d="M758.78 0C758.78 47.84 620.02 213.93 620.02 664.57C620.02 1183.66 977.02 1435.49 977.02 1759.28C977.02 2083.07 755.87 2355.2 755.87 2638" stroke="#9D78EB"/>
<path d="M817.16 0C817.16 47.84 678.4 213.93 678.4 664.57C678.4 1183.66 1035.4 1435.49 1035.4 1759.28C1035.4 2083.07 814.27 2355.2 814.27 2638" stroke="#9D78EB"/>
<path d="M875.57 0C875.57 47.84 736.78 213.93 736.78 664.57C736.78 1183.66 1093.78 1435.49 1093.78 1759.28C1093.78 2083.07 872.68 2355.2 872.68 2638" stroke="#9D78EB"/>
<path d="M933.98 0C933.98 47.84 795.21 213.93 795.21 664.57C795.21 1183.66 1152.21 1435.49 1152.21 1759.28C1152.21 2083.07 931.09 2355.2 931.09 2638" stroke="#9D78EB"/>
<path d="M992.39 0C992.39 47.84 853.62 213.93 853.62 664.57C853.62 1183.66 1210.62 1435.49 1210.62 1759.28C1210.62 2083.07 989.5 2355.2 989.5 2638" stroke="#9D78EB"/>
<path d="M1050.78 0C1050.78 47.84 912.01 213.93 912.01 664.57C912.01 1183.66 1269.01 1435.49 1269.01 1759.28C1269.01 2083.07 1047.91 2355.2 1047.91 2638" stroke="#9D78EB"/>
<path d="M1109.21 0C1109.21 47.84 970.44 213.93 970.44 664.57C970.44 1183.66 1327.44 1435.49 1327.44 1759.28C1327.44 2083.07 1106.32 2355.2 1106.32 2638" stroke="#9D78EB"/>
<path d="M1167.62 0C1167.62 47.84 1028.85 213.93 1028.85 664.57C1028.85 1183.66 1385.85 1435.49 1385.85 1759.28C1385.85 2083.07 1164.78 2355.2 1164.78 2638" stroke="#9D78EB"/>
<path d="M1226.03 0C1226.03 47.84 1087.26 213.93 1087.26 664.57C1087.26 1183.66 1444.26 1435.49 1444.26 1759.28C1444.26 2083.07 1223.14 2355.2 1223.14 2638" stroke="#9D78EB"/>
<path d="M1284.43 0C1284.43 47.84 1145.67 213.93 1145.67 664.57C1145.67 1183.66 1502.67 1435.49 1502.67 1759.28C1502.67 2083.07 1281.55 2355.2 1281.55 2638" stroke="#9D78EB"/>
<path d="M1342.84 0C1342.84 47.84 1204.08 213.93 1204.08 664.57C1204.08 1183.66 1561.08 1435.49 1561.08 1759.28C1561.08 2083.07 1339.96 2355.2 1339.96 2638" stroke="#9D78EB"/>
<path d="M1401.25 0C1401.25 47.84 1262.49 213.93 1262.49 664.57C1262.49 1183.66 1619.49 1435.49 1619.49 1759.28C1619.49 2083.07 1398.37 2355.2 1398.37 2638" stroke="#9D78EB"/>
<path d="M1 37.0899C105.13 -14.0001 480.78 86.1599 700.24 162.61C1090.95 298.69 1268.08 -14.4001 1567.9 15.9999" stroke="#9D78EB"/>
<path d="M1 153.32C105.13 102.19 480.78 202.4 700.24 278.84C1090.95 414.93 1268.08 101.84 1567.9 132.23" stroke="#9D78EB"/>
<path d="M1 269.56C105.13 218.42 480.78 318.63 700.24 395.08C1090.95 531.16 1268.08 218.08 1567.9 248.47" stroke="#9D78EB"/>
<path d="M1 385.79C105.13 334.66 480.78 434.87 700.24 511.31C1090.95 647.4 1268.08 334.31 1567.9 364.7" stroke="#9D78EB"/>
<path d="M1 502C105.13 450.89 480.78 551.1 700.24 627.55C1090.95 763.63 1268.08 450.55 1567.9 480.94" stroke="#9D78EB"/>
<path d="M1 618.27C105.13 567.13 480.78 667.34 700.24 743.79C1090.95 879.87 1268.08 566.79 1567.9 597.17" stroke="#9D78EB"/>
<path d="M1 734.5C105.13 683.36 480.78 783.57 700.24 860C1090.95 996.08 1268.08 683 1567.9 713.39" stroke="#9D78EB"/>
<path d="M1 850.74C105.13 799.6 480.78 899.81 700.24 976.26C1090.95 1112.34 1268.08 799.26 1567.9 829.64" stroke="#9D78EB"/>
<path d="M1 967C105.13 915.83 480.78 1016 700.24 1092.49C1090.95 1228.57 1268.08 915.49 1567.9 945.88" stroke="#9D78EB"/>
<path d="M1 1083.21C105.13 1032.07 480.74 1132.28 700.24 1208.73C1090.95 1344.81 1268.08 1031.73 1567.9 1062.11" stroke="#9D78EB"/>
<path d="M1 1199.44C105.13 1148.31 480.78 1248.52 700.24 1325C1090.95 1461.08 1268.08 1148 1567.9 1178.39" stroke="#9D78EB"/>
<path d="M1 1315.68C105.13 1264.54 480.74 1364.75 700.24 1441.2C1090.95 1577.28 1268.08 1264.2 1567.9 1294.58" stroke="#9D78EB"/>
<path d="M1 1431.91C105.13 1380.78 480.78 1481 700.24 1557.43C1090.95 1693.52 1268.08 1380.43 1567.9 1410.82" stroke="#9D78EB"/>
<path d="M1 1548.15C105.13 1497 480.78 1597.22 700.24 1673.67C1090.95 1809.75 1268.08 1496.67 1567.9 1527.05" stroke="#9D78EB"/>
<path d="M1 1664.38C105.13 1613.25 480.74 1713.46 700.24 1789.9C1090.95 1925.99 1268.08 1612.9 1567.9 1643.29" stroke="#9D78EB"/>
<path d="M1 1780.62C105.13 1729.48 480.74 1829.69 700.24 1906.14C1090.95 2042.22 1268.08 1729.14 1567.9 1759.53" stroke="#9D78EB"/>
<path d="M1 1896.86C105.13 1845.72 480.74 1945.93 700.24 2022.38C1090.95 2158.46 1268.08 1845.38 1567.9 1875.76" stroke="#9D78EB"/>
<path d="M1 2013.09C105.13 1962 480.78 2062.16 700.24 2138.61C1090.95 2274.69 1268.08 1961.61 1567.9 1992" stroke="#9D78EB"/>
<path d="M1 2129.33C105.13 2078.19 480.74 2178.4 700.24 2254.85C1090.95 2390.93 1268.08 2077.85 1567.9 2108.23" stroke="#9D78EB"/>
<path d="M1 2245.56C105.13 2194.42 480.74 2294.63 700.24 2371.08C1090.95 2507.16 1268.08 2194.08 1567.9 2224.47" stroke="#9D78EB"/>
<path d="M1 2361.8C105.13 2310.66 480.74 2410.87 700.24 2487.32C1090.95 2623.4 1268.08 2310.32 1567.9 2340.7" stroke="#9D78EB"/>
<path d="M1 2478C105.13 2426.86 480.74 2527.07 700.24 2603.52C1090.95 2739.6 1268.08 2426.52 1567.9 2456.91" stroke="#9D78EB"/>
</svg>
