<svg width="1440" height="1008" viewBox="0 0 1440 1008" fill="none" xmlns="http://www.w3.org/2000/svg">
<g clip-path="url(#clip0_149:545)">
<path d="M141 0V1024" stroke="#FED531" stroke-opacity="0.2" stroke-width="2"/>
<path d="M430 0V1024" stroke="#FED531" stroke-opacity="0.2" stroke-width="2"/>
<path d="M720 0V1024" stroke="#FED531" stroke-opacity="0.2" stroke-width="2"/>
<path d="M1010 0V1024" stroke="#FED531" stroke-opacity="0.2" stroke-width="2"/>
<path d="M1299 0V1024" stroke="#FED531" stroke-opacity="0.2" stroke-width="2"/>
<path d="M1440 144L4.23193e-05 144" stroke="#FED531" stroke-opacity="0.2" stroke-width="2"/>
<path d="M1440 432L4.23193e-05 432" stroke="#FED531" stroke-opacity="0.2" stroke-width="2"/>
<path d="M1440 720L4.23193e-05 720" stroke="#FED531" stroke-opacity="0.2" stroke-width="2"/>
<path d="M1440 288L4.23193e-05 288" stroke="#FED531" stroke-opacity="0.2" stroke-width="2"/>
<path d="M1440 576L4.23193e-05 576" stroke="#FED531" stroke-opacity="0.2" stroke-width="2"/>
<path d="M1440 864L4.23193e-05 864" stroke="#FED531" stroke-opacity="0.2" stroke-width="2"/>
<path d="M1444 1008L4.00004 1008" stroke="#FED531" stroke-opacity="0.2" stroke-width="2"/>
<path d="M285 0V1024" stroke="#FED531" stroke-opacity="0.2" stroke-width="2"/>
<path d="M575 0V1024" stroke="#FED531" stroke-opacity="0.2" stroke-width="2"/>
<path d="M865 0V1024" stroke="#FED531" stroke-opacity="0.2" stroke-width="2"/>
<path d="M1155 0V1024" stroke="#FED531" stroke-opacity="0.2" stroke-width="2"/>
</g>
<defs>
<clipPath id="clip0_149:545">
<rect width="1440" height="1008" fill="white"/>
</clipPath>
</defs>
</svg>
