<svg width="345" height="246" viewBox="0 0 345 246" fill="none" xmlns="http://www.w3.org/2000/svg">
<path d="M313.824 180.048C310.917 187.215 304.647 193.066 294.985 197.266C285.294 201.48 272.507 203.875 257.346 204.21C227.043 204.879 188.253 197.296 148.298 181.094C108.343 164.891 75.2275 143.315 53.9497 121.728C43.3043 110.929 35.7968 100.304 31.7775 90.5308C27.77 80.7868 27.3461 72.2217 30.2525 65.0547C33.1588 57.8877 39.4285 52.037 49.0909 47.8363C58.7819 43.6231 71.5693 41.2281 86.7299 40.8932C117.033 40.2239 155.823 47.8065 195.778 64.0092C235.733 80.2118 268.849 101.788 290.126 123.374C300.772 134.174 308.279 144.799 312.299 154.572C316.306 164.316 316.73 172.881 313.824 180.048Z" fill="#0000FF" stroke="#EE6F2E" stroke-width="10"/>
<path d="M122.412 114.656L130.809 93.9492C131.245 92.874 131.517 91.9544 131.625 91.1904C131.781 90.4057 131.871 89.7354 131.895 89.1795C131.918 88.6236 131.907 88.1544 131.86 87.7719C131.862 87.3688 131.926 87.0112 132.052 86.699C132.376 85.9013 133.023 85.6993 133.994 86.0931L142.735 89.6376C144.989 90.5518 146.923 91.76 148.535 93.2619C150.162 94.7292 151.376 96.5143 152.18 98.6171C152.997 100.685 153.333 103.043 153.188 105.69C153.044 108.338 152.317 111.274 151.009 114.5C149.758 117.587 148.276 120.096 146.564 122.027C144.852 123.958 142.982 125.381 140.955 126.295C138.943 127.176 136.835 127.593 134.632 127.548C132.443 127.468 130.221 126.971 127.966 126.057L119.226 122.512C118.948 122.4 118.727 122.249 118.561 122.061C118.415 121.921 118.291 121.729 118.188 121.485C118.12 121.256 118.142 121.002 118.254 120.725C118.381 120.413 118.577 120.129 118.842 119.873C119.156 119.596 119.499 119.25 119.869 118.835C120.239 118.42 120.634 117.893 121.054 117.256C121.523 116.598 121.976 115.731 122.412 114.656ZM127.674 123.939L128.663 124.34C129.252 124.579 130.104 124.621 131.216 124.466C132.378 124.291 133.645 123.755 135.019 122.858C136.392 121.961 137.813 120.599 139.281 118.771C140.75 116.943 142.11 114.485 143.361 111.398C144.67 108.173 145.43 105.351 145.643 102.933C145.891 100.53 145.824 98.5035 145.443 96.8544C145.096 95.2195 144.577 93.959 143.886 93.073C143.21 92.1524 142.594 91.5795 142.039 91.3545L141.05 90.9536C140.565 90.7567 140.072 91.2235 139.574 92.3541C139.089 93.4499 138.474 94.917 137.728 96.7553L129.331 117.462C128.586 119.3 127.998 120.799 127.569 121.957C127.153 123.081 127.189 123.742 127.674 123.939Z" fill="#EE6F2E"/>
<path d="M174.698 101.993C176.952 102.908 178.774 104.192 180.163 105.845C181.587 107.513 182.569 109.426 183.107 111.583C183.681 113.754 183.833 116.118 183.564 118.674C183.309 121.196 182.639 123.792 181.556 126.463C180.473 129.134 179.131 131.498 177.53 133.554C175.942 135.576 174.18 137.184 172.242 138.377C170.353 139.55 168.31 140.256 166.112 140.495C163.964 140.715 161.762 140.367 159.507 139.453C157.253 138.539 155.414 137.248 153.99 135.58C152.615 133.891 151.64 131.961 151.067 129.79C150.542 127.598 150.414 125.224 150.684 122.668C150.967 120.077 151.65 117.446 152.733 114.775C153.816 112.104 155.145 109.775 156.718 107.788C158.305 105.766 160.043 104.169 161.932 102.996C163.856 101.838 165.892 101.149 168.041 100.93C170.224 100.725 172.443 101.079 174.698 101.993ZM160.381 117.876C159.298 120.547 158.519 123.018 158.042 125.288C157.6 127.573 157.389 129.587 157.409 131.332C157.477 133.056 157.748 134.478 158.223 135.6C158.746 136.7 159.406 137.412 160.204 137.736C161.001 138.059 161.954 138.001 163.061 137.562C164.217 137.102 165.402 136.27 166.618 135.066C167.881 133.842 169.133 132.249 170.373 130.288C171.647 128.341 172.825 126.032 173.908 123.362C174.991 120.691 175.747 118.231 176.174 115.981C176.651 113.71 176.848 111.73 176.766 110.041C176.732 108.331 176.454 106.926 175.931 105.825C175.442 104.739 174.799 104.034 174.002 103.71C173.204 103.387 172.234 103.438 171.092 103.863C169.985 104.303 168.807 105.117 167.557 106.307C166.356 107.476 165.118 109.034 163.844 110.981C162.619 112.907 161.464 115.206 160.381 117.876Z" fill="#EE6F2E"/>
<path d="M191.915 109.581L198.835 112.387C199.112 112.5 199.334 112.65 199.5 112.839C199.645 112.978 199.752 113.163 199.82 113.393C199.938 113.602 199.933 113.862 199.806 114.174C199.68 114.487 199.459 114.781 199.145 115.058C198.88 115.313 198.562 115.649 198.192 116.064C197.821 116.48 197.402 117.016 196.933 117.674C196.513 118.312 196.085 119.168 195.649 120.243L192.4 128.255C193.964 128.284 195.473 128.048 196.928 127.547C198.418 127.061 199.776 126.4 201.003 125.565C202.265 124.744 203.416 123.797 204.457 122.725C205.512 121.618 206.404 120.465 207.132 119.266C207.251 119.072 207.301 118.849 207.281 118.599C207.296 118.363 207.287 118.137 207.253 117.921C207.219 117.706 207.179 117.507 207.131 117.326C207.132 117.125 207.16 116.955 207.217 116.816C207.456 116.226 208.165 116.171 209.344 116.649L212.986 118.126C213.333 118.266 213.614 118.421 213.828 118.588C214.043 118.756 214.216 118.927 214.347 119.102C214.478 119.276 214.495 119.485 214.396 119.728C214.256 120.074 214.022 120.303 213.695 120.412C213.402 120.536 213.078 120.788 212.722 121.169C211.826 122.381 210.733 123.533 209.442 124.625C208.2 125.696 206.822 126.652 205.31 127.493C203.812 128.299 202.21 128.962 200.505 129.482C198.8 130.002 197.043 130.3 195.236 130.375C196.421 131.138 197.362 132.105 198.058 133.276C198.789 134.461 199.343 135.736 199.718 137.1C200.108 138.429 200.341 139.796 200.418 141.2C200.544 142.584 200.579 143.891 200.525 145.121C200.519 146.33 200.469 147.4 200.374 148.331C200.328 149.241 200.304 149.898 200.302 150.301C200.321 150.753 200.378 151.16 200.473 151.522C200.618 151.863 200.752 152.18 200.876 152.472C200.999 152.765 201.081 153.061 201.122 153.36C201.211 153.638 201.185 153.951 201.044 154.297C200.847 154.783 200.557 155.049 200.175 155.096C199.807 155.108 199.414 155.03 198.998 154.861L192.443 152.203C191.992 152.02 191.729 151.671 191.655 151.157C191.595 150.607 191.668 149.829 191.875 148.822C192.117 147.628 192.385 146.121 192.678 144.301C193.006 142.496 193.217 140.683 193.309 138.862C193.401 137.042 193.29 135.422 192.977 134.003C192.713 132.563 192.113 131.653 191.176 131.273L187.252 140.95C186.816 142.025 186.52 142.955 186.363 143.74C186.255 144.504 186.189 145.164 186.166 145.72C186.142 146.276 186.13 146.755 186.128 147.158C186.175 147.541 186.135 147.888 186.008 148.2C185.685 148.998 185.037 149.2 184.066 148.806L177.147 146C176.869 145.888 176.647 145.737 176.482 145.549C176.336 145.409 176.212 145.217 176.109 144.973C176.041 144.744 176.063 144.49 176.175 144.213C176.302 143.901 176.498 143.616 176.763 143.361C177.077 143.084 177.419 142.738 177.79 142.323C178.16 141.908 178.555 141.381 178.975 140.744C179.444 140.086 179.896 139.219 180.332 138.144L188.729 117.437C189.165 116.362 189.437 115.442 189.545 114.678C189.702 113.894 189.792 113.223 189.815 112.667C189.839 112.112 189.827 111.642 189.78 111.26C189.782 110.857 189.847 110.499 189.973 110.187C190.297 109.389 190.944 109.187 191.915 109.581Z" fill="#EE6F2E"/>
<path d="M206.752 148.858L215.149 128.151C215.585 127.076 215.857 126.156 215.965 125.392C216.122 124.607 216.212 123.937 216.235 123.381C216.259 122.825 216.247 122.356 216.2 121.974C216.202 121.571 216.267 121.213 216.393 120.901C216.478 120.693 216.631 120.513 216.854 120.361C216.98 120.25 217.151 120.178 217.366 120.144C217.631 120.09 217.954 120.14 218.335 120.295L225.255 123.101C225.532 123.213 225.754 123.364 225.92 123.552C226.065 123.692 226.172 123.877 226.24 124.106C226.358 124.316 226.353 124.576 226.226 124.888C226.1 125.2 225.879 125.495 225.565 125.771C225.3 126.027 224.982 126.363 224.612 126.778C224.241 127.193 223.822 127.73 223.353 128.388C222.933 129.025 222.505 129.882 222.069 130.957L213.672 151.664C213.236 152.739 212.94 153.669 212.783 154.454C212.675 155.218 212.609 155.878 212.586 156.433C212.562 156.989 212.55 157.469 212.548 157.872C212.595 158.255 212.555 158.602 212.428 158.914C212.344 159.122 212.214 159.292 212.04 159.423C211.866 159.554 211.646 159.647 211.382 159.701C211.166 159.735 210.868 159.675 210.486 159.52L203.567 156.714C203.289 156.601 203.067 156.451 202.902 156.262C202.756 156.123 202.632 155.931 202.529 155.687C202.461 155.458 202.483 155.204 202.595 154.926C202.722 154.614 202.918 154.33 203.183 154.074C203.497 153.798 203.839 153.452 204.21 153.037C204.58 152.621 204.975 152.095 205.395 151.458C205.864 150.8 206.316 149.933 206.752 148.858Z" fill="#EE6F2E"/>
</svg>
