<svg width="20" height="21" viewBox="0 0 20 21" fill="none" xmlns="http://www.w3.org/2000/svg">
<g clip-path="url(#clip0_196:639)">
<path d="M8.73626 4.00471C9.28119 3.87044 9.8391 3.80332 10.3988 3.80471C15.9404 3.80471 19.1071 10.4714 19.1071 10.4714C18.6265 11.4177 18.0534 12.3087 17.3971 13.1297M12.0771 12.238C11.8597 12.4837 11.5975 12.6807 11.3061 12.8173C11.0148 12.954 10.7003 13.0274 10.3814 13.0333C10.0625 13.0393 9.74577 12.9775 9.45004 12.8518C9.15431 12.726 8.88567 12.5389 8.66014 12.3015C8.43461 12.0641 8.25682 11.7813 8.13737 11.47C8.01792 11.1587 7.95926 10.8253 7.96489 10.4896C7.97052 10.154 8.04032 9.82291 8.17012 9.51625C8.29993 9.20958 8.48709 8.93358 8.72043 8.70471M15.1013 15.4214C13.748 16.5072 12.1001 17.1088 10.3988 17.138C4.8571 17.138 1.69043 10.4714 1.69043 10.4714C2.67518 8.53962 4.041 6.85188 5.69626 5.52138L15.1013 15.4214Z" stroke="#FBFBFB" stroke-width="2" stroke-linecap="round" stroke-linejoin="round"/>
<path d="M1.69043 1.30469L19.1071 19.638" stroke="#FBFBFB" stroke-width="2" stroke-linecap="round" stroke-linejoin="round"/>
</g>
<defs>
<clipPath id="clip0_196:639">
<rect width="19" height="20" fill="white" transform="translate(0.898438 0.47168)"/>
</clipPath>
</defs>
</svg>
