<svg width="123" height="41" viewBox="0 0 123 41" fill="none" xmlns="http://www.w3.org/2000/svg">
<path d="M1.05056 37.3785C1.05056 37.1333 1.05372 36.6387 1.05719 35.9464C1.07521 32.2543 1.11755 23.6073 1.05024 21.0916C1.00379 19.3486 1.33907 17.8422 1.62853 16.8857C1.96824 15.7623 2.44762 14.7423 2.91088 14.1561C5.89809 10.6438 7.16748 7.34258 8.09338 4.93184C9.0098 2.5489 9.56281 1.11047 11.0607 1.11047C11.1372 1.11047 11.2171 1.11427 11.2983 1.12185C12.4151 1.2255 13.1593 1.77628 13.5104 2.75935C13.912 3.88304 13.7869 5.52781 13.1583 7.3903C12.6034 9.03349 11.7401 10.5683 10.9052 11.3924L10.5232 11.7697L11.0231 11.5744C12.1607 11.132 13.2594 10.9051 14.2928 10.9051C16.6802 10.9051 18.2407 12.0696 19.207 12.9455C20.2552 13.8957 20.8392 15.1541 20.7687 16.3116C20.7178 17.1512 20.3263 17.8514 19.6415 18.3365C19.407 18.502 19.1204 18.5861 18.7899 18.5861C17.2399 18.5861 15.0414 16.7407 14.4088 15.7756C14.3933 15.7523 14.3723 15.7331 14.3477 15.7199C14.323 15.7066 14.2955 15.6996 14.2675 15.6995C14.242 15.6992 14.2168 15.7054 14.1943 15.7173C14.1717 15.7292 14.1525 15.7465 14.1383 15.7677C13.1119 17.3114 11.4838 18.6348 10.1806 18.9862C10.1492 18.9952 10.1223 19.0156 10.1051 19.0434C10.0879 19.0712 10.0817 19.1044 10.0877 19.1366C10.1294 19.3944 10.0773 19.614 10.0049 19.9177C9.916 20.2632 9.85805 20.6158 9.83173 20.9716C9.82962 21.0009 9.83678 21.0301 9.85221 21.0551C9.86763 21.0801 9.89054 21.0997 9.91768 21.1109C10.5497 21.3742 11.5701 22.2991 11.7891 23.7688C11.7922 23.7925 11.8021 23.8148 11.8174 23.8331C11.8327 23.8515 11.8529 23.8651 11.8757 23.8724C11.8985 23.8797 11.9228 23.8804 11.946 23.8744C11.9691 23.8685 11.9901 23.856 12.0065 23.8386C12.4489 23.3811 14.4786 22.3044 15.8393 22.3044C16.0382 22.3005 16.2363 22.3298 16.4255 22.3913C16.4446 22.3981 16.465 22.4006 16.4851 22.3987C16.5053 22.3968 16.5248 22.3905 16.5424 22.3803C16.5599 22.3701 16.575 22.3563 16.5866 22.3397C16.5982 22.3231 16.6061 22.3042 16.6097 22.2842C16.811 21.1624 17.7158 20.162 18.4401 19.5205C19.3881 18.68 20.4309 18.0909 21.0332 17.8419C21.2191 17.7671 21.418 17.7296 21.6184 17.7316C22.1556 17.7316 22.7027 17.9658 23.1198 18.3741C23.456 18.7033 23.8567 19.2943 23.8567 20.2407C23.8567 21.352 22.9371 22.6107 21.6643 24.3534C21.3166 24.8296 20.9561 25.3222 20.5791 25.861C18.9747 28.1529 15.1814 29.9086 13.3584 30.7523C13.1915 30.8298 13.0424 30.8983 12.9159 30.9584C12.264 31.2668 11.5078 32.1576 11.6067 34.6502C11.6086 34.6982 11.6099 34.7358 11.6099 34.7557V37.3785H1.05056Z" fill="#9D78EB"/>
<path d="M11.0621 1.2212C11.1354 1.2212 11.2119 1.22499 11.2896 1.23194C11.8474 1.28377 12.3122 1.45314 12.6706 1.7328C12.9995 1.99002 13.2476 2.34805 13.4078 2.79676C13.6113 3.36556 13.6758 4.07434 13.6002 4.90289C13.5317 5.65402 13.343 6.50215 13.0551 7.35535C12.787 8.15191 12.4454 8.92183 12.0348 9.65518C11.6432 10.3504 11.2264 10.9223 10.8298 11.3139L10.0657 12.0681L11.0656 11.6776C12.189 11.2386 13.2757 11.0159 14.2951 11.0159C15.3359 11.0123 16.3627 11.2557 17.2912 11.7259C18.1169 12.143 18.7388 12.6685 19.1351 13.0275C19.6426 13.4876 20.0515 14.0371 20.3163 14.616C20.5745 15.1798 20.6936 15.7641 20.6608 16.305C20.6118 17.1099 20.2383 17.7814 19.58 18.2462C19.3645 18.3985 19.0997 18.4756 18.7922 18.4756C17.2786 18.4756 15.125 16.6631 14.5037 15.7151C14.478 15.6766 14.4432 15.6449 14.4025 15.6229C14.3617 15.6008 14.3162 15.5891 14.2699 15.5887C14.2261 15.5885 14.1831 15.5991 14.1445 15.6196C14.1059 15.6401 14.0729 15.6699 14.0487 15.7062C13.5204 16.4963 12.8729 17.1999 12.1292 17.7918C11.4467 18.3334 10.7454 18.7196 10.1542 18.8788C10.0963 18.8949 10.0464 18.932 10.0143 18.9828C9.98227 19.0336 9.97028 19.0946 9.98071 19.1538C10.019 19.3898 9.96902 19.6003 9.89982 19.8919C9.80925 20.2433 9.75024 20.602 9.72349 20.9638C9.71992 21.0161 9.73285 21.0683 9.76045 21.1129C9.78806 21.1575 9.82895 21.1923 9.87738 21.2125C10.4866 21.4653 11.4697 22.3602 11.6821 23.7847C11.6902 23.8412 11.7186 23.8929 11.7618 23.9302C11.8051 23.9675 11.8604 23.9879 11.9175 23.9876C11.9495 23.9875 11.9811 23.981 12.0105 23.9686C12.0399 23.9561 12.0665 23.9378 12.0888 23.9149C12.2819 23.7142 12.87 23.336 13.6205 23.001C14.468 22.6218 15.2567 22.4142 15.8417 22.4145C16.0281 22.4107 16.2138 22.438 16.3912 22.4954C16.418 22.5046 16.446 22.5093 16.4743 22.5093C16.533 22.5094 16.5899 22.4888 16.635 22.4511C16.68 22.4134 16.7104 22.3611 16.7208 22.3033C16.9164 21.2128 17.805 20.2326 18.5157 19.6028C19.4539 18.7714 20.4822 18.1893 21.0779 17.9435C21.2504 17.8743 21.4349 17.8398 21.6208 17.8417C22.1217 17.8417 22.6538 18.0702 23.0447 18.4526C23.3658 18.7686 23.7485 19.3323 23.7485 20.2402C23.7485 20.7281 23.5589 21.2867 23.1481 21.9977C22.759 22.6718 22.212 23.4197 21.5784 24.2875C21.2308 24.7643 20.87 25.2576 20.492 25.7973C19.8123 26.7684 18.6326 27.7647 16.9863 28.7582C15.6056 29.5915 14.2275 30.2295 13.3155 30.6517C13.1461 30.73 12.9995 30.7977 12.8731 30.858C12.2281 31.1629 11.8025 31.8269 11.6091 32.8311C11.4599 33.5993 11.4906 34.3656 11.502 34.6541C11.5039 34.699 11.5051 34.7375 11.5051 34.7552V37.2674H1.16257C1.16257 36.9982 1.16573 36.5469 1.16889 35.9465C1.1869 32.2538 1.22925 23.6059 1.16194 21.0883C1.1158 19.3598 1.44855 17.8651 1.73549 16.9171C2.07108 15.8073 2.54288 14.8018 2.9973 14.2258C5.99588 10.6999 7.26907 7.38853 8.19876 4.97083C8.65791 3.77604 9.02037 2.83247 9.46278 2.17741C9.91056 1.51634 10.4048 1.2212 11.0621 1.2212ZM11.0621 1C7.89571 1 8.7426 7.13036 2.82571 14.0861C1.94816 15.1956 0.858255 18.0209 0.940416 21.0949C1.02258 24.169 0.940416 36.5055 0.940416 37.4892H11.7229V34.7558C11.7229 34.4759 11.4855 31.7586 12.9654 31.0587C14.4452 30.3587 18.8987 28.4577 20.6721 25.9246C22.4456 23.3916 23.9697 21.6975 23.9697 20.2411C23.9697 18.5458 22.6984 17.6215 21.6208 17.6215C21.406 17.6197 21.1929 17.6599 20.9935 17.74C19.6094 18.311 16.8756 20.189 16.5031 22.2651C16.5019 22.2719 16.4984 22.278 16.4931 22.2824C16.4879 22.2868 16.4812 22.2892 16.4743 22.2891C16.4711 22.2897 16.4678 22.2897 16.4645 22.2891C16.2637 22.2228 16.0531 22.1908 15.8417 22.1943C14.4367 22.1943 12.3871 23.287 11.9292 23.7623C11.9277 23.7639 11.9259 23.7652 11.9239 23.766C11.9219 23.7669 11.9197 23.7673 11.9175 23.7673C11.9135 23.7674 11.9095 23.7659 11.9065 23.7632C11.9035 23.7605 11.9015 23.7568 11.9011 23.7528C11.6704 22.2066 10.5941 21.2722 9.96239 21.0093C9.95662 21.0069 9.95176 21.0027 9.94852 20.9974C9.94528 20.9921 9.94383 20.9858 9.94437 20.9796C10.0098 20.0247 10.2844 19.6442 10.1991 19.1193C10.1977 19.1142 10.1983 19.1088 10.2006 19.104C10.2029 19.0993 10.2069 19.0955 10.2117 19.0934C11.4467 18.7607 13.1164 17.5084 14.2329 15.8295C14.2369 15.8234 14.2424 15.8185 14.2489 15.8151C14.2554 15.8118 14.2626 15.8102 14.2699 15.8105C14.2795 15.8106 14.289 15.813 14.2975 15.8176C14.3059 15.8221 14.3132 15.8287 14.3185 15.8367C14.9524 16.8037 17.1683 18.6971 18.7922 18.6971C19.1294 18.6971 19.441 18.6156 19.7086 18.4273C21.5194 17.1478 21.1414 14.5475 19.2846 12.8641C18.3997 12.0618 16.7853 10.795 14.2961 10.795C13.3278 10.795 12.2275 10.9868 10.9859 11.4719C13.276 9.2112 15.934 1.44113 11.3114 1.01232C11.2264 1.00442 11.1436 1.00063 11.0637 1.00063L11.0621 1Z" fill="black"/>
<path d="M2.19459 15.3024C2.4158 12.9856 1.38846 8.59097 1.70447 7.51026C2.02047 6.42954 3.21182 6.44124 3.55152 7.51026C3.8078 8.31637 2.81997 13.1353 2.19459 15.3024Z" fill="#9D78EB"/>
<path fill-rule="evenodd" clip-rule="evenodd" d="M2.61922 6.79488C2.28751 6.7936 1.94102 7.02634 1.79207 7.53571C1.75609 7.65877 1.73768 7.83575 1.73512 8.06133C1.73258 8.28553 1.7457 8.55182 1.7698 8.85057C1.81506 9.4116 1.89851 10.0809 1.9871 10.7916C1.99289 10.838 1.99871 10.8847 2.00454 10.9315C2.15377 12.13 2.31184 13.434 2.31717 14.5058C2.58585 13.463 2.88444 12.1188 3.11488 10.8794C3.26122 10.0922 3.37979 9.34899 3.44578 8.75309C3.47879 8.45505 3.49849 8.19528 3.50213 7.98603C3.50582 7.77373 3.49264 7.62324 3.46546 7.53774L3.46545 7.53773C3.30508 7.03305 2.95204 6.79616 2.61922 6.79488ZM3.63851 7.48272C3.45918 6.91839 3.0467 6.61493 2.61992 6.61329C2.19203 6.61164 1.78485 6.91341 1.61778 7.48475C1.57476 7.63187 1.55616 7.82863 1.55355 8.05928C1.55092 8.29132 1.56449 8.56376 1.5888 8.86517C1.6344 9.43032 1.71832 10.1035 1.80671 10.8125C1.81257 10.8595 1.81845 10.9067 1.82434 10.954C2.01448 12.481 2.21411 14.1475 2.10467 15.2938L2.28229 15.3276C2.596 14.2405 2.99993 12.491 3.29341 10.9125C3.44016 10.1233 3.55958 9.37518 3.62627 8.77308C3.6596 8.47213 3.67992 8.20624 3.68369 7.98919C3.68741 7.77519 3.6754 7.59875 3.63851 7.48272Z" fill="black"/>
<path d="M2.33252 15.0458C2.80653 12.9918 3.65974 6.48443 3.68345 5.37812C3.70715 4.27181 4.06708 2.48832 5.75929 2.60144C7.4515 2.71457 7.33932 5.49883 7.10453 7.20616C6.88364 8.82091 3.51375 13.6228 2.33252 15.0458Z" fill="#9D78EB"/>
<path fill-rule="evenodd" clip-rule="evenodd" d="M4.17594 3.57512C3.88129 4.12675 3.78612 4.83252 3.7744 5.37991C3.76241 5.93945 3.54223 7.84883 3.26699 9.86867C3.02153 11.67 2.73092 13.5689 2.50207 14.6911C3.12673 13.8991 4.11051 12.5335 5.0025 11.1486C5.51057 10.3597 5.98783 9.56616 6.35153 8.87003C6.71708 8.17034 6.9619 7.58004 7.01475 7.19371L7.01475 7.19365C7.13184 6.34226 7.21696 5.23045 7.06515 4.32077C6.98924 3.86584 6.85532 3.46968 6.64349 3.18228C6.4342 2.89834 6.1476 2.71824 5.75341 2.69189C5.34737 2.66474 5.02678 2.7514 4.77237 2.90903C4.5171 3.06719 4.32264 3.30046 4.17594 3.57512ZM4.67673 2.75467C4.96648 2.57514 5.32546 2.48128 5.76552 2.5107C6.21743 2.54091 6.55139 2.75127 6.78966 3.07454C7.0254 3.39437 7.16605 3.82219 7.24427 4.29088C7.40072 5.22844 7.31236 6.36243 7.19465 7.21838C7.13704 7.63942 6.8778 8.25486 6.51247 8.95412C6.14528 9.65695 5.66483 10.4556 5.15516 11.2469C4.13611 12.8291 2.99617 14.3885 2.40256 15.1036L2.1582 15.398L2.24423 15.0252C2.48015 14.0029 2.81147 11.8666 3.08706 9.84415C3.36286 7.82024 3.58114 5.92279 3.59285 5.37602C3.60482 4.81711 3.70147 4.07798 4.01577 3.48957C4.17353 3.1942 4.38783 2.93366 4.67673 2.75467Z" fill="black"/>
<path d="M2.60791 19.7389C2.60791 17.2719 4.85914 13.8528 10.9021 11.6108Z" fill="#9D78EB"/>
<path fill-rule="evenodd" clip-rule="evenodd" d="M10.9877 11.5793C11.0051 11.6263 10.9812 11.6785 10.9342 11.696C4.9068 13.9322 2.69917 17.3275 2.69917 19.7389C2.69917 19.7891 2.65852 19.8297 2.60837 19.8297C2.55823 19.8297 2.51758 19.7891 2.51758 19.7389C2.51758 17.2164 4.8124 13.7735 10.871 11.5257C10.918 11.5083 10.9703 11.5322 10.9877 11.5793Z" fill="black"/>
<path d="M12.135 37.3784H0.46175C0.267678 37.3784 0.110352 37.5357 0.110352 37.7298V39.5797C0.110352 39.7737 0.267678 39.931 0.46175 39.931H12.135C12.3291 39.931 12.4864 39.7737 12.4864 39.5797V37.7298C12.4864 37.5357 12.3291 37.3784 12.135 37.3784Z" fill="#6F4FC9"/>
<path d="M12.1353 37.4889C12.1991 37.489 12.2603 37.5144 12.3054 37.5596C12.3506 37.6047 12.376 37.6659 12.3761 37.7297V39.5802C12.376 39.644 12.3506 39.7052 12.3054 39.7503C12.2603 39.7954 12.1991 39.8207 12.1353 39.8207H0.461684C0.397905 39.8207 0.336739 39.7954 0.29164 39.7503C0.246541 39.7052 0.221204 39.644 0.221204 39.5802V37.7301C0.221204 37.6662 0.246531 37.6051 0.291621 37.5599C0.336711 37.5148 0.397876 37.4893 0.461684 37.4893H12.1353V37.4889ZM12.1353 37.2681H0.461684C0.339209 37.2682 0.221779 37.3169 0.135205 37.4035C0.0486316 37.4901 -2.865e-08 37.6076 0 37.7301V39.5802C0 39.7027 0.0486418 39.8201 0.135224 39.9067C0.221807 39.9933 0.339238 40.0419 0.461684 40.0419H12.1353C12.2577 40.0419 12.3752 39.9933 12.4618 39.9067C12.5485 39.8201 12.5972 39.7027 12.5973 39.5802V37.7301C12.5972 37.6076 12.5485 37.4901 12.4619 37.4035C12.3752 37.3169 12.2578 37.2682 12.1353 37.2681V37.2681Z" fill="black"/>
<path d="M1.22088 39.119C1.02179 39.119 0.87801 39.119 0.825237 39.0738C0.772464 39.0287 0.756348 38.907 0.756348 38.6545C0.756348 38.4352 0.766776 38.2797 0.819549 38.2342C0.872322 38.1887 1.01705 38.1903 1.22246 38.1903C1.34352 38.1935 1.45856 38.2438 1.54307 38.3305C1.62758 38.4173 1.67487 38.5336 1.67487 38.6547C1.67487 38.7758 1.62758 38.8921 1.54307 38.9788C1.45856 39.0656 1.34352 39.1159 1.22246 39.119H1.22088Z" fill="white"/>
<path d="M34.1362 31.8036V10.7816C34.1515 9.86818 34.0753 8.95563 33.9087 8.05877C33.7846 7.44185 33.6244 6.83341 33.4291 6.23687C33.2592 5.74493 33.1002 5.33018 32.9467 4.99555C32.8027 4.69202 32.725 4.35893 32.7192 4.02027C32.7192 3.20989 33.1916 2.80471 34.1362 2.80471H42.6325C44.7029 2.78211 46.7603 3.14929 48.7059 3.88868C50.5551 4.60553 52.2188 5.76204 53.5652 7.26651C55.031 8.94946 56.1355 10.9397 56.8048 13.104C57.5813 15.4646 57.9696 18.2818 57.9696 21.5557C57.9696 24.6904 57.5813 27.4019 56.8048 29.69C56.1275 31.8029 55.0227 33.7392 53.5652 35.3673C52.2077 36.8465 50.5462 37.9848 48.7059 38.6965C46.7598 39.4336 44.7026 39.7998 42.6325 39.7776H34.1362C33.8919 39.7836 33.6498 39.7298 33.4291 39.6203C33.2439 39.5366 33.079 39.4105 32.9467 39.2514C32.7907 39.0606 32.7095 38.8155 32.7192 38.5649C32.7246 38.2253 32.8023 37.8912 32.9467 37.5868C33.1002 37.2522 33.2592 36.8374 33.4291 36.3455C33.6247 35.7491 33.7849 35.1406 33.9087 34.5236C34.0753 33.6277 34.1515 32.716 34.1362 31.8036ZM41.6787 38.0358H42.6407C43.2126 38.0358 43.9434 37.7632 44.8333 37.2178C45.7231 36.6725 46.5919 35.7658 47.4397 34.4978C48.2838 33.2279 49.0092 31.5376 49.6158 29.4268C50.2225 27.3161 50.5294 24.6933 50.5367 21.5586C50.5367 18.2847 50.2243 15.5552 49.5994 13.37C48.9745 11.1849 48.2363 9.44115 47.3849 8.13883C46.5243 6.83842 45.6546 5.91462 44.7757 5.36738C43.8968 4.82014 43.1888 4.54652 42.6516 4.54652H41.6896C41.2155 4.54652 40.9634 5.11855 40.9305 6.2626C40.8976 7.40666 40.8784 8.91393 40.8784 10.7816V31.8036C40.8784 33.6684 40.8958 35.1738 40.9305 36.3197C40.9652 37.4657 41.2146 38.0377 41.6787 38.0358Z" fill="#0C0C0C"/>
<path fill-rule="evenodd" clip-rule="evenodd" d="M33.8362 10.7766C33.8512 9.88392 33.7768 8.99216 33.6142 8.11576C33.4925 7.5119 33.3358 6.91638 33.1447 6.33251C32.9769 5.84666 32.822 5.44354 32.6748 5.12233C32.5128 4.78033 32.4257 4.40574 32.4193 4.02533L32.4192 4.02027C32.4192 3.5558 32.5567 3.15662 32.8781 2.8809C33.1907 2.61273 33.6279 2.50471 34.1362 2.50471H42.6308C44.7384 2.48191 46.8325 2.8558 48.8125 3.60824L48.8144 3.60895C50.7084 4.34323 52.4114 5.52738 53.7888 7.06645L53.7915 7.06946C55.2846 8.78376 56.4091 10.8101 57.0906 13.0128C57.8791 15.411 58.2696 18.2607 58.2696 21.5557C58.2696 24.7129 57.8788 27.4577 57.0897 29.784C56.3997 31.9355 55.2742 33.908 53.7887 35.5674L53.7863 35.5702C52.3981 37.0827 50.6982 38.2477 48.8141 38.9763L48.8122 38.9771C46.8318 39.7272 44.738 40.1 42.6307 40.0776H34.1398C33.8495 40.0841 33.5622 40.0202 33.3006 39.8915C33.0752 39.7887 32.8757 39.6352 32.716 39.4432L32.7145 39.4413C32.512 39.1937 32.4077 38.878 32.4193 38.5569C32.4258 38.1765 32.5129 37.802 32.6748 37.46C32.8221 37.1388 32.9769 36.7356 33.1448 36.2497C33.3361 35.666 33.4929 35.0705 33.6142 34.4666C33.7768 33.5912 33.8512 32.7003 33.8362 31.8086L34.1362 31.8036C34.1515 32.716 34.0753 33.6277 33.9087 34.5236C33.7849 35.1406 33.6247 35.7491 33.4291 36.3455C33.2592 36.8374 33.1002 37.2522 32.9467 37.5868C32.8023 37.8912 32.7246 38.2253 32.7192 38.5649C32.7095 38.8155 32.7907 39.0606 32.9467 39.2514C33.079 39.4105 33.2439 39.5366 33.4291 39.6203C33.6498 39.7298 33.8919 39.7836 34.1362 39.7776H42.6325C44.7026 39.7998 46.7598 39.4336 48.7059 38.6965C50.5462 37.9848 52.2077 36.8465 53.5652 35.3673C55.0227 33.7392 56.1275 31.8029 56.8048 29.69C57.5813 27.4019 57.9696 24.6904 57.9696 21.5557C57.9696 18.2818 57.5813 15.4646 56.8048 13.104C56.1355 10.9397 55.031 8.94946 53.5652 7.26651C52.2188 5.76204 50.5551 4.60553 48.7059 3.88868C46.7603 3.14929 44.7029 2.78211 42.6325 2.80471H34.1362C33.1916 2.80471 32.7192 3.20989 32.7192 4.02027C32.725 4.35893 32.8027 4.69202 32.9467 4.99555C33.1002 5.33018 33.2592 5.74493 33.4291 6.23687C33.6244 6.83341 33.7846 7.44185 33.9087 8.05877C34.0753 8.95563 34.1515 9.86818 34.1362 10.7816V31.8036L33.8362 31.8036L33.8362 10.7766ZM41.6775 37.7358L41.6787 37.7358L42.6407 37.7358C43.1281 37.7358 43.8005 37.4989 44.6765 36.962C45.5163 36.4474 46.3563 35.5785 47.1901 34.3313C48.0115 33.0956 48.7261 31.4368 49.3275 29.344C49.9239 27.2688 50.2294 24.676 50.2367 21.5586C50.2367 18.3015 49.9256 15.6019 49.311 13.4525C48.691 11.2847 47.9634 9.57208 47.1343 8.30373C46.2867 7.02309 45.4455 6.13786 44.6171 5.62204C43.749 5.08147 43.1012 4.84652 42.6516 4.84652H41.6896C41.6366 4.84652 41.5977 4.86076 41.5612 4.8895C41.5201 4.92188 41.4691 4.98351 41.419 5.09682C41.3164 5.32895 41.2464 5.71111 41.2303 6.27122C41.1976 7.41148 41.1784 8.91569 41.1784 10.7816V31.8036C41.1784 33.667 41.1957 35.169 41.2303 36.3107C41.2473 36.872 41.317 37.2554 41.4186 37.4883C41.4682 37.6022 41.5184 37.6636 41.5581 37.6953C41.5929 37.723 41.6287 37.736 41.6775 37.7358ZM50.5367 21.5586C50.5294 24.6933 50.2225 27.3161 49.6158 29.4268C49.0092 31.5376 48.2838 33.2279 47.4397 34.4978C46.5919 35.7658 45.7231 36.6725 44.8333 37.2178C43.9434 37.7632 43.2126 38.0358 42.6407 38.0358H41.6787C41.2146 38.0377 40.9652 37.4657 40.9305 36.3197C40.8958 35.1738 40.8784 33.6684 40.8784 31.8036V10.7816C40.8784 8.91393 40.8976 7.40666 40.9305 6.2626C40.9634 5.11855 41.2155 4.54652 41.6896 4.54652H42.6516C43.1888 4.54652 43.8968 4.82014 44.7757 5.36738C45.6546 5.91462 46.5243 6.83842 47.3849 8.13883C48.2363 9.44115 48.9745 11.1849 49.5994 13.37C50.2243 15.5552 50.5367 18.2847 50.5367 21.5586Z" fill="#0C0C0C"/>
<path d="M71.948 12.7264C73.7405 12.6905 75.522 13.0171 77.1884 13.6871C78.6491 14.2952 79.95 15.2394 80.9879 16.4449C82.0445 17.6927 82.8403 19.1446 83.3272 20.7127C84.3878 24.3191 84.3878 28.1604 83.3272 31.7668C82.8446 33.3444 82.0485 34.8054 80.9879 36.06C79.9498 37.2647 78.6489 38.2079 77.1884 38.8151C73.8099 40.0997 70.0861 40.0997 66.7077 38.8151C65.2475 38.2072 63.9468 37.2641 62.9081 36.06C61.8485 34.8051 61.0534 33.3442 60.5716 31.7668C59.5073 28.161 59.5073 24.3186 60.5716 20.7127C61.0575 19.1448 61.8524 17.6929 62.9081 16.4449C63.9466 15.24 65.2473 14.2959 66.7077 13.6871C68.374 13.0171 70.1555 12.6905 71.948 12.7264ZM67.3251 26.2482C67.3042 28.0095 67.442 29.769 67.7368 31.5048C67.9451 32.7762 68.3076 34.0166 68.816 35.198C69.1433 36.0204 69.6424 36.7613 70.2791 37.3699C70.4927 37.5926 70.7483 37.7696 71.0306 37.8905C71.313 38.0113 71.6164 38.0736 71.923 38.0736C72.2295 38.0736 72.533 38.0113 72.8153 37.8905C73.0977 37.7696 73.3532 37.5926 73.5668 37.3699C74.2107 36.7671 74.7192 36.0312 75.0577 35.212C75.5649 34.0302 75.9274 32.7899 76.137 31.5189C76.6821 28.0287 76.6821 24.4734 76.137 20.9832C75.9248 19.7227 75.5624 18.493 75.0577 17.321C74.7192 16.5019 74.2107 15.766 73.5668 15.1632C73.3532 14.9405 73.0977 14.7635 72.8153 14.6426C72.533 14.5217 72.2295 14.4594 71.923 14.4594C71.6164 14.4594 71.313 14.5217 71.0306 14.6426C70.7483 14.7635 70.4927 14.9405 70.2791 15.1632C69.635 15.7651 69.1273 16.5013 68.791 17.321C68.2851 18.4926 67.9226 19.7224 67.7118 20.9832C67.4193 22.723 67.2852 24.4864 67.3112 26.2511L67.3251 26.2482Z" fill="#0C0C0C"/>
<path fill-rule="evenodd" clip-rule="evenodd" d="M77.3037 13.4101C78.8078 14.0363 80.147 15.0084 81.2153 16.2492L81.2169 16.251C82.2996 17.5298 83.1149 19.0173 83.6137 20.6238L83.615 20.6281C84.6919 24.2897 84.6919 28.1898 83.615 31.8515L83.6141 31.8546C83.1196 33.4709 82.3039 34.9679 81.217 36.2537L81.2152 36.2558C80.1467 37.4957 78.8075 38.4669 77.3035 39.0921L77.295 39.0956C73.8479 40.4064 70.0482 40.4062 66.601 39.0955L66.5923 39.0921C65.0888 38.4663 63.7499 37.4951 62.6809 36.2559L62.6789 36.2535C61.593 34.9675 60.7783 33.4705 60.2847 31.8544L60.2839 31.8517C59.2032 28.1904 59.2032 24.2891 60.2839 20.6278L60.285 20.6239C60.7828 19.0176 61.5972 17.53 62.6791 16.2512L62.6808 16.2491C63.7496 15.009 65.0886 14.037 66.5922 13.4102L66.5957 13.4087C68.2976 12.7244 70.1171 12.3905 71.948 12.4264C73.7789 12.3905 75.5984 12.7245 77.3003 13.4087L77.3037 13.4101ZM71.948 12.7264C73.7405 12.6905 75.522 13.0171 77.1884 13.6871C78.6491 14.2952 79.95 15.2394 80.9879 16.4449C82.0445 17.6927 82.8403 19.1446 83.3272 20.7127C84.3878 24.3191 84.3878 28.1604 83.3272 31.7668C82.8446 33.3444 82.0485 34.8054 80.9879 36.06C79.9498 37.2647 78.6489 38.2079 77.1884 38.8151C73.8099 40.0997 70.0861 40.0997 66.7077 38.8151C65.2475 38.2072 63.9468 37.2641 62.9081 36.06C61.8485 34.8051 61.0534 33.3442 60.5716 31.7668C59.5073 28.161 59.5073 24.3186 60.5716 20.7127C61.0575 19.1448 61.8524 17.6929 62.9081 16.4449C63.9466 15.24 65.2473 14.2959 66.7077 13.6871C68.374 13.0171 70.1555 12.6905 71.948 12.7264ZM67.3112 26.2481C67.3108 26.2235 67.3105 26.199 67.3102 26.1744C67.3093 26.0981 67.3086 26.0218 67.3083 25.9455C67.3012 24.2829 67.4362 22.6226 67.7118 20.9832C67.9226 19.7224 68.2851 18.4926 68.791 17.321C69.1273 16.5013 69.635 15.7651 70.2791 15.1632C70.4927 14.9405 70.7483 14.7635 71.0306 14.6426C71.313 14.5217 71.6164 14.4594 71.923 14.4594C72.2295 14.4594 72.533 14.5217 72.8153 14.6426C73.0977 14.7635 73.3532 14.9405 73.5668 15.1632C74.2107 15.766 74.7192 16.5019 75.0577 17.321C75.5624 18.493 75.9248 19.7227 76.137 20.9832C76.6821 24.4734 76.6821 28.0287 76.137 31.5189C75.9274 32.7899 75.5649 34.0302 75.0577 35.212C74.7192 36.0312 74.2107 36.7671 73.5668 37.3699C73.3532 37.5926 73.0977 37.7696 72.8153 37.8905C72.533 38.0113 72.2295 38.0736 71.923 38.0736C71.6164 38.0736 71.313 38.0113 71.0306 37.8905C70.7483 37.7696 70.4927 37.5926 70.2791 37.3699C69.6424 36.7613 69.1433 36.0204 68.816 35.198C68.3076 34.0166 67.9451 32.7762 67.7368 31.5048C67.4591 29.8697 67.3207 28.2135 67.3231 26.5547C67.3232 26.4752 67.3236 26.3957 67.3244 26.3162C67.3246 26.2944 67.3249 26.2726 67.3251 26.2508C67.3251 26.25 67.3251 26.2491 67.3251 26.2482L67.3112 26.2511C67.3112 26.2501 67.3112 26.2491 67.3112 26.2481ZM75.8408 31.4713C76.3809 28.0127 76.3809 24.4897 75.8408 21.0311C75.6326 19.7949 75.2771 18.589 74.7822 17.4397L74.7805 17.4356C74.4582 16.6558 73.9743 15.9556 73.3618 15.3822L73.3559 15.3767L73.3503 15.3709C73.1645 15.1771 72.9424 15.0233 72.6973 14.9184C72.4521 14.8134 72.1889 14.7594 71.923 14.7594C71.6571 14.7594 71.3938 14.8134 71.1487 14.9184C70.9036 15.0233 70.6814 15.1771 70.4956 15.3709L70.4899 15.3768L70.4839 15.3824C69.8715 15.9547 69.3886 16.6549 69.0686 17.4349L69.0665 17.44C68.5701 18.5892 68.2145 19.7958 68.0077 21.0326C67.7382 22.6357 67.6045 24.2592 67.6081 25.8848L67.6295 25.8805L67.6251 26.2518C67.6044 27.995 67.7408 29.7365 68.0326 31.4546L68.0329 31.4563C68.2372 32.7036 68.5928 33.9205 69.0916 35.0794L69.0949 35.087C69.4063 35.8696 69.881 36.5744 70.4864 37.153L70.4958 37.162C70.6816 37.3558 70.9036 37.5097 71.1487 37.6147C71.3938 37.7196 71.6571 37.7736 71.923 37.7736C72.1889 37.7736 72.4521 37.7196 72.6973 37.6147C72.9424 37.5097 73.1645 37.356 73.3503 37.1622L73.3559 37.1564L73.3618 37.1509C73.9743 36.5775 74.4582 35.8772 74.7805 35.0975L74.782 35.0937C75.2795 33.9346 75.6351 32.7181 75.8408 31.4713Z" fill="#0C0C0C"/>
<path d="M87.4263 4.61681L90.9697 1.7756C91.2399 1.55307 91.5416 1.37016 91.8656 1.23256C92.1973 1.08137 92.5586 1.00209 92.9246 1.00021C93.1289 0.997458 93.3313 1.03753 93.5184 1.11768C93.7055 1.19783 93.873 1.31621 94.0094 1.46489C94.3071 1.77653 94.4559 2.36251 94.4559 3.22281V23.7439C95.9146 23.5856 97.3531 23.2827 98.7492 22.8397C99.7965 22.5128 100.78 22.0149 101.657 21.3673C102.376 20.829 102.963 20.1405 103.375 19.3519C103.764 18.5902 104.015 17.768 104.116 16.9222C104.194 16.5165 104.128 16.0969 103.93 15.7325C103.757 15.4498 103.659 15.1295 103.644 14.8004C103.645 14.7129 103.664 14.6265 103.7 14.5466C103.737 14.4667 103.79 14.3949 103.855 14.3357C103.957 14.2079 104.094 14.1109 104.25 14.0558C104.525 13.9563 104.817 13.9115 105.109 13.9242H108.28C109.265 13.9242 109.76 14.2181 109.76 14.8032C109.776 15.0943 109.711 15.3842 109.574 15.643C109.401 15.9596 109.25 16.2879 109.125 16.6255C108.861 17.6286 108.414 18.5769 107.805 19.4247C107.207 20.2497 106.485 20.982 105.664 21.5969C104.825 22.2213 103.922 22.758 102.968 23.198C102.002 23.6457 101.004 24.0255 99.9828 24.3345C101.463 24.8106 102.811 25.6165 103.918 26.6887C104.946 27.6783 105.843 28.7898 106.589 29.9974C107.234 31.0361 107.791 32.1249 108.255 33.2529C108.658 34.269 108.95 35.0024 109.113 35.4502C109.269 35.796 109.474 36.1183 109.723 36.4076C109.952 36.6651 110.172 36.8975 110.384 37.1046C110.588 37.3038 110.774 37.5202 110.939 37.7512C111.103 38.0013 111.186 38.294 111.177 38.591C111.177 39.0724 111.017 39.3916 110.699 39.5455C110.354 39.7076 109.974 39.7872 109.591 39.7778H102.931C102.709 39.7819 102.491 39.7229 102.303 39.6081C102.115 39.4933 101.965 39.3277 101.872 39.1312C101.556 38.4866 101.342 37.7984 101.239 37.0906C101.028 35.9877 100.741 34.799 100.381 33.5244C100.028 32.295 99.5594 31.1002 98.9811 29.9554C98.4758 28.9355 97.806 28.0017 96.9975 27.1897C96.6691 26.8409 96.2711 26.5616 95.8281 26.369C95.385 26.1765 94.9063 26.0747 94.4215 26.0701V31.9652C94.4049 32.8584 94.4855 33.7508 94.662 34.6273C94.7899 35.2315 94.9572 35.827 95.1628 36.4104C95.3374 36.8918 95.5063 37.2977 95.6637 37.6252C95.8157 37.9228 95.8969 38.25 95.9013 38.5826C95.9016 38.7797 95.8472 38.9732 95.7439 39.1424C95.6313 39.3212 95.4774 39.4718 95.2945 39.5819C95.0301 39.7163 94.7334 39.7782 94.4359 39.7611H87.4063C86.4197 39.7611 85.9265 39.3654 85.9265 38.5742C85.932 38.2418 86.0132 37.9148 86.1641 37.6168C86.3244 37.2893 86.4904 36.8835 86.6678 36.402C86.8721 35.8183 87.0394 35.2228 87.1687 34.6189C87.3427 33.7421 87.4223 32.8499 87.4063 31.9568V8.84923C86.5953 8.02066 86.1374 7.30499 86.0324 6.70222C85.9275 6.09945 86.3921 5.40433 87.4263 4.61681Z" fill="#0C0C0C"/>
<path fill-rule="evenodd" clip-rule="evenodd" d="M108.255 33.2529L108.305 33.3787C108.682 34.3297 108.957 35.0211 109.113 35.4502C109.269 35.796 109.474 36.1183 109.723 36.4076C109.952 36.6651 110.172 36.8975 110.384 37.1046C110.588 37.3038 110.774 37.5202 110.939 37.7512C111.103 38.0013 111.186 38.294 111.177 38.591C111.177 39.0724 111.017 39.3916 110.699 39.5455C110.354 39.7076 109.974 39.7872 109.591 39.7778H102.931C102.709 39.7819 102.491 39.7229 102.303 39.6081C102.115 39.4933 101.965 39.3277 101.872 39.1312C101.556 38.4866 101.342 37.7984 101.239 37.0906C101.028 35.9877 100.741 34.799 100.381 33.5244C100.028 32.295 99.5594 31.1002 98.9811 29.9554C98.4758 28.9355 97.806 28.0017 96.9975 27.1897C96.6691 26.8409 96.2711 26.5616 95.8281 26.369C95.4767 26.2163 95.103 26.1207 94.7215 26.0854C94.622 26.0761 94.5219 26.071 94.4215 26.0701V31.9652C94.4049 32.8584 94.4855 33.7508 94.662 34.6273C94.7899 35.2315 94.9572 35.827 95.1628 36.4104C95.3374 36.8918 95.5063 37.2977 95.6637 37.6252C95.8157 37.9228 95.8969 38.25 95.9013 38.5826C95.9016 38.7797 95.8472 38.9732 95.7439 39.1424C95.6313 39.3212 95.4774 39.4718 95.2945 39.5819C95.0301 39.7163 94.7334 39.7782 94.4359 39.7611H87.4063C86.4197 39.7611 85.9265 39.3654 85.9265 38.5742C85.932 38.2418 86.0132 37.9148 86.1641 37.6168C86.3244 37.2893 86.4904 36.8835 86.6678 36.402C86.8721 35.8183 87.0394 35.2228 87.1687 34.6189C87.3427 33.7421 87.4223 32.8499 87.4063 31.9568V8.84923C86.5953 8.02066 86.1374 7.30499 86.0324 6.70222C85.9275 6.09945 86.3921 5.40433 87.4263 4.61681L90.9697 1.7756C91.2399 1.55307 91.5416 1.37016 91.8656 1.23256C92.1973 1.08137 92.5586 1.00209 92.9246 1.00021C93.1289 0.997458 93.3313 1.03753 93.5184 1.11768C93.7055 1.19783 93.873 1.31621 94.0094 1.46489C94.3071 1.77653 94.4559 2.36251 94.4559 3.22281V23.7439C94.556 23.733 94.656 23.7215 94.7559 23.7093C96.1118 23.5434 97.4489 23.2523 98.7492 22.8397C99.7965 22.5128 100.78 22.0149 101.657 21.3673C102.376 20.829 102.963 20.1405 103.375 19.3519C103.764 18.5902 104.015 17.768 104.116 16.9222C104.194 16.5165 104.128 16.0969 103.93 15.7325C103.757 15.4498 103.659 15.1295 103.644 14.8004C103.645 14.7129 103.664 14.6265 103.7 14.5466C103.737 14.4667 103.79 14.3949 103.855 14.3357C103.957 14.2079 104.094 14.1109 104.25 14.0558C104.525 13.9563 104.817 13.9115 105.109 13.9242H108.28C109.265 13.9242 109.76 14.2181 109.76 14.8032C109.776 15.0943 109.711 15.3842 109.574 15.643C109.401 15.9596 109.25 16.2879 109.125 16.6255C108.861 17.6286 108.414 18.5769 107.805 19.4247C107.207 20.2497 106.485 20.982 105.664 21.5969C104.825 22.2213 103.922 22.758 102.968 23.198C102.154 23.575 101.318 23.9039 100.465 24.1829C100.305 24.2352 100.144 24.2858 99.9828 24.3345C100.143 24.386 100.301 24.4413 100.458 24.5004C101.752 24.988 102.93 25.7324 103.918 26.6887C104.946 27.6783 105.843 28.7898 106.589 29.9974C107.234 31.0361 107.791 32.1249 108.255 33.2529ZM106.844 29.8391C107.498 30.8919 108.063 31.9955 108.532 33.1389L108.533 33.1421L108.585 33.2731C108.958 34.2117 109.233 34.9028 109.391 35.3368C109.534 35.6517 109.722 35.9458 109.949 36.2102C110.173 36.4625 110.388 36.6891 110.594 36.8901C110.81 37.1016 111.008 37.3312 111.183 37.5766L111.191 37.5867C111.387 37.8866 111.487 38.2382 111.477 38.5955C111.477 38.594 111.477 38.5925 111.477 38.591M106.844 29.8391C106.085 28.6104 105.172 27.4795 104.127 26.4727C103.195 25.5715 102.1 24.8532 100.9 24.3532C101.647 24.0963 102.379 23.8016 103.094 23.4703C104.066 23.0216 104.988 22.4744 105.843 21.8376C106.688 21.2047 107.432 20.4504 108.048 19.6008L108.049 19.5996C108.676 18.7264 109.137 17.7498 109.411 16.7165C109.531 16.3974 109.673 16.0868 109.837 15.7871L109.839 15.7836C110.001 15.4793 110.077 15.1381 110.06 14.795C110.058 14.4027 109.88 14.0868 109.543 13.8864C109.227 13.699 108.793 13.6242 108.28 13.6242H105.115C104.787 13.6108 104.458 13.6614 104.149 13.7733C103.949 13.8443 103.772 13.9672 103.636 14.1297C103.549 14.2129 103.478 14.312 103.427 14.4222C103.374 14.54 103.345 14.6675 103.344 14.7969L103.343 14.8055L103.344 14.8141C103.361 15.1913 103.473 15.5581 103.67 15.8821C103.832 16.1842 103.886 16.5307 103.821 16.8655L103.819 16.876L103.818 16.8866C103.721 17.6966 103.481 18.4842 103.108 19.2141C102.717 19.9618 102.161 20.6153 101.478 21.1266C100.628 21.754 99.675 22.2364 98.6598 22.5534L98.6585 22.5538C97.3876 22.957 96.081 23.2426 94.7559 23.407V3.22281C94.7559 2.35328 94.6107 1.66202 94.2284 1.25988C94.0633 1.08059 93.8615 0.938256 93.6366 0.841918C93.4111 0.745362 93.1675 0.697088 92.9218 0.700216C92.5153 0.702478 92.1139 0.790327 91.7447 0.95795C91.3964 1.1063 91.0716 1.30322 90.7805 1.54276L87.2416 4.38043C86.7125 4.7836 86.3103 5.1768 86.0528 5.56209C85.7936 5.94986 85.6669 6.35211 85.7369 6.75368C85.8538 7.42508 86.3351 8.16597 87.1063 8.97069V31.9568L87.1063 31.9622C87.1219 32.8331 87.0444 33.7032 86.8749 34.5583C86.7485 35.1483 86.585 35.7301 86.3855 36.3005C86.2103 36.7757 86.0488 37.1696 85.8954 37.4833C85.7248 37.821 85.6328 38.1919 85.6265 38.5692L85.6265 38.5742C85.6265 39.0358 85.7736 39.4296 86.1087 39.6984C86.4312 39.957 86.8808 40.0611 87.4063 40.0611H94.4276C94.7749 40.0795 95.1211 40.0065 95.4304 39.8493L95.4401 39.8445L95.4493 39.8389C95.6719 39.7048 95.8599 39.5212 95.9977 39.3023L95.9999 39.2987C96.1319 39.0826 96.2017 38.8349 96.2013 38.5821L96.2013 38.5786C96.1963 38.201 96.1043 37.8296 95.9326 37.4921C95.7811 37.1765 95.6167 36.7817 95.4454 36.3094C95.2444 35.7392 95.0809 35.1571 94.9558 34.5666C94.7838 33.7119 94.7053 32.8417 94.7215 31.9708L94.7215 26.3868C95.0618 26.4212 95.395 26.5079 95.7085 26.6442C96.1145 26.8207 96.4788 27.0765 96.7791 27.3954L96.785 27.4014C97.5707 28.1905 98.2214 29.0979 98.7122 30.0886L98.7133 30.0907C99.2831 31.2185 99.7446 32.3954 100.092 33.6065C100.45 34.8715 100.734 36.0495 100.943 37.1406C101.051 37.8765 101.273 38.5918 101.602 39.2618C101.721 39.5108 101.91 39.7197 102.147 39.8642C102.383 40.0083 102.656 40.0823 102.933 40.0778H109.588C110.016 40.0878 110.44 39.9985 110.826 39.8171L110.83 39.8155C111.287 39.5939 111.476 39.1416 111.477 38.5955" fill="#0C0C0C"/>
<path d="M113.528 17.7547L117.049 14.9097C117.35 14.6539 117.676 14.4287 118.023 14.2376C118.367 14.0358 118.76 13.9284 119.161 13.9268C119.354 13.9286 119.543 13.9767 119.712 14.067C119.881 14.1573 120.025 14.2871 120.132 14.4449C120.395 14.7902 120.527 15.4277 120.527 16.3574V31.9772C120.511 32.8706 120.591 33.7631 120.764 34.6403C120.892 35.2444 121.058 35.8401 121.262 36.424C121.438 36.9057 121.603 37.3117 121.763 37.6393C121.913 37.9373 121.993 38.2645 121.999 38.597C121.998 38.794 121.944 38.9872 121.842 39.1571C121.729 39.3353 121.577 39.4857 121.395 39.5967C121.132 39.7307 120.837 39.7926 120.542 39.7759H113.551C113.297 39.7821 113.044 39.7293 112.814 39.6219C112.622 39.5405 112.452 39.417 112.316 39.2607C112.153 39.0745 112.068 38.8341 112.08 38.5886C112.084 38.2559 112.165 37.9285 112.316 37.6309C112.473 37.3023 112.639 36.8972 112.814 36.4156C113.018 35.8318 113.186 35.236 113.315 34.6318C113.488 33.7547 113.567 32.8622 113.551 31.9688V21.9859C112.743 21.1589 112.287 20.4439 112.185 19.8409C112.057 19.2557 112.509 18.5556 113.528 17.7547ZM117.049 1.00086C117.678 0.989168 118.303 1.10777 118.883 1.34898C119.462 1.59019 119.984 1.94862 120.413 2.40099C121.072 3.0803 121.516 3.93231 121.693 4.85442C121.871 5.77653 121.773 6.72939 121.412 7.59823C121.176 8.15467 120.837 8.66348 120.413 9.09916C119.99 9.53237 119.48 9.87546 118.916 10.1072C118.325 10.3506 117.69 10.4735 117.049 10.4685C116.42 10.4722 115.796 10.3531 115.214 10.118C114.632 9.88294 114.104 9.53661 113.659 9.09906C113.214 8.66151 112.861 8.14143 112.622 7.56897C112.383 6.99651 112.261 6.38305 112.265 5.76409C112.259 5.13332 112.385 4.50811 112.635 3.92711C112.875 3.36652 113.223 2.85687 113.659 2.42618C114.1 1.99461 114.616 1.64457 115.182 1.39287C115.769 1.13469 116.406 1.00386 117.049 1.00924V1.00086Z" fill="#0C0C0C"/>
<path fill-rule="evenodd" clip-rule="evenodd" d="M119.16 13.6268L119.164 13.6268C119.405 13.629 119.641 13.6892 119.853 13.8024C120.063 13.9142 120.242 14.0745 120.375 14.2698C120.542 14.4908 120.652 14.7821 120.722 15.1212C120.794 15.4665 120.827 15.8801 120.827 16.3574V31.9826C120.812 32.8539 120.889 33.7244 121.057 34.58C121.183 35.1703 121.346 35.7524 121.544 36.3231C121.718 36.7984 121.879 37.1925 122.032 37.5063C122.201 37.8441 122.293 38.2149 122.299 38.592L122.299 38.5989C122.297 38.8496 122.228 39.0951 122.1 39.3107L122.096 39.3175C121.958 39.5349 121.772 39.7177 121.552 39.8525L121.542 39.8587L121.532 39.864C121.224 40.0209 120.879 40.0939 120.533 40.0759H113.555C113.257 40.0826 112.962 40.021 112.692 39.8959C112.461 39.797 112.255 39.6474 112.09 39.4581C111.878 39.2154 111.766 38.9015 111.78 38.5799C111.785 38.2041 111.877 37.8344 112.047 37.4982C112.198 37.1823 112.36 36.7885 112.531 36.3149C112.731 35.7442 112.895 35.1619 113.021 34.5714C113.19 33.7159 113.267 32.8454 113.251 31.9742L113.251 31.9688L113.251 22.1072C112.485 21.3065 112.007 20.5682 111.89 19.8979C111.807 19.5033 111.925 19.1026 112.174 18.7161C112.424 18.3291 112.82 17.9304 113.341 17.5201C113.342 17.5197 113.343 17.5193 113.343 17.5189L116.858 14.6787C117.172 14.4117 117.513 14.1765 117.874 13.9767C118.264 13.7493 118.708 13.6286 119.16 13.6268ZM118.023 14.2376C117.676 14.4287 117.35 14.6539 117.049 14.9097L113.528 17.7547C112.509 18.5556 112.057 19.2557 112.185 19.8409C112.287 20.4439 112.743 21.1589 113.551 21.9859V31.9688C113.567 32.8622 113.488 33.7547 113.315 34.6318C113.186 35.236 113.018 35.8318 112.814 36.4156C112.639 36.8972 112.473 37.3023 112.316 37.6309C112.165 37.9285 112.084 38.2559 112.08 38.5886C112.068 38.8341 112.153 39.0745 112.316 39.2607C112.452 39.417 112.622 39.5405 112.814 39.6219C113.044 39.7293 113.297 39.7821 113.551 39.7759H120.542C120.837 39.7926 121.132 39.7307 121.395 39.5967C121.577 39.4857 121.729 39.3353 121.842 39.1571C121.944 38.9872 121.998 38.794 121.999 38.597C121.993 38.2645 121.913 37.9373 121.763 37.6393C121.603 37.3117 121.438 36.9057 121.262 36.424C121.058 35.8401 120.892 35.2444 120.764 34.6403C120.591 33.7631 120.511 32.8706 120.527 31.9772V16.3574C120.527 15.4277 120.395 14.7902 120.132 14.4449C120.025 14.2871 119.881 14.1573 119.712 14.067C119.543 13.9767 119.354 13.9286 119.161 13.9268C118.76 13.9284 118.367 14.0358 118.023 14.2376ZM116.749 0.706384L117.044 0.700913C117.714 0.688452 118.38 0.814832 118.998 1.07201C119.615 1.329 120.171 1.71093 120.63 2.19331C121.328 2.91404 121.8 3.81839 121.988 4.79779C122.176 5.77769 122.073 6.79022 121.69 7.71321L121.689 7.71557C121.438 8.30633 121.078 8.84625 120.628 9.30836C120.176 9.77087 119.632 10.1375 119.031 10.3847M120.413 2.40099C119.984 1.94862 119.462 1.59019 118.883 1.34898C118.395 1.14617 117.876 1.03004 117.349 1.00515C117.306 1.0031 117.262 1.00167 117.219 1.00086C117.162 0.999812 117.106 0.999811 117.049 1.00086C117.049 1.00086 117.049 1.00086 117.049 1.00086V1.00924C117.024 1.00902 116.998 1.00902 116.973 1.00924C116.356 1.0144 115.746 1.1449 115.182 1.39287C114.616 1.64457 114.1 1.99461 113.659 2.42618C113.223 2.85687 112.875 3.36652 112.635 3.92711C112.385 4.50811 112.259 5.13332 112.265 5.76409C112.261 6.38305 112.383 6.99651 112.622 7.56897C112.861 8.14143 113.214 8.66151 113.659 9.09906C114.104 9.53661 114.632 9.88294 115.214 10.118C115.796 10.3531 116.42 10.4722 117.049 10.4685C117.69 10.4735 118.325 10.3506 118.916 10.1072C119.48 9.87546 119.99 9.53237 120.413 9.09916C120.837 8.66348 121.176 8.15467 121.412 7.59823C121.773 6.72939 121.871 5.77653 121.693 4.85442C121.516 3.93231 121.072 3.0803 120.413 2.40099ZM119.031 10.3847C118.403 10.643 117.729 10.7736 117.049 10.7685C116.381 10.7722 115.72 10.6457 115.102 10.3962C114.484 10.1464 113.922 9.77833 113.448 9.31297C112.975 8.8476 112.6 8.29418 112.345 7.68466C112.091 7.07579 111.961 6.42319 111.965 5.76459C111.959 5.09292 112.093 4.42732 112.359 3.80889C112.614 3.2124 112.985 2.67041 113.449 2.2126C113.915 1.75582 114.461 1.38487 115.06 1.11871L115.061 1.11824C115.595 0.883521 116.167 0.747567 116.749 0.716142V0.706384" fill="#0C0C0C"/>
</svg>
