<svg width="103" height="43" viewBox="0 0 103 43" fill="none" xmlns="http://www.w3.org/2000/svg">
<path d="M1.12903 39.1347C1.12903 38.8709 1.13243 38.3389 1.13616 37.5941C1.15552 33.6222 1.20102 24.3201 1.12869 21.6138C1.07877 19.7387 1.43909 18.1182 1.75017 17.0893C2.11524 15.8808 2.63042 14.7834 3.12828 14.1529C6.33856 10.3744 7.70276 6.82307 8.6978 4.22967C9.68265 1.66618 10.277 0.118774 11.8867 0.118774C11.9689 0.118774 12.0548 0.122854 12.1421 0.131012C13.3422 0.242513 14.142 0.835027 14.5193 1.89258C14.9509 3.10141 14.8165 4.87079 14.141 6.8744C13.5446 8.64209 12.6168 10.2932 11.7196 11.1797L11.309 11.5856L11.8463 11.3755C13.0689 10.8996 14.2497 10.6556 15.3602 10.6556C17.9259 10.6556 19.6028 11.9082 20.6414 12.8505C21.7678 13.8727 22.3954 15.2264 22.3197 16.4716C22.265 17.3748 21.8442 18.1281 21.1083 18.6499C20.8563 18.828 20.5483 18.9185 20.1931 18.9185C18.5273 18.9185 16.1647 16.9332 15.4848 15.895C15.4682 15.87 15.4456 15.8494 15.4191 15.8351C15.3927 15.8208 15.3631 15.8132 15.333 15.8131C15.3056 15.8129 15.2785 15.8195 15.2543 15.8323C15.23 15.8451 15.2094 15.8637 15.1941 15.8865C14.0911 17.5472 12.3414 18.9708 10.9409 19.3488C10.9071 19.3585 10.8782 19.3805 10.8597 19.4104C10.8413 19.4403 10.8346 19.4761 10.841 19.5106C10.8859 19.788 10.8298 20.0243 10.7521 20.351C10.6565 20.7226 10.5942 21.102 10.566 21.4847C10.5637 21.5162 10.5714 21.5476 10.588 21.5746C10.6046 21.6015 10.6292 21.6225 10.6583 21.6346C11.3375 21.9178 12.4341 22.9128 12.6695 24.4938C12.6729 24.5193 12.6834 24.5433 12.6999 24.5631C12.7164 24.5828 12.7381 24.5974 12.7626 24.6053C12.787 24.6132 12.8132 24.6139 12.8381 24.6075C12.863 24.6011 12.8855 24.5877 12.9031 24.5689C13.3786 24.0767 15.5599 22.9185 17.0222 22.9185C17.2359 22.9142 17.4489 22.9458 17.6522 23.012C17.6727 23.0193 17.6946 23.0219 17.7162 23.0199C17.7379 23.0179 17.7589 23.0111 17.7777 23.0002C17.7966 22.9892 17.8128 22.9743 17.8253 22.9564C17.8378 22.9386 17.8463 22.9182 17.8501 22.8968C18.0665 21.69 19.0388 20.6137 19.8171 19.9237C20.836 19.0194 21.9566 18.3858 22.6039 18.1179C22.8038 18.0374 23.0175 17.9971 23.2329 17.9993C23.8102 17.9993 24.3981 18.2512 24.8463 18.6904C25.2077 19.0446 25.6383 19.6803 25.6383 20.6984C25.6383 21.894 24.65 23.2479 23.2821 25.1227C22.9086 25.635 22.5211 26.165 22.1159 26.7446C20.3917 29.2101 16.3151 31.0989 14.356 32.0065C14.1766 32.0898 14.0163 32.1635 13.8805 32.2281C13.1799 32.5599 12.3672 33.5182 12.4735 36.1996C12.4756 36.2513 12.4769 36.2918 12.4769 36.3132V39.1347H1.12903Z" fill="#9D78EB"/>
<path d="M11.8881 0.237958C11.9669 0.237958 12.0491 0.242037 12.1326 0.249516C12.732 0.305266 13.2316 0.487473 13.6167 0.78832C13.9702 1.06503 14.2368 1.45018 14.409 1.9329C14.6277 2.54479 14.697 3.30727 14.6158 4.1986C14.5421 5.00663 14.3394 5.91903 14.03 6.83687C13.7418 7.69378 13.3747 8.52204 12.9334 9.31095C12.5126 10.0588 12.0647 10.6741 11.6385 11.0953L10.8173 11.9067L11.8918 11.4866C13.0991 11.0144 14.267 10.7747 15.3626 10.7747C16.4811 10.7709 17.5846 11.0327 18.5824 11.5386C19.4698 11.9873 20.1381 12.5526 20.564 12.9388C21.1094 13.4337 21.5488 14.0249 21.8334 14.6477C22.1109 15.2541 22.2389 15.8827 22.2036 16.4646C22.151 17.3305 21.7495 18.0528 21.0421 18.5529C20.8105 18.7167 20.526 18.7997 20.1955 18.7997C18.5688 18.7997 16.2544 16.8498 15.5867 15.83C15.5591 15.7885 15.5217 15.7545 15.4779 15.7308C15.4341 15.7071 15.3852 15.6945 15.3354 15.694C15.2885 15.6938 15.2422 15.7052 15.2007 15.7273C15.1592 15.7493 15.1238 15.7814 15.0977 15.8205C14.53 16.6704 13.8341 17.4273 13.0349 18.0641C12.3014 18.6467 11.5478 19.0621 10.9124 19.2335C10.8502 19.2507 10.7966 19.2906 10.7621 19.3453C10.7277 19.4 10.7148 19.4655 10.726 19.5292C10.7671 19.7831 10.7134 20.0095 10.639 20.3233C10.5417 20.7012 10.4783 21.0871 10.4495 21.4764C10.4457 21.5327 10.4596 21.5888 10.4893 21.6368C10.5189 21.6847 10.5629 21.7222 10.6149 21.7439C11.2697 22.0159 12.3262 22.9786 12.5544 24.511C12.5632 24.5718 12.5936 24.6274 12.6401 24.6675C12.6866 24.7076 12.746 24.7296 12.8074 24.7293C12.8418 24.7292 12.8757 24.7222 12.9073 24.7088C12.939 24.6954 12.9676 24.6757 12.9915 24.6511C13.199 24.4352 13.831 24.0283 14.6375 23.668C15.5484 23.26 16.396 23.0367 17.0246 23.037C17.225 23.0329 17.4246 23.0623 17.6152 23.1241C17.6439 23.1339 17.6741 23.139 17.7045 23.139C17.7676 23.1391 17.8287 23.1169 17.8772 23.0764C17.9256 23.0358 17.9582 22.9796 17.9694 22.9174C18.1796 21.7442 19.1346 20.6898 19.8984 20.0123C20.9066 19.1179 22.0117 18.4917 22.6519 18.2272C22.8373 18.1528 23.0356 18.1156 23.2353 18.1178C23.7736 18.1178 24.3455 18.3635 24.7656 18.7749C25.1106 19.1148 25.5219 19.7213 25.5219 20.6979C25.5219 21.2228 25.3181 21.8238 24.8766 22.5887C24.4586 23.3138 23.8707 24.1184 23.1898 25.0519C22.8162 25.5648 22.4284 26.0955 22.0222 26.6761C21.2918 27.7207 20.024 28.7926 18.2547 29.8613C16.7709 30.7578 15.2899 31.4441 14.3098 31.8982C14.1278 31.9826 13.9702 32.0553 13.8344 32.1202C13.1412 32.4483 12.6838 33.1625 12.476 34.2428C12.3157 35.0692 12.3486 35.8936 12.3608 36.2039C12.3629 36.2522 12.3642 36.2937 12.3642 36.3127V39.0152H1.24931C1.24931 38.7256 1.25271 38.2402 1.2561 37.5943C1.27546 33.6217 1.32097 24.3186 1.24863 21.6103C1.19905 19.7508 1.55665 18.1429 1.86501 17.1231C2.22567 15.9292 2.7327 14.8475 3.22106 14.2278C6.44356 10.4348 7.81183 6.87256 8.81095 4.27168C9.30439 2.98637 9.69392 1.97131 10.1694 1.26662C10.6506 0.555461 11.1817 0.237958 11.8881 0.237958ZM11.8881 0C8.48527 0 9.39541 6.59483 3.03665 14.0776C2.09357 15.2711 0.922271 18.3105 1.01057 21.6175C1.09886 24.9244 1.01057 38.1956 1.01057 39.2539H12.5982V36.3134C12.5982 36.0122 12.3432 33.0891 13.9335 32.3361C15.5239 31.5831 20.31 29.538 22.2158 26.8131C24.1217 24.0881 25.7596 22.2657 25.7596 20.6989C25.7596 18.8752 24.3934 17.8808 23.2353 17.8808C23.0045 17.8789 22.7754 17.9222 22.5612 18.0083C21.0737 18.6226 18.1358 20.6428 17.7354 22.8762C17.7342 22.8835 17.7304 22.8902 17.7247 22.8949C17.7191 22.8996 17.7119 22.9022 17.7045 22.9021C17.701 22.9027 17.6975 22.9027 17.694 22.9021C17.4782 22.8308 17.2519 22.7963 17.0246 22.8001C15.5147 22.8001 13.3121 23.9756 12.82 24.4869C12.8184 24.4886 12.8164 24.49 12.8143 24.4909C12.8121 24.4919 12.8098 24.4923 12.8074 24.4923C12.8031 24.4923 12.7989 24.4908 12.7956 24.4879C12.7923 24.485 12.7903 24.481 12.7898 24.4767C12.5418 22.8134 11.3852 21.8082 10.7063 21.5253C10.7001 21.5228 10.6949 21.5183 10.6914 21.5125C10.6879 21.5068 10.6863 21.5001 10.6869 21.4934C10.7572 20.4661 11.0523 20.0568 10.9606 19.4921C10.9592 19.4866 10.9598 19.4808 10.9623 19.4757C10.9648 19.4706 10.969 19.4665 10.9742 19.4643C12.3014 19.1063 14.0959 17.7591 15.2957 15.953C15.3 15.9465 15.3059 15.9412 15.3129 15.9376C15.3199 15.934 15.3276 15.9323 15.3354 15.9326C15.3458 15.9327 15.356 15.9353 15.3651 15.9402C15.3742 15.9452 15.382 15.9522 15.3877 15.9609C16.069 17.0011 18.4503 19.038 20.1955 19.038C20.5579 19.038 20.8927 18.9503 21.1804 18.7477C23.1263 17.3713 22.7201 14.5739 20.7246 12.763C19.7737 11.8999 18.0387 10.5371 15.3636 10.5371C14.3231 10.5371 13.1406 10.7435 11.8063 11.2653C14.2674 8.83333 17.1238 0.474556 12.1561 0.0132576C12.0647 0.00475914 11.9757 0.000679506 11.8898 0.000679506L11.8881 0Z" fill="black"/>
<path d="M2.35879 15.386C2.59651 12.8936 1.49246 8.16606 1.83206 7.00347C2.17167 5.84087 3.45198 5.85345 3.81705 7.00347C4.09247 7.87065 3.03087 13.0547 2.35879 15.386Z" fill="#9D78EB"/>
<path fill-rule="evenodd" clip-rule="evenodd" d="M2.81455 6.23393C2.45807 6.23255 2.0857 6.48293 1.92563 7.0309C1.88697 7.16327 1.86717 7.35366 1.86443 7.59634C1.8617 7.83752 1.8758 8.12399 1.9017 8.44538C1.95034 9.04891 2.04002 9.76897 2.13522 10.5334C2.14145 10.5834 2.1477 10.6336 2.15397 10.684C2.31434 11.9733 2.48422 13.376 2.48995 14.5291C2.77869 13.4073 3.09957 11.9612 3.34722 10.6279C3.5045 9.78112 3.63191 8.98156 3.70284 8.34051C3.73831 8.01988 3.75948 7.74043 3.76339 7.51533C3.76736 7.28694 3.75319 7.12505 3.72398 7.03308L3.72398 7.03306C3.55163 6.49015 3.17222 6.2353 2.81455 6.23393ZM3.90996 6.97389C3.71723 6.3668 3.27395 6.04035 2.8153 6.03858C2.35546 6.03681 1.91787 6.36144 1.73833 6.97607C1.6921 7.13434 1.6721 7.34601 1.66929 7.59413C1.66647 7.84375 1.68105 8.13683 1.70718 8.46108C1.75618 9.06905 1.84637 9.79319 1.94137 10.556C1.94766 10.6065 1.95398 10.6573 1.96031 10.7081C2.16465 12.3508 2.37919 14.1436 2.26158 15.3768L2.45246 15.4131C2.7896 14.2437 3.22369 12.3616 3.53908 10.6636C3.69679 9.81449 3.82514 9.00973 3.8968 8.36202C3.93262 8.03826 3.95446 7.75222 3.95851 7.51873C3.96251 7.28852 3.9496 7.09871 3.90996 6.97389Z" fill="black"/>
<path d="M2.50684 15.1099C3.01624 12.9002 3.93318 5.89986 3.95865 4.70973C3.98412 3.5196 4.37093 1.60098 6.18951 1.72268C8.00809 1.84438 7.88753 4.83959 7.63521 6.67629C7.39782 8.41338 3.77628 13.5791 2.50684 15.1099Z" fill="#9D78EB"/>
<path fill-rule="evenodd" clip-rule="evenodd" d="M4.48775 2.77031C4.1711 3.36373 4.06883 4.12297 4.05622 4.71184C4.04334 5.31377 3.80672 7.36782 3.51092 9.54069C3.24713 11.4785 2.93482 13.5213 2.68889 14.7285C3.36019 13.8765 4.41744 12.4074 5.37603 10.9176C5.92205 10.0689 6.43495 9.21527 6.82581 8.46639C7.21866 7.71369 7.48176 7.07867 7.53856 6.66306L7.53857 6.66299C7.66439 5.7471 7.75587 4.55106 7.59273 3.57245C7.51114 3.08305 7.36723 2.65688 7.13958 2.34771C6.91466 2.04225 6.60666 1.8485 6.18302 1.82015C5.74666 1.79095 5.40213 1.88418 5.12872 2.05375C4.85439 2.2239 4.64541 2.47484 4.48775 2.77031ZM5.02594 1.88769C5.33733 1.69456 5.72312 1.59359 6.19604 1.62524C6.6817 1.65774 7.0406 1.88404 7.29667 2.2318C7.55 2.57586 7.70116 3.0361 7.78522 3.5403C7.95336 4.5489 7.8584 5.7688 7.7319 6.68961C7.66998 7.14255 7.39138 7.80462 6.99877 8.55685C6.60416 9.31294 6.08783 10.1721 5.5401 11.0234C4.44495 12.7255 3.21988 14.403 2.58194 15.1723L2.31934 15.4889L2.41178 15.0879C2.66533 13.9881 3.02139 11.69 3.31756 9.51431C3.61395 7.33706 3.84853 5.29585 3.86112 4.70766C3.87399 4.1064 3.97785 3.31127 4.31562 2.67827C4.48517 2.36053 4.71547 2.08025 5.02594 1.88769Z" fill="black"/>
<path d="M2.80273 20.1586C2.80273 17.5047 5.22208 13.8265 11.7163 11.4147Z" fill="#9D78EB"/>
<path fill-rule="evenodd" clip-rule="evenodd" d="M11.8077 11.3807C11.8265 11.4313 11.8007 11.4875 11.7502 11.5063C5.27272 13.9119 2.90023 17.5645 2.90023 20.1586C2.90023 20.2126 2.85654 20.2563 2.80265 20.2563C2.74876 20.2563 2.70508 20.2126 2.70508 20.1586C2.70508 17.445 5.17128 13.7412 11.6823 11.3231C11.7328 11.3044 11.789 11.3302 11.8077 11.3807Z" fill="black"/>
<path d="M13.0418 39.1346H0.496781C0.288216 39.1346 0.119141 39.3039 0.119141 39.5127V41.5027C0.119141 41.7114 0.288216 41.8807 0.496781 41.8807H13.0418C13.2503 41.8807 13.4194 41.7114 13.4194 41.5027V39.5127C13.4194 39.3039 13.2503 39.1346 13.0418 39.1346Z" fill="#6F4FC9"/>
<path d="M13.0415 39.2536C13.1101 39.2537 13.1759 39.281 13.2244 39.3296C13.2729 39.3781 13.3002 39.444 13.3003 39.5126V41.5033C13.3002 41.572 13.2729 41.6378 13.2244 41.6863C13.1758 41.7348 13.1101 41.762 13.0415 41.762H0.496162C0.42762 41.762 0.361886 41.7348 0.313419 41.6863C0.264952 41.6377 0.237723 41.5719 0.237723 41.5033V39.513C0.237723 39.4443 0.264941 39.3785 0.313398 39.3299C0.361855 39.2814 0.427588 39.254 0.496162 39.2539H13.0415V39.2536ZM13.0415 39.016H0.496162C0.36454 39.0161 0.238341 39.0685 0.145302 39.1617C0.0522633 39.2549 -3.07895e-08 39.3812 0 39.513V41.5033C0 41.6351 0.0522743 41.7614 0.145323 41.8545C0.238371 41.9477 0.364571 42 0.496162 42H13.0415C13.1731 42 13.2994 41.9477 13.3925 41.8545C13.4856 41.7614 13.5379 41.6351 13.538 41.5033V39.513C13.5379 39.3812 13.4856 39.2548 13.3925 39.1617C13.2994 39.0685 13.1732 39.0161 13.0415 39.016V39.016Z" fill="black"/>
<path d="M1.31172 41.0072C1.09777 41.0072 0.943248 41.0072 0.886534 40.9585C0.82982 40.9099 0.8125 40.7791 0.8125 40.5074C0.8125 40.2715 0.823707 40.1043 0.880421 40.0553C0.937135 40.0064 1.09267 40.0081 1.31342 40.0081C1.44352 40.0115 1.56715 40.0656 1.65797 40.1589C1.74879 40.2522 1.79962 40.3773 1.79962 40.5076C1.79962 40.6379 1.74879 40.763 1.65797 40.8563C1.56715 40.9496 1.44352 41.0038 1.31342 41.0072H1.31172Z" fill="white"/>
<path d="M38.9665 20.7556L38.9664 20.7555V20.7581V35.9523H39.1164L38.9665 35.9549C38.9774 36.604 38.9232 37.2526 38.8049 37.8899C38.7168 38.3293 38.6028 38.7626 38.4637 39.1873C38.342 39.5399 38.2293 39.8339 38.1216 40.069C38.0086 40.3078 37.9478 40.5695 37.9434 40.8353C37.9354 41.0516 38.0056 41.2641 38.1414 41.4304L38.1422 41.4313C38.2514 41.5628 38.3877 41.6676 38.5416 41.7377C38.7213 41.8264 38.9188 41.8704 39.1182 41.8658H45.2503C46.7636 41.882 48.2673 41.614 49.6897 41.0747L49.6907 41.0743C51.0414 40.5514 52.2602 39.7153 53.2557 38.6295L53.257 38.6281C54.3233 37.4357 55.1314 36.0181 55.6267 34.4717C56.1937 32.7988 56.4753 30.8223 56.4753 28.5454C56.4753 26.1685 56.1939 24.1161 55.6272 22.3911C55.1379 20.8076 54.3304 19.3511 53.2583 18.119L53.2583 18.119L53.257 18.1175C52.2693 17.0128 51.0484 16.163 49.6908 15.6362L49.6898 15.6358C48.2678 15.0948 46.7639 14.8261 45.2504 14.8425H39.1164C38.7574 14.8425 38.4601 14.9191 38.2514 15.0984C38.0383 15.2814 37.9433 15.5487 37.9433 15.8711H37.9433L37.9434 15.8736C37.9478 16.1393 38.0086 16.4008 38.1216 16.6394C38.2293 16.8745 38.342 17.1685 38.4637 17.521C38.6026 17.9458 38.7165 18.3792 38.8049 18.8185C38.9232 19.4565 38.9774 20.1057 38.9665 20.7556ZM44.5625 40.3069L44.5619 40.3069C44.5118 40.3071 44.4711 40.2927 44.4339 40.263C44.3943 40.2313 44.3523 40.1768 44.3136 40.0879C44.2352 39.9077 44.1845 39.6203 44.1722 39.212C44.1472 38.3859 44.1347 37.2995 44.1347 35.9523V20.7581C44.1347 19.409 44.1485 18.3211 44.1722 17.4961C44.1839 17.0886 44.2347 16.802 44.3141 16.6222C44.3532 16.5336 44.3958 16.4789 44.4365 16.4468C44.4749 16.4165 44.5176 16.4015 44.5704 16.4015H45.265C45.609 16.4015 46.0901 16.5799 46.7194 16.9721C47.3287 17.3519 47.9424 18.0003 48.5573 18.9303C49.1609 19.8546 49.6887 21.0994 50.1374 22.6701C50.5835 24.2317 50.8084 26.1895 50.8084 28.5475C50.8032 30.8045 50.5822 32.6852 50.1493 34.1931C49.7139 35.7097 49.1956 36.9157 48.5975 37.8165C47.9922 38.7225 47.3793 39.359 46.7618 39.7378C46.1263 40.1277 45.6278 40.3069 45.2571 40.3069H44.5625Z" fill="#F1F1F1" stroke="#0C0C0C" stroke-width="0.3"/>
<path d="M70.2601 22.7197L70.2601 22.7196L70.2584 22.719C69.0375 22.2276 67.7321 21.9878 66.4186 22.0138C65.1051 21.9878 63.7998 22.2276 62.5788 22.719L62.5788 22.719L62.5771 22.7197C61.501 23.1688 60.5427 23.8651 59.7777 24.7536L59.7777 24.7536L59.7768 24.7546C59.0015 25.6721 58.4178 26.7393 58.061 27.8918L58.061 27.8918L58.0604 27.8937C57.2838 30.5277 57.2838 33.3343 58.0604 35.9682L58.0609 35.9696C58.4146 37.129 58.9985 38.203 59.7767 39.1256L59.7777 39.1267C60.5429 40.0146 61.5012 40.7102 62.5771 41.1586L62.5771 41.1587L62.5815 41.1603C65.0552 42.1019 67.782 42.1019 70.2558 41.1603L70.2558 41.1604L70.2601 41.1586C71.3364 40.7108 72.2948 40.015 73.0596 39.1267L73.0605 39.1256C73.8394 38.2032 74.424 37.1292 74.7784 35.9697L74.7789 35.9681C75.5528 33.3339 75.5528 30.5281 74.7789 27.8939L74.7789 27.8939L74.7782 27.8917C74.4207 26.7392 73.8364 25.6719 73.0604 24.7546L73.0596 24.7536C72.295 23.8647 71.3366 23.1682 70.2601 22.7197ZM63.2329 31.7532L63.2187 31.756C63.2114 30.55 63.3081 29.3456 63.5078 28.1564L63.5078 28.1563C63.6581 27.257 63.9163 26.3797 64.2768 25.5441L64.2769 25.5441L64.2779 25.5416C64.5126 24.9689 64.8668 24.4548 65.3161 24.0346L65.3162 24.0347L65.3219 24.0288C65.4623 23.8823 65.6301 23.766 65.8153 23.6866C66.0006 23.6072 66.1996 23.5664 66.4006 23.5664C66.6016 23.5664 66.8006 23.6072 66.9858 23.6866C67.171 23.766 67.3388 23.8823 67.4792 24.0288L67.479 24.029L67.4849 24.0345C67.9341 24.4555 68.289 24.9695 68.5254 25.5419L68.5254 25.5419L68.5262 25.5439C68.8858 26.3797 69.144 27.2567 69.2952 28.1556C69.6863 30.6624 69.6863 33.2161 69.2952 35.7229C69.1458 36.6294 68.8875 37.514 68.5261 38.3568L68.5254 38.3587C68.289 38.9311 67.9341 39.4452 67.4849 39.8662L67.4848 39.866L67.4792 39.8718C67.3388 40.0183 67.171 40.1346 66.9858 40.214C66.8006 40.2934 66.6016 40.3342 66.4006 40.3342C66.1996 40.3342 66.0006 40.2934 65.8153 40.214C65.6301 40.1346 65.4623 40.0183 65.3219 39.8718L65.322 39.8717L65.3173 39.8672C64.8732 39.4423 64.5249 38.9249 64.2966 38.3504L64.2966 38.3504L64.295 38.3465C63.9327 37.5039 63.6744 36.6191 63.526 35.7122L63.5258 35.7114C63.3144 34.4656 63.2157 33.2029 63.2307 31.9389L63.2329 31.7532Z" fill="#F1F1F1" stroke="#0C0C0C" stroke-width="0.3"/>
<path d="M81.5633 13.5383C81.2788 13.5399 80.9978 13.6015 80.7396 13.719C80.4935 13.8238 80.2641 13.963 80.0585 14.1324L77.5022 16.1842C77.1229 16.4735 76.8386 16.7527 76.6582 17.0228C76.4771 17.2941 76.3938 17.5675 76.4404 17.8353C76.5223 18.3058 76.865 18.8358 77.4302 19.4223L93.807 39.1815C93.6384 38.9848 93.499 38.766 93.3927 38.5315C93.2788 38.2189 93.0806 37.7194 92.8103 37.0382L92.7732 36.9446L92.7725 36.943C92.435 36.1201 92.029 35.3259 91.5586 34.5682C91.0137 33.6846 90.358 32.8714 89.6069 32.1474C88.8976 31.4603 88.0553 30.9217 87.1314 30.5619C87.7271 30.3639 88.3108 30.1324 88.8795 29.8687C89.5774 29.5463 90.2389 29.1531 90.853 28.6955L90.8534 28.6952C91.4582 28.2418 91.99 27.7018 92.4308 27.0932L92.4312 27.0926C92.8796 26.4671 93.2096 25.7675 93.4051 25.0274C93.4929 24.7926 93.5974 24.5642 93.7181 24.3438L93.719 24.3421C93.8302 24.1323 93.8827 23.8972 93.8708 23.6608C93.8696 23.3995 93.7534 23.1926 93.5298 23.0597C93.3172 22.9333 93.0179 22.8796 92.6523 22.8796H90.3657C90.1363 22.87 89.9073 22.9053 89.6919 22.9834C89.5572 23.0312 89.4381 23.1143 89.3477 23.2239C89.2892 23.2788 89.242 23.3444 89.2088 23.4172C89.1739 23.4939 89.1553 23.5769 89.1544 23.6611L89.1541 23.6611L89.1545 23.6697C89.1665 23.9316 89.2443 24.1864 89.3809 24.4114C89.5064 24.6436 89.5475 24.9103 89.498 25.1681L89.4977 25.1681L89.4964 25.1787C89.4256 25.7721 89.2498 26.3491 88.9768 26.8838C88.69 27.4333 88.2814 27.9134 87.7805 28.289C87.1605 28.7469 86.4657 29.099 85.7256 29.3303L85.725 29.3306C84.7795 29.6308 83.8068 29.8412 82.8204 29.9589V15.2948C82.8204 14.6684 82.7147 14.1923 82.4576 13.9217C82.3447 13.799 82.2066 13.7014 82.0526 13.6354C81.8983 13.5692 81.7315 13.5362 81.5633 13.5383ZM81.5633 13.5383C81.5635 13.5383 81.5637 13.5383 81.5639 13.5383L81.5647 13.6883L81.5627 13.5383C81.5629 13.5383 81.5631 13.5383 81.5633 13.5383Z" fill="#F1F1F1" stroke="#0C0C0C" stroke-width="0.3"/>
<path d="M100.509 22.8814L100.511 22.8814C100.674 22.8829 100.834 22.9238 100.978 23.0005C101.12 23.0765 101.242 23.1856 101.332 23.3185C101.445 23.4675 101.522 23.6679 101.571 23.9083C101.622 24.1519 101.646 24.446 101.646 24.7882V36.0779V36.0806L101.646 36.0806C101.634 36.7153 101.691 37.3494 101.813 37.9726C101.905 38.4023 102.023 38.8261 102.167 39.2416C102.294 39.5865 102.411 39.874 102.522 40.1039L100.509 22.8814ZM100.509 22.8814C100.194 22.8827 99.8843 22.967 99.6131 23.1257C99.3552 23.2681 99.1124 23.4359 98.8886 23.6264L96.3495 25.6803C96.3493 25.6805 96.349 25.6807 96.3487 25.6809C95.9747 25.9753 95.6952 26.2582 95.5206 26.5293C95.3462 26.8001 95.2688 27.072 95.325 27.3345C95.406 27.8045 95.7467 28.333 96.3087 28.9172L96.3087 36.0718L96.3087 36.0745C96.32 36.7092 96.2639 37.3433 96.1412 37.9664C96.0492 38.3963 95.9303 38.8202 95.7851 39.2356C95.6605 39.5797 95.5428 39.8668 95.4322 40.098C95.3136 40.3324 95.2501 40.5901 95.2463 40.8521C95.2371 41.0674 95.3113 41.2778 95.4535 41.4406C95.4536 41.4407 95.4538 41.4408 95.4539 41.441L95.5668 41.3422L100.509 22.8814ZM98.9817 13.5388L98.8344 13.5416V13.5469C98.4006 13.5624 97.9732 13.66 97.5759 13.8348L97.5754 13.8351C97.15 14.0242 96.7626 14.2874 96.4318 14.6119L96.4314 14.6123C96.1024 14.9371 95.8401 15.3217 95.6591 15.7448L95.797 15.8038L95.6591 15.7447C95.4708 16.1833 95.3758 16.6554 95.3798 17.1318C95.3774 17.599 95.469 18.0619 95.6494 18.4939C95.8299 18.9262 96.0956 19.3188 96.4311 19.6489C96.7665 19.9791 97.165 20.2403 97.6034 20.4176C98.0415 20.5947 98.5109 20.6845 98.9843 20.6818C99.4666 20.6855 99.9447 20.5928 100.39 20.4094C100.816 20.2342 101.201 19.9747 101.521 19.6469L101.521 19.6466C101.84 19.3185 102.095 18.9352 102.273 18.5159L102.273 18.5147C102.545 17.8597 102.619 17.1411 102.485 16.4458C102.352 15.7507 102.017 15.1087 101.522 14.597C101.197 14.255 100.803 13.9842 100.366 13.8019C99.9283 13.6196 99.4567 13.53 98.9817 13.5388Z" fill="#F1F1F1" stroke="#0C0C0C" stroke-width="0.3"/>
</svg>
