<svg width="745" height="1207" viewBox="0 0 745 1207" fill="none" xmlns="http://www.w3.org/2000/svg">
<g clip-path="url(#clip0_199:929)">
<path d="M35.6333 1127.76C35.6333 1119.46 35.7413 1105.24 35.8297 1086.22C36.3895 971.441 37.7057 702.648 35.6234 624.408C32.9617 524.865 69.2433 440.614 92.7763 410.795C185.926 301.253 225.478 198.399 254.383 123.263C282.415 50.3758 299.328 6.38416 343.86 6.38416C346.148 6.38416 348.545 6.50202 350.981 6.72792C384.443 9.83159 406.739 26.3027 417.238 55.6795C429.319 89.486 425.321 141.247 406.277 197.692C389.423 247.626 362.217 295.998 336.965 320.926L314.925 342.691L343.762 331.416C378.737 317.753 412.573 310.79 444.317 310.79C517.508 310.79 565.409 346.551 595.081 373.443C627.001 402.388 644.789 440.614 642.657 475.707C641.135 500.88 629.447 521.869 608.87 536.415C602.084 541.208 593.755 543.634 584.1 543.634C536.887 543.634 469.755 487.149 450.387 457.615C449.634 456.48 448.613 455.547 447.413 454.901C446.214 454.255 444.874 453.916 443.511 453.912C442.234 453.907 440.975 454.218 439.847 454.818C438.719 455.418 437.758 456.288 437.049 457.35C405.511 504.838 355.616 545.451 315.72 556.206C314.039 556.673 312.592 557.75 311.662 559.226C310.732 560.703 310.386 562.473 310.692 564.191C311.9 571.626 310.328 578.207 308.167 587.321C305.362 598.216 303.534 609.339 302.707 620.558C302.598 622.084 302.972 623.604 303.776 624.905C304.58 626.206 305.773 627.221 307.185 627.807C326.22 635.733 356.942 663.666 363.572 708.129C363.753 709.408 364.29 710.611 365.122 711.599C365.955 712.587 367.049 713.32 368.279 713.715C369.51 714.11 370.826 714.15 372.078 713.831C373.33 713.511 374.467 712.846 375.358 711.91C388.794 697.954 450.789 665.129 492.365 665.129C498.211 665.01 504.037 665.867 509.602 667.663C510.598 668.018 511.659 668.151 512.712 668.053C513.765 667.955 514.784 667.629 515.697 667.097C516.611 666.565 517.397 665.84 518.002 664.972C518.607 664.105 519.015 663.116 519.198 662.075C525.307 628.042 552.994 597.487 575.182 577.853C604.382 551.973 636.411 533.852 654.954 526.201C660.377 524.028 666.173 522.943 672.015 523.009C687.729 523.009 704.426 530.159 716.615 542.131C726.633 551.983 738.596 569.662 738.596 598.037C738.596 631.618 710.241 670.423 671.013 724.129C660.209 738.95 648.992 754.272 637.245 771.037C587.862 841.626 470.462 895.97 414.017 922.086C408.821 924.492 404.195 926.634 400.266 928.5C380.367 937.909 367.226 958.427 361.205 989.483C356.589 1013.3 357.532 1037.08 357.885 1046.03C357.944 1047.42 357.993 1048.63 357.993 1049.19V1127.76H35.6333Z" fill="#9D78EB"/>
<path d="M343.821 12.7683C345.922 12.7683 348.113 12.8763 350.352 13.0826C381.556 15.98 401.425 30.6144 411.188 57.8305C417.209 74.7043 419.114 95.88 416.845 120.778C414.753 143.673 408.988 169.563 400.148 195.649C383.589 244.758 357.001 292.099 332.378 316.388L288.279 359.909L345.991 337.368C380.22 323.99 413.27 317.204 444.209 317.204C515.191 317.204 561.795 352.022 590.681 378.207C605.875 391.957 618.083 408.389 626.039 425.665C633.671 442.313 637.187 459.501 636.224 475.354C634.82 498.523 624.065 517.842 605.128 531.23C599.363 535.306 592.458 537.28 584.041 537.28C564.506 537.28 538.341 526.338 510.378 506.459C483.987 487.709 463.892 466.671 455.681 454.148C454.356 452.121 452.547 450.457 450.417 449.306C448.287 448.155 445.903 447.554 443.482 447.558C441.151 447.55 438.854 448.12 436.798 449.217C434.741 450.314 432.988 451.904 431.696 453.844C415.619 477.894 395.916 499.31 373.286 517.332C352.66 533.675 331.651 545.284 314.041 550.038C310.829 550.911 308.058 552.949 306.268 555.755C304.477 558.56 303.796 561.932 304.357 565.213C305.339 571.391 303.993 577.136 301.921 585.838C299.035 597.072 297.155 608.54 296.303 620.107C296.106 622.965 296.81 625.813 298.316 628.25C299.823 630.686 302.056 632.589 304.701 633.69C312.165 636.804 323.922 644.73 334.529 657.685C346.599 672.445 354.443 690.2 357.227 709.062C357.593 711.517 358.638 713.82 360.245 715.71C361.853 717.601 363.957 719.004 366.32 719.761C368.684 720.517 371.211 720.597 373.618 719.99C376.024 719.384 378.212 718.116 379.935 716.33C385.406 710.653 403.301 699.221 425.705 689.222C451.31 677.79 474.971 671.543 492.335 671.543C497.467 671.421 502.582 672.158 507.471 673.724C509.341 674.382 511.333 674.626 513.308 674.437C515.282 674.249 517.192 673.633 518.904 672.632C520.616 671.631 522.09 670.269 523.223 668.641C524.356 667.013 525.121 665.158 525.464 663.205C535.964 604.667 616.532 548.938 657.331 532.104C661.991 530.249 666.97 529.328 671.985 529.393C686.05 529.393 701.048 535.856 712.127 546.689C721.29 555.666 732.232 571.862 732.232 598.037C732.232 629.536 702.943 669.618 665.876 720.367C655.072 735.208 643.816 750.559 632.04 767.384C611.414 796.849 575.319 827.297 524.855 857.744C482.229 883.477 439.563 903.219 411.335 916.282C406.061 918.727 401.514 920.839 397.516 922.725C375.682 933.048 361.352 955.137 354.919 988.256C350.165 1012.81 351.128 1037.12 351.491 1046.27C351.54 1047.49 351.59 1048.75 351.59 1049.22V1121.41H42.0471C42.0471 1112.77 42.1453 1100.7 42.214 1086.28C42.7739 971.47 44.09 702.609 41.998 624.271C40.5934 571.332 50.7786 525.562 59.5789 496.49C69.7935 462.723 84.0351 432.236 97.7168 414.871C191.524 304.475 231.273 201.081 260.277 125.552C274.42 88.7691 285.587 59.7458 298.965 39.9156C311.861 20.8909 325.267 12.7683 343.821 12.7683ZM343.821 0C245.407 0 271.729 190.542 87.8263 406.749C60.5513 441.223 26.6858 529.039 29.2297 624.585C31.7735 720.131 29.2297 1103.57 29.2297 1134.15H364.387V1049.19C364.387 1040.49 357.011 956.03 403.007 934.275C449.002 912.52 587.42 853.432 642.53 774.701C697.64 695.97 745 643.325 745 598.037C745 545.343 705.487 516.625 671.985 516.625C665.309 516.564 658.686 517.812 652.489 520.298C609.48 538.046 524.502 596.417 512.932 660.946C512.893 661.155 512.783 661.346 512.62 661.483C512.457 661.621 512.251 661.699 512.038 661.702C511.93 661.701 511.824 661.681 511.724 661.643C505.481 659.604 498.941 658.624 492.375 658.745C448.697 658.745 384.993 692.709 370.772 707.481C370.724 707.53 370.668 707.569 370.606 707.596C370.543 707.623 370.476 707.637 370.408 707.638C370.281 707.639 370.158 707.594 370.062 707.511C369.966 707.428 369.904 707.312 369.888 707.186C362.727 659.138 329.265 630.086 309.641 621.914C309.46 621.841 309.307 621.712 309.204 621.546C309.102 621.38 309.055 621.185 309.071 620.991C311.104 591.319 319.639 579.484 316.997 563.17C316.951 563.012 316.964 562.843 317.035 562.694C317.105 562.545 317.229 562.428 317.38 562.365C355.774 552.022 407.662 513.099 442.362 460.916C442.487 460.727 442.658 460.573 442.86 460.47C443.061 460.367 443.285 460.317 443.511 460.326C443.812 460.329 444.108 460.405 444.373 460.547C444.638 460.689 444.864 460.893 445.034 461.141C464.726 491.196 533.606 550.019 584.08 550.019C594.56 550.019 604.244 547.485 612.564 541.631C668.832 501.862 657.095 421.039 599.373 368.768C571.872 343.83 521.693 304.455 444.327 304.455C414.243 304.455 380.033 310.417 341.454 325.493C412.602 255.209 495.203 13.7505 351.541 0.363405C348.889 0.121135 346.319 0 343.83 0H343.821Z" fill="black"/>
<path d="M70.0488 449.385C76.9044 377.372 43.2158 235.938 53.0376 202.328C62.8593 168.718 99.8873 169.091 110.446 202.328C118.362 227.403 89.437 382.066 70.0488 449.385Z" fill="#9D78EB" stroke="black" stroke-width="13" stroke-miterlimit="10" stroke-linecap="round"/>
<path d="M72.4944 436.567C87.227 372.775 113.746 170.466 114.482 136.08C115.219 101.694 126.416 46.2605 179.041 49.7767C231.666 53.2929 228.15 139.832 220.852 192.899C213.947 243.089 109.218 392.34 72.4944 436.567Z" fill="#9D78EB" stroke="black" stroke-width="13" stroke-miterlimit="10" stroke-linecap="round"/>
<path d="M81.0786 582.43C81.0786 505.752 142.779 406.267 330.6 336.582Z" fill="#9D78EB"/>
<path d="M81.0786 582.43C81.0786 505.752 142.779 406.267 330.6 336.582" stroke="black" stroke-width="13" stroke-miterlimit="10" stroke-linecap="round"/>
<path d="M378.776 1200.61C378.504 1200.61 378.232 1200.59 377.961 1200.56H377.568H13.9666H13.5737C13.3031 1200.59 13.0309 1200.61 12.7585 1200.61C11.927 1200.61 11.105 1200.44 10.3454 1200.1C9.58588 1199.76 8.90564 1199.26 8.34856 1198.65C7.06155 1197.25 6.35887 1195.4 6.38421 1193.5V1136C6.38681 1133.89 7.22789 1131.86 8.72298 1130.37C10.2181 1128.87 12.2451 1128.03 14.3595 1128.03H377.156C379.27 1128.03 381.297 1128.87 382.792 1130.37C384.287 1131.86 385.128 1133.89 385.131 1136V1193.5C385.151 1197.5 382.351 1200.61 378.776 1200.61Z" fill="#6F4FC9"/>
<path d="M377.155 1134.41C377.577 1134.42 377.98 1134.58 378.278 1134.88C378.576 1135.18 378.744 1135.58 378.747 1136V1193.5C378.755 1193.74 378.698 1193.98 378.58 1194.19L377.941 1194.11H13.554L12.9451 1194.19C12.8272 1193.98 12.7695 1193.74 12.7781 1193.5V1136C12.7807 1135.58 12.9492 1135.18 13.247 1134.88C13.5448 1134.58 13.948 1134.42 14.3692 1134.41H377.155ZM377.155 1121.64H14.3594C12.4721 1121.64 10.6032 1122.02 8.85977 1122.74C7.11633 1123.46 5.53249 1124.52 4.19884 1125.86C2.86518 1127.19 1.80789 1128.78 1.08742 1130.52C0.366944 1132.27 -0.00256845 1134.14 1.34373e-05 1136.02V1193.52C1.34373e-05 1200.92 5.57877 1207 12.7683 1207C13.3035 1207 13.8382 1206.96 14.3692 1206.9H377.155C377.687 1206.96 378.221 1207 378.756 1207C385.936 1207 391.525 1200.92 391.525 1193.52V1136.02C391.526 1134.14 391.155 1132.27 390.434 1130.52C389.712 1128.78 388.654 1127.19 387.32 1125.86C385.985 1124.52 384.401 1123.46 382.657 1122.74C380.913 1122.02 379.043 1121.64 377.155 1121.64V1121.64Z" fill="black"/>
<path d="M37.0575 1179.79C32.5199 1179.79 28.3555 1179.7 27.2358 1178.52C25.4089 1176.56 25.4089 1168.06 25.4089 1164.86C25.4089 1158.47 25.6447 1151.72 27.3733 1150.2C29.1019 1148.67 34.6905 1148.78 41.8997 1148.78C44.045 1148.75 46.1763 1149.14 48.1715 1149.92C50.1667 1150.71 51.9867 1151.89 53.5275 1153.38C55.0682 1154.88 56.2994 1156.66 57.1507 1158.63C58.002 1160.6 58.4566 1162.72 58.4886 1164.86C58.4886 1173.37 51.3777 1179.78 41.9586 1179.78L37.0575 1179.79Z" fill="white"/>
<path d="M41.9585 1153.69C44.9788 1153.64 47.8979 1154.78 50.0759 1156.88C52.2539 1158.97 53.5131 1161.84 53.5776 1164.86C53.5776 1169.83 49.5802 1174.87 41.9585 1174.87H37.0476C35.7315 1174.87 32.6867 1174.87 30.9188 1174.66C30.4256 1171.41 30.2316 1168.13 30.3393 1164.84C30.3393 1158.35 30.6635 1155.38 30.9581 1154.04C34.6111 1153.7 38.2812 1153.58 41.9487 1153.67L41.9585 1153.69ZM41.9487 1143.85C23.1793 1143.85 20.5176 1143.85 20.5176 1164.84C20.5176 1183.75 23.3855 1184.68 37.0476 1184.68H41.9585C53.8035 1184.68 63.3994 1176.44 63.3994 1164.85C63.3699 1162.06 62.7919 1159.31 61.6983 1156.75C60.6048 1154.19 59.0173 1151.86 57.0263 1149.92C55.0353 1147.97 52.6798 1146.43 50.0945 1145.39C47.5091 1144.35 44.7445 1143.83 41.9585 1143.86L41.9487 1143.85Z" fill="black"/>
</g>
<defs>
<clipPath id="clip0_199:929">
<rect width="745" height="1207" fill="white"/>
</clipPath>
</defs>
</svg>
